<?xml version="1.0" encoding="UTF-8" standalone="no"?>
<!-- Created with Inkscape (http://www.inkscape.org/) -->

<svg
   xmlns:dc="http://purl.org/dc/elements/1.1/"
   xmlns:cc="http://creativecommons.org/ns#"
   xmlns:rdf="http://www.w3.org/1999/02/22-rdf-syntax-ns#"
   xmlns:svg="http://www.w3.org/2000/svg"
   xmlns="http://www.w3.org/2000/svg"
   xmlns:sodipodi="http://sodipodi.sourceforge.net/DTD/sodipodi-0.dtd"
   xmlns:inkscape="http://www.inkscape.org/namespaces/inkscape"
   width="53.008808mm"
   height="58.176357mm"
   viewBox="0 0 187.82648 206.1367"
   id="svg4145"
   version="1.1"
   inkscape:version="0.91 r"
   sodipodi:docname="awesome-features.svg">
  <defs
     id="defs4147" />
  <sodipodi:namedview
     id="base"
     pagecolor="#ffffff"
     bordercolor="#666666"
     borderopacity="1.0"
     inkscape:pageopacity="0.0"
     inkscape:pageshadow="2"
     inkscape:zoom="2.8"
     inkscape:cx="106.80347"
     inkscape:cy="29.182501"
     inkscape:document-units="px"
     inkscape:current-layer="layer1"
     showgrid="false"
     inkscape:window-width="1366"
     inkscape:window-height="716"
     inkscape:window-x="0"
     inkscape:window-y="0"
     inkscape:window-maximized="1"
     fit-margin-top="0"
     fit-margin-left="0"
     fit-margin-right="0"
     fit-margin-bottom="0" />
  <metadata
     id="metadata4150">
    <rdf:RDF>
      <cc:Work
         rdf:about="">
        <dc:format>image/svg+xml</dc:format>
        <dc:type
           rdf:resource="http://purl.org/dc/dcmitype/StillImage" />
        <dc:title></dc:title>
        <dc:title></dc:title>
      </cc:Work>
    </rdf:RDF>
  </metadata>
  <g
     inkscape:label="Layer 1"
     inkscape:groupmode="layer"
     id="layer1"
     transform="translate(-23.230125,-359.07579)">
    <circle
       style="display:inline;fill:#8e2939"
       cx="110.33212"
       cy="469.32404"
       r="87.101997"
       id="circle90" />
    <g
       style="display:inline"
       transform="translate(-309.4149,188.20906)"
       id="g92">
      <path
         style="fill:#fbe4af"
         inkscape:connector-curvature="0"
         d="m 451.771,314.715 c 0.318,-1.745 3.347,-3.177 4.115,-4.868 0.313,-0.685 1.139,-0.614 1.597,-0.178 0.039,0.025 0.076,0.044 0.11,0.08 4.521,4.667 8.052,9.816 13.29,13.836 6.804,5.202 15.814,4.347 20.148,-3.361 3.742,-6.653 -0.396,-16.769 -2.396,-23.502 -1.845,-6.201 -5.059,-12.359 -6.371,-18.678 -0.531,-0.166 -0.581,-1.112 0.052,-1.253 2.709,-0.608 5.415,-0.79 7.977,-1.916 0.433,-0.188 0.911,-0.131 1.171,0.304 2.846,4.789 4.358,10.118 6.275,15.31 2.17,5.892 4.241,11.536 4.976,17.82 1.101,9.371 -0.962,21.433 -10.526,25.744 -4.064,1.831 -8.982,3.886 -13.562,3.121 -5.418,-0.904 -10.453,-3.4 -14.774,-6.758 -3.952,-3.067 -7.722,-7.401 -10.563,-11.509 -1.01,-1.454 -1.841,-2.46 -1.519,-4.192 z"
         id="path94" />
      <path
         style="fill:#e18b56"
         inkscape:connector-curvature="0"
         d="m 441.998,289.965 c 1.861,-3.336 4.942,-2.063 7.449,0 3.716,2.252 7.768,7.03 9.818,9.93 1.635,2.134 2.986,4.633 4.357,6.706 1.583,2.396 4.057,6.451 2.329,9.26 -1.879,3.046 -7.122,5.15 -10.297,6.393 -1.864,0.728 -4.637,2.123 -7.075,2.261 -0.719,0.167 -1.454,0.292 -2.216,0.346 -6.13,0.459 -5.396,-8.988 -5.878,-12.729 -0.885,-6.874 -2.036,-15.801 1.513,-22.167 z"
         id="path96" />
      <path
         style="fill:#f5a15e"
         inkscape:connector-curvature="0"
         d="m 356.994,338.97 c 5.073,-3.976 10.077,-7.822 14.723,-12.31 4.266,-4.118 8.505,-8.303 12.508,-12.678 4.121,-4.505 7.417,-9.67 11.427,-14.281 6.496,-7.465 13.33,-14.99 23.688,-15.715 5.227,-0.367 9.931,-0.577 15.093,0.495 3.652,0.755 9.462,2.191 11.516,5.715 5.621,9.633 3.163,20.539 -1.39,30.157 -4.461,9.414 -12.216,16.575 -20.572,22.457 -2.089,1.47 -4.188,2.948 -6.498,4.028 -0.083,0.1 -0.186,0.195 -0.327,0.256 -0.365,0.153 -0.732,0.256 -1.102,0.347 -0.056,0.019 -0.107,0.046 -0.163,0.063 -0.071,0.028 -0.131,0.021 -0.192,0.004 -1.929,0.37 -3.936,0.059 -5.94,0.253 -2.262,0.221 -4.655,-0.015 -7.017,-0.187 -1.334,0.134 -2.666,0.259 -4.003,0.358 -6.721,0.495 -13.53,0.99 -20.269,1.129 -5.335,0.112 -11.044,-0.418 -16.327,-1.206 -2.644,-0.392 -5.236,-0.857 -7.903,-1.048 -0.902,-0.062 -2.333,-0.376 -2.654,-1.378 -0.937,-2.935 3.591,-5.038 5.402,-6.459 z"
         id="path98" />
      <path
         style="fill:#fcce9a"
         inkscape:connector-curvature="0"
         d="m 424.113,311.232 c -10.496,-1.005 -20.411,-3.59 -30.368,-6.976 -0.464,-0.158 -0.929,-0.323 -1.392,-0.49 1.066,-1.382 2.153,-2.746 3.299,-4.065 1.576,-1.81 3.171,-3.62 4.83,-5.336 7.292,2.333 14.647,4.386 22.25,5.493 8.681,1.265 17.659,1.893 26.424,1.206 0.183,3.392 -0.285,6.819 -1.184,10.188 -7.912,1.015 -15.839,0.75 -23.859,-0.02 z m -14.816,16.838 c -9.918,-2.348 -19.455,-5.963 -28.666,-10.278 1.214,-1.252 2.416,-2.521 3.594,-3.81 1.433,-1.57 2.77,-3.223 4.069,-4.899 7.303,3.248 14.731,5.907 22.507,8.018 9.308,2.522 19.049,3.021 28.642,3.428 1.677,0.067 3.349,0.052 5.021,0.007 -1.87,3.893 -4.299,7.396 -7.1,10.584 -9.365,0.228 -19.037,-0.912 -28.067,-3.05 z m -39.782,2.317 c -0.359,-0.24 -0.714,-0.477 -1.069,-0.717 1.107,-0.975 2.2,-1.974 3.271,-3.01 1.848,-1.779 3.684,-3.578 5.507,-5.397 5.658,3.608 11.506,6.971 17.812,9.273 7.278,2.661 14.898,4.516 22.434,6.273 3.709,0.862 7.37,1.836 11.11,2.572 -1.498,1.189 -3.034,2.333 -4.593,3.428 -2.089,1.47 -4.188,2.948 -6.498,4.028 -0.083,0.1 -0.186,0.195 -0.327,0.256 -0.14,0.056 -0.279,0.102 -0.417,0.149 -7.9,-1.163 -15.762,-3.11 -23.389,-5.342 -8.581,-2.514 -16.406,-6.613 -23.841,-11.513 z"
         id="path100" />
      <path
         style="fill:#c69c6b"
         inkscape:connector-curvature="0"
         d="m 345.553,338.657 c 0.047,-0.031 0.105,-0.055 0.177,-0.065 10.589,-1.109 21.697,-0.2 32.345,-0.197 11.487,0.005 22.977,0 34.461,0.023 22.51,0.042 45.22,-0.811 67.71,0.155 0.224,-0.029 0.453,-0.035 0.652,-0.027 0.282,0.012 0.611,0.057 0.938,0.129 0.742,-0.013 1.583,0.04 2.04,0.646 0.428,0.557 0.726,1.126 0.961,1.722 0.837,1.68 1.104,3.929 1.092,5.392 -0.017,2.048 -0.207,4.353 -1.804,5.786 -1.062,0.957 -2.999,0.936 -4.69,0.82 -22.225,0.911 -44.663,0.085 -66.899,0.126 -10.962,0.021 -21.929,0.019 -32.892,0.021 -9.937,0.006 -20.264,0.765 -30.246,0.108 -1.447,0.096 -2.933,-0.019 -4.232,-0.247 -2.103,-0.376 -2.875,-1.593 -3.122,-3.618 -0.299,-2.472 -0.337,-10.714 3.509,-10.774 z"
         id="path102" />
      <path
         style="fill:#fbe4af"
         inkscape:connector-curvature="0"
         d="m 422.068,339.943 c 1.284,-0.929 2.506,-1.87 3.497,-3.083 0.104,0.006 0.213,0.007 0.315,0.015 7.182,-3.007 15.833,-1.894 20.336,5.29 0.088,0.046 0.169,0.099 0.312,0.24 0.231,0.231 0.376,0.64 0.44,0.949 0.169,0.821 -0.498,1.64 -1.346,1.513 0.298,0.797 0.19,1.801 -0.246,2.505 -0.521,0.846 -1.475,1.189 -2.427,1.158 -0.66,-0.028 -1.459,-0.263 -2.047,-0.693 -0.204,0.581 -0.669,1.107 -1.32,1.341 -1.463,0.533 -3.59,-0.55 -3.893,-2.117 -0.097,1 -0.61,1.736 -1.74,1.889 -2.205,0.309 -3.071,-2.512 -4.955,-3.123 -2.675,-0.863 -5.523,0.066 -8.172,-1.113 -0.509,0.028 -0.991,-0.245 -1.248,-0.777 -0.089,-0.175 -0.163,-0.369 -0.22,-0.573 -0.071,0 -0.145,-0.008 -0.217,-0.008 0.523,-1.317 1.524,-2.389 2.931,-3.413 z"
         id="path104" />
      <path
         style="fill:#e4ac60"
         inkscape:connector-curvature="0"
         d="m 422.546,345.201 c 2.427,-0.012 4.988,-0.255 7.245,0.761 0.592,0.266 1.117,0.77 1.641,1.153 0.032,0.021 0.061,0.042 0.093,0.069 1.149,1.673 4.307,1.562 2.711,-1.394 -0.835,-1.537 -2.61,-2.179 -3.998,-3.035 -0.093,-0.059 -0.062,-0.216 0.059,-0.212 2.152,0.104 7.354,3.643 4.833,6.163 -0.962,0.962 -2.371,0.75 -3.326,-0.009 -1.212,-0.964 -2.073,-2.012 -3.604,-2.559 -1.726,-0.617 -3.844,-0.356 -5.653,-0.601 -0.209,-0.023 -0.226,-0.336 -0.001,-0.336 z"
         id="path106" />
      <path
         style="fill:#e4ac60"
         inkscape:connector-curvature="0"
         d="m 439.392,344.389 c -1.6,-2.178 -3.604,-3.063 -5.817,-4.423 -0.064,-0.046 -0.039,-0.163 0.043,-0.159 1.837,0.189 3.693,1.434 5.052,2.613 1.184,1.029 3.243,3.423 2.753,5.154 -1.024,3.607 -5.96,2.521 -6.302,-0.872 -0.026,-0.233 0.314,-0.373 0.459,-0.194 0.688,0.854 1.249,1.82 2.328,2.238 1.464,0.57 2.987,-0.642 2.669,-2.35 -0.134,-0.701 -0.764,-1.438 -1.185,-2.007 z"
         id="path108" />
      <path
         style="fill:#e4ac60"
         inkscape:connector-curvature="0"
         d="m 442.446,342.51 c -2.064,-1.604 -4.386,-2.617 -6.493,-4.092 -0.066,-0.049 -0.052,-0.172 0.046,-0.166 2.176,0.117 4.447,1.566 6.207,2.754 1.308,0.896 3.324,2.285 3.873,3.855 1.154,3.324 -3.403,6.051 -5.271,2.84 -0.274,-0.469 0.329,-0.857 0.71,-0.55 0.447,0.435 0.99,0.716 1.616,0.844 2.052,0.076 2.473,-1.821 1.751,-3.174 -0.494,-0.926 -1.628,-1.676 -2.439,-2.311 z"
         id="path110" />
      <path
         style="fill:#e4ac60"
         inkscape:connector-curvature="0"
         d="m 438.002,335.811 c 1.378,0.503 2.73,0.809 3.994,1.582 1.324,0.812 2.381,1.974 3.452,3.079 1.034,1.064 3.536,4.559 0.649,5.062 -0.645,0.112 -0.922,-0.796 -0.274,-0.992 2.018,-0.605 -2.304,-5.077 -2.843,-5.594 -1.45,-1.398 -3.296,-2.08 -5.011,-3.067 -0.033,-0.02 -0.009,-0.084 0.033,-0.07 z"
         id="path112" />
      <path
         style="fill:#e18b56"
         inkscape:connector-curvature="0"
         d="m 434.433,284.481 c 2.285,0.472 5.413,1.21 7.94,2.564 -0.81,5.365 -6.077,9.425 -11.587,9.582 -6.951,0.193 -13.235,-3.684 -13.664,-11.12 -0.021,-0.36 -0.077,-0.776 -0.134,-1.216 0.765,-0.137 1.547,-0.248 2.352,-0.305 5.226,-0.367 9.931,-0.577 15.093,0.495 z"
         id="path114" />
      <path
         style="fill:#fbe4af"
         inkscape:connector-curvature="0"
         d="m 372.602,305.142 c 4.053,-2.781 15.517,-11.784 15.132,-0.647 0.31,0.781 -0.61,1.878 -1.632,1.404 -0.204,-0.092 -6.566,5.209 -7.072,5.673 -11.05,10.043 -11.088,15.68 -7.209,19.398 2.458,2.349 6.203,3.163 9.43,3.759 7.838,1.442 16.152,1.142 24.096,1.395 4.018,0.122 8.035,0.279 12.054,0.326 3.512,0.043 7.115,0.601 10.607,0.172 0.014,-0.018 0.027,-0.038 0.038,-0.056 0.108,-0.183 0.349,-0.116 0.409,0.054 0.346,0.118 0.313,0.689 -0.019,0.893 -0.345,2.341 -2.609,4.183 -4.238,5.836 0.011,0.171 -0.064,0.348 -0.287,0.449 -0.096,0.054 -0.198,0.082 -0.298,0.121 -0.1,0.071 -0.201,0.113 -0.305,0.123 -1.899,0.668 -4.133,0.389 -6.11,0.406 -3.317,0.04 -6.684,0.442 -10.006,0.608 -6.31,0.313 -12.669,0.655 -18.965,0.298 -10.404,-0.597 -24.266,-2.844 -28.493,-9.61 -6.049,-9.686 5.834,-25.781 12.868,-30.602 z"
         id="path116" />
      <path
         style="fill:#e18b56"
         inkscape:connector-curvature="0"
         d="m 372.917,295.788 c 0.975,-2.099 2.743,-3.3 4.828,-4.118 4.512,-1.777 9.271,-2.792 13.914,-4.151 4.226,-1.24 8.273,-2.536 12.638,-3.209 2.02,-0.308 5.004,-0.933 6.765,0.5 0.991,0.807 1.512,1.834 1.702,2.974 0.78,2.811 -0.615,7.042 -1.496,9.139 -3.002,7.145 -8.246,12.133 -15.084,15.583 -6.194,3.129 -12.074,2.043 -17.373,-2.14 -4.412,-3.477 -8.569,-8.806 -5.894,-14.578 z"
         id="path118" />
      <path
         style="fill:#fbe4af"
         inkscape:connector-curvature="0"
         d="m 468.605,270.582 c 2.339,-0.248 6.267,0.974 7.438,-2.365 0.847,-2.394 0.146,-4.858 -0.594,-7.154 -0.881,-2.734 -1.631,-6.112 -1.108,-8.991 0.702,-3.828 3.987,-5.037 6.18,-1.37 1.412,2.36 1.229,5.793 2.15,8.366 0.79,2.205 0.879,4.402 3.724,4.72 1.321,0.148 2.522,0.179 3.8,0.597 2.178,0.725 2.791,2.763 3.114,4.783 0.341,2.147 0.767,4.438 0.846,6.678 0.246,2.455 0.002,4.833 -1.23,6.829 -2.68,4.33 -9.449,3.637 -12.873,0.785 -1.214,-1.012 -2.245,-2.192 -3.385,-3.283 -1.859,-1.791 -5.002,-1.782 -7.384,-2.149 -1.848,-0.288 -4.238,-0.298 -5.666,-1.729 -3.225,-3.224 2.644,-5.47 4.988,-5.717 z"
         id="path120" />
      <path
         style="fill:#fbe4af"
         inkscape:connector-curvature="0"
         d="m 494.749,270.354 c -0.196,0.858 -0.657,2.344 -1.68,2.56 -0.307,0.063 -0.607,0.063 -0.907,0.027 -0.923,-0.305 -1.842,-1.03 -2.315,-1.777 -1.683,-2.664 -0.996,-7.069 0.752,-9.479 1.967,-2.718 4.056,-0.068 4.515,2.164 0.382,1.824 0.229,4.124 -0.229,6.249 -0.061,0.066 -0.114,0.148 -0.136,0.256 z"
         id="path122" />
      <path
         style="fill:#fbe4af"
         inkscape:connector-curvature="0"
         d="m 485.901,261.412 c 0.444,-1.569 1.612,-2.339 3.172,-1.713 1.84,0.734 2.272,3.052 1.799,4.794 0.014,0.247 0.025,0.488 0.046,0.713 0.143,1.532 0.159,3.194 -0.436,4.639 -1.024,2.511 -4.483,2.494 -5.376,-0.102 -0.976,-2.829 0.029,-5.616 0.795,-8.331 z"
         id="path124" />
      <path
         style="fill:#fbe4af"
         inkscape:connector-curvature="0"
         d="m 483.611,257.759 c 2.257,0 2.832,2.472 2.654,4.659 0.146,0.761 0.121,1.569 -0.016,2.39 -0.287,1.762 -0.633,4.292 -2.193,5.449 -1.043,0.771 -2.22,0.866 -3.352,0.231 -1.438,-0.81 -1.696,-2.988 -1.79,-4.442 -0.16,-2.514 1.398,-8.287 4.697,-8.287 z"
         id="path126" />
      <path
         style="fill:#be1639"
         inkscape:connector-curvature="0"
         d="m 380.273,171.867 c 5.823,1.35 10.628,5.179 12.558,10.839 0.955,2.805 0.401,5.374 -1.052,7.333 -0.219,0.5 -0.476,0.978 -0.756,1.438 0.128,1.028 0.184,2.078 0.285,3.122 0.325,3.461 0.352,7.457 -0.109,10.903 -0.107,0.807 -0.875,1.436 -1.684,0.966 -2.145,-1.236 -3.265,-4.13 -4.438,-6.168 -0.495,-0.862 -1.049,-1.723 -1.611,-2.592 -0.969,0.422 -1.964,0.779 -2.961,1.048 -6.7,1.826 -14.019,0.315 -20.534,-1.431 -5.793,-1.547 -8.61,-5.962 -9.301,-11.718 -1.851,-15.454 19.677,-16.045 29.603,-13.74 z m 127.166,22.094 c 5.819,1.353 10.623,5.182 12.558,10.841 0.956,2.806 0.398,5.378 -1.052,7.335 -1.97,4.492 -6.63,7.45 -11.277,8.715 -4.715,1.284 -9.74,0.916 -14.575,-0.026 -0.848,1.141 -1.672,2.296 -2.464,3.454 -1.543,2.253 -3.646,5.207 -5.959,6.71 -0.91,0.588 -1.836,-0.378 -1.67,-1.288 0.67,-3.628 1.778,-7.111 2.997,-10.59 0.002,-0.015 0.008,-0.028 0.01,-0.042 -5.029,-1.8 -7.53,-5.999 -8.171,-11.368 -1.853,-15.45 19.679,-16.039 29.603,-13.741 z m -136.808,54.043 c 5.825,1.353 10.627,5.179 12.555,10.837 0.739,2.172 0.571,4.199 -0.215,5.916 3.314,2.806 6.238,6.302 9.658,8.72 0.968,0.689 0.403,2.277 -0.829,1.964 -3.002,-0.764 -5.902,-1.813 -8.833,-2.807 -1.692,-0.572 -3.436,-0.825 -5.176,-1.111 -2.052,1.574 -4.49,2.708 -6.929,3.372 -6.701,1.825 -14.021,0.315 -20.535,-1.428 -5.796,-1.553 -8.611,-5.963 -9.3,-11.719 -1.852,-15.455 19.676,-16.047 29.604,-13.744 z"
         id="path128" />
      <path
         style="fill:#e8e8ec"
         inkscape:connector-curvature="0"
         d="m 492.429,205.459 c 0.992,-0.139 2.033,-0.149 3.073,-0.114 2.205,-0.397 4.611,-0.17 6.794,-0.17 1.567,0 3.887,-0.72 5.133,0.514 0.266,0.051 0.478,0.247 0.442,0.614 -0.268,2.581 -1.276,3.203 -3.77,3.268 -2.529,0.069 -5.066,0.177 -7.595,0.268 -1.676,0.062 -4.162,0.384 -5.729,-0.535 -1.719,-1.009 0.288,-3.648 1.652,-3.845 z m -136.808,53.639 c 0.992,-0.139 2.03,-0.15 3.071,-0.114 0.394,-0.071 0.794,-0.113 1.197,-0.153 0.01,-0.351 0.016,-0.7 0.016,-1.041 0,-1.566 -0.717,-3.885 0.515,-5.134 0.053,-0.264 0.247,-0.477 0.613,-0.44 2.581,0.262 3.207,1.276 3.271,3.773 0.026,0.935 0.06,1.872 0.092,2.81 0.369,0.009 0.733,0.015 1.094,0.015 1.567,0 3.887,-0.718 5.13,0.511 0.267,0.054 0.481,0.248 0.441,0.614 -0.261,2.582 -1.276,3.207 -3.77,3.271 -0.908,0.026 -1.821,0.061 -2.731,0.091 0.004,0.093 0.008,0.185 0.013,0.279 0.058,1.68 0.379,4.163 -0.54,5.727 -1.008,1.723 -3.649,-0.28 -3.842,-1.651 -0.14,-0.989 -0.151,-2.03 -0.114,-3.069 -0.066,-0.368 -0.111,-0.739 -0.145,-1.118 -0.08,0.002 -0.156,0.005 -0.232,0.011 -1.679,0.06 -4.164,0.377 -5.731,-0.54 -1.719,-1.005 0.283,-3.646 1.652,-3.842 z m 9.791,-71.919 c 0.697,-0.714 1.513,-1.356 2.363,-1.961 0.267,-0.297 0.559,-0.58 0.854,-0.852 -0.206,-0.284 -0.414,-0.563 -0.621,-0.837 -0.958,-1.242 -2.943,-2.637 -2.729,-4.379 -0.119,-0.243 -0.093,-0.529 0.217,-0.726 2.205,-1.364 3.319,-0.944 4.894,0.993 0.591,0.728 1.19,1.447 1.787,2.168 0.297,-0.219 0.592,-0.435 0.876,-0.654 1.242,-0.958 2.641,-2.942 4.377,-2.726 0.244,-0.122 0.534,-0.096 0.727,0.216 1.366,2.207 0.945,3.317 -0.991,4.896 -0.705,0.572 -1.407,1.154 -2.109,1.737 0.06,0.07 0.117,0.145 0.179,0.213 1.072,1.293 2.842,3.066 3.074,4.866 0.253,1.98 -3.065,2.004 -4.054,1.038 -0.714,-0.697 -1.359,-1.513 -1.964,-2.363 -0.277,-0.249 -0.541,-0.521 -0.798,-0.795 -0.059,0.051 -0.121,0.099 -0.179,0.147 -1.293,1.072 -3.066,2.845 -4.865,3.076 -1.979,0.246 -2.004,-3.068 -1.038,-4.057 z"
         id="path130" />
      <path
         style="fill:#e4ac60"
         inkscape:connector-curvature="0"
         d="m 427.661,282.621 c 1.033,-3.479 1.232,-7.262 1.681,-10.848 0.449,-3.594 5.791,-3.255 8.242,-2.118 0.25,0.113 0.413,0.441 0.404,0.703 0,0.032 0,0.059 -0.003,0.09 -0.003,0.182 -0.066,0.319 -0.141,0.438 0.104,2.86 -0.585,5.59 -1.145,8.401 -0.575,2.882 -1.127,5.894 -2.615,8.456 -1.154,1.987 -6.781,5.03 -7.79,1.375 -0.516,-1.9 0.852,-4.756 1.367,-6.497 z"
         id="path132" />
      <path
         style="fill:#711422"
         inkscape:connector-curvature="0"
         d="m 387.484,222.52 c 3.947,-12.61 18.574,-21.086 31.09,-19.261 3.031,0.444 6.147,-1.79 9.135,-2.199 3.645,-0.498 7.05,-0.194 10.614,0.675 6.575,1.596 12.659,5.226 17.489,10.048 10.797,10.782 10.524,27.23 4.965,40.65 -0.069,0.164 -0.245,0.178 -0.38,0.112 -0.168,0.165 -0.352,0.321 -0.563,0.455 -1.456,0.939 -3.539,-1.128 -4.359,-2.035 -1.358,-1.495 -1.783,-2.898 -3.678,-4.11 -1.858,-1.19 -5.055,-0.623 -7.146,-0.4 -4.021,0.423 -7.918,0.483 -11.956,0.17 -3.429,-0.267 -6.769,-0.883 -10.073,-1.87 -4.537,-1.355 -9.318,-4.463 -13.916,-1.742 -3.236,1.913 -5.165,6.313 -6.641,9.64 -0.926,2.096 -1.596,5.424 -3.765,6.586 -0.354,0.19 -0.655,0.156 -0.979,-0.08 -2.064,-1.511 -3.499,-3.965 -4.806,-6.149 -1.82,-3.047 -3.717,-5.743 -5.063,-9.063 -2.771,-6.832 -2.12,-14.566 0.032,-21.427 z"
         id="path134" />
      <path
         style="fill:#fbe4af"
         inkscape:connector-curvature="0"
         d="m 392.581,244.854 c 1.424,-0.334 2.774,1.135 3.314,2.431 0.301,0.433 0.585,0.878 0.851,1.299 0.274,-3.388 1.031,-6.458 2.719,-9.644 1.754,-3.309 3.812,-8.36 7.111,-10.446 0.541,-0.341 1.086,0.194 1.118,0.716 0.032,0.615 -0.043,1.556 0.169,2.299 1.098,-2.546 1.899,-4.957 3.773,-7.23 1.124,-1.362 1.993,-3.001 3.582,-3.731 0.056,-0.642 1.102,-1.001 1.563,-0.292 0.711,1.102 1.032,2.607 1.549,3.821 1.095,2.555 2.925,4.837 4.757,6.886 2.674,2.999 6.414,5.717 10.314,7.394 -1.268,-1.289 -2.238,-2.747 -3.015,-4.85 -0.225,-0.606 0.4,-1.46 1.051,-0.955 5.162,3.994 12.846,8.226 19.74,6.827 -1.407,-1.975 -2.979,-3.914 -2.847,-6.484 0.041,-0.656 0.786,-0.823 1.225,-0.434 0.869,0.775 1.591,1.643 2.444,2.384 -0.537,-1.662 -1.073,-3.339 -0.667,-5.076 0.099,-0.409 0.699,-0.625 1.029,-0.358 3.362,2.698 5.375,7.039 7.163,10.956 2.88,6.318 1.761,16.935 0.336,21.037 -6.544,14.006 -20.002,20.494 -35.331,19.105 -13.936,-1.262 -23.665,-9.896 -28.418,-22.144 -0.977,0.195 -2.206,-0.308 -2.854,-1.096 -1.811,-2.194 -2.532,-5.204 -3.01,-7.95 -0.336,-1.935 0.289,-3.987 2.334,-4.465 z"
         id="path136" />
      <path
         style="fill:#e4ac60"
         inkscape:connector-curvature="0"
         d="m 437.512,247.39 c -0.238,-0.233 -0.646,-0.059 -0.591,0.285 0.198,1.226 0.906,2.32 1.215,3.525 0.155,0.608 0.167,1.118 -0.309,1.594 -0.453,0.455 -1.217,-0.109 -1.809,0.281 -0.174,0.108 -0.339,0.313 -0.271,0.537 0.252,0.802 0.934,1.092 1.773,1.024 1.026,-0.083 1.695,-0.822 2.104,-1.718 0.765,-1.668 -1.004,-4.436 -2.112,-5.528 z"
         id="path138" />
      <path
         style="fill:#3b0f12"
         inkscape:connector-curvature="0"
         d="m 412.667,245.526 c 0.015,0.165 0.105,0.278 0.228,0.343 0.08,0.759 0.712,1.466 1.469,1.745 1.422,0.522 2.803,-0.558 3.034,-1.959 0.464,-2.858 -4.948,-2.515 -4.731,-0.129 z"
         id="path140" />
      <path
         style="fill:#855346"
         inkscape:connector-curvature="0"
         d="m 414.436,243.226 c -2.7,0.253 -4.6,1.563 -6.243,3.61 -0.482,0.603 0.409,1.288 0.964,0.855 1.723,-1.342 2.792,-2.483 5.081,-2.896 1.459,-0.264 2.378,0.482 3.726,0.523 0.359,0.009 0.571,-0.324 0.441,-0.651 -0.604,-1.506 -2.567,-1.577 -3.969,-1.441 z"
         id="path142" />
      <path
         style="fill:#3b0f12"
         inkscape:connector-curvature="0"
         d="m 449.672,239.3 c 0.454,1.346 1.995,2.192 3.311,1.447 0.703,-0.401 1.213,-1.197 1.171,-1.958 0.106,-0.087 0.175,-0.213 0.168,-0.378 -0.169,-2.387 -5.568,-1.856 -4.65,0.889 z"
         id="path144" />
      <path
         style="fill:#855346"
         inkscape:connector-curvature="0"
         d="m 448.354,236.772 c 2.61,-0.753 4.851,-0.235 7.135,1.067 0.668,0.381 0.093,1.349 -0.582,1.146 -2.104,-0.615 -3.512,-1.282 -5.79,-0.828 -1.456,0.291 -2.034,1.325 -3.272,1.854 -0.333,0.142 -0.653,-0.089 -0.653,-0.441 0.013,-1.619 1.809,-2.41 3.162,-2.798 z"
         id="path146" />
      <path
         style="fill:#f8ba99"
         inkscape:connector-curvature="0"
         d="m 418.045,255.938 c -3.38,-4.184 -10.425,-1.225 -9.726,4.107 0.329,2.516 1.587,4.311 4.174,4.669 0.284,0.038 0.574,0.052 0.866,0.046 4.715,0.224 7.893,-4.858 4.686,-8.822 z m 31.604,-6.015 c 1.606,-5.13 9.245,-4.965 10.558,0.247 0.615,2.464 0.107,4.593 -2.176,5.879 -0.244,0.139 -0.509,0.257 -0.782,0.358 -4.302,1.944 -9.123,-1.618 -7.6,-6.484 z"
         id="path148" />
      <path
         style="fill:#ffffff"
         inkscape:connector-curvature="0"
         d="m 442.308,266.79 c -1.513,1.771 -3.774,2.627 -6.061,2.336 -0.711,-0.089 -1.325,-0.357 -1.852,-0.739 -2.289,-1.032 -4.137,-3.328 -3.468,-5.709 0.459,-1.649 2.614,-2.073 4.049,-2.217 2.182,-0.216 4.306,-0.645 6.497,-0.342 4.381,0.608 2.957,4.193 0.835,6.671 z"
         id="path150" />
      <path
         style="fill:#e4ac60"
         inkscape:connector-curvature="0"
         d="m 489.311,270.931 c 0.054,-0.271 0.456,-0.386 0.634,-0.167 0.483,0.568 0.78,1.156 1.534,1.466 1.9,0.771 2.559,-1.091 2.958,-2.453 0.581,-1.989 0.626,-4.083 0.564,-6.137 0,-0.034 0.038,-0.04 0.055,-0.015 0.73,1.092 0.398,3.169 0.297,4.397 -0.107,1.28 -0.08,3.727 -1.134,4.663 -1.445,1.273 -5.458,0.787 -4.908,-1.754 z"
         id="path152" />
      <path
         style="fill:#e4ac60"
         inkscape:connector-curvature="0"
         d="m 485.92,262.516 c 0.043,-0.08 0.154,-0.01 0.122,0.073 -0.675,1.552 -0.895,3.198 -0.895,4.881 0,2.034 0.646,3.098 2.749,3.568 2.717,0.615 3.017,-5.977 2.984,-7.634 -0.003,-0.088 0.123,-0.099 0.149,-0.019 0.637,1.883 0.156,4.308 -0.154,6.233 -0.241,1.486 -1.572,2.655 -3.119,2.456 -1.22,-0.153 -3.171,-0.873 -3.33,-2.343 -0.271,-2.558 0.358,-4.962 1.494,-7.215 z"
         id="path154" />
      <path
         style="fill:#e4ac60"
         inkscape:connector-curvature="0"
         d="m 483.949,257.62 c 0.206,0.083 0.185,0.384 -0.056,0.395 -2.864,0.123 -4.005,3.817 -4.247,6.243 -0.068,0.726 0.018,1.518 0.05,2.245 0.109,2.414 2.73,5.201 4.789,2.484 0.209,-0.267 0.625,-0.119 0.554,0.233 -0.274,1.326 -2.081,2.544 -3.462,2.178 -1.852,-0.486 -2.47,-2.394 -2.628,-4.145 -0.232,-2.574 0.383,-11.438 5,-9.633 z m -53.897,6.054 c 0,4.133 5.798,7.311 9.394,5.845 1.92,-0.78 4.823,-3.179 5.17,-5.643 1.12,-2.912 -2.1,-4.634 -4.878,-4.469 -2.896,0.172 -9.686,0.01 -9.686,4.267 z m 1.612,-1.066 c 1.35,-1.782 5.287,-1.77 7.268,-1.884 1.912,-0.114 4.381,0.469 4.558,2.43 -0.533,2.138 -2.412,4.508 -4.41,5.034 -1.853,0.485 -3.5,0.293 -5.06,-0.833 -1.077,-0.772 -3.654,-3.038 -2.356,-4.747 z"
         id="path156" />
      <circle
         style="fill:#ffffff"
         cx="450.61401"
         cy="238.883"
         r="0.55699998"
         id="circle158" />
      <circle
         style="fill:#ffffff"
         cx="451.86899"
         cy="238.326"
         r="0.34799999"
         id="circle160" />
      <circle
         style="fill:#ffffff"
         cx="413.784"
         cy="245.545"
         r="0.55900002"
         id="circle162" />
      <path
         style="fill:#ffffff"
         inkscape:connector-curvature="0"
         d="m 414.691,244.989 c 0,-0.197 0.156,-0.351 0.35,-0.351 0.19,0 0.347,0.154 0.347,0.351 0,0.19 -0.156,0.346 -0.347,0.346 -0.193,0 -0.35,-0.156 -0.35,-0.346 z"
         id="path164" />
      <path
         style="fill:#855346"
         inkscape:connector-curvature="0"
         d="m 455.905,253.263 c 0.31,-0.058 0.398,0.426 0.085,0.48 -0.311,0.057 -0.397,-0.426 -0.085,-0.48 z m 4.45,-3.623 c 0.296,-0.055 0.377,0.402 0.079,0.455 -0.292,0.052 -0.376,-0.406 -0.079,-0.455 z m -4.739,0.07 c 0.207,-0.038 0.268,0.284 0.06,0.324 -0.207,0.036 -0.267,-0.287 -0.06,-0.324 z m 2.115,4.302 c 0.054,-0.04 0.104,-0.044 0.158,-0.021 0.115,0.005 0.176,0.091 0.178,0.193 0.029,0.1 0.01,0.198 -0.099,0.245 -0.043,0.036 -0.093,0.054 -0.159,0.034 -0.091,0.008 -0.202,-0.028 -0.242,-0.125 -0.015,-0.04 -0.019,-0.077 -0.019,-0.123 0,-0.105 0.095,-0.176 0.183,-0.203 z m -4.146,1.707 c 0.334,-0.063 0.424,0.457 0.092,0.518 -0.335,0.061 -0.43,-0.458 -0.092,-0.518 z m -1.051,-5.805 c 0.384,-0.068 0.489,0.526 0.108,0.595 -0.382,0.068 -0.489,-0.524 -0.108,-0.595 z m 1.138,2.371 c 0.262,-0.045 0.335,0.365 0.075,0.41 -0.264,0.045 -0.34,-0.359 -0.075,-0.41 z m -4.776,3.164 c 0.008,-0.006 0.015,-0.015 0.024,-0.023 0.034,-0.035 0.101,-0.046 0.142,-0.026 0.012,0.006 0.021,0.009 0.032,0.014 0.171,0.08 0.177,0.349 -0.032,0.386 -0.211,0.038 -0.299,-0.213 -0.166,-0.351 z m -1.892,-5.944 c 0.189,-0.034 0.244,0.265 0.053,0.298 -0.19,0.034 -0.241,-0.261 -0.053,-0.298 z m 8.635,-3.394 c 0.068,-0.037 0.118,-0.035 0.188,-0.005 0.017,0.005 0.017,0.016 0.024,0.025 0.013,0.007 0.021,0.016 0.03,0.027 0.011,0.017 0.024,0.032 0.027,0.048 0,0.02 -0.003,0.037 -0.012,0.061 -0.001,0.014 -0.005,0.022 -0.013,0.036 -0.005,0.008 -0.003,0.023 -0.015,0.029 -0.057,0.055 -0.105,0.074 -0.18,0.063 -0.149,-0.018 -0.184,-0.217 -0.049,-0.284 z m -36.269,11.697 c 0.39,-0.071 0.5,0.533 0.111,0.605 -0.393,0.068 -0.501,-0.535 -0.111,-0.605 z m -4.065,3.039 c 0.016,-0.009 0.026,-0.014 0.04,-0.017 0.186,-0.078 0.373,0.053 0.368,0.25 0,0.017 0,0.031 -0.003,0.045 -0.019,0.619 -0.977,-0.045 -0.405,-0.278 z m 1.649,-6.607 c 0.168,-0.031 0.216,0.228 0.046,0.259 -0.166,0.032 -0.215,-0.229 -0.046,-0.259 z m -0.529,3.948 c 0.343,0.085 -0.026,0.615 -0.226,0.327 -0.148,-0.21 -0.021,-0.395 0.226,-0.327 z m 3.372,2.778 c 0.25,-0.048 0.317,0.334 0.071,0.381 -0.247,0.045 -0.315,-0.339 -0.071,-0.381 z m -7.68,-0.133 c 0.289,-0.055 0.368,0.388 0.082,0.44 -0.289,0.051 -0.367,-0.39 -0.082,-0.44 z m 0.8,2.855 c 0.344,-0.062 0.438,0.47 0.099,0.532 -0.346,0.06 -0.439,-0.472 -0.099,-0.532 z m 0.02,-6.597 0,0.034 c 0.005,0.283 -0.451,0.364 -0.544,0.1 -0.006,-0.009 -0.012,-0.022 -0.016,-0.031 -0.162,-0.455 0.555,-0.586 0.56,-0.103 z m -6.395,-0.07 c 0.191,-0.034 0.241,0.261 0.052,0.298 -0.19,0.034 -0.241,-0.262 -0.052,-0.298 z m 2.973,2.731 c 0.27,-0.049 0.346,0.372 0.078,0.42 -0.274,0.049 -0.35,-0.372 -0.078,-0.42 z m 1.061,-5.514 c 0.19,-0.033 0.244,0.262 0.051,0.294 -0.191,0.036 -0.243,-0.258 -0.051,-0.294 z m -0.262,9.169 c 0.217,-0.04 0.277,0.296 0.063,0.335 -0.218,0.038 -0.277,-0.292 -0.063,-0.335 z"
         id="path166" />
      <g
         style="fill:#5a121a"
         id="g168">
        <path
           inkscape:connector-curvature="0"
           d="m 418.976,220.738 c 0.983,2.801 3.174,5.684 5.041,7.926 1.642,1.969 3.807,3.481 5.313,5.534 0.205,0.281 -0.179,0.575 -0.441,0.438 -2.466,-1.27 -4.503,-3.877 -6.226,-5.989 -1.774,-2.175 -3.509,-5.014 -3.891,-7.851 -0.019,-0.136 0.159,-0.191 0.204,-0.058 z m 6.296,6.82 c 0.427,0.358 0.856,0.924 1.002,1.465 0.04,0.142 -0.124,0.292 -0.258,0.202 -0.481,-0.338 -0.795,-0.979 -0.995,-1.521 -0.058,-0.154 0.151,-0.236 0.251,-0.146 z m -7.675,-12.148 c 0.026,-0.21 0.36,-0.306 0.403,-0.054 0.062,0.361 0.181,0.719 0.271,1.072 0.049,0.196 -0.199,0.352 -0.347,0.198 -0.351,-0.358 -0.396,-0.721 -0.327,-1.216 z m 7.854,7.319 c 2.291,3.146 5.59,5.73 8.835,7.834 3.017,1.949 6.118,2.932 9.295,4.438 0.236,0.111 0.126,0.515 -0.134,0.492 -6.705,-0.523 -15.227,-6.669 -18.16,-12.671 -0.051,-0.107 0.092,-0.189 0.164,-0.093 z m -2.988,-3.931 c 0.063,-0.065 0.159,-0.04 0.208,0.028 0.154,0.213 0.199,0.494 0.323,0.728 0.079,0.143 0.15,0.29 0.231,0.429 0.078,0.154 0.062,0.228 0.084,0.39 0.03,0.212 -0.202,0.387 -0.379,0.221 -0.143,-0.143 -0.227,-0.199 -0.323,-0.386 -0.092,-0.173 -0.167,-0.347 -0.222,-0.531 -0.088,-0.288 -0.144,-0.643 0.078,-0.879 z"
           id="path170" />
        <path
           inkscape:connector-curvature="0"
           d="m 432.659,226.762 c 0.781,0.603 1.63,1.274 2.479,1.782 0.855,0.516 1.821,0.839 2.583,1.499 0.181,0.162 -0.014,0.446 -0.226,0.39 -1.874,-0.495 -4.086,-1.737 -4.994,-3.514 -0.042,-0.09 0.058,-0.23 0.158,-0.157 z m 8.365,-2.103 c 2.031,0.438 4.074,1.509 5.705,2.784 1.148,0.895 3.344,2.481 3.475,4.103 0.003,0.067 -0.063,0.134 -0.124,0.13 -0.102,-0.009 -0.169,-0.016 -0.233,-0.101 -0.79,-1.08 -1.616,-1.983 -2.613,-2.874 -1.915,-1.7 -4.126,-2.536 -6.362,-3.676 -0.215,-0.108 -0.063,-0.41 0.152,-0.366 z m -4.137,-1.45 c 0.359,-0.107 0.731,0.071 1.063,0.208 0.276,0.113 0.5,0.202 0.683,0.444 0.146,0.189 -0.094,0.375 -0.27,0.352 -0.516,-0.078 -1.287,-0.199 -1.62,-0.643 -0.099,-0.13 0.009,-0.319 0.144,-0.361 z m 11.926,1.238 c 7.083,2.953 12.468,10.076 13.312,17.614 0.012,0.12 -0.145,0.157 -0.213,0.091 -0.562,-0.503 -0.576,-0.882 -0.688,-1.663 -0.301,-2.169 -1.354,-4.266 -2.474,-6.114 -2.518,-4.144 -6.332,-6.628 -10.155,-9.414 -0.237,-0.174 -0.097,-0.646 0.218,-0.514 z m 10.579,7.233 c 0.503,0.479 0.897,1.011 1.276,1.604 0.307,0.483 0.683,1.195 0.77,1.764 0.028,0.179 -0.159,0.305 -0.305,0.179 -0.403,-0.343 -0.609,-0.988 -0.878,-1.443 -0.381,-0.634 -0.8,-1.233 -1.17,-1.871 -0.116,-0.192 0.146,-0.384 0.307,-0.233 z m -10.253,-21.117 c 6.604,3.229 11.338,9.741 12.385,16.998 0.019,0.14 -0.165,0.245 -0.242,0.103 -1.356,-2.477 -1.669,-5.262 -3.293,-7.712 -1.304,-1.964 -2.684,-3.937 -4.398,-5.559 -1.393,-1.316 -3.252,-2.225 -4.768,-3.417 -0.253,-0.196 0.068,-0.537 0.316,-0.413 z"
           id="path172" />
        <path
           inkscape:connector-curvature="0"
           d="m 452.525,214.828 c 0.641,0.381 1.335,0.779 1.563,1.532 0.058,0.193 -0.201,0.343 -0.337,0.196 -0.23,-0.251 -0.466,-0.479 -0.739,-0.683 -0.287,-0.216 -0.5,-0.452 -0.735,-0.719 -0.154,-0.171 0.041,-0.448 0.248,-0.326 z M 441.3,207.423 c 0.931,0.165 1.738,0.551 2.569,0.986 0.607,0.316 1.396,0.688 1.691,1.344 0.075,0.171 -0.085,0.364 -0.267,0.268 -0.598,-0.33 -1.144,-0.732 -1.757,-1.038 -0.803,-0.395 -1.628,-0.724 -2.415,-1.148 -0.234,-0.126 -0.06,-0.451 0.179,-0.412 z m -12.386,2.863 c 3.599,0.858 7.255,2.535 10.629,4.045 0.067,0.031 0.051,0.147 -0.024,0.158 -1.533,0.27 -3.128,-0.764 -4.556,-1.248 -2.087,-0.71 -4.338,-1.373 -6.237,-2.51 -0.24,-0.142 -0.079,-0.508 0.188,-0.445 z m -3.878,-1.024 c 0.289,-0.002 0.638,0.076 0.721,0.407 0.048,0.173 -0.136,0.29 -0.284,0.218 -0.219,-0.104 -0.397,-0.122 -0.573,-0.303 -0.113,-0.116 -0.034,-0.322 0.136,-0.322 z m 2.009,6.231 c 0.456,0.008 0.709,0.347 1.104,0.543 0.186,0.09 0.104,0.4 -0.103,0.382 -0.486,-0.028 -0.899,-0.253 -1.16,-0.649 -0.076,-0.117 0.025,-0.276 0.159,-0.276 z m -13.837,3.462 c 0.077,-0.04 0.171,0.065 0.099,0.13 -1.169,1.009 -2.388,2.391 -3.173,3.696 -0.879,1.459 -1.205,3.14 -2.016,4.612 -0.134,0.248 -0.473,0.119 -0.488,-0.13 -0.234,-3.197 2.911,-6.924 5.578,-8.308 z m -4.754,3.007 c 0.139,-0.026 0.263,0.14 0.147,0.25 -0.194,0.188 -0.295,0.604 -0.382,0.85 -0.105,0.287 -0.203,0.58 -0.467,0.739 -0.113,0.071 -0.29,0.031 -0.352,-0.091 -0.293,-0.565 0.459,-1.637 1.054,-1.748 z m -3.642,4.116 c 0.156,-0.077 0.268,0.125 0.134,0.227 -4.856,3.727 -6.29,9.644 -8.311,15.025 -0.102,0.276 -0.531,0.25 -0.531,-0.071 -10e-4,-5.235 3.847,-12.823 8.708,-15.181 z m -8.784,7.156 c 0.401,-0.725 0.84,-1.517 1.649,-1.818 0.141,-0.057 0.206,0.133 0.133,0.23 -0.452,0.565 -0.75,1.361 -1.069,2.01 -0.388,0.779 -0.549,1.76 -1.057,2.458 -0.128,0.178 -0.482,0.204 -0.525,-0.068 -0.171,-0.963 0.412,-1.993 0.869,-2.812 z m -1.387,-14.831 c 0.179,-0.267 0.675,-0.102 0.549,0.234 -1.248,3.388 -2.926,6.554 -3.813,10.073 -0.553,2.2 -0.635,4.576 -0.578,6.836 0.03,1.128 0.119,6.588 1.25,6.941 0.111,0.038 0.111,0.188 0,0.218 -0.039,0.015 -0.083,0.028 -0.123,0.041 -0.062,0.021 -0.138,-0.012 -0.17,-0.071 -3.97,-7.133 -1.385,-17.865 2.885,-24.272 z m -6.15,17.029 c 0.02,-0.235 0.338,-0.232 0.363,0 0.078,0.7 0.193,1.399 0.291,2.092 0.067,0.509 0.184,1.02 0.026,1.521 -0.056,0.18 -0.341,0.256 -0.435,0.058 -0.223,-0.47 -0.211,-0.973 -0.245,-1.487 -0.046,-0.737 -0.064,-1.451 0,-2.184 z m 4.903,-18.745 c 0.213,-0.23 0.397,-0.507 0.657,-0.685 0.06,-0.038 0.134,0.014 0.134,0.079 0.002,0.296 -0.16,0.561 -0.325,0.796 -0.199,0.282 -0.417,0.629 -0.739,0.771 -0.14,0.065 -0.324,-0.038 -0.279,-0.211 0.088,-0.312 0.338,-0.52 0.552,-0.75 z m 7.096,-6.734 c 3.934,-4.327 11.956,-5.867 17.338,-4.012 0.115,0.043 0.067,0.206 -0.05,0.186 -6.363,-1.121 -11.713,0.792 -16.999,4.198 -0.237,0.153 -0.464,-0.179 -0.289,-0.372 z m -2.705,1.466 c 0.185,-0.185 0.35,-0.37 0.555,-0.54 0.118,-0.103 0.295,-0.006 0.262,0.153 -0.091,0.44 -0.351,1.135 -0.89,1.127 -0.164,0 -0.244,-0.147 -0.221,-0.292 0.03,-0.22 0.143,-0.297 0.294,-0.448 z m 31.142,-7.874 c 0.833,-0.199 1.706,-0.245 2.568,-0.262 0.587,-0.008 1.481,0.078 1.748,0.677 0.041,0.083 -0.004,0.193 -0.105,0.191 -0.702,-0.011 -1.332,-0.2 -2.045,-0.091 -0.742,0.11 -1.444,0.08 -2.166,-0.091 -0.214,-0.048 -0.211,-0.371 0,-0.424 z"
           id="path174" />
      </g>
      <path
         style="fill:#b2394a"
         inkscape:connector-curvature="0"
         d="m 446.715,221.667 c -1.34,-1.109 -3.174,-1.881 -4.881,-2.164 -1.063,-0.173 -3.007,-0.802 -3.913,0.16 -1.755,1.873 0.972,2.97 2.515,3.404 1.095,0.307 2.24,0.538 3.375,0.652 0.214,0.019 0.423,0.025 0.636,0.022 0.885,0.298 1.858,0.446 2.464,0.151 1.076,-0.529 0.489,-1.659 -0.196,-2.225 z m -34.431,4.129 c 0.836,-1.517 2.261,-2.912 3.742,-3.799 0.928,-0.555 2.506,-1.851 3.696,-1.288 2.324,1.093 0.188,3.115 -1.085,4.087 -0.91,0.691 -1.888,1.322 -2.902,1.849 -0.19,0.093 -0.384,0.174 -0.584,0.253 -0.71,0.6 -1.562,1.097 -2.231,1.042 -1.197,-0.098 -1.068,-1.364 -0.636,-2.144 z"
         id="path176" />
    </g>
    <path
       style="display:inline;fill:#d6ebe6"
       inkscape:connector-curvature="0"
       d="m 160.8881,482.92806 c 1.438,0 1.438,2.235 0,2.235 -1.444,0 -1.444,-2.235 0,-2.235 z m -16.073,-13.604 c 1.021,0 1.021,1.583 0,1.583 -1.024,0 -1.024,-1.583 0,-1.583 z m 16.607,-48.13001 c 1.603,0 1.603,2.487 0,2.487 -1.602,0 -1.602,-2.487 0,-2.487 z m -101.249,-10.713 c 1.603,0 1.603,2.483 0,2.483 -1.603,0 -1.603,-2.483 0,-2.483 z m 5.891,15.4 c 1.086,0 1.086,1.683 0,1.683 -1.086,0 -1.085,-1.683 0,-1.683 z m -28.394,52.28601 c 1.362,0 1.362,2.111 0,2.111 -1.359,-10e-4 -1.359,-2.111 0,-2.111 z m 20.649,-6.747 c 0.141,-0.584 0.621,-1.079 1.316,-1.079 1.104,0 1.691,1.241 1.157,2.107 -0.133,0.324 -0.288,0.586 -0.619,0.816 -0.401,0.277 -0.936,0.176 -1.377,0.097 -0.897,-0.162 -1.045,-1.387 -0.477,-1.941 z m 31.862,91.767 c 0.225,-0.352 0.62,-0.588 1.063,-0.588 1.452,0 1.684,2.108 0.36,2.473 -0.813,0.431 -1.89,-0.175 -1.761,-1.205 0.034,-0.277 0.138,-0.518 0.338,-0.68 z m 59.456,-15.788 c 1.2,0 1.2,1.857 0,1.857 -1.195,10e-4 -1.195,-1.857 0,-1.857 z m -9.11,-31.853 c 0.831,0 0.831,1.279 0,1.279 -0.823,0 -0.823,-1.279 0,-1.279 z m -103.392,-12.312 c 1.506,0 1.506,2.333 0,2.333 -1.504,0 -1.504,-2.333 0,-2.333 z m 12.857,-11.208 c 0.761,0 0.761,1.178 0,1.178 -0.761,0 -0.761,-1.178 0,-1.178 z m -18.212,-24.595 c 0.696,0 0.696,1.081 0,1.081 -0.696,0 -0.696,-1.081 0,-1.081 z m 62.678,-1.144 c 0.793,0 0.793,1.229 0,1.229 -0.792,0 -0.792,-1.229 0,-1.229 z m -43.929,-42.57501 c 1.118,0 1.118,1.733 0,1.733 -1.117,0.001 -1.117,-1.733 0,-1.733 z m 21.964,-19.953 c 0.599,0 0.599,0.929 0,0.929 -0.6,0 -0.6,-0.929 0,-0.929 z m -23.57,-3.164 c 0.534,0 0.534,0.828 0,0.828 -0.535,0 -0.535,-0.828 0,-0.828 z m 132.323,36.074 c 0.656,0 0.931,0.712 0.636,1.19 -0.002,0.037 -0.004,0.074 -0.012,0.114 -0.084,0.807 -1.165,0.807 -1.252,0 -0.007,-0.04 -0.009,-0.077 -0.016,-0.114 -0.288,-0.478 -0.014,-1.19 0.644,-1.19 z m -8.037,66.59301 c 0.776,0 0.776,1.206 0,1.206 -0.776,0 -0.776,-1.206 0,-1.206 z m 21.961,-23.509 c 0.7,0 0.7,1.079 0,1.079 -0.692,10e-4 -0.692,-1.079 0,-1.079 z m -87.504,69.424 c 0.06,-0.225 0.231,-0.425 0.518,-0.513 0.01,-0.004 0.015,-0.004 0.024,-0.008 0.007,-0.022 0.019,-0.044 0.027,-0.064 0.243,-0.143 0.503,-0.213 0.789,-0.213 0.127,0.002 0.258,0.004 0.39,0.006 0.841,0.028 1.547,0.691 1.547,1.554 0,0.859 -0.706,1.519 -1.547,1.543 -0.131,0.003 -0.263,0.009 -0.39,0.011 -1.158,0.032 -1.948,-1.328 -1.358,-2.316 z m 21.608,7.403 c 0.368,-0.563 0.854,-0.619 1.479,-0.498 0.671,0.128 0.995,0.731 1.064,1.352 0.052,0.504 -0.465,0.931 -0.932,0.931 -0.394,0 -0.716,-0.247 -0.852,-0.591 -0.352,-0.063 -0.563,-0.249 -0.76,-0.555 -0.117,-0.182 -0.117,-0.459 0.001,-0.639 z m -51.421,-7.732 c 0.71,0 0.71,1.107 0,1.107 -0.713,0 -0.713,-1.107 0,-1.107 z m -24.109,3.237 c 0.679,0 0.679,1.06 0,1.06 -0.683,0 -0.683,-1.06 0,-1.06 z m 106.071,-3.907 c 1.573,0 1.573,2.444 0,2.444 -1.569,0 -1.569,-2.444 0,-2.444 z"
       id="path178" />
  </g>
</svg>
