<?xml version="1.0" encoding="UTF-8" standalone="no"?>
<!-- Created with Inkscape (http://www.inkscape.org/) -->

<svg
   xmlns:dc="http://purl.org/dc/elements/1.1/"
   xmlns:cc="http://creativecommons.org/ns#"
   xmlns:rdf="http://www.w3.org/1999/02/22-rdf-syntax-ns#"
   xmlns:svg="http://www.w3.org/2000/svg"
   xmlns="http://www.w3.org/2000/svg"
   xmlns:xlink="http://www.w3.org/1999/xlink"
   xmlns:sodipodi="http://sodipodi.sourceforge.net/DTD/sodipodi-0.dtd"
   xmlns:inkscape="http://www.inkscape.org/namespaces/inkscape"
   width="59.113419mm"
   height="34.092442mm"
   viewBox="0 0 209.45699 120.79999"
   id="svg3600"
   version="1.1"
   inkscape:version="0.91 r"
   sodipodi:docname="coffee.svg">
  <defs
     id="defs3602">
    <clipPath
       id="b">
      <use
         y="0"
         x="0"
         style="overflow:visible"
         width="100%"
         height="100%"
         xlink:href="#a"
         overflow="visible"
         id="use152" />
    </clipPath>
    <linearGradient
       id="c"
       x1="-1182.1904"
       x2="-1049.1909"
       y1="375.9473"
       y2="375.9473"
       gradientUnits="userSpaceOnUse"
       gradientTransform="matrix(0.99740321,-0.07201969,0.07201969,0.99740321,1222.0358,13.055546)">
      <stop
         offset="0"
         stop-color="#FFF"
         stop-opacity=".7"
         id="stop157" />
      <stop
         offset="1"
         stop-color="#F6F6F6"
         stop-opacity=".53"
         id="stop159" />
    </linearGradient>
  </defs>
  <sodipodi:namedview
     id="base"
     pagecolor="#ffffff"
     bordercolor="#666666"
     borderopacity="1.0"
     inkscape:pageopacity="0.0"
     inkscape:pageshadow="2"
     inkscape:zoom="0.35"
     inkscape:cx="574.01421"
     inkscape:cy="-219.6"
     inkscape:document-units="px"
     inkscape:current-layer="layer1"
     showgrid="false"
     fit-margin-top="0"
     fit-margin-left="0"
     fit-margin-right="0"
     fit-margin-bottom="0"
     inkscape:window-width="1366"
     inkscape:window-height="716"
     inkscape:window-x="0"
     inkscape:window-y="0"
     inkscape:window-maximized="1" />
  <metadata
     id="metadata3605">
    <rdf:RDF>
      <cc:Work
         rdf:about="">
        <dc:format>image/svg+xml</dc:format>
        <dc:type
           rdf:resource="http://purl.org/dc/dcmitype/StillImage" />
        <dc:title></dc:title>
      </cc:Work>
    </rdf:RDF>
  </metadata>
  <g
     inkscape:label="Layer 1"
     inkscape:groupmode="layer"
     id="layer1"
     transform="translate(199.01421,-191.96221)">
    <g
       transform="translate(-199.01421,-181.12479)"
       id="g146">
      <defs
         id="defs148">
        <path
           inkscape:connector-curvature="0"
           id="a"
           d="m 0,338.26199 210.979,0 0,155.625 -210.979,0 z" />
      </defs>
      <clipPath
         id="clipPath3563">
        <use
           y="0"
           x="0"
           style="overflow:visible"
           width="100%"
           height="100%"
           xlink:href="#a"
           overflow="visible"
           id="use3565" />
      </clipPath>
      <g
         clip-path="url(#b)"
         id="g154">
        <linearGradient
           id="linearGradient3568"
           x1="-1182.1904"
           x2="-1049.1909"
           y1="375.9473"
           y2="375.9473"
           gradientUnits="userSpaceOnUse"
           gradientTransform="matrix(0.99740321,-0.07201969,0.07201969,0.99740321,1222.0358,13.055546)">
          <stop
             offset="0"
             stop-color="#FFF"
             stop-opacity=".7"
             id="stop3570" />
          <stop
             offset="1"
             stop-color="#F6F6F6"
             stop-opacity=".53"
             id="stop3572" />
        </linearGradient>
        <path
           style="fill:url(#c)"
           inkscape:connector-curvature="0"
           d="M 129.352,411.111 82.598,532.99 209.457,443.631 129.352,411.111 Z m 7.892,18.42 46.371,18.516 -73.496,47.771 27.125,-66.287 z"
           id="path161" />
        <path
           style="fill:none;stroke:#000000;stroke-width:0.25;stroke-miterlimit:10"
           inkscape:connector-curvature="0"
           stroke-miterlimit="10"
           d="m 131.256,415.18799 -3.026,-1.159 m 1.959,3.94202 -3.027,-1.15802 m 1.961,3.94601 -3.027,-1.16 m 1.95899,3.94501 -3.02799,-1.16001 m 1.961,3.94501 -3.027,-1.16 m 1.959,3.945 -3.025,-1.16101 m 1.959,3.94501 -3.026,-1.15802 m 1.959,3.94501 -3.045,-1.16699 m 1.979,3.95199 -3.045,-1.16501 m 1.976,3.95001 -3.043,-1.164 m 1.977,3.94999 -3.045,-1.16599 m 1.979,3.952 -3.047,-1.167 m 1.98,3.952 -3.047,-1.16599 m 1.977,3.94999 -3.045,-1.167 m 1.978,3.95301 -3.045,-1.16501 m 1.979,3.95001 -3.045,-1.164 m 1.977,3.95099 -3.043,-1.16699 m 1.976,3.95199 -3.045,-1.16501 m 1.977,3.95002 -3.043,-1.167 m 1.976,3.95298 -3.042,-1.168 m 1.976,3.953 -3.045,-1.16498 m 1.979,3.952 -3.065,-1.17301 m 1.996,3.95801 -3.064,-1.17602 m 1.998,3.96002 -3.067,-1.17401 m 2,3.95901 -3.066,-1.173 m 1.996,3.95898 -3.062,-1.17599 m 1.996,3.95999 -3.065,-1.172 m 1.998,3.96002 -3.064002,-1.17401 m 1.998002,3.95801 -3.063996,-1.17502 m 1.995996,3.961 -3.064997,-1.17499 m 1.997994,3.961 -3.063996,-1.17499 M 98.176003,501.535 95.111,500.35901 m 1.998001,3.961 -3.064003,-1.17301 m 1.996002,3.95899 -3.064003,-1.17398 m 1.998001,3.95898 -3.064994,-1.17398 m 1.997993,3.95902 -3.065994,-1.17402 m 1.997993,3.95997 -3.083999,-1.18097 m 2.017006,3.96496 -3.084,-1.18194 m 2.015999,3.96795 -3.082001,-1.17895 m 2.015999,3.96399 -3.084,-1.18 m 2.015,3.96497 -3.082001,-1.17798"
           id="path163" />
        <g
           style="opacity:0.65"
           id="g165">
          <path
             style="opacity:0.6;fill:#3c3c3b"
             inkscape:connector-curvature="0"
             d="m 97.781,441.178 c 0,36.563 -28.195,66.202 -62.975,66.202 -34.777,0 -62.975,-29.64 -62.975,-66.202 0,-36.559 28.197,-66.2 62.975,-66.2 34.78,0 62.975,29.641 62.975,66.2 z"
             id="path167" />
          <path
             style="opacity:0.3;fill:#575756"
             inkscape:connector-curvature="0"
             d="m 96.09,440.959 c 0,35.454 -27.342,64.196 -61.068,64.196 -7.123,0 -13.967,-1.281 -20.328,-3.648 2.342,0.346 4.744,0.521 7.174,0.521 28.816,0 52.162,-24.556 52.162,-54.836 0,-30.277 -23.346,-54.831 -52.162,-54.831 -18.129,0 -34.109,9.736 -43.459,24.501 9.059,-23.512 30.992,-40.096 56.613,-40.096 33.726,0 61.068,28.74 61.068,64.193 z"
             id="path169" />
          <path
             style="fill:#5aa230"
             inkscape:connector-curvature="0"
             d="m 74.029,447.191 c 0,30.28 -23.346,54.836 -52.162,54.836 -2.43,0 -4.832,-0.175 -7.174,-0.521 -23.74,-8.802 -40.738,-32.594 -40.738,-60.548 0,-8.519 1.578,-16.65 4.453,-24.098 9.35,-14.765 25.33,-24.501 43.459,-24.501 28.817,0.001 52.162,24.555 52.162,54.832 z"
             id="path171" />
          <g
             style="opacity:0.6;fill:#3c3c3b"
             id="g173">
            <path
               inkscape:connector-curvature="0"
               d="m 111.344,489.615 c 0,0 -0.014,0 -0.025,0.014 -0.42,0.201 -7.785,3.57 -13.537,-10.714 0,0 -22.061,-39.665 -27.148,-48.587 0,0 -4.236,-8.024 -8.906,-8.465 0,0 -14.783,-1.258 -17.977,-20.503 -0.09,-0.575 -0.18,-1.179 -0.254,-1.791 0,0 -3.818,-20.505 9.326,-13.375 0,0 8.904,4.906 13.994,10.257 0,0 6.359,5.792 4.248,17.827 0,0 -0.42,0.766 -0.701,2.048 -0.176,0.774 -0.305,1.739 -0.254,2.85 0.09,2.273 0.904,5.121 3.498,8.038 0,0 27.559,37.445 33.5,44.575 -0.001,0 11.031,11.595 4.236,17.826 z"
               id="path175" />
            <path
               inkscape:connector-curvature="0"
               d="m 111.344,489.615 c 0,0 -0.014,0 -0.025,0.014 L 69.577,423.976 c 0,0 -0.357,-2.072 0.533,-4.8 0.09,2.273 0.904,5.121 3.498,8.038 0,0 27.559,37.445 33.5,44.575 -0.001,0 11.031,11.595 4.236,17.826 z m -40.28,-75.337 c 0,0 -0.42,0.766 -0.701,2.048 -0.164,-0.428 -0.328,-0.856 -0.494,-1.271 -0.141,-2.876 -0.854,-5.91 -2.201,-8.854 -4.158,-9.081 -12.67,-13.827 -19.02,-10.618 -2.229,1.123 -3.895,3.088 -4.938,5.549 -0.076,-0.505 -0.152,-1.026 -0.215,-1.562 0,0 -3.818,-20.505 9.326,-13.375 0,0 8.904,4.906 13.994,10.257 0.001,-10e-4 6.361,5.791 4.249,17.826 z"
               id="path177" />
          </g>
          <g
             style="fill:#5aa230"
             id="g179">
            <path
               inkscape:connector-curvature="0"
               d="m 70.213,440.793 c 0,10.872 -4.822,20.553 -12.357,26.797 -5.533,4.612 -12.527,7.354 -20.129,7.354 -17.957,0 -32.5,-15.288 -32.5,-34.151 0,-6.357 1.66,-12.311 4.545,-17.421 5.652,-10.027 16.059,-16.744 27.955,-16.744 17.941,0 32.486,15.291 32.486,34.165 z"
               id="path181" />
            <path
               inkscape:connector-curvature="0"
               d="m 69.791,441.846 c 0,18.466 -14.238,33.438 -31.805,33.438 -17.567,0 -31.804,-14.972 -31.804,-33.438 0,-18.463 14.238,-33.435 31.805,-33.435 17.567,0 31.804,14.972 31.804,33.435 z"
               id="path183" />
            <path
               inkscape:connector-curvature="0"
               d="m 66.396,440.959 c 0,10.5 -4.656,19.85 -11.934,25.878 -5.344,4.457 -12.1,7.105 -19.441,7.105 -17.34,0 -31.385,-14.766 -31.385,-32.983 0,-6.135 1.602,-11.887 4.389,-16.823 5.457,-9.682 15.508,-16.169 26.996,-16.169 17.331,0 31.375,14.764 31.375,32.992 z"
               id="path185" />
            <path
               inkscape:connector-curvature="0"
               d="m 57.07,453.44 c 0,4.759 -0.93,9.281 -2.607,13.396 -5.344,4.457 -12.1,7.105 -19.441,7.105 -17.34,0 -31.385,-14.766 -31.385,-32.983 0,-6.135 1.602,-11.887 4.389,-16.823 4.848,-3.049 10.533,-4.8 16.604,-4.8 17.911,0.001 32.44,15.273 32.44,34.105 z"
               id="path187" />
          </g>
          <path
             style="fill:#5aa230"
             inkscape:connector-curvature="0"
             d="m 43.5,478.627 5.725,-1.115 12.088,25.634 -9.331,0.222 m 1.766,-29.762 -4.314,4.108 12.058,25.646 5.828,-7.664"
             id="path189" />
        </g>
        <path
           style="fill:#f7f7f9"
           inkscape:connector-curvature="0"
           d="m 94.184,439.286 c 0,36.562 -28.195,66.201 -62.977,66.201 -34.777,0 -62.973,-29.64 -62.973,-66.201 0,-36.559 28.195,-66.199 62.973,-66.199 34.781,0 62.977,29.641 62.977,66.199 z"
           id="path191" />
        <path
           style="fill:#e5e0da"
           inkscape:connector-curvature="0"
           d="m 92.49,439.067 c 0,35.456 -27.34,64.197 -61.066,64.197 -7.123,0 -13.969,-1.283 -20.33,-3.65 2.342,0.348 4.746,0.521 7.176,0.521 28.814,0 52.16,-24.556 52.16,-54.833 0,-30.279 -23.346,-54.834 -52.16,-54.834 -18.131,0 -34.109,9.737 -43.459,24.502 9.059,-23.512 30.99,-40.096 56.613,-40.096 33.726,0 61.066,28.74 61.066,64.193 z"
           id="path193" />
        <path
           style="fill:#ffffff"
           inkscape:connector-curvature="0"
           d="m 70.43,445.302 c 0,30.277 -23.346,54.833 -52.16,54.833 -2.43,0 -4.834,-0.173 -7.176,-0.521 -23.738,-8.8 -40.736,-32.593 -40.736,-60.547 0,-8.518 1.576,-16.649 4.453,-24.098 9.35,-14.765 25.328,-24.502 43.459,-24.502 28.814,0.001 52.16,24.555 52.16,54.835 z"
           id="path195" />
        <path
           style="fill:#bebbba"
           inkscape:connector-curvature="0"
           d="m 107.744,487.724 c 0,0 -0.012,0 -0.023,0.014 -0.422,0.201 -7.787,3.571 -13.537,-10.715 0,0 -22.061,-39.665 -27.15,-48.586 0,0 -4.236,-8.025 -8.904,-8.466 0,0 -14.783,-1.256 -17.979,-20.501 -0.088,-0.577 -0.18,-1.179 -0.254,-1.792 0,0 -3.816,-20.503 9.326,-13.375 0,0 8.906,4.907 13.994,10.257 0,0 6.361,5.793 4.248,17.829 0,0 -0.42,0.763 -0.697,2.046 -0.178,0.776 -0.307,1.738 -0.256,2.849 0.09,2.273 0.902,5.122 3.498,8.038 0,0 27.557,37.446 33.498,44.577 0,-10e-4 11.031,11.592 4.236,17.825 z"
           id="path197" />
        <path
           style="fill:#888583"
           inkscape:connector-curvature="0"
           d="m 107.744,487.724 c 0,0 -0.012,0 -0.023,0.014 L 65.977,422.084 c 0,0 -0.355,-2.072 0.535,-4.8 0.09,2.273 0.902,5.122 3.498,8.038 0,0 27.557,37.446 33.498,44.577 0,-10e-4 11.031,11.592 4.236,17.825 z M 67.465,412.389 c 0,0 -0.42,0.763 -0.697,2.046 -0.166,-0.429 -0.332,-0.856 -0.496,-1.271 -0.141,-2.875 -0.855,-5.91 -2.203,-8.855 -4.158,-9.079 -12.67,-13.825 -19.018,-10.616 -2.229,1.123 -3.895,3.088 -4.939,5.55 -0.074,-0.507 -0.152,-1.029 -0.215,-1.563 0,0 -3.816,-20.503 9.326,-13.375 0,0 8.906,4.907 13.994,10.257 0,-0.002 6.361,5.791 4.248,17.827 z"
           id="path199" />
        <path
           style="fill:#ffffff"
           inkscape:connector-curvature="0"
           d="m 66.613,438.901 c 0,10.871 -4.822,20.552 -12.357,26.798 -5.531,4.611 -12.527,7.354 -20.129,7.354 -17.955,0 -32.498,-15.287 -32.498,-34.151 0,-6.357 1.66,-12.311 4.545,-17.422 5.65,-10.026 16.059,-16.743 27.953,-16.743 17.943,-0.001 32.486,15.291 32.486,34.164 z"
           id="path201" />
        <ellipse
           style="fill:#e5e0da"
           cx="34.388"
           cy="439.95499"
           rx="31.806"
           ry="33.437"
           id="ellipse203" />
        <path
           style="fill:#ab8758"
           inkscape:connector-curvature="0"
           d="m 62.797,439.067 c 0,10.501 -4.656,19.849 -11.932,25.88 -5.344,4.456 -12.1,7.104 -19.441,7.104 -17.34,0 -31.387,-14.766 -31.387,-32.983 0,-6.136 1.604,-11.887 4.391,-16.823 5.457,-9.683 15.508,-16.169 26.996,-16.169 17.328,-0.001 31.373,14.766 31.373,32.991 z"
           id="path205" />
        <path
           style="fill:#ca9e67"
           inkscape:connector-curvature="0"
           d="m 53.473,451.548 c 0,4.759 -0.93,9.281 -2.607,13.399 -5.344,4.456 -12.1,7.104 -19.441,7.104 -17.34,0 -31.387,-14.766 -31.387,-32.983 0,-6.136 1.604,-11.887 4.391,-16.823 4.848,-3.05 10.533,-4.8 16.602,-4.8 17.912,-10e-4 32.442,15.273 32.442,34.103 z"
           id="path207" />
        <path
           style="fill:#e5e0da"
           inkscape:connector-curvature="0"
           d="m 39.902,476.735 5.725,-1.116 12.088,25.635 -9.332,0.222"
           id="path209" />
        <path
           style="fill:#ffffff"
           inkscape:connector-curvature="0"
           d="m 50.15,471.714 -4.314,4.108 12.059,25.648 5.826,-7.664"
           id="path211" />
      </g>
    </g>
  </g>
</svg>
