<?xml version="1.0" encoding="UTF-8" standalone="no"?>
<!-- Created with Inkscape (http://www.inkscape.org/) -->

<svg
   xmlns:dc="http://purl.org/dc/elements/1.1/"
   xmlns:cc="http://creativecommons.org/ns#"
   xmlns:rdf="http://www.w3.org/1999/02/22-rdf-syntax-ns#"
   xmlns:svg="http://www.w3.org/2000/svg"
   xmlns="http://www.w3.org/2000/svg"
   xmlns:xlink="http://www.w3.org/1999/xlink"
   xmlns:sodipodi="http://sodipodi.sourceforge.net/DTD/sodipodi-0.dtd"
   xmlns:inkscape="http://www.inkscape.org/namespaces/inkscape"
   width="49.444771mm"
   height="42.224674mm"
   viewBox="0 0 175.19801 149.61499"
   id="svg4003"
   version="1.1"
   inkscape:version="0.91 r"
   sodipodi:docname="drawing.svg">
  <defs
     id="defs4005">
    <clipPath
       id="b">
      <use
         y="0"
         x="0"
         style="overflow:visible"
         width="100%"
         height="100%"
         xlink:href="#a"
         overflow="visible"
         id="use186" />
    </clipPath>
  </defs>
  <sodipodi:namedview
     id="base"
     pagecolor="#ffffff"
     bordercolor="#666666"
     borderopacity="1.0"
     inkscape:pageopacity="0.0"
     inkscape:pageshadow="2"
     inkscape:zoom="1.979899"
     inkscape:cx="272.4245"
     inkscape:cy="73.729917"
     inkscape:document-units="px"
     inkscape:current-layer="layer1"
     showgrid="false"
     fit-margin-top="0"
     fit-margin-left="0"
     fit-margin-right="0"
     fit-margin-bottom="0"
     inkscape:window-width="1366"
     inkscape:window-height="716"
     inkscape:window-x="0"
     inkscape:window-y="0"
     inkscape:window-maximized="1" />
  <metadata
     id="metadata4008">
    <rdf:RDF>
      <cc:Work
         rdf:about="">
        <dc:format>image/svg+xml</dc:format>
        <dc:type
           rdf:resource="http://purl.org/dc/dcmitype/StillImage" />
        <dc:title></dc:title>
      </cc:Work>
    </rdf:RDF>
  </metadata>
  <g
     inkscape:label="Layer 1"
     inkscape:groupmode="layer"
     id="layer1"
     transform="translate(-23.829569,-360.41185)">
    <g
       style="display:inline"
       transform="translate(-642.86141,15.725853)"
       id="g180">
      <defs
         id="defs182">
        <path
           inkscape:connector-curvature="0"
           id="a"
           d="m 641.31897,306.76199 200.57001,0 0,187.539 -200.57001,0 z" />
      </defs>
      <clipPath
         id="clipPath3980">
        <use
           y="0"
           x="0"
           style="overflow:visible"
           width="100%"
           height="100%"
           xlink:href="#a"
           overflow="visible"
           id="use3982" />
      </clipPath>
      <g
         clip-path="url(#b)"
         id="g188">
        <path
           style="opacity:0.13999999;fill:#5aa230"
           inkscape:connector-curvature="0"
           d="m 851.72068,544.24909 -99.76202,35.48106 -47.13953,-132.5421 99.76202,-35.48106 z"
           id="path190" />
        <path
           style="opacity:0.13999999;fill:#5aa230"
           inkscape:connector-curvature="0"
           d="M 851.63004,516.58383 747.36902,498.16054 771.84578,359.64179 876.1068,378.06509 Z"
           id="path192" />
        <path
           style="opacity:0.13999999;fill:#5aa230"
           inkscape:connector-curvature="0"
           d="M 791.53189,532.1461 686.42382,544.873 669.5154,405.23087 774.62347,392.50398 Z"
           id="path194" />
        <path
           style="fill:#ffffff"
           inkscape:connector-curvature="0"
           d="M 801.31551,527.85205 690.8141,541.23199 673.03832,394.42656 783.53973,381.04662 Z"
           id="path196" />
        <path
           style="fill:none;stroke:#444645;stroke-width:0.32839999;stroke-miterlimit:10"
           inkscape:connector-curvature="0"
           stroke-miterlimit="10"
           d="m 772.69702,408.13101 -43.45703,5.262 m 43.85901,-1.95401 -43.45801,5.264 m 43.85999,-1.95099 -43.45899,5.262 m 43.85901,-1.95102 -43.45801,5.26102 m 43.85999,-1.95102 -65.80798,7.971 m 66.20703,-4.66 L 691.927,434.707 m 83.177,-6.711 -82.77697,10.02399 m 83.17797,-6.71298 -82.776,10.02298 M 775.90503,434.617 693.13,444.64099 m 83.17499,-6.71298 -82.77496,10.02698 m 83.17694,-6.71698 -82.77594,10.026 m 83.17596,-6.71302 -82.77398,10.025 m 83.17499,-6.71698 -82.77601,10.026 m 83.17701,-6.711 -82.77399,10.02298 m 83.177,-6.71298 -82.776,10.026 M 778.711,457.797 695.93597,467.82001 m 83.17804,-6.715 -82.77703,10.02399 m 83.17803,-6.711 -82.776,10.01999 m 69.10498,-5.008 -54.63201,6.61701 m 69.104,-5.008 -82.77698,10.02399 M 780.71698,474.35001 697.94,484.375 m 83.17798,-6.715 -82.77496,10.02399 m 83.17596,-6.71298 -82.776,10.02499 m 83.17603,-6.71499 -82.77503,10.026 m 83.177,-6.711 -82.77496,10.02298 m 83.17596,-6.715 -82.776,10.02402 m 83.17603,-6.71301 -82.77503,10.02499 m 83.17701,-6.71298 -82.77497,10.02398 m 46.32801,1.10901 -45.52704,5.51401"
           id="path198" />
        <path
           style="fill:#ffffff"
           inkscape:connector-curvature="0"
           d="M 861.86384,517.3186 752.25589,497.93936 778.0032,352.31404 887.61114,371.69329 Z"
           id="path200" />
        <path
           style="fill:none;stroke:#444645;stroke-width:0.32839999;stroke-miterlimit:10"
           inkscape:connector-curvature="0"
           stroke-miterlimit="10"
           d="m 869.35797,394.47101 -43.10596,-7.62302 M 868.77698,397.75201 825.672,390.133 m 42.526,10.90399 -43.107,-7.61899 m 42.52503,10.90399 -43.10504,-7.621 m 42.52703,10.90402 -65.27801,-11.53702 m 64.69598,14.82102 -82.10699,-14.512 m 81.52698,17.79898 -82.10895,-14.514 m 81.52899,17.79702 -82.10901,-14.514 m 81.52802,17.79699 -82.10706,-14.51199 m 81.526,17.797 -82.10797,-14.51102 m 81.52802,17.793 -82.107,-14.51199 M 862.974,430.59601 780.86603,416.082 m 81.526,17.79901 -82.10803,-14.51602 m 81.52801,17.797 -82.10901,-14.50998 m 81.52802,17.797 -82.10803,-14.51301 m 81.52703,17.79599 -82.10699,-14.513 m 81.52594,17.797 -82.10699,-14.51199 m 81.52703,17.79901 -82.10699,-14.51602 m 67.56799,15.332 -54.18902,-9.57999 m 67.56799,15.332 -82.107,-14.51599 m 81.52503,17.801 -82.107,-14.51502 M 857.16699,463.439 775.06,448.92599 m 81.52801,17.797 -82.10901,-14.51398 m 81.52698,17.797 -82.10699,-14.51202 m 81.52704,17.797 -82.10901,-14.512 m 81.52899,17.797 -82.10901,-14.513 m 81.52899,17.79602 -82.10901,-14.513 m 81.52802,17.79898 -82.10797,-14.51398 m 43.99798,14.551 -45.16003,-7.983"
           id="path202" />
        <path
           style="fill:#ffffff"
           inkscape:connector-curvature="0"
           d="M 858.04655,536.77348 753.16556,574.07514 703.60863,434.73602 808.48962,397.43436 Z"
           id="path204" />
        <path
           style="fill:none;stroke:#444645;stroke-width:0.32839999;stroke-miterlimit:10"
           inkscape:connector-curvature="0"
           stroke-miterlimit="10"
           d="M 803.90302,426.26999 762.659,440.94101 m 42.362,-11.52902 -41.24402,14.67202 m 42.36303,-11.527 -41.24401,14.66998 m 42.36102,-11.52798 -41.24201,14.66998 m 42.35999,-11.52698 -62.45398,22.215 m 63.57196,-19.07502 -78.55896,27.94602 M 810.60999,445.125 732.052,473.07001 m 79.67603,-24.802 -78.55805,27.945 M 812.84601,451.41 734.28802,479.354 m 79.67597,-24.80099 -78.55896,27.94498 m 79.67596,-24.805 -78.557,27.94602 m 79.67401,-24.801 -78.55701,27.94498 M 817.31598,463.979 738.75897,491.92401 M 818.435,467.121 739.87701,495.06601 m 79.67499,-24.80002 -78.55798,27.94302 m 79.677,-24.803 -78.55902,27.94598 M 821.78802,476.547 743.229,504.49399 m 79.67603,-24.80499 -78.55805,27.94601 m 66.32203,-20.051 -51.849,18.44098 m 66.32202,-20.04998 -78.55902,27.94497 m 79.67798,-24.80298 -78.56098,27.94599 m 79.67798,-24.80298 -78.55902,27.94501 m 79.67603,-24.80103 -78.55799,27.94403 m 79.67499,-24.80301 -78.55597,27.94297 m 79.67499,-24.79999 -78.55805,27.94299 M 831.849,504.828 753.28998,532.77301 m 79.67602,-24.802 -78.55902,27.94501 m 79.67603,-24.80301 -78.55701,27.94601 m 45.44202,-9.08404 -43.206,15.36901"
           id="path206" />
        <g
           style="fill:#74424e"
           id="g208">
          <path
             inkscape:connector-curvature="0"
             d="m 745.259,374.029 -49.396,-15.387 c 0,0 -4.038,-1.5 -10.142,0.973 0,0 -14.577,6.139 -16.768,7.252 -2.191,1.109 -2.888,2.184 -1.659,4.865 0,0 0.725,3.232 4.311,1.156 0,0 14.049,-8.705 15.023,-8.938 0,0 6.102,-3.656 15.035,-0.191 l 45.691,15.793 c 0,10e-4 -0.791,-3.853 -2.095,-5.523 z"
             id="path210" />
          <path
             inkscape:connector-curvature="0"
             d="m 678.26,349.139 47.462,20.596 c 0,0 4.035,1.5 7.043,7.359 0,0 7.033,14.17 7.966,16.443 0.935,2.271 0.761,3.539 -1.919,4.766 0,0 -2.659,1.973 -4.021,-1.938 0,0 -4.955,-15.766 -5.543,-16.578 0,0 -2.232,-6.756 -11.263,-9.963 l -44.917,-17.873 c -10e-4,0 3.113,-2.402 5.192,-2.812 z"
             id="path212" />
        </g>
        <path
           style="opacity:0.56999966;fill:#b2b2b2"
           inkscape:connector-curvature="0"
           d="m 736.257,391.869 -5.25,-0.615 -10.546,-3.918 -5.263,-4.178 -1.744,-6.869 -1.157,-6.06 4.147,-4.387 6.615,-0.653 7.645,1.36 6.881,1.814 4.801,2.229 2.873,3.437 1.105,6.192 -3.834,5.535 m -69.152,-17.246 4.381,2.959 10.545,3.92 6.715,0.269 5.806,-4.062 4.832,-3.836 -0.277,-6.028 -4.582,-4.812 -6.679,-3.965 -6.396,-3.119 -5.09,-1.445 -4.422,0.728 -4.882,3.965 -0.708,6.701"
           id="path214" />
        <path
           style="fill:#74424e"
           inkscape:connector-curvature="0"
           d="m 670.731,350.256 c 0,0 0.731,1.625 0.555,5.113 0,0 -1.792,13.771 6.19,17.412 l 11.122,4.133 c 0,0 6.314,0.996 10.816,-1.547 0,0 5.094,-2.996 7.617,-7.391 0,0 0.141,-2.152 2.688,-0.779 l 0.048,0.018 c 2.826,0.623 1.527,2.346 1.527,2.346 -0.961,4.975 0.942,10.57 0.942,10.57 1.749,4.865 7.181,8.234 7.181,8.234 l 11.125,4.135 c 8.422,2.453 16.057,-9.146 16.057,-9.146 2.145,-2.76 3.758,-3.512 3.758,-3.512 3.441,-0.268 3.255,-4.551 3.255,-4.551 -17.89,-11.09 -34.729,-11.801 -34.729,-11.801 -4.518,-0.807 -6.291,-1.25 -6.968,-1.486 0,0 -0.074,0.008 -0.422,-0.156 -0.666,-0.266 -2.298,-1.086 -6.248,-3.424 0,0 -13.217,-10.459 -34.008,-13.738 0.002,0 -2.937,3.123 -0.506,5.57 z m 45.631,17.633 c 4.833,-2.863 17.808,1.066 17.808,1.066 3.981,1.25 6.585,2.662 6.585,2.662 8.938,4.654 1.849,12.918 1.849,12.918 -6.63,9.52 -17.32,3.555 -17.32,3.555 -8.85,-3.074 -10.468,-10.111 -10.468,-10.111 -2.539,-6.276 1.546,-10.09 1.546,-10.09 z m -32.984,-17.594 c 0,0 2.893,0.635 6.723,2.287 0,0 12.395,5.494 14.186,10.818 0,0 0.604,5.559 -5.419,8.652 0,0 -5.819,4.273 -14.528,0.826 0,0 -11.992,-2.465 -10.799,-14.006 -0.001,10e-4 0.027,-10.884 9.837,-8.577 z"
           id="path216" />
        <path
           style="fill:#01abb7"
           inkscape:connector-curvature="0"
           d="m 786.328,398.52 9.282,26.369 c 1.678,-0.693 4.53,-1.736 5.969,-2.252 l -8.669,-26.299 c -1.609,0.408 -4.705,1.26 -6.582,2.182 z m 9.851,27.974 10.322,29.355 0.045,0.127 c 1.282,-0.52 3.684,-1.225 5.03,-1.598 l -0.037,-0.133 -9.405,-29.908 c -1.593,0.52 -4.362,1.552 -5.955,2.157 z"
           id="path218" />
        <path
           style="fill:#575756"
           inkscape:connector-curvature="0"
           d="m 810.566,466.754 0.148,0.402 5.641,9.271 -1.434,-11.055 c -1.362,0.204 -3.172,0.892 -4.355,1.382 z"
           id="path220" />
        <path
           style="fill:#706f6f"
           inkscape:connector-curvature="0"
           d="m 785.581,393.117 0.738,5.369 0.011,0.027 c 0.493,-0.232 1.06,-0.477 1.663,-0.693 1.045,-0.391 2.188,-0.742 3.194,-1.021 0.65,-0.191 1.251,-0.336 1.718,-0.461 l -0.147,-0.465 -2.647,-4.539 -1.416,0.564 -1.551,0.609 -1.563,0.61 z m 10.029,31.772 0.072,0.191 0.496,1.414 c 1.594,-0.605 4.362,-1.637 5.955,-2.156 l -0.214,-0.66 -0.341,-1.041 c -1.437,0.515 -4.29,1.558 -5.968,2.252 z m 10.936,31.088 4.021,10.777 c 1.183,-0.49 2.992,-1.178 4.355,-1.381 l -0.023,-0.186 -3.322,-10.809 c -1.348,0.374 -3.749,1.079 -5.031,1.599 z M 792.91,396.338 c 0,0 1.22,-0.254 1.707,0.963 0,0 5.823,16.17 5.773,18.238 l -0.365,0.854 c 0,0 -0.136,-1.555 -0.943,-3.814 0,0 -4.636,-15.279 -6.007,-15.658 l -0.165,-0.583 z"
           id="path222" />
        <path
           style="opacity:0.16000001;fill:#ffffff"
           inkscape:connector-curvature="0"
           d="m 797.193,424.258 0.572,1.635 10.238,29.421 0.047,0.125 3.765,10.821 0.071,0.181 4.251,9.407 -2.464,-10.203 -0.045,-0.196 -3.392,-10.679 -0.034,-0.098 -9.769,-29.74 -0.557,-1.672 -8.688,-26.461 -0.057,-0.16 -2.437,-4.741 -1.55,0.61 0.849,5.312 -0.001,0.012"
           id="path224" />
      </g>
    </g>
  </g>
</svg>
