<?xml version="1.0" encoding="UTF-8" standalone="no"?>
<!-- Created with Inkscape (http://www.inkscape.org/) -->

<svg
   xmlns:dc="http://purl.org/dc/elements/1.1/"
   xmlns:cc="http://creativecommons.org/ns#"
   xmlns:rdf="http://www.w3.org/1999/02/22-rdf-syntax-ns#"
   xmlns:svg="http://www.w3.org/2000/svg"
   xmlns="http://www.w3.org/2000/svg"
   xmlns:sodipodi="http://sodipodi.sourceforge.net/DTD/sodipodi-0.dtd"
   xmlns:inkscape="http://www.inkscape.org/namespaces/inkscape"
   width="50.946758mm"
   height="53.464203mm"
   viewBox="0 0 180.52001 189.44009"
   id="svg4398"
   version="1.1"
   inkscape:version="0.91 r"
   sodipodi:docname="globe.svg">
  <defs
     id="defs4400" />
  <sodipodi:namedview
     id="base"
     pagecolor="#ffffff"
     bordercolor="#666666"
     borderopacity="1.0"
     inkscape:pageopacity="0.0"
     inkscape:pageshadow="2"
     inkscape:zoom="0.35"
     inkscape:cx="268.11715"
     inkscape:cy="-256.70852"
     inkscape:document-units="px"
     inkscape:current-layer="layer1"
     showgrid="false"
     fit-margin-top="0"
     fit-margin-left="0"
     fit-margin-right="0"
     fit-margin-bottom="0"
     inkscape:window-width="1366"
     inkscape:window-height="716"
     inkscape:window-x="0"
     inkscape:window-y="0"
     inkscape:window-maximized="1" />
  <metadata
     id="metadata4403">
    <rdf:RDF>
      <cc:Work
         rdf:about="">
        <dc:format>image/svg+xml</dc:format>
        <dc:type
           rdf:resource="http://purl.org/dc/dcmitype/StillImage" />
        <dc:title></dc:title>
      </cc:Work>
    </rdf:RDF>
  </metadata>
  <g
     inkscape:label="Layer 1"
     inkscape:groupmode="layer"
     id="layer1"
     transform="translate(-106.88285,-86.213585)">
    <path
       inkscape:connector-curvature="0"
       style="fill:#674e71"
       d="m 283.85483,180.93368 c 0,47.893 -38.824,86.71 -86.70998,86.71 -47.891,0 -86.71,-38.817 -86.71,-86.71 0,-47.891 38.819,-86.711004 86.71,-86.711004 47.88598,0 86.70998,38.820004 86.70998,86.711004 z"
       id="path3927" />
    <path
       inkscape:connector-curvature="0"
       style="fill:#fbe4af"
       d="m 189.57685,203.37068 c -0.567,-0.241 -1.254,-0.193 -1.588,0.417 -2.257,4.117 -3.762,8.516 -6.465,12.425 -3.735,5.419 -10.796,9.343 -17.422,8.084 -6.242,-1.181 -9.61,-7.813 -12.372,-12.853 -1.796,-3.281 -2.971,-7.555 -5.075,-10.736 0.144,-0.789 -0.445,-1.706 -1.367,-1.342 -1.717,0.679 -6.582,1.577 -6.118,4.317 0.784,4.604 3.173,9.238 5.436,13.278 4.598,8.209 11.488,14.607 21.757,14.652 12.66,0.057 18.345,-6.326 24.05,-13.789 2.189,-2.862 5.888,-7.742 5.888,-11.594 -0.001,-2.36 -5.536,-2.358 -6.724,-2.859 z"
       id="path3929" />
    <path
       inkscape:connector-curvature="0"
       style="fill:#e18b56"
       d="m 204.89385,179.17968 c -1.107,-8.959 -11.109,-2.023 -14.273,1.553 -2.997,3.38 -4.831,7.916 -6.384,12.104 -0.923,2.482 -1.828,4.942 -2.544,7.452 -0.116,0.294 -0.231,0.594 -0.35,0.886 -0.466,1.091 -1.855,3.541 -0.833,4.719 -0.009,0.049 -0.017,0.096 -0.023,0.145 -0.018,0.162 0.222,0.229 0.309,0.106 0.026,0.019 0.042,0.037 0.066,0.056 0.042,0.021 0.086,0.044 0.129,0.07 0.565,0.601 1.409,0.993 2.365,1.275 3.796,1.862 8.697,3.421 12.79,2.766 2.746,0.184 5.911,0.389 7.486,-2.096 0.747,-1.173 0.646,-3.089 0.656,-4.41 0.027,-2.585 0.235,-5.211 0.408,-7.791 0.378,-5.664 0.9,-11.168 0.198,-16.835 z"
       id="path3931" />
    <path
       inkscape:connector-curvature="0"
       style="fill:#f5a15e"
       d="m 251.99383,196.46568 c -1.064,-7.414 -2.271,-15.725 -7.315,-21.58 -5.146,-5.962 -13.272,-7.06 -20.67498,-6.918 -7.787,0.15 -16.005,2.105 -22.531,6.432 -5.829,3.859 -6.881,12.535 -7.608,18.806 -0.553,4.734 -0.308,9.579 -0.531,14.336 -0.227,4.917 -0.213,9.845 0.05,14.757 0.201,3.719 0.334,7.458 0.552,11.177 -0.195,4.849 0.509,9.827 1.565,14.459 0.177,0.773 1.364,0.7 1.923,0.7 4.104,0 8.175,0.785 12.298,0.785 7.706,0.009 15.489,-0.628 23.18598,-0.922 3.302,-0.126 6.841,0.155 10.104,-0.301 3.015,-0.428 6.144,-0.111 9.079,-0.562 0.325,-0.051 0.477,-0.385 0.51,-0.669 0.902,-7.695 0.815,-15.635 1.205,-23.385 0.447,-8.969 -0.545,-18.238 -1.812,-27.115 z"
       id="path3933" />
    <path
       inkscape:connector-curvature="0"
       style="fill:#e18b56"
       d="m 236.19783,174.71968 c 0.46,-1.069 1.052,-2.895 1.401,-4.763 -4.23,-1.689 -9.04898,-2.076 -13.59598,-1.989 -5.706,0.107 -11.646,1.194 -16.979,3.466 1.245,5.294 5.769,9.782 10.901,11.279 7.259,2.123 15.25598,-1.004 18.27298,-7.993 z"
       id="path3935" />
    <path
       inkscape:connector-curvature="0"
       style="fill:#e4ac60"
       d="m 225.82885,166.12068 c -0.073,-2.838 -0.129,-5.795 -0.671,-8.588 -0.483,-2.482 -6.473,-1.333 -7.935,-1.024 -0.459,0.096 -0.551,0.526 -0.403,0.865 -0.259,5.087 0.299,10.388 1.786,15.604 0.886,3.126 5.024,3.72 6.613,0.557 1.036,-2.064 0.666,-5.223 0.61,-7.414 z"
       id="path3937" />
    <path
       inkscape:connector-curvature="0"
       style="fill:#711422"
       d="m 265.13683,107.81368 c -3.935,-12.553004 -18.495,-20.991004 -30.951,-19.174004 -3.019,0.444 -6.11698,-1.783 -9.09698,-2.187 -3.625,-0.496 -7.016,-0.195 -10.566,0.669 -6.546,1.591 -12.604,5.202 -17.406,10.006 -10.753,10.733004 -10.482,27.105004 -4.945,40.467004 0.069,0.16 0.245,0.177 0.377,0.11 0.164,0.167 0.348,0.32 0.561,0.455 1.451,0.932 3.522,-1.126 4.342,-2.028 1.351,-1.489 1.771,-2.884 3.655,-4.089 1.852,-1.186 5.04,-0.621 7.116,-0.402 4.005,0.425 7.885,0.484 11.906,0.173 3.415,-0.266 6.737,-0.88 10.03098,-1.865 4.515,-1.35 9.273,-4.438 13.846,-1.734 3.221,1.907 5.143,6.288 6.614,9.598 0.922,2.088 1.591,5.399 3.745,6.559 0.354,0.191 0.655,0.153 0.975,-0.082 2.059,-1.505 3.487,-3.948 4.789,-6.123 1.808,-3.03 3.698,-5.713 5.038,-9.021 2.757,-6.802 2.112,-14.502 -0.03,-21.332 z"
       id="path3939" />
    <path
       inkscape:connector-curvature="0"
       style="fill:#fbe4af"
       d="m 260.06283,130.04768 c -1.417,-0.333 -2.763,1.129 -3.302,2.423 -0.299,0.43 -0.58,0.874 -0.848,1.293 -0.271,-3.373 -1.024,-6.432 -2.704,-9.604 -1.747,-3.291 -3.795,-8.318 -7.082,-10.396 -0.539,-0.342 -1.085,0.192 -1.113,0.712 -0.031,0.612 0.045,1.549 -0.168,2.29 -1.091,-2.535 -1.889,-4.934 -3.756,-7.201 -1.112,-1.353 -1.984,-2.985 -3.567,-3.712 -0.053,-0.638 -1.095,-0.996 -1.555,-0.292 -0.707,1.099 -1.025,2.596 -1.542,3.804 -1.086,2.547 -2.904,4.816 -4.731,6.859 -2.66498,2.985 -6.38998,5.688 -10.26798,7.354 1.261,-1.279 2.223,-2.73 2.996,-4.825 0.227,-0.602 -0.394,-1.451 -1.042,-0.95 -5.141,3.979 -12.787,8.189 -19.651,6.799 1.398,-1.969 2.963,-3.896 2.828,-6.454 -0.033,-0.653 -0.777,-0.823 -1.211,-0.433 -0.872,0.769 -1.591,1.636 -2.438,2.372 0.535,-1.653 1.066,-3.325 0.665,-5.051 -0.096,-0.407 -0.699,-0.625 -1.025,-0.359 -3.343,2.688 -5.353,7.009 -7.13,10.909 -2.865,6.287 -1.756,16.858 -0.334,20.938 6.515,13.947 19.909,20.405 35.172,19.023 13.87398,-1.256 23.55898,-9.855 28.29198,-22.044 0.975,0.194 2.192,-0.307 2.837,-1.093 1.807,-2.185 2.526,-5.179 3,-7.914 0.335,-1.929 -0.288,-3.97 -2.323,-4.448 z"
       id="path3941" />
    <path
       inkscape:connector-curvature="0"
       style="fill:#e4ac60"
       d="m 215.73185,137.51268 c 0.238,-0.229 0.64,-0.059 0.59,0.289 -0.198,1.216 -0.902,2.306 -1.209,3.506 -0.155,0.608 -0.168,1.114 0.307,1.59 0.45,0.45 1.212,-0.11 1.802,0.278 0.169,0.11 0.337,0.311 0.264,0.535 -0.247,0.798 -0.922,1.089 -1.757,1.021 -1.028,-0.084 -1.688,-0.82 -2.097,-1.711 -0.76,-1.665 0.998,-4.418 2.1,-5.508 z"
       id="path3943" />
    <path
       inkscape:connector-curvature="0"
       style="fill:#be1639"
       d="m 176.89985,241.90368 c -0.393,-1.416 -2,-2.348 -3.066,-3.164 -2.607,-2 -5.439,-3.208 -8.398,-4.595 -4.232,-1.981 -8.224,-3.415 -12.853,-1.866 -4.549,1.519 -8.949,4.913 -12.65,7.889 -1.191,0.963 -1.012,1.766 -0.318,2.371 -0.017,0.163 0.06,0.333 0.276,0.413 0.24,0.092 0.494,0.161 0.752,0.218 0.774,0.347 1.665,0.563 2.251,0.618 2.854,0.259 5.822,0.075 8.702,0.13 0.266,0.004 0.533,0.017 0.802,0.024 0.407,0.03 0.813,0.058 1.224,0.091 5.685,0.417 11.361,-0.076 17.042,-0.037 1.04,0.006 7.009,0.714 6.236,-2.092 z"
       id="path3945" />
    <path
       inkscape:connector-curvature="0"
       style="fill:#be1639"
       d="m 161.06785,221.40868 c -0.003,-3.537 0.246,-7.277 -0.283,-10.816 0.32,-0.654 0.192,-1.765 -0.334,-2.249 -0.677,-0.629 -1.728,-0.58 -2.6,-0.616 -0.763,-0.031 -2.138,-0.026 -2.707,0.605 -0.326,0.36 -0.432,0.833 -0.26,1.238 -0.754,3.835 -0.458,7.954 -0.465,11.838 -0.012,4.126 -0.479,8.543 0.379,12.595 0.036,0.183 0.164,0.289 0.314,0.336 0.013,0.019 0.022,0.037 0.037,0.051 0.542,0.694 1.391,0.813 2.224,0.874 1.292,0.097 3.682,0.125 3.393,-1.721 0.732,-3.924 0.306,-8.159 0.302,-12.135 z m -19.132,-67.498 c -0.97,-1.273 -2.172,-2.75 -3.695,-3.361 -2.051,-0.824 -2.985,1.34 -2.677,3.047 0.26,1.434 2.095,4.14 3.815,4.679 0.265,0.193 0.617,0.27 0.987,0.102 0.79,-0.355 2.255,-1.114 2.51,-2.04 0.259,-0.956 -0.399,-1.717 -0.94,-2.427 z m 42.779,60.628 c -0.412,-0.496 -0.91,-0.936 -1.381,-1.395 -0.194,-0.32 -0.443,-0.618 -0.715,-0.914 -0.68,-0.743 -1.432,-1.647 -2.218,-2.27 -0.815,-0.647 -1.508,-0.637 -2.403,-0.14 -0.517,0.285 -0.874,0.843 -1.405,1.093 -0.856,0.393 -0.524,1.465 0.177,1.754 0.178,0.233 0.373,0.452 0.545,0.678 0.467,0.598 1.079,1.184 1.674,1.737 0.486,0.794 1.284,1.53 1.834,2.034 1.041,0.951 2.446,1.524 3.783,0.885 1.481,-0.711 0.899,-2.517 0.109,-3.462 z"
       id="path3947" />
    <path
       inkscape:connector-curvature="0"
       style="fill:#be1639"
       d="m 181.48485,212.05968 c -0.559,-0.401 -1.101,-0.205 -1.413,0.221 -0.252,-0.01 -0.519,0.082 -0.75,0.318 -7.2,7.362 -18.318,6.401 -27.548,4.706 -8.633,-1.584 -18.342,-6.688 -23.775,-13.766 -2.382,-3.106 -3.074,-7.542 -3.933,-11.267 -1.191,-5.192 -0.848,-10.077 -0.091,-15.294 0.738,-5.076 4.039,-10.002 7.306,-13.823 2.123,-2.487 4.791,-4.527 6.824,-7.091 0.388,-0.165 0.573,-0.464 0.627,-0.832 0,-0.003 0.003,-0.003 0.003,-0.003 0.117,-0.169 0.093,-0.356 -0.003,-0.509 -0.054,-0.518 -0.247,-1.056 -0.408,-1.432 -0.042,-0.105 -0.099,-0.215 -0.157,-0.326 -0.008,-0.275 -0.202,-0.529 -0.505,-0.571 -0.033,-0.02 -0.063,-0.048 -0.099,-0.065 -0.421,-0.184 -0.848,0.006 -0.97,0.356 -1.486,0.628 -2.708,1.936 -3.947,2.938 -2.267,1.828 -5.148,4.332 -6.718,6.799 -3.44,5.416 -5.492,10.603 -6.542,16.953 -1.007,6.092 -0.159,12.035 1.292,17.974 1.435,5.86 4.293,10.106 8.576,14.314 3.705,3.637 9.273,6.085 14.041,7.968 6.186,2.449 12.496,3.493 19.14,3.482 6.171,-0.008 11.974,-1.837 17.541,-4.437 3.051,-1.426 4.773,-4.246 1.509,-6.613 z"
       id="path3949" />
    <path
       inkscape:connector-curvature="0"
       style="fill:#d5cac9"
       d="m 176.28885,157.35668 c -27.404,-18.161 -57.924,6.505 -49.647,37.094 3.06,11.313 12.509,18.283 22.907,20.484 3.354,1.16 6.916,1.876 10.613,2.102 31.104,1.882 39.602,-44.117 16.127,-59.68 z"
       id="path3951" />
    <g
       transform="translate(-223.45015,0.53867571)"
       style="fill:#e8e8ec"
       id="g3953">
      <path
         inkscape:connector-curvature="0"
         d="m 380.242,200.453 c 0.258,0.062 0.34,0.321 0.553,0.45 0.178,0.103 0.375,0.17 0.583,0.194 0.3,0.033 0.672,0.016 0.881,-0.232 0.238,-0.292 0.051,-0.607 -0.17,-0.835 0.02,-0.356 -0.217,-0.658 -0.577,-0.82 -0.252,-0.119 -0.43,-0.132 -0.708,-0.073 -0.384,0.073 -0.832,0.011 -1.225,0.005 -0.209,-0.005 -0.317,0.162 -0.317,0.327 -0.004,0.002 -0.006,0.002 -0.008,0.002 0,0 0,0.002 -0.004,0.002 -0.032,-0.336 -0.449,-0.655 -0.707,-0.771 -0.396,-0.183 -0.921,-0.03 -1.341,-0.09 -0.526,-0.08 -1.044,-0.377 -1.533,-0.583 -0.592,-0.25 -1.525,-0.676 -2.165,-0.411 -0.025,0.016 -0.028,0.035 -0.045,0.049 -0.084,0.038 -0.159,0.105 -0.197,0.243 -0.097,0.347 0.39,0.566 0.62,0.675 0.769,0.356 1.568,0.67 2.342,1.027 0.345,0.161 1.153,1.14 1.634,0.862 0.309,-0.182 0.288,-0.419 0.694,-0.365 0.253,0.031 0.385,-0.095 0.545,-0.255 l 0,0.003 c 0.255,0.436 0.694,0.479 1.145,0.596 z m 8.275,-30.378 c 0.513,0.015 0.682,-0.645 0.996,-0.899 0.388,-0.311 0.645,-0.745 0.908,-1.161 0.264,-0.41 0.082,-0.869 -0.269,-1.151 -0.461,-0.38 -1.324,-0.198 -1.821,0.218 -0.034,-0.009 -0.069,-0.005 -0.105,0.023 -0.42,0.305 -0.835,0.398 -0.994,0.951 -0.116,0.409 0.238,1.007 0.474,1.31 0.211,0.27 0.423,0.698 0.811,0.709 z"
         id="path3955" />
      <path
         inkscape:connector-curvature="0"
         d="m 374.023,166.21 c 0.199,0.719 0.826,0.721 1.387,1.219 0.161,0.145 0.377,0.145 0.539,0 0.359,-0.325 0.602,-0.707 0.899,-1.097 0.592,-0.778 0.391,-0.074 0.813,0.588 0.85,1.344 4.162,1.908 3.925,3.973 -0.135,1.183 1.036,2.111 1.74,2.878 1.138,1.23 2.779,0.543 4.139,0.373 0.403,-0.048 0.516,-0.585 0.097,-0.724 -1.975,-0.651 -1.44,-4.522 -0.528,-5.787 0.825,-1.143 -1.659,-3.045 -2.386,-3.5 -0.616,-0.389 -1.556,-0.615 -2.261,-0.793 -0.591,-0.147 -0.848,-0.597 -1.439,-0.761 -1.114,-0.306 -3.498,1.613 -4.169,0.942 -0.138,-0.139 -0.308,-0.122 -0.432,-0.034 -0.594,-0.051 -2.027,-0.246 -1.837,0.71 0.147,0.74 -0.673,1.348 -0.487,2.013 z"
         id="path3957" />
      <path
         inkscape:connector-curvature="0"
         d="m 374.21,169.905 c 0.278,0.288 0.706,0.75 1.092,0.875 1.302,0.421 2.287,1.664 0.795,2.526 -0.321,0.188 -0.149,0.611 0.175,0.648 0.988,0.104 1.72,0.289 2.536,0.88 0.26,0.19 0.738,0.185 0.967,-0.059 0.55,-0.592 1.218,-1.481 0.866,-2.278 -0.229,-0.529 -0.47,-0.872 -0.945,-1.168 -0.355,-0.222 -0.765,-0.084 -0.993,-0.621 -0.121,-0.285 -0.203,-0.571 -0.345,-0.851 -0.205,-0.408 -0.623,-0.569 -1.019,-0.702 -0.869,-0.286 -1.59,-0.759 -2.502,-0.974 -0.274,-0.064 -0.449,0.175 -0.435,0.391 -0.612,0.262 -0.832,0.671 -0.192,1.333 z m 23.252,0.046 c 0.467,-0.304 0.321,-1.109 0.221,-1.55 -0.164,-0.711 -0.717,-0.898 -1.375,-1.039 -0.549,-0.117 -1.064,-0.157 -1.438,-0.62 -0.277,-0.34 -0.729,-0.445 -1.128,-0.569 -0.11,-0.037 -0.227,0.006 -0.309,0.08 -0.061,0.023 -0.109,0.073 -0.109,0.15 0,0.017 0.009,0.037 0.011,0.056 0,0.011 -0.005,0.018 -0.005,0.025 0.014,0.267 0.036,0.349 0.201,0.55 0.008,0.011 0.023,0.008 0.029,0.017 0.021,0.05 0.044,0.1 0.062,0.153 0.141,0.45 0.268,0.902 0.44,1.345 0.25,0.636 0.646,1.408 1.202,1.83 0.353,0.269 1.04,0.45 1.203,-0.15 0.046,-0.161 0.03,-0.303 -0.021,-0.434 0.334,0.184 0.659,0.385 1.016,0.156 z"
         id="path3959" />
      <path
         inkscape:connector-curvature="0"
         d="m 406.245,162.84 c -0.723,0.009 -1.407,0.299 -1.817,0.948 -0.119,0.045 -0.2,0.169 -0.185,0.291 -0.053,0.051 -0.092,0.119 -0.101,0.2 -0.152,1.116 0.205,1.755 -0.483,2.958 -0.08,0.136 -0.045,0.283 0.052,0.398 0.61,0.742 0.645,1.458 0.636,2.29 -0.006,0 -0.006,-0.002 -0.008,-0.002 -0.196,-0.086 -0.439,-0.027 -0.499,0.203 -0.296,1.12 -0.291,2.261 -0.345,3.383 -0.064,-0.237 -0.184,-0.476 -0.401,-0.692 -0.661,-0.657 -0.079,-1.135 -0.24,-1.859 -0.168,-0.765 -0.432,-1.462 -0.672,-2.176 0.232,0.035 0.464,0.074 0.714,0.046 0.172,-0.017 0.333,-0.105 0.378,-0.286 0.127,-0.515 -0.172,-0.881 -0.583,-1.2 0.462,-0.026 0.874,-0.148 1.044,-0.442 0.255,-0.43 0.091,-0.608 -0.153,-1.013 -0.935,-1.533 -0.679,-2.622 -0.641,-4.321 0.024,-0.922 -0.653,-1.621 -1.151,-2.314 -0.463,-0.643 -0.902,-1.3 -1.349,-1.942 -0.235,-0.169 -0.464,-0.333 -0.702,-0.492 -14.791,-9.799 -30.482,-7.125 -40.497,2.221 -0.158,0.583 -0.071,1.222 0.164,1.838 0.235,0.615 1.036,0.236 0.431,1.09 -0.156,0.221 0.019,0.476 0.226,0.558 0.676,0.273 1.393,-0.188 1.969,-0.512 0.788,-0.439 1.896,-0.931 2.559,-1.49 0.79,-0.667 0.557,-2.065 1.823,-2.065 1.243,0 0.414,-1.565 1.874,-1.287 0.495,0.097 1.075,-0.404 1.219,-0.846 0.329,-1.01 0.968,-0.628 1.772,-0.852 0.496,-0.133 1.709,-1.238 2.146,-0.269 0.33,0.735 1.573,0.604 2.169,0.541 0.563,-0.06 1.34,0.071 1.869,-0.088 0.103,-0.031 1.482,-0.608 1.508,-0.602 0.996,0.144 3.006,1.576 3.682,-0.343 0.292,-0.826 0.361,0.283 0.969,0.852 0.439,0.413 0.929,0.702 1.407,1.067 0.58,0.45 1.743,2.02 2.489,1.896 0.491,-0.082 2.213,-0.116 0.736,0.447 -0.208,0.082 -0.529,0.155 -0.699,0.308 -0.333,0.292 -1.101,0.967 -0.506,1.508 0.405,0.373 0.382,0.36 0.898,0.535 0.914,0.309 1.339,0.818 2.077,1.398 1.657,1.304 1.569,2.114 3.604,2.717 0.221,0.067 0.442,-0.073 0.509,-0.289 0.354,-0.251 0.708,-0.503 1.058,-0.758 0.317,-0.054 0.326,-0.438 0.17,-0.637 -0.365,-0.467 -1.75,-1.07 -1.843,-1.522 -0.082,-0.414 -0.419,-0.575 -0.784,-0.69 0.183,-0.287 0.28,-0.586 0.292,-0.895 0.849,0.405 1.884,0.72 2.049,1.321 0.385,1.398 1.609,1.542 1.248,3.478 -0.093,0.497 -0.205,0.82 -0.089,1.313 0.033,0.127 0.149,0.243 0.278,0.274 1.331,0.323 2.365,2.51 2.022,3.931 -0.13,0.529 0.324,1.063 0.868,0.984 1.524,-0.223 -0.2,1.149 0.407,1.704 0.931,0.849 0.976,1.862 2.286,2.504 0.198,0.096 0.423,0.051 0.548,-0.145 0.268,-0.417 0.575,-0.905 0.756,-1.4 -0.07,0.58 -0.184,1.152 -0.41,1.712 -0.322,0.807 0.712,3.138 0.642,3.747 -0.175,1.471 -0.166,2.857 0.1,4.314 0.435,2.353 1.154,4.481 3.166,5.905 2.132,1.505 3.583,-1.668 4.675,-2.721 0.679,-0.653 1.188,-1.426 1.574,-2.275 0.222,-8.055 -2,-16.205 -6.905,-22.455 z"
         id="path3961" />
      <path
         inkscape:connector-curvature="0"
         d="m 399.066,212.442 c -0.053,-1.145 -0.41,-1.456 -0.165,-2.863 0.141,-0.8 0.75,-1.593 1.124,-2.3 0.458,-0.852 0.442,-1.456 0.263,-2.338 -0.037,-0.18 -0.253,-0.364 -0.448,-0.338 -1.051,0.132 -1.845,1.115 -2.753,1.229 -0.854,0.102 -1.842,-0.115 -2.713,-0.123 -0.819,-0.003 -0.876,-0.674 -1.333,-1.283 -0.239,-0.323 -0.79,-0.734 -1.221,-0.499 -1.546,0.826 -3.642,-0.343 -4.902,-1.1 -0.155,-0.088 -0.402,-0.078 -0.522,0.067 -0.505,0.622 -3.105,0.659 -3.711,0.682 -0.563,0.021 -1.191,-0.106 -1.627,0.342 0.32,-0.332 -1.075,-0.899 -1.226,-0.899 -0.812,0 -1.402,0.519 -1.929,1.074 -0.441,0.198 -0.987,0.426 -1.102,0.774 -0.443,-0.024 -0.869,-0.1 -1.357,-0.253 -1.5,-0.467 -1.211,-0.823 -0.948,-1.888 0.174,-0.699 0.079,-1.208 -0.594,-1.601 -0.993,-0.584 -3.011,-0.082 -2.456,-1.744 0.209,-0.622 -0.266,-1.267 -0.777,-1.564 -0.48,-0.279 -0.895,-0.008 -1.227,0.335 -2.867,2.937 -4.919,-6.355 -0.229,-3.611 1.144,0.667 2.637,-1.046 3.655,-0.06 0.711,0.69 1.555,1.695 2.539,1.964 0.121,0.033 0.283,0 0.369,-0.101 0.834,-0.977 -0.605,-3.15 0.69,-3.838 1.151,-0.61 2.953,-5.707 3.688,-5.469 0.154,0.051 0.363,-0.026 0.435,-0.178 0.082,-0.17 0.192,-0.344 0.211,-0.536 0.113,-1.041 1.089,-0.858 1.852,-1.065 0.729,-0.206 1.352,-1.184 1.703,-1.792 0.145,-0.253 -0.017,-0.726 -0.257,-0.868 -0.724,-0.423 -0.8,0.069 -1.218,-0.78 -0.216,-0.441 -0.867,-0.241 -1.213,-0.102 0.032,-0.031 0.051,-0.048 0.086,-0.076 0.549,-0.205 1.228,-0.133 1.736,-0.434 0.362,-0.211 0.41,-0.86 0.581,-0.211 0.097,0.367 0.544,0.695 0.778,1.002 0.614,0.781 1.222,0.722 2.119,0.6 0.278,-0.041 0.311,-0.416 0.153,-0.592 -0.595,-0.643 -1.376,-1.354 -2.128,-1.797 -0.459,-0.269 -0.829,-1.779 -1.174,-2.3 -0.383,-0.574 -0.645,-0.617 -1.237,-0.801 -1.001,-0.311 -1.848,-1.42 -2.917,-1.562 -1.11,-0.15 -2.409,-1.961 -3.333,-0.605 -0.554,0.806 0.195,2.28 -0.184,2.869 -0.063,0.102 -0.602,2.184 -1.087,1.551 -0.367,-0.484 -0.346,-1.172 -0.769,-1.6 -0.627,-0.627 -2.166,0.428 -1.571,-1.768 0.481,-1.789 1.519,-2.512 2.747,-3.712 0.49,-0.476 0.482,-1.22 -0.295,-1.435 -1.057,-0.291 -1.029,-0.523 -1.328,-1.517 -0.114,-0.394 -0.343,-0.5 -0.7,-0.552 -0.164,-0.022 -0.3,0.014 -0.396,0.159 -0.271,0.414 -0.225,0.323 -0.312,0.852 -0.295,-0.115 -0.588,-0.231 -0.886,-0.347 0.063,-0.175 0.103,-0.356 0.125,-0.542 0.029,-0.556 -0.082,-1.109 -0.639,-1.414 -0.651,-0.36 -1.941,-2.094 -2.815,-0.598 -0.451,0.767 0.444,1.545 1.033,2.08 -0.808,-0.685 -1.953,-1.112 -2.717,-1.901 -1.039,-1.078 -0.807,-2.742 -1.673,-3.732 -0.09,-0.097 -0.249,-0.137 -0.37,-0.097 -0.906,0.277 -2.185,-0.704 -3.028,-0.215 -0.849,0.499 -0.869,1.404 -1.998,1.571 -0.133,0.022 -0.206,0.093 -0.246,0.184 -0.068,0.035 -0.132,0.066 -0.212,0.122 -0.653,0.493 -0.829,2.437 -2.112,1.372 -0.165,-0.135 -0.446,-0.101 -0.502,0.134 -0.114,0.456 -0.242,0.814 0.249,1.12 1.774,1.121 4.248,1.234 3.495,4.211 -0.351,1.393 -0.743,2.792 -0.653,4.236 0.1,1.687 -0.639,2.779 -1.363,4.219 -1.108,2.218 -2.011,5.881 -1.004,8.276 0.8,1.91 0.529,4.82 2.433,6.155 0.268,0.188 0.637,-0.123 0.546,-0.421 -0.203,-0.666 -0.427,-1.323 -0.625,-1.988 -0.422,-1.436 0.229,-0.2 0.35,0.23 0.282,0.972 0.333,0.802 0.771,2.042 0.277,0.799 0.132,1.355 0.353,2.19 0.371,1.396 2.033,2.765 3.385,3.187 2.828,0.879 5.622,1.858 7.563,4.237 1.594,1.95 2.81,1.745 4.791,1.585 -0.037,1.253 0.305,2.757 -1.376,3.04 -0.622,0.104 -0.964,2.206 -0.526,2.577 0.994,0.851 1.865,1.826 2.805,2.736 0.447,0.436 0.843,1.364 1.413,1.911 1.509,0.266 3.048,0.454 4.611,0.551 6.045,0.365 11.231,-1.083 15.495,-3.758 -0.023,-0.1 -0.041,-0.199 -0.043,-0.298 z"
         id="path3963" />
    </g>
    <path
       inkscape:connector-curvature="0"
       style="fill:#3b0f12"
       d="m 235.75983,135.79268 c 0.226,1.392 1.604,2.471 3.017,1.95 0.754,-0.281 1.384,-0.982 1.464,-1.738 0.118,-0.067 0.21,-0.181 0.229,-0.343 0.215,-2.373 -5.171,-2.715 -4.71,0.131 z m -32.13398,-6.328 c 0.918,-2.733 -4.46,-3.265 -4.628,-0.889 -0.008,0.167 0.065,0.292 0.174,0.377 -0.049,0.759 0.456,1.55 1.164,1.949 1.306,0.743 2.837,-0.098 3.29,-1.437 z"
       id="path3965" />
    <path
       inkscape:connector-curvature="0"
       style="fill:#f8ba99"
       d="m 235.11083,146.02468 c 3.364,-4.163 10.378,-1.22 9.687,4.086 -0.326,2.51 -1.58,4.292 -4.165,4.648 -0.274,0.04 -0.565,0.054 -0.855,0.048 -4.694,0.224 -7.854,-4.832 -4.667,-8.782 z m -31.46198,-5.987 c -1.603,-5.108 -9.203,-4.944 -10.508,0.246 -0.615,2.453 -0.107,4.572 2.159,5.855 0.249,0.135 0.512,0.253 0.781,0.356 4.285,1.932 9.085,-1.61 7.568,-6.457 z"
       id="path3967" />
    <path
       inkscape:connector-curvature="0"
       style="fill:#fcce9a"
       d="m 249.84883,185.18168 c -2.89,1.31 -5.798,2.575 -8.854,3.535 -5.099,1.606 -10.712,1.91 -16.02298,1.906 -5.734,-0.003 -11.295,-1.008 -16.875,-2.229 -4.367,-0.96 -8.505,-2.711 -12.79,-3.912 -0.764,2.976 -1.135,6.066 -1.442,8.725 -0.024,0.182 -0.036,0.365 -0.054,0.543 2.934,2.261 6.783,3.643 10.085,4.732 6.726,2.229 14.021,3.024 21.076,3.151 9.18898,0.165 19.11298,-1.12 26.91898,-5.859 -0.498,-3.473 -1.056,-7.112 -2.042,-10.592 z m 2.865,16.704 c -0.777,0.327 -1.558,0.643 -2.346,0.936 -7.844,2.894 -15.794,4.177 -24.05398,5.154 -8.3,0.979 -16.635,1.21 -24.813,-0.654 -1.408,-0.323 -4.808,-1.928 -8.079,-2.914 -0.017,1.049 -0.04,2.093 -0.089,3.135 -0.108,2.351 -0.157,4.704 -0.157,7.062 2.651,1.313 5.375,2.235 6.971,2.659 9.028,2.408 18.502,2.326 27.712,1.312 8.91898,-0.985 17.47998,-2.286 25.88198,-5.485 -0.2,-3.747 -0.567,-7.499 -1.027,-11.205 z m 0.788,30.087 c 0.088,-2.808 0.162,-5.611 0.303,-8.391 0.066,-1.427 0.093,-2.863 0.099,-4.307 -1.483,0.602 -2.966,1.193 -4.486,1.713 -7.501,2.567 -15.241,3.245 -23.07598,4.054 -7.521,0.778 -15.402,0.169 -22.867,-1.023 -3.375,-0.533 -6.74,-1.157 -10.093,-1.83 0,0.038 0,0.075 0.002,0.11 0.188,3.448 0.32,6.917 0.515,10.372 1.503,0.485 2.896,0.848 3.938,1.113 8.774,2.201 17.986,3.083 27.019,2.759 9.16598,-0.333 18.94698,-1.358 27.68398,-4.24 0.321,-0.106 0.64,-0.221 0.962,-0.33 z"
       id="path3969" />
    <path
       inkscape:connector-curvature="0"
       style="fill:#ffffff"
       d="m 207.46685,149.46268 c 0,0 6.005,4.94 19.765,1.602 0,0 -2.003,9.75 -11.756,7.88 -9.072,-1.74 -8.009,-9.482 -8.009,-9.482 z"
       id="path3971" />
    <path
       inkscape:connector-curvature="0"
       style="fill:#e4ac60"
       d="m 227.73685,151.24568 c 0.013,-0.323 -0.215,-0.654 -0.602,-0.648 -2.625,0.049 -5.233,0.718 -7.896,0.742 -4.128,0.028 -8.19,-0.914 -11.907,-2.671 -0.196,-0.094 -0.442,0.036 -0.476,0.229 -0.064,0.051 -0.105,0.113 -0.138,0.187 -0.693,1.813 1.626,5.588 2.563,7.031 1.997,3.065 6.064,4.281 9.558,3.942 3.093,-0.297 5.469,-2.037 7.321,-4.369 0.524,-0.661 2.037,-3.26 1.577,-4.443 z m -20.451,-1.659 c 0.038,0.044 0.083,0.085 0.126,0.127 -0.111,-0.017 -0.248,-0.057 -0.424,-0.136 0.11,0.049 0.209,0.04 0.298,0.009 z m 16.996,5.974 c -1.511,1.939 -4.188,2.872 -6.56,3.118 -3.53,0.371 -6.865,-2.196 -8.308,-5.164 -0.461,-0.909 -0.834,-1.845 -1.132,-2.818 -0.045,-0.124 -0.079,-0.235 -0.109,-0.334 2.24,1.55 5.985,1.895 8.284,2.139 2.507,0.266 6.643,0.715 9.535,-0.15 -0.298,1.191 -0.869,2.261 -1.71,3.209 z"
       id="path3973" />
    <path
       inkscape:connector-curvature="0"
       style="fill:#fbe4af"
       d="m 205.71085,192.15068 c -2.273,-2.744 -4.167,-5.045 -7.592,-6.259 -1.026,-0.365 -2.111,-0.587 -3.203,-0.789 -2.05,-1.129 -4.224,-2.149 -6.019,-3.487 -1.893,-1.411 -5.563,-3.738 -7.748,-1.556 -3.049,3.053 3.635,8.214 7.576,9.981 -0.702,1.086 -0.683,2.302 0.1,3.405 -1.478,0.915 -2.163,2.594 -1.558,3.957 -0.349,0.224 -0.655,0.52 -0.893,0.919 -1.133,1.94 1.438,4.829 2.555,6.108 4.398,5.014 14.014,6.158 19.488,2.664 5.318,-3.401 -0.087,-11.777 -2.706,-14.943 z"
       id="path3975" />
    <path
       inkscape:connector-curvature="0"
       style="fill:#fbe4af"
       d="m 257.08783,201.62568 c -2.359,0.074 -4.532,0.373 -6.901,0.083 -0.627,-0.074 -1.148,0.586 -1.156,1.16 -0.054,4.985 -0.645,9.87 -2.057,14.666 -1.018,3.45 -2.305,7.389 -6.077,8.508 -3.688,1.092 -7.505,-0.101 -10.72,-1.92 -4.93098,-2.793 -8.83398,-7.54 -12.52698,-11.74 -3.642,-4.131 -7.1,-8.374 -10.872,-12.384 0.138,-0.196 0.223,-0.429 0.223,-0.674 l 0,-0.051 c 0,-1.021 -1.033,-1.369 -1.747,-1.058 -1.744,0.477 -4.668,1.009 -5.226,3.031 -0.654,2.383 4.044,6.448 5.307,8.078 3.226,4.148 6.62,8.229 9.984,12.268 3.35,4.015 6.975,6.885 11.256,9.826 3.93798,2.71 8.11898,3.415 12.81398,3.471 4.24,0.043 6.93,-1.904 9.965,-4.56 7.284,-6.374 7.341,-18.508 8.843,-27.258 0.116,-0.7 -0.303,-1.473 -1.109,-1.446 z"
       id="path3977" />
    <path
       inkscape:connector-curvature="0"
       style="fill:#855346"
       d="m 238.70483,133.36768 c 2.69,0.255 4.58,1.559 6.215,3.598 0.48,0.602 -0.405,1.284 -0.957,0.851 -1.716,-1.338 -2.782,-2.47 -5.06,-2.883 -1.453,-0.262 -2.368,0.484 -3.706,0.523 -0.358,0.008 -0.569,-0.325 -0.442,-0.648 0.599,-1.5 2.558,-1.571 3.95,-1.441 z m -33.76398,-6.423 c -2.597,-0.75 -4.83,-0.232 -7.102,1.061 -0.668,0.382 -0.094,1.344 0.579,1.146 2.085,-0.616 3.491,-1.278 5.764,-0.826 1.444,0.288 2.023,1.318 3.258,1.848 0.328,0.142 0.65,-0.09 0.645,-0.441 -0.008,-1.614 -1.797,-2.401 -3.144,-2.788 z"
       id="path3979" />
    <path
       inkscape:connector-curvature="0"
       style="fill:#ffffff"
       d="m 201.44385,130.01768 c 0.043,-0.303 -0.164,-0.584 -0.466,-0.625 -0.298,-0.046 -0.578,0.16 -0.626,0.461 -0.043,0.3 0.164,0.583 0.463,0.625 0.303,0.047 0.583,-0.159 0.629,-0.461 z m -1.345,-0.759 c 0.024,-0.187 -0.105,-0.363 -0.292,-0.391 -0.19,-0.028 -0.362,0.103 -0.391,0.289 -0.029,0.189 0.104,0.365 0.286,0.391 0.19,0.032 0.364,-0.099 0.397,-0.289 z"
       id="path3981" />
    <g
       style="fill:#ffffff"
       transform="translate(-222.38015,-100.60131)"
       id="g3983">
      <circle
         cx="459.89999"
         cy="237.034"
         r="0.55000001"
         id="circle3985" />
      <path
         inkscape:connector-curvature="0"
         d="m 459.095,236.357 c 0.033,-0.186 -0.102,-0.362 -0.286,-0.39 -0.188,-0.028 -0.364,0.102 -0.393,0.289 -0.028,0.189 0.102,0.362 0.292,0.391 0.187,0.029 0.364,-0.1 0.387,-0.29 z"
         id="path3987" />
    </g>
    <path
       inkscape:connector-curvature="0"
       style="fill:#855346"
       d="m 197.30785,145.13368 c -0.311,-0.044 -0.382,0.439 -0.073,0.484 0.313,0.046 0.381,-0.435 0.073,-0.484 z m -4.536,-3.472 c -0.294,-0.042 -0.362,0.413 -0.064,0.456 0.289,0.046 0.357,-0.41 0.064,-0.456 z m 4.713,-0.064 c -0.208,-0.037 -0.253,0.285 -0.049,0.319 0.207,0.028 0.258,-0.291 0.049,-0.319 z m -1.971,4.338 c -0.054,-0.034 -0.11,-0.04 -0.164,-0.018 -0.114,0.011 -0.166,0.096 -0.166,0.202 -0.033,0.098 -0.004,0.192 0.104,0.237 0.038,0.036 0.092,0.05 0.158,0.031 0.093,0.005 0.203,-0.036 0.237,-0.132 0.012,-0.043 0.018,-0.078 0.018,-0.123 -0.003,-0.104 -0.101,-0.173 -0.187,-0.197 z m 4.177,1.573 c -0.335,-0.048 -0.415,0.469 -0.077,0.517 0.332,0.052 0.413,-0.467 0.077,-0.517 z m 0.868,-5.804 c -0.385,-0.057 -0.469,0.535 -0.09,0.594 0.383,0.057 0.468,-0.538 0.09,-0.594 z m -1.06,2.394 c -0.264,-0.042 -0.327,0.368 -0.062,0.407 0.265,0.04 0.325,-0.367 0.062,-0.407 z m 4.852,3.005 c -0.013,-0.008 -0.021,-0.017 -0.03,-0.025 -0.033,-0.032 -0.098,-0.043 -0.143,-0.022 -0.009,0.005 -0.018,0.011 -0.03,0.017 -0.169,0.087 -0.169,0.354 0.044,0.386 0.209,0.029 0.291,-0.223 0.159,-0.356 z m 1.701,-5.974 c -0.195,-0.025 -0.239,0.269 -0.044,0.297 0.19,0.029 0.237,-0.266 0.044,-0.297 z m -8.694,-3.117 c -0.068,-0.034 -0.118,-0.029 -0.188,0 -0.016,0.008 -0.016,0.017 -0.024,0.025 -0.013,0.008 -0.02,0.02 -0.029,0.028 -0.007,0.02 -0.023,0.034 -0.023,0.051 -0.004,0.023 0.002,0.037 0.008,0.059 0.009,0.011 0.009,0.022 0.021,0.037 0.005,0.008 0.003,0.021 0.015,0.029 0.057,0.051 0.106,0.068 0.18,0.057 0.148,-0.024 0.176,-0.219 0.04,-0.286 z m 36.43498,10.551 c -0.386,-0.062 -0.475,0.545 -0.088,0.606 0.389,0.056 0.484,-0.546 0.088,-0.606 z m 4.14,2.9 c -0.015,-0.005 -0.027,-0.011 -0.043,-0.017 -0.187,-0.071 -0.369,0.065 -0.354,0.266 0,0.015 0,0.029 0.01,0.042 0.037,0.615 0.967,-0.073 0.391,-0.291 z m -1.836,-6.522 c -0.17,-0.025 -0.21,0.232 -0.042,0.261 0.169,0.022 0.206,-0.238 0.042,-0.261 z m 0.64,3.911 c -0.333,0.096 0.045,0.611 0.239,0.319 0.142,-0.214 0,-0.393 -0.239,-0.319 z m -3.269,2.863 c -0.247,-0.037 -0.304,0.348 -0.061,0.385 0.249,0.037 0.306,-0.348 0.061,-0.385 z m 7.635,-0.362 c -0.284,-0.045 -0.356,0.402 -0.067,0.442 0.29,0.044 0.354,-0.402 0.067,-0.442 z m -0.71,2.869 c -0.342,-0.054 -0.422,0.478 -0.078,0.532 0.342,0.051 0.421,-0.481 0.078,-0.532 z m -0.216,-6.561 0,0.031 c 0.01,0.279 0.456,0.349 0.548,0.082 0.01,-0.011 0.01,-0.02 0.012,-0.031 0.15,-0.459 -0.571,-0.567 -0.56,-0.082 z m 6.362,-0.264 c -0.192,-0.028 -0.235,0.267 -0.045,0.294 0.193,0.029 0.235,-0.266 0.045,-0.294 z m -2.873,2.804 c -0.274,-0.039 -0.336,0.379 -0.065,0.422 0.269,0.04 0.332,-0.378 0.065,-0.422 z m -1.223,-5.455 c -0.192,-0.029 -0.239,0.268 -0.043,0.297 0.193,0.031 0.232,-0.269 0.043,-0.297 z m 0.531,9.119 c -0.216,-0.034 -0.267,0.301 -0.052,0.334 0.22,0.032 0.267,-0.302 0.052,-0.334 z"
       id="path3989" />
    <g
       transform="translate(-223.45015,0.53867571)"
       style="fill:#5a121a"
       id="g3991">
      <path
         inkscape:connector-curvature="0"
         d="m 457.5,105.162 c -0.978,2.787 -3.156,5.657 -5.015,7.889 -1.634,1.961 -3.795,3.467 -5.293,5.51 -0.202,0.276 0.182,0.571 0.44,0.435 2.455,-1.265 4.481,-3.857 6.198,-5.959 1.768,-2.167 3.494,-4.994 3.876,-7.818 0.02,-0.133 -0.162,-0.19 -0.206,-0.057 z m -6.268,6.788 c -0.424,0.357 -0.852,0.92 -0.999,1.461 -0.037,0.138 0.123,0.289 0.262,0.195 0.478,-0.334 0.784,-0.971 0.984,-1.509 0.06,-0.156 -0.145,-0.235 -0.247,-0.147 z m 7.644,-12.094 c -0.028,-0.206 -0.362,-0.306 -0.401,-0.053 -0.066,0.359 -0.18,0.715 -0.27,1.067 -0.051,0.195 0.194,0.351 0.342,0.198 0.349,-0.36 0.396,-0.72 0.329,-1.212 z m -7.82,7.286 c -2.28,3.133 -5.568,5.705 -8.795,7.796 -3.009,1.943 -6.093,2.926 -9.255,4.422 -0.235,0.113 -0.129,0.513 0.131,0.49 6.676,-0.521 15.157,-6.641 18.078,-12.614 0.056,-0.11 -0.09,-0.189 -0.159,-0.094 z m 2.973,-3.913 c -0.061,-0.065 -0.159,-0.039 -0.204,0.028 -0.154,0.212 -0.201,0.492 -0.327,0.725 -0.074,0.142 -0.147,0.286 -0.224,0.427 -0.084,0.15 -0.067,0.227 -0.088,0.388 -0.028,0.212 0.198,0.388 0.377,0.218 0.143,-0.135 0.227,-0.195 0.327,-0.381 0.086,-0.172 0.164,-0.342 0.219,-0.529 0.082,-0.29 0.14,-0.641 -0.08,-0.876 z"
         id="path3993" />
      <path
         inkscape:connector-curvature="0"
         d="m 443.883,111.16 c -0.786,0.6 -1.63,1.265 -2.469,1.771 -0.854,0.513 -1.815,0.836 -2.574,1.492 -0.179,0.159 0.01,0.448 0.225,0.388 1.863,-0.492 4.071,-1.729 4.97,-3.498 0.044,-0.09 -0.061,-0.228 -0.152,-0.153 z m -8.333,-2.096 c -2.025,0.436 -4.055,1.502 -5.682,2.77 -1.144,0.892 -3.326,2.473 -3.458,4.09 -0.005,0.062 0.063,0.129 0.126,0.124 0.099,-0.008 0.168,-0.014 0.229,-0.099 0.791,-1.078 1.613,-1.975 2.604,-2.857 1.905,-1.692 4.107,-2.527 6.334,-3.665 0.212,-0.106 0.06,-0.411 -0.153,-0.363 z m 4.117,-1.443 c -0.356,-0.107 -0.724,0.068 -1.059,0.207 -0.272,0.113 -0.493,0.201 -0.675,0.441 -0.147,0.189 0.09,0.374 0.266,0.351 0.516,-0.073 1.287,-0.198 1.617,-0.642 0.096,-0.134 -0.009,-0.315 -0.149,-0.357 z m -11.871,1.231 c -7.052,2.937 -12.415,10.034 -13.249,17.536 -0.014,0.121 0.141,0.155 0.211,0.09 0.561,-0.504 0.573,-0.874 0.683,-1.655 0.297,-2.159 1.345,-4.25 2.464,-6.086 2.508,-4.123 6.303,-6.603 10.112,-9.369 0.232,-0.174 0.094,-0.65 -0.221,-0.516 z m -10.531,7.201 c -0.5,0.479 -0.895,1.007 -1.267,1.596 -0.308,0.481 -0.685,1.191 -0.766,1.758 -0.029,0.178 0.154,0.303 0.302,0.178 0.399,-0.345 0.605,-0.985 0.874,-1.438 0.378,-0.632 0.796,-1.231 1.163,-1.86 0.116,-0.194 -0.147,-0.384 -0.306,-0.234 z m 10.207,-21.024 c -6.576,3.214 -11.288,9.7 -12.329,16.924 -0.019,0.139 0.162,0.243 0.243,0.103 1.351,-2.465 1.659,-5.238 3.274,-7.675 1.297,-1.958 2.675,-3.918 4.382,-5.537 1.387,-1.31 3.235,-2.213 4.747,-3.402 0.249,-0.195 -0.069,-0.534 -0.317,-0.413 z"
         id="path3995" />
      <path
         inkscape:connector-curvature="0"
         d="m 424.097,99.279 c -0.636,0.376 -1.325,0.773 -1.556,1.525 -0.055,0.19 0.2,0.34 0.336,0.193 0.231,-0.249 0.467,-0.473 0.739,-0.679 0.286,-0.215 0.497,-0.453 0.734,-0.713 0.151,-0.174 -0.042,-0.448 -0.253,-0.326 z m 11.183,-7.371 c -0.933,0.161 -1.735,0.546 -2.563,0.977 -0.606,0.316 -1.385,0.688 -1.681,1.341 -0.076,0.169 0.086,0.365 0.268,0.266 0.594,-0.328 1.138,-0.727 1.746,-1.033 0.798,-0.393 1.619,-0.721 2.401,-1.14 0.239,-0.128 0.064,-0.457 -0.171,-0.411 z m 12.323,2.847 c -3.58,0.854 -7.217,2.523 -10.575,4.026 -0.069,0.031 -0.053,0.147 0.019,0.161 1.529,0.267 3.117,-0.767 4.535,-1.245 2.078,-0.708 4.322,-1.364 6.213,-2.496 0.241,-0.147 0.079,-0.511 -0.192,-0.446 z m 3.866,-1.022 c -0.291,0 -0.637,0.079 -0.721,0.405 -0.045,0.175 0.133,0.292 0.282,0.22 0.222,-0.104 0.396,-0.121 0.572,-0.303 0.114,-0.115 0.033,-0.316 -0.133,-0.322 z m -1.996,6.205 c -0.462,0.008 -0.714,0.343 -1.109,0.54 -0.18,0.091 -0.098,0.4 0.105,0.386 0.482,-0.035 0.898,-0.255 1.155,-0.648 0.081,-0.119 -0.022,-0.278 -0.151,-0.278 z m 13.771,3.449 c -0.079,-0.042 -0.17,0.065 -0.099,0.128 1.163,1.004 2.377,2.38 3.157,3.679 0.874,1.454 1.202,3.127 2.007,4.594 0.138,0.245 0.473,0.114 0.49,-0.132 0.23,-3.184 -2.897,-6.893 -5.555,-8.269 z m 4.731,2.992 c -0.139,-0.027 -0.262,0.139 -0.146,0.252 0.192,0.181 0.29,0.596 0.382,0.842 0.103,0.286 0.2,0.577 0.463,0.736 0.116,0.073 0.286,0.031 0.35,-0.09 0.29,-0.563 -0.453,-1.63 -1.049,-1.74 z m 3.628,4.097 c -0.154,-0.077 -0.266,0.125 -0.134,0.227 4.834,3.712 6.261,9.601 8.27,14.957 0.107,0.274 0.535,0.25 0.535,-0.073 0,-5.21 -3.831,-12.763 -8.671,-15.111 z m 8.744,7.125 c -0.403,-0.719 -0.84,-1.507 -1.642,-1.808 -0.145,-0.06 -0.213,0.133 -0.137,0.226 0.45,0.566 0.748,1.355 1.068,2.001 0.38,0.775 0.544,1.751 1.05,2.447 0.128,0.178 0.475,0.204 0.523,-0.071 0.17,-0.956 -0.406,-1.981 -0.862,-2.795 z m 1.376,-14.765 c -0.177,-0.266 -0.666,-0.102 -0.543,0.232 1.238,3.37 2.908,6.528 3.794,10.028 0.549,2.19 0.633,4.556 0.573,6.806 -0.026,1.126 -0.112,6.556 -1.246,6.912 -0.104,0.032 -0.104,0.185 0,0.216 0.047,0.014 0.086,0.028 0.128,0.037 0.061,0.022 0.14,-0.009 0.173,-0.068 3.95,-7.1 1.375,-17.785 -2.879,-24.163 z m 6.127,16.952 c -0.019,-0.235 -0.34,-0.232 -0.362,0 -0.079,0.696 -0.192,1.39 -0.292,2.085 -0.066,0.506 -0.183,1.016 -0.023,1.511 0.058,0.178 0.342,0.255 0.435,0.057 0.217,-0.47 0.207,-0.968 0.243,-1.483 0.042,-0.729 0.059,-1.439 -10e-4,-2.17 z m -4.88,-18.661 c -0.215,-0.227 -0.398,-0.506 -0.659,-0.679 -0.055,-0.037 -0.128,0.014 -0.132,0.076 0,0.294 0.158,0.558 0.326,0.792 0.195,0.283 0.414,0.625 0.735,0.771 0.143,0.062 0.323,-0.04 0.272,-0.212 -0.081,-0.312 -0.332,-0.519 -0.542,-0.748 z m -7.068,-6.704 c -3.914,-4.306 -11.901,-5.838 -17.258,-3.99 -0.116,0.036 -0.07,0.201 0.052,0.181 6.332,-1.115 11.658,0.786 16.92,4.182 0.237,0.151 0.464,-0.184 0.286,-0.373 z m 2.691,1.461 c -0.183,-0.188 -0.344,-0.371 -0.547,-0.538 -0.122,-0.099 -0.292,-0.006 -0.262,0.152 0.094,0.439 0.349,1.13 0.888,1.123 0.16,-0.002 0.239,-0.146 0.217,-0.294 -0.032,-0.217 -0.143,-0.29 -0.296,-0.443 z m -30.997,-7.839 c -0.835,-0.198 -1.7,-0.242 -2.563,-0.256 -0.578,-0.012 -1.472,0.073 -1.735,0.67 -0.04,0.083 0,0.192 0.102,0.19 0.695,-0.014 1.33,-0.198 2.033,-0.094 0.741,0.113 1.441,0.085 2.163,-0.087 0.207,-0.052 0.207,-0.375 0,-0.423 z"
         id="path3997" />
    </g>
    <path
       inkscape:connector-curvature="0"
       style="fill:#b2394a"
       d="m 200.97385,117.50868 c 1.329,-1.101 3.158,-1.874 4.856,-2.154 1.061,-0.173 2.995,-0.795 3.89,0.158 1.755,1.866 -0.967,2.958 -2.495,3.39 -1.095,0.306 -2.231,0.534 -3.365,0.65 -0.211,0.02 -0.421,0.02 -0.632,0.02 -0.878,0.297 -1.849,0.447 -2.448,0.15 -1.078,-0.524 -0.489,-1.648 0.194,-2.214 z m 47.07398,8.113 c -0.835,-1.514 -2.252,-2.903 -3.726,-3.783 -0.927,-0.552 -2.493,-1.845 -3.679,-1.285 -2.315,1.092 -0.188,3.104 1.084,4.068 0.898,0.688 1.873,1.319 2.886,1.842 0.188,0.094 0.384,0.172 0.581,0.252 0.702,0.598 1.552,1.092 2.221,1.038 1.193,-0.095 1.059,-1.357 0.633,-2.132 z"
       id="path3999" />
    <path
       inkscape:connector-curvature="0"
       style="fill:#e4ac60"
       d="m 191.36285,191.14668 c -1.361,-1.091 -3.159,-1.606 -4.604,-2.601 -2.206,-1.515 -4.15,-3.018 -5.854,-5.106 -0.009,-0.008 -0.023,0.003 -0.017,0.018 1.047,1.941 2.685,3.462 4.43,4.779 1.687,1.274 3.727,2.818 5.852,3.244 0.176,0.028 0.358,-0.198 0.193,-0.334 z"
       id="path4001" />
    <path
       inkscape:connector-curvature="0"
       style="fill:#e4ac60"
       d="m 189.33685,193.43068 c -0.335,-0.364 -0.489,-0.814 -0.61,-1.283 -0.138,-0.536 -0.049,-1.117 0.185,-1.606 0.06,-0.137 0.09,-0.247 0.102,-0.389 0.004,-0.07 -0.066,-0.142 -0.133,-0.135 -0.006,-0.006 -0.011,-0.009 -0.014,-0.015 -0.085,-0.051 -0.209,-0.057 -0.291,0 -1.351,0.917 -0.587,4.288 1.038,4.479 0.136,0.017 0.203,-0.135 0.184,-0.243 -0.054,-0.347 -0.229,-0.554 -0.461,-0.808 z"
       id="path4003" />
    <path
       inkscape:connector-curvature="0"
       style="fill:#e4ac60"
       d="m 188.82485,193.79268 c 0.087,-0.071 0.059,-0.235 -0.038,-0.281 -0.961,-0.478 -2.08,0.977 -2.163,1.839 -0.123,1.232 0.237,3.051 1.642,3.383 0.213,0.052 0.376,-0.166 0.275,-0.358 -0.141,-0.264 -0.316,-0.436 -0.523,-0.652 -0.343,-0.367 -0.467,-0.858 -0.571,-1.331 -0.293,-1.301 0.477,-1.889 1.378,-2.6 z"
       id="path4005" />
    <path
       inkscape:connector-curvature="0"
       style="fill:#e4ac60"
       d="m 194.77785,208.02468 c -2.176,-1.272 -4.213,-2.26 -5.702,-4.404 -0.873,-1.263 -3.792,-4.455 -1.601,-5.956 0.256,-0.173 0.089,-0.527 -0.202,-0.479 -2.371,0.375 -1.011,3.435 -0.326,4.717 1.593,2.976 4.491,5.427 7.768,6.266 0.088,0.021 0.14,-0.097 0.063,-0.144 z"
       id="path4007" />
    <path
       inkscape:connector-curvature="0"
       style="fill:#e18b56"
       d="m 240.10783,177.50268 c 1.106,-8.958 11.111,-2.023 14.275,1.554 2.998,3.379 4.83,7.915 6.381,12.101 0.922,2.489 1.832,4.945 2.547,7.456 0.112,0.292 0.226,0.596 0.352,0.884 0.46,1.094 1.853,3.542 0.831,4.719 0.01,0.049 0.015,0.1 0.017,0.146 0.022,0.162 -0.219,0.231 -0.303,0.109 -0.026,0.017 -0.043,0.036 -0.07,0.053 -0.043,0.022 -0.085,0.045 -0.124,0.073 -0.565,0.6 -1.408,0.989 -2.366,1.273 -3.798,1.86 -8.698,3.423 -12.793,2.766 -2.745,0.182 -5.911,0.388 -7.483,-2.094 -0.746,-1.176 -0.648,-3.091 -0.663,-4.413 -0.022,-2.587 -0.227,-5.208 -0.401,-7.787 -0.374,-5.669 -0.899,-11.166 -0.2,-16.84 z"
       id="path4009" />
    <path
       inkscape:connector-curvature="0"
       style="fill:#c69c6b"
       d="m 265.91283,242.72968 c -0.047,-0.027 -0.104,-0.052 -0.173,-0.056 -10.542,-1.109 -21.603,-0.203 -32.199,-0.197 -11.43798,0 -22.87098,-0.002 -34.30798,0.017 -22.406,0.042 -45.015,-0.802 -67.403,0.156 -0.224,-0.031 -0.454,-0.037 -0.653,-0.024 -0.277,0.01 -0.609,0.053 -0.931,0.129 -0.742,-0.015 -1.579,0.037 -2.035,0.639 -0.421,0.558 -0.722,1.127 -0.954,1.717 -0.835,1.668 -1.101,3.915 -1.087,5.366 0.017,2.036 0.204,4.331 1.793,5.764 1.056,0.947 2.986,0.931 4.669,0.814 22.125,0.902 44.463,0.079 66.6,0.126 10.913,0.019 21.827,0.015 32.74198,0.019 9.894,0.004 20.174,0.762 30.11,0.107 1.443,0.094 2.919,-0.019 4.214,-0.25 2.09,-0.368 2.86,-1.582 3.109,-3.598 0.304,-2.458 0.339,-10.662 -3.494,-10.729 z"
       id="path4011" />
    <path
       inkscape:connector-curvature="0"
       style="fill:#d6ebe6"
       d="m 169.99085,145.36068 c -0.911,0 -1.669,0.764 -1.669,1.675 0,0.914 0.758,1.675 1.669,1.675 0.914,0 1.675,-0.761 1.675,-1.675 -0.001,-0.911 -0.761,-1.675 -1.675,-1.675 z m 26.264,18.712 c -0.577,-0.894 -1.817,-0.894 -2.394,0 -0.302,0.467 -0.239,0.954 -0.08,1.445 0.398,1.269 2.155,1.269 2.552,0 0.16,-0.491 0.225,-0.978 -0.078,-1.445 z m -21.859,-44.374 c -1.556,0 -1.556,2.412 0,2.412 1.557,-0.001 1.557,-2.412 0,-2.412 z m -41.737,16.953 c -1.015,0 -1.015,1.576 0,1.576 1.015,0 1.015,-1.576 0,-1.576 z m 135.54998,26.776 c -0.026,-0.045 -0.049,-0.088 -0.072,-0.133 -0.4,-0.71 -1.285,-1.052 -2.068,-0.84 -0.796,0.217 -1.324,0.948 -1.339,1.763 -0.01,0.234 0.039,0.475 0.095,0.702 0.156,0.568 0.646,1.092 1.232,1.225 0.933,0.211 1.737,-0.241 2.104,-1.095 -0.013,0.039 -0.029,0.076 -0.05,0.126 0.104,-0.138 0.172,-0.294 0.209,-0.472 0.114,-0.419 0.106,-0.894 -0.111,-1.276 z m 5.248,52.458 c -0.848,0 -1.55,0.705 -1.55,1.553 0,0.843 0.702,1.546 1.55,1.546 0.841,0 1.551,-0.703 1.551,-1.546 0,-0.848 -0.71,-1.553 -1.551,-1.553 z m 13.943,-16.001 0,-0.047 c -0.051,-0.582 -0.484,-1.2 -1.144,-1.146 -0.064,0.009 -0.127,0.014 -0.19,0.017 -0.47,0.042 -0.995,0.31 -1.09,0.828 -0.036,0.216 -0.036,0.385 0,0.601 0.052,0.274 0.224,0.475 0.447,0.615 0.314,0.733 1.521,0.698 1.721,-0.135 0.01,-0.016 0.011,-0.033 0.017,-0.048 0.151,-0.194 0.262,-0.427 0.239,-0.685 z m -20.345,-16.344 c -1.063,0 -1.063,1.653 0,1.653 1.063,0 1.063,-1.653 0,-1.653 z m -57.59598,88.74 c -2.177,0 -2.177,3.373 0,3.373 2.175,0 2.175,-3.373 0,-3.373 z m 24.30498,-7.133 c -0.419,0.06 -0.884,0.345 -0.884,0.821 0,0.479 0.465,0.76 0.884,0.82 0.537,0.073 1.081,-0.215 1.081,-0.82 0,-0.606 -0.544,-0.894 -1.081,-0.821 z m -44.23198,0.109 c -0.015,0.002 -0.023,0.012 -0.034,0.019 -0.012,0.002 -0.02,0.01 -0.032,0.014 -0.056,0.024 -0.108,0.058 -0.154,0.094 -0.035,0.022 -0.078,0.033 -0.107,0.064 -0.119,0.118 -0.181,0.258 -0.205,0.394 -0.002,0.024 -0.002,0.053 -0.005,0.077 0,0.018 -0.003,0.036 -0.003,0.057 0,0.119 0.025,0.243 0.099,0.367 0.08,0.143 0.21,0.232 0.357,0.294 0.027,0.014 0.054,0.03 0.085,0.043 0.53,0.206 1.822,0.048 1.822,-0.71 0,-0.758 -1.293,-0.92 -1.823,-0.713 z m -58.471,-43.566 c -1.26,0 -1.958,1.36 -1.389,2.427 l 0.106,0.204 c 0.513,0.967 2.054,0.967 2.566,0 l 0.108,-0.204 c 0.566,-1.067 -0.133,-2.427 -1.391,-2.427 z m 51.734,13.725 c -0.89,0 -0.89,1.376 0,1.376 0.882,0 0.882,-1.376 0,-1.376 z m -74.421,-47.809 c -0.186,-0.09 -0.389,-0.135 -0.591,-0.189 -0.448,-0.121 -0.9,0.22 -0.9,0.688 0,0.464 0.452,0.809 0.9,0.685 0.202,-0.054 0.405,-0.097 0.591,-0.187 0.378,-0.188 0.378,-0.809 0,-0.997 z m 4.554,22.099 c -1.03,0 -1.03,1.602 0,1.602 1.036,-0.001 1.036,-1.602 0,-1.602 z m -1.067,-43.239 c -1.08,0 -1.08,1.672 0,1.672 1.082,0 1.082,-1.672 0,-1.672 z m 45.33,-26.542 c -0.917,0 -0.917,1.427 0,1.427 0.924,0 0.924,-1.427 0,-1.427 z m -6.761,-22.754 c 0,-0.378 -0.321,-0.704 -0.702,-0.7 -0.594,0.01 -1.18,0.458 -1.024,1.114 0.145,0.593 0.745,0.715 1.239,0.486 0.156,-0.07 0.216,-0.217 0.205,-0.364 0.164,-0.12 0.282,-0.291 0.282,-0.536 z m 32.365,22.641 c -1.067,0 -1.067,1.649 0,1.649 1.06,0 1.06,-1.649 0,-1.649 z m 98.84598,23.616 c -0.05,-0.009 -0.093,-0.025 -0.142,-0.035 -0.156,-0.13 -0.34,-0.217 -0.577,-0.217 -1.197,0 -1.197,1.85 0,1.85 0.237,0 0.421,-0.085 0.577,-0.215 0.049,-0.012 0.092,-0.022 0.142,-0.034 0.667,-0.164 0.667,-1.185 0,-1.349 z m -25.251,4.737 c -0.952,0 -0.952,1.474 0,1.474 0.951,0 0.951,-1.474 0,-1.474 z m 13.334,-25.362 c -0.648,0 -0.648,0.999 0,0.999 0.644,0 0.644,-0.999 0,-0.999 z m 2.187,58.214 c -0.434,-0.501 -1.328,-0.337 -1.328,0.422 0,0.755 0.895,0.919 1.328,0.423 0.48,-0.102 0.48,-0.749 0,-0.845 z m 9.613,-17.181 c -0.013,0.251 0.017,0.456 0.125,0.687 0.126,0.253 0.557,0.253 0.676,0 0.111,-0.23 0.137,-0.435 0.126,-0.687 -0.03,-0.597 -0.894,-0.597 -0.927,0 z m -5.919,57.522 c -0.093,0.058 -0.185,0.115 -0.278,0.168 -0.329,0.197 -0.329,0.684 0,0.883 0.094,0.061 0.186,0.112 0.278,0.168 0.46,0.279 1.063,-0.077 1.063,-0.606 0,-0.529 -0.603,-0.886 -1.063,-0.613 z m -14.415,-12.504 c -1.095,0 -1.095,1.698 0,1.698 1.094,0 1.094,-1.698 0,-1.698 z m -90.13198,42.575 c -0.889,0 -1.148,0.997 -0.655,1.574 0.002,0.025 0.011,0.05 0.016,0.076 0.114,0.527 0.939,0.671 1.194,0.178 0.301,-0.044 0.392,-0.336 0.276,-0.534 0.226,-0.571 -0.072,-1.294 -0.831,-1.294 z m 34.619,-6.37 c 0.059,0.235 0.079,0.513 0.279,0.677 0.197,0.158 0.41,0.158 0.601,0 0.2,-0.164 0.225,-0.441 0.282,-0.677 0.222,-0.967 -1.386,-0.967 -1.162,0 z m -35.151,-169.655004 c -0.03,-0.006 -0.063,-0.006 -0.097,-0.009 -0.113,-0.113 -0.251,-0.192 -0.438,-0.192 -0.822,0 -0.822,1.274 0,1.274 0.187,0 0.325,-0.08 0.438,-0.193 0.035,0 0.067,-0.003 0.097,-0.008 0.566,-0.043 0.566,-0.829 0,-0.872 z"
       id="path4013" />
  </g>
</svg>
