<?xml version="1.0" encoding="UTF-8" standalone="no"?>
<!-- Created with Inkscape (http://www.inkscape.org/) -->

<svg
   xmlns:dc="http://purl.org/dc/elements/1.1/"
   xmlns:cc="http://creativecommons.org/ns#"
   xmlns:rdf="http://www.w3.org/1999/02/22-rdf-syntax-ns#"
   xmlns:svg="http://www.w3.org/2000/svg"
   xmlns="http://www.w3.org/2000/svg"
   xmlns:sodipodi="http://sodipodi.sourceforge.net/DTD/sodipodi-0.dtd"
   xmlns:inkscape="http://www.inkscape.org/namespaces/inkscape"
   width="49.708157mm"
   height="53.974064mm"
   viewBox="0 0 176.13126 191.24668"
   id="svg3883"
   version="1.1"
   inkscape:version="0.91 r"
   sodipodi:docname="holding-book.svg">
  <defs
     id="defs3885" />
  <sodipodi:namedview
     id="base"
     pagecolor="#ffffff"
     bordercolor="#666666"
     borderopacity="1.0"
     inkscape:pageopacity="0.0"
     inkscape:pageshadow="2"
     inkscape:zoom="1.979899"
     inkscape:cx="388.5526"
     inkscape:cy="96.665033"
     inkscape:document-units="px"
     inkscape:current-layer="layer1"
     showgrid="false"
     fit-margin-top="0"
     fit-margin-left="0"
     fit-margin-right="0"
     fit-margin-bottom="0"
     inkscape:window-width="1366"
     inkscape:window-height="716"
     inkscape:window-x="0"
     inkscape:window-y="0"
     inkscape:window-maximized="1" />
  <metadata
     id="metadata3888">
    <rdf:RDF>
      <cc:Work
         rdf:about="">
        <dc:format>image/svg+xml</dc:format>
        <dc:type
           rdf:resource="http://purl.org/dc/dcmitype/StillImage" />
        <dc:title></dc:title>
      </cc:Work>
    </rdf:RDF>
  </metadata>
  <g
     inkscape:label="Layer 1"
     inkscape:groupmode="layer"
     id="layer1"
     transform="translate(-160.5058,-728.16743)">
    <path
       inkscape:connector-curvature="0"
       style="fill:#1f6465"
       d="m 333.4458,823.78911 c 0,47.75601 -38.716,86.47201 -86.469,86.47201 -47.756,0 -86.471,-38.716 -86.471,-86.47201 0,-47.755 38.715,-86.467 86.471,-86.467 47.754,0 86.469,38.712 86.469,86.467 z"
       id="path8" />
    <path
       inkscape:connector-curvature="0"
       style="fill:#e18b56"
       d="m 227.5718,822.45811 c -1.106,-8.933 -11.081,-2.014 -14.236,1.55 -2.988,3.374 -4.817,7.89201 -6.363,12.06501 -0.922,2.48 -1.828,4.932 -2.539,7.436 -0.116,0.294 -0.229,0.596 -0.352,0.881 -0.458,1.088 -1.846,3.532 -0.825,4.71 -0.011,0.047 -0.02,0.096 -0.023,0.146 -0.022,0.158 0.218,0.226 0.303,0.104 0.026,0.017 0.044,0.038 0.071,0.055 0.042,0.021 0.084,0.047 0.124,0.069 0.564,0.599 1.409,0.989 2.359,1.273 3.786,1.857 8.676,3.412 12.759,2.756 2.734,0.183 5.893,0.388 7.464,-2.088 0.743,-1.167 0.645,-3.081 0.658,-4.398 0.022,-2.579 0.229,-5.195 0.4,-7.769 0.379,-5.648 0.898,-11.13101 0.2,-16.79001 z m 35.116,-1.671 c 1.104,-8.932 11.078,-2.013 14.231,1.548 2.99,3.374 4.817,7.89301 6.367,12.06801 0.923,2.48 1.824,4.93 2.537,7.436 0.117,0.293 0.229,0.591 0.352,0.881 0.46,1.088 1.846,3.532 0.83,4.705 0.006,0.049 0.014,0.099 0.02,0.148 0.021,0.157 -0.22,0.228 -0.307,0.107 -0.023,0.013 -0.045,0.035 -0.071,0.05 -0.037,0.023 -0.082,0.048 -0.125,0.073 -0.557,0.595 -1.404,0.987 -2.355,1.271 -3.788,1.858 -8.68,3.413 -12.757,2.757 -2.734,0.184 -5.893,0.389 -7.468,-2.086 -0.741,-1.172 -0.64,-3.084 -0.655,-4.403 -0.021,-2.578 -0.23,-5.194 -0.398,-7.768 -0.384,-5.648 -0.903,-11.13301 -0.201,-16.78701 z"
       id="path10" />
    <path
       inkscape:connector-curvature="0"
       style="fill:#f5a15e"
       d="m 274.5388,839.69912 c -1.063,-7.394 -2.262,-15.68101 -7.298,-21.52101 -5.127,-5.943 -13.229,-7.04 -20.614,-6.899 -7.769,0.15 -15.965,2.1 -22.469,6.413 -5.813,3.854 -6.863,12.50001 -7.588,18.75401 -0.55,4.72 -0.308,9.547 -0.528,14.294 -0.229,4.904 -0.214,9.813 0.048,14.72 0.2,3.706 0.336,7.432 0.553,11.146 -0.194,4.83 0.505,9.8 1.559,14.417 0.174,0.77 1.359,0.697 1.92,0.697 4.086,0.002 8.147,0.782 12.258,0.787 7.687,0.002 15.447,-0.631 23.125,-0.923 3.291,-0.125 6.817,0.156 10.076,-0.303 3.007,-0.421 6.124,-0.106 9.053,-0.556 0.324,-0.049 0.474,-0.382 0.507,-0.666 0.901,-7.672 0.816,-15.594 1.203,-23.319 0.442,-8.948 -0.539,-18.193 -1.805,-27.041 z"
       id="path12" />
    <path
       inkscape:connector-curvature="0"
       style="fill:#fcce9a"
       d="m 271.5658,825.84511 c -5.119,1.462 -10.354,2.50101 -15.661,2.97401 -7.574,0.678 -15.367,0.161 -22.859,-1.08101 -4.585,-0.76 -9.232,-2.452 -13.897,-3.468 -1.027,2.512 -1.623,5.29401 -2.028,7.95301 3.757,2.027 8.259,3.158 12.035,4.209 8.228,2.292 16.872,2.94 25.377,2.583 6.519,-0.277 13.114,-1.34 19.439,-3.124 -0.543,-3.382 -1.236,-6.83 -2.406,-10.04601 z m 3.091,14.74401 c -7.747,2.188 -15.882,3.314 -23.928,3.295 -7.952,-0.018 -15.88,-1.176 -23.708,-2.48 -3.576,-0.595 -7.153,-1.104 -10.715,-1.793 -0.166,3.102 -0.121,6.229 -0.203,9.335 1.871,0.577 3.742,1.041 5.344,1.505 8.799,2.562 18.658,3.784 27.792,4.251 8.845,0.452 18.122,-1.234 26.672,-3.427 -0.318,-3.592 -0.761,-7.168 -1.254,-10.686 z m -24.585,20.615 c -7.999,0.296 -15.81,-1.591 -23.705,-2.595 -3.415,-0.434 -6.942,-1.203 -10.475,-1.828 -0.015,2.894 0.044,5.789 0.198,8.68 0.023,0.402 0.039,0.809 0.06,1.213 1.159,0.268 2.17,0.478 2.892,0.654 8.609,2.054 17.698,3.65 26.533,4.275 8.59,0.609 17.809,-0.638 26.203,-2.399 1.532,-0.317 3.031,-0.734 4.511,-1.21 0.021,-0.418 0.032,-0.837 0.055,-1.253 0.158,-3.163 0.13,-6.363 -0.022,-9.575 -1.096,0.289 -2.187,0.585 -3.285,0.85 -7.593,1.851 -15.147,2.902 -22.965,3.188 z m 0.969,29.16 c 8.169,0.669 16.22,0.106 24.223,-1.498 0.355,-3.402 0.541,-6.847 0.665,-10.299 -0.101,0.021 -0.2,0.049 -0.294,0.073 -7.393,1.648 -15.586,1.571 -23.109,1.216 -7.96,-0.378 -15.828,-1.898 -23.664,-3.259 -4.092,-0.711 -8.22,-1.399 -12.327,-2.142 0.039,0.716 0.066,1.432 0.108,2.15 -0.087,2.147 0.008,4.321 0.229,6.48 2.743,0.955 5.57,1.659 8.054,2.369 8.553,2.455 17.248,4.185 26.115,4.91 z"
       id="path14" />
    <path
       inkscape:connector-curvature="0"
       style="fill:#e18b56"
       d="m 258.7898,818.01411 c 0.46,-1.065 1.046,-2.885 1.394,-4.753 -4.221,-1.681 -9.021,-2.067 -13.556,-1.981 -5.691,0.108 -11.614,1.192 -16.933,3.458 1.238,5.277 5.754,9.754 10.875,11.249 7.232,2.115 15.211,-1.006 18.22,-7.973 z"
       id="path16" />
    <path
       inkscape:connector-curvature="0"
       style="fill:#e4ac60"
       d="m 248.4468,809.44211 c -0.075,-2.834 -0.126,-5.781 -0.671,-8.57 -0.477,-2.472 -6.453,-1.326 -7.909,-1.02 -0.459,0.095 -0.547,0.527 -0.406,0.864 -0.256,5.072 0.302,10.358 1.783,15.559 0.883,3.117 5.012,3.708 6.595,0.555 1.029,-2.055 0.665,-5.208 0.608,-7.388 z"
       id="path18" />
    <path
       inkscape:connector-curvature="0"
       style="fill:#711422"
       d="m 282.5878,747.47111 c -4.701,-12.295 -20.088,-19.95 -32.779,-17.497 -3.074,0.593 -6.375,-1.462 -9.451,-1.715 -3.75,-0.306 -7.209,0.168 -10.811,1.213 -6.63,1.922 -12.652,5.828 -17.333,10.859 -10.466,11.247 -9.317,27.535 -2.927,40.558 0.08,0.159 0.263,0.166 0.396,0.093 0.178,0.155 0.369,0.297 0.596,0.424 1.542,0.855 3.555,-1.302 4.351,-2.244 1.309,-1.553 1.674,-2.965 3.536,-4.264 1.834,-1.276 5.135,-0.875 7.28,-0.763 4.132,0.212 8.119,0.07 12.23,-0.447 3.491,-0.437 6.868,-1.222 10.192,-2.37 4.567,-1.574 9.277,-4.9 14.123,-2.439 3.405,1.729 5.613,5.992 7.297,9.214 1.06,2.03 1.919,5.297 4.192,6.339 0.374,0.171 0.679,0.123 0.997,-0.128 2.03,-1.607 3.367,-4.113 4.584,-6.348 1.7,-3.112 3.493,-5.882 4.695,-9.242 2.467,-6.915 1.394,-14.55 -1.168,-21.243 z"
       id="path20" />
    <path
       inkscape:connector-curvature="0"
       style="fill:#fbe4af"
       d="m 280.5278,774.57111 c -1.396,-0.403 -2.804,0.989 -3.407,2.245 -0.316,0.417 -0.619,0.847 -0.907,1.25 -0.104,-3.373 -0.706,-6.457 -2.22,-9.699 -1.578,-3.366 -3.373,-8.472 -6.545,-10.702 -0.519,-0.364 -1.086,0.14 -1.139,0.652 -0.065,0.613 -0.037,1.546 -0.289,2.275 -0.959,-2.579 -1.633,-5.006 -3.383,-7.353 -1.044,-1.406 -1.828,-3.076 -3.369,-3.877 -0.02,-0.637 -1.041,-1.046 -1.531,-0.363 -0.76,1.055 -1.153,2.534 -1.727,3.71 -1.21,2.481 -3.135,4.654 -5.054,6.6 -2.798,2.842 -6.639,5.351 -10.584,6.821 1.316,-1.211 2.351,-2.613 3.224,-4.656 0.253,-0.594 -0.326,-1.471 -0.996,-0.999 -5.312,3.708 -13.136,7.527 -19.903,5.806 1.487,-1.893 3.144,-3.738 3.135,-6.293 -0.005,-0.653 -0.736,-0.855 -1.188,-0.49 -0.904,0.727 -1.665,1.551 -2.543,2.244 0.61,-1.624 1.225,-3.26 0.907,-5 -0.074,-0.41 -0.663,-0.655 -1.001,-0.406 -3.463,2.512 -6.22,6.482 -7.636,10.514 -1.457,4.137 -1.623,7.762 -1.318,11.744 -0.647,-1.272 -1.324,-2.529 -2.221,-3.604 -0.099,-0.122 -0.271,-0.08 -0.373,0.02 -0.581,-0.413 -1.247,-0.632 -1.913,-0.439 -2.004,0.575 -2.523,2.64 -2.097,4.54 0.607,2.701 1.473,5.649 3.373,7.739 0.759,0.83 2.197,1.277 3.186,0.842 5.805,14.209 18.827,21.301 34.096,20.672 13.882,-0.571 23.949,-8.658 29.261,-20.569 0.963,0.241 2.206,-0.195 2.888,-0.945 1.901,-2.089 2.764,-5.038 3.371,-7.739 0.426,-1.9 -0.096,-3.965 -2.097,-4.54 z"
       id="path22" />
    <path
       inkscape:connector-curvature="0"
       style="fill:#e4ac60"
       d="m 254.9378,791.91911 c -2.624,3.67 -5.242,6.344 -9.958,6.576 -3.922,0.192 -6.97,-1.56 -9.918,-3.797 0.395,-0.251 0.838,-0.46 1.21,-0.676 0.104,-0.059 0.186,-0.159 0.237,-0.272 0.304,-0.242 0.174,-0.715 -0.229,-0.742 l -0.041,0 c -0.121,-0.067 -0.256,-0.092 -0.42,-0.06 -0.939,0.192 -1.864,0.87 -2.46,1.607 -0.513,0.643 -0.811,1.768 0.096,2.229 0.209,0.11 0.562,-0.018 0.524,-0.3 -0.047,-0.409 0.06,-0.738 0.249,-1.019 4.623,7.033 21.098,6.303 21.63,-3.299 0.028,-0.53 -0.653,-0.613 -0.92,-0.247 z m -8.894,-12.319 c -0.187,-0.271 -0.615,-0.178 -0.629,0.169 -0.034,1.232 0.455,2.428 0.531,3.658 0.04,0.627 -0.042,1.129 -0.593,1.507 -0.527,0.358 -1.168,-0.336 -1.82,-0.065 -0.187,0.078 -0.386,0.241 -0.361,0.473 0.096,0.829 0.702,1.238 1.538,1.328 1.018,0.109 1.806,-0.487 2.37,-1.288 1.054,-1.484 -0.156,-4.513 -1.036,-5.782 z"
       id="path24" />
    <path
       inkscape:connector-curvature="0"
       style="fill:#3b0f12"
       d="m 222.8508,776.61911 c -0.017,0.165 0.054,0.292 0.159,0.379 -0.065,0.755 0.42,1.56 1.109,1.975 1.284,0.773 2.836,-0.024 3.321,-1.348 0.981,-2.701 -4.363,-3.37 -4.589,-1.006 z m 38.229,1.006 c 0.482,1.324 2.036,2.121 3.319,1.348 0.691,-0.415 1.173,-1.22 1.108,-1.975 0.11,-0.087 0.173,-0.214 0.158,-0.379 -0.224,-2.364 -5.568,-1.695 -4.585,1.006 z"
       id="path26" />
    <path
       inkscape:connector-curvature="0"
       style="fill:#b2394a"
       d="m 264.8328,763.48111 c -1.1,-1.326 -2.748,-2.422 -4.356,-3.011 -1.01,-0.371 -2.785,-1.342 -3.844,-0.573 -2.067,1.501 0.398,3.075 1.817,3.785 1.013,0.505 2.086,0.941 3.173,1.264 0.205,0.06 0.407,0.104 0.615,0.141 0.804,0.455 1.728,0.78 2.374,0.602 1.148,-0.317 0.783,-1.526 0.221,-2.208 z m -39.411,0.418 c 1.098,-1.324 2.745,-2.423 4.357,-3.012 1.005,-0.368 2.784,-1.339 3.843,-0.57 2.063,1.498 -0.397,3.073 -1.818,3.783 -1.015,0.508 -2.085,0.94 -3.171,1.264 -0.203,0.059 -0.409,0.102 -0.617,0.142 -0.802,0.454 -1.728,0.778 -2.371,0.604 -1.151,-0.319 -0.785,-1.53 -0.223,-2.211 z"
       id="path28" />
    <path
       inkscape:connector-curvature="0"
       style="fill:#f8ba99"
       d="m 228.3198,786.75211 c -2.522,-4.708 -9.938,-3.129 -10.252,2.199 -0.146,2.52 0.746,4.499 3.209,5.332 0.268,0.09 0.547,0.159 0.835,0.205 4.555,1.094 8.595,-3.272 6.208,-7.736 z m 31.937,0 c 2.52,-4.708 9.936,-3.129 10.245,2.199 0.147,2.52 -0.745,4.499 -3.204,5.332 -0.269,0.09 -0.548,0.159 -0.833,0.205 -4.557,1.094 -8.601,-3.272 -6.208,-7.736 z"
       id="path30" />
    <path
       inkscape:connector-curvature="0"
       style="fill:#e4ac60"
       d="m 317.4178,837.20312 c 1.687,-3.424 4.622,1.238 5.393,2.741 1.764,3.451 2.737,10.027 0.182,13.312 -0.034,0.045 -0.077,0.069 -0.119,0.085 -1.4,1.701 -3.587,-3.709 -3.833,-4.566 -0.731,-2.524 -1.204,-5.081 -1.7,-7.655 -0.228,-1.175 -0.481,-2.798 0.077,-3.917 z"
       id="path32" />
    <path
       inkscape:connector-curvature="0"
       style="fill:#e8e8ec"
       d="m 249.2568,846.47012 c -2.425,-0.758 -4.607,-2.102 -6.952,-3.079 -3.231,-1.348 -6.566,-2.42 -9.814,-3.736 -5.742,-2.333 -11.33,-4.994 -17.104,-7.251 -5.75,-2.25 -11.544,-4.47001 -17.241,-6.83501 -2.5,-1.037 -5.076,-1.785 -7.641,-2.641 -2.229,-0.75 -4.236,-2.105 -6.445,-2.79 -0.46,-0.144 -1.021,0.251 -0.986,0.752 0.67,9.02001 1.435,17.97501 2.563,26.94801 0.107,0.828 0.178,1.653 0.232,2.487 1.479,1.686 2.63,3.651 4.061,5.372 2.158,2.596 4.295,5.214 6.551,7.725 2.87,3.196 5.994,6.15 9.016,9.201 1.299,-0.03 2.599,-0.046 3.897,-0.046 8.391,0 16.79,0.127 25.176,0.032 4.376,-0.055 11.999,1.715 12.921,-4.089 0.485,-3.082 0.218,-6.295 0.5,-9.4 0.358,-3.914 1.112,-7.731 1.881,-11.567 0.099,-0.483 -0.129,-0.934 -0.615,-1.083 z"
       id="path34" />
    <path
       inkscape:connector-curvature="0"
       style="fill:#e8e8ec"
       d="m 314.4068,842.05512 c -0.059,-4.42 0.079,-8.839 -0.039,-13.264 -0.012,-0.5 -0.522,-0.98501 -1.042,-0.79201 -2.847,1.03801 -6.643,0.62001 -9.63,0.62401 -4.062,0.002 -8.15,0.197 -12.211,0.335 -7.588,0.252 -15.42,0.952 -22.924,2.134 -10.714,1.685 -25.17,6.505 -26.686,18.864 -0.032,0.053 -0.065,0.104 -0.085,0.172 -0.437,1.534 -1.114,3.787 0.677,4.833 2.467,1.447 7.749,1.238 10.458,0.971 10.613,-1.034 21.281,-1.538 31.904,-2.698 4.581,-0.503 9.134,-1.224 13.697,-1.884 4.762,-0.694 10.016,-0.648 14.669,-1.922 2.16,-0.598 1.229,-5.996 1.212,-7.373 z"
       id="path36" />
    <path
       inkscape:connector-curvature="0"
       style="fill:#d5cac9"
       d="m 248.5358,863.38412 c -0.469,-3.006 -1.044,-6.008 -1.64,-8.992 -0.773,-3.888 -0.748,-7.275 -4.032,-9.603 -3.753,-2.663 -8.852,-3.976 -13.175,-5.319 -5.088,-1.581 -10.274,-2.951 -15.438,-4.271 -5.215,-1.333 -10.514,-2.542 -15.799,-3.559 -4.811,-0.926 -9.604,-2.505 -14.468,-3.103 -1.63,-0.201 -2.607,-1.11301 -3.268,0.838 -1.058,3.134 -0.477,7.418 -0.728,10.689 -0.106,1.372 -0.223,2.75 -0.344,4.131 1.934,2.359 3.649,4.884 5.423,7.37 2.534,3.548 5.362,6.859 8.197,10.167 3.318,3.875 6.713,7.683 10.249,11.353 8.246,-0.323 16.479,-0.863 24.722,-1.196 5.467,-0.221 10.951,-0.441 16.381,-1.116 2.263,-0.282 4.303,-0.334 4.554,-2.916 0.126,-1.322 -0.435,-3.182 -0.634,-4.473 z"
       id="path38" />
    <path
       inkscape:connector-curvature="0"
       style="fill:#d5cac9"
       d="m 317.9398,833.85212 c -3.165,-0.735 -6.961,-0.103 -10.208,-0.184 -4.756,-0.125 -9.538,0.053 -14.29,0.155 -9.128,0.203 -18.381,1.416 -27.354,3.092 -7.692,1.441 -14.964,4.258 -21.093,9.188 -2.085,1.675 -6.42,7.937 -5.692,11.55 -0.119,0.377 0.084,0.818 0.417,1.06 0.096,0.149 0.203,0.296 0.333,0.426 0.299,0.312 0.833,-0.054 0.674,-0.426 7.702,-5.317 19.424,-5.26 28.398,-6.118 9.268,-0.884 18.537,-1.771 27.823,-2.395 4.075,-0.275 8.144,-0.47 12.2,-1.017 3.16,-0.426 8.371,-0.354 10.627,-3.023 0.916,-1.087 -0.01,-11.882 -1.835,-12.308 z"
       id="path40" />
    <path
       inkscape:connector-curvature="0"
       style="fill:#e4ac60"
       d="m 177.2368,837.20312 c -1.69,-3.424 -4.623,1.238 -5.393,2.741 -1.766,3.451 -2.739,10.027 -0.183,13.312 0.037,0.045 0.076,0.069 0.119,0.085 1.399,1.701 3.587,-3.709 3.834,-4.566 0.731,-2.524 1.202,-5.081 1.699,-7.655 0.229,-1.175 0.477,-2.798 -0.076,-3.917 z"
       id="path42" />
    <path
       inkscape:connector-curvature="0"
       style="fill:#be1639"
       d="m 242.3158,881.39612 c -2.148,-6.427 -4.025,-12.915 -6.31,-19.292 -1.109,-3.098 -2.045,-6.28 -3.042,-9.418 -1.044,-3.289 -2.622,-6.354 -3.329,-9.739 -0.097,-0.461 -0.621,-0.703 -1.053,-0.6 -4.441,1.129 -9.402,0.719 -13.941,0.941 -4.93,0.243 -9.837,-0.118 -14.767,-0.264 -5.207,-0.156 -10.656,-1.158 -15.785,-1.987 -4.104,-0.668 -8.903,-0.609 -12.772,-2.077 -0.336,-0.126 -0.615,0.106 -0.717,0.401 -0.429,0.267 -0.678,0.798 -0.336,1.352 6.815,11.058 13.912,21.693 22.516,31.466 4.692,5.326 8.57,11.355 13.338,16.614 2.97,3.273 10.337,2.8 14.344,2.901 6.146,0.158 13.098,-0.221 18.847,-2.6 0.914,-0.375 3.546,-1.055 4.051,-2.083 0.905,-1.833 -0.437,-3.798 -1.044,-5.615 z"
       id="path44" />
    <path
       inkscape:connector-curvature="0"
       style="fill:#fbe4af"
       d="m 190.4738,860.17612 c 0.843,-0.809 1.495,-1.914 0.818,-2.969 -0.618,-0.972 -1.389,-1.292 -2.286,-1.384 1.287,-1.299 2.327,-3.076 0.785,-4.61 -1.211,-1.193 -2.735,-1.459 -4.25,-1.188 0.251,-0.395 0.378,-0.803 0.225,-1.169 -0.403,-0.961 -1.182,-1.819 -2.302,-1.942 -0.646,-0.065 -1.312,-0.035 -1.98,0.053 -0.573,-0.023 -1.168,0.018 -1.745,0.062 -2.038,0.158 -5.626,0.485 -7.432,1.649 -0.523,0.339 -0.921,0.74 -1.22,1.188 -0.055,0.029 -0.115,0.053 -0.174,0.08 -0.229,0.113 -0.24,0.331 -0.141,0.494 -1.524,3.427 1.769,8.958 3.732,11.47 3.316,4.24 7.569,6.599 13.006,4.994 2.958,-0.872 6.331,-5.327 2.964,-6.728 z"
       id="path46" />
    <path
       inkscape:connector-curvature="0"
       style="fill:#be1639"
       d="m 252.7538,881.39612 c 2.146,-6.427 4.022,-12.915 6.307,-19.292 1.11,-3.098 2.05,-6.28 3.045,-9.418 1.044,-3.289 2.621,-6.354 3.329,-9.739 0.096,-0.461 0.622,-0.703 1.053,-0.6 4.44,1.129 9.402,0.719 13.94,0.941 4.932,0.243 9.84,-0.118 14.77,-0.264 5.201,-0.156 10.655,-1.158 15.781,-1.987 4.104,-0.668 8.909,-0.609 12.774,-2.077 0.336,-0.126 0.611,0.106 0.717,0.401 0.427,0.267 0.677,0.798 0.336,1.352 -6.814,11.058 -13.91,21.693 -22.515,31.466 -4.692,5.326 -8.574,11.355 -13.34,16.614 -2.966,3.273 -10.336,2.8 -14.342,2.901 -6.145,0.158 -13.102,-0.221 -18.848,-2.6 -0.913,-0.375 -3.549,-1.055 -4.053,-2.083 -0.904,-1.833 0.442,-3.798 1.046,-5.615 z"
       id="path48" />
    <path
       inkscape:connector-curvature="0"
       style="fill:#a51832"
       d="m 264.8618,841.90612 c -4.525,3.736 -11.834,5.468 -17.546,6.064 -5.491,0.572 -13.781,-1.268 -17.605,-5.57 -0.237,-0.262 -0.567,-0.251 -0.832,-0.104 -0.353,-0.378 -0.861,0.064 -0.795,0.488 0.499,3.183 1.676,6.203 2.785,9.213 1.518,4.123 2.649,8.369 3.792,12.608 1.021,3.805 1.888,7.653 2.63,11.523 0.629,3.283 1.081,7.141 2.353,10.229 0.167,0.398 0.479,0.628 0.824,0.712 0.041,0.017 0.074,0.043 0.116,0.057 3.649,3.155 8.342,3.247 13.039,2.799 5.094,-0.489 5.664,-3.177 6.208,-7.539 1.648,-13.17 3.94,-26.489 6.793,-39.451 0.238,-1.078 -0.954,-1.697 -1.762,-1.029 z"
       id="path50" />
    <path
       inkscape:connector-curvature="0"
       style="fill:#e8e8ec"
       d="m 228.4248,841.40012 c -15.21,-1.765 -30.751,-1.122 -45.922,-3.287 -0.282,-0.038 -0.517,0.354 -0.211,0.502 2.204,1.07 5.045,0.841 7.418,1.108 4.306,0.48 8.657,0.762 12.977,1.068 8.5,0.604 17.216,1.725 25.738,1.566 0.631,-0.01 0.598,-0.887 0,-0.957 z m -4.293,-1.485 c -6.513,-1.977 -13.448,-2.392 -20.195,-2.897 -6.897,-0.516 -14.364,-2.762 -21.277,-1.72 -0.118,0.018 -0.082,0.166 0,0.204 2.412,1.01 5.372,0.868 7.952,1.107 3.971,0.371 7.898,1.05 11.866,1.442 7.224,0.714 14.352,1.888 21.539,2.697 0.493,0.051 0.552,-0.701 0.115,-0.833 z m -16.591,-3.865 c -6.984,-2.728 -15.913,-4.615 -23.427,-4.429 -0.324,0.005 -0.373,0.449 -0.073,0.55 3.993,1.363 8.491,1.632 12.647,2.393 3.521,0.644 7.196,2.104 10.746,2.27 0.482,0.021 0.501,-0.63 0.107,-0.784 z m 110.797,2.645 c -10.42,-0.448 -20.979,-0.314 -31.404,0.051 -9.071,0.319 -20.291,-0.884 -28.254,4.317 -0.118,0.076 -0.043,0.267 0.094,0.228 2.018,-0.513 3.896,-1.385 5.919,-1.876 3.296,-0.803 6.66,-0.96 10.028,-1.129 5.083,-0.254 10.156,-0.337 15.246,-0.384 5.018,-0.045 10.045,-0.119 15.062,-0.157 4.436,-0.034 9.055,0.629 13.435,-0.144 0.531,-0.094 0.374,-0.886 -0.126,-0.906 z"
       id="path52" />
    <path
       inkscape:connector-curvature="0"
       style="fill:#e8e8ec"
       d="m 313.9328,835.50812 c -11.64,-0.935 -23.657,-0.328 -35.238,1.083 -5.347,0.651 -10.524,1.134 -15.742,2.538 -3.657,0.987 -8.672,2.05 -11.553,4.731 -0.25,0.236 0.088,0.693 0.369,0.482 3.448,-2.583 8.691,-3.579 12.781,-4.648 5.637,-1.468 11.487,-1.702 17.253,-2.381 5.381,-0.636 10.804,-0.458 16.195,-0.946 5.301,-0.479 10.624,0.379 15.935,-0.04 0.53,-0.039 0.53,-0.778 0,-0.819 z m -6.165,15.338 c -0.152,-0.49 -0.581,-0.669 -1.058,-0.6 -8.139,1.165 -16.435,1.355 -24.648,1.655 -2.191,0.072 -4.281,0.171 -6.479,0.047 -0.586,-0.03 -1.144,0.111 -1.562,0.532 -0.809,0.809 -1.119,2.378 -1.538,3.377 -0.254,0.606 -0.563,1.228 -0.869,1.861 -0.428,0.839 -0.835,1.718 -1.281,2.669 -0.753,1.609 -1.703,3.14 -1.745,4.938 -0.01,0.373 0.278,0.81 0.665,0.875 8.852,1.52 18.293,-0.617 27.193,-1.174 3.521,-0.222 4.789,-3.727 6.572,-6.326 1.425,-2.076 2.762,-4.134 4.273,-6.154 0.463,-0.613 0.709,-0.953 0.477,-1.7 z"
       id="path54" />
    <path
       inkscape:connector-curvature="0"
       style="fill:#e4ac60"
       d="m 190.9308,860.01312 c 0.071,-0.08 0.145,-0.154 0.207,-0.242 0.664,-0.893 1.388,-2.348 0.355,-3.323 -0.446,-0.419 -1,-0.769 -1.583,-0.917 0.992,-1.121 1.628,-2.612 0.794,-3.824 -1.056,-1.532 -2.685,-2.111 -4.547,-2.125 0.684,-2.017 -1.52,-3.104 -3.566,-3.175 -3.333,-0.108 -8.621,0.395 -11.174,2.807 -0.045,0.042 0.012,0.108 0.063,0.078 1.67,-0.963 3.637,-1.465 5.508,-1.874 1.16,-0.253 2.492,-0.26 3.688,-0.334 0.96,-0.059 5.588,0.02 4.561,2.533 -4.05,0.328 -8.897,2.86 -11.475,4.022 -0.089,0.041 -0.024,0.184 0.068,0.156 4.14,-1.278 7.806,-2.856 12.213,-3.111 l 1.004,-0.01 c 3.479,0.438 2.861,4.317 0.458,5.356 -0.807,0.471 -1.738,0.806 -2.587,1.185 -2.095,0.934 -4.211,1.785 -6.363,2.559 -0.277,0.1 -0.162,0.472 0.118,0.427 3.307,-0.508 6.363,-1.82 9.388,-3.218 0.299,-0.138 0.626,-0.344 0.952,-0.596 1.341,0.28 2.294,1.573 1.346,2.929 -0.869,1.239 -2.334,1.77 -3.665,2.308 -1.806,0.725 -3.85,1.374 -5.74,1.854 -0.051,0.008 -0.039,0.094 0.014,0.089 1.976,-0.106 4.014,-0.74 5.892,-1.332 1.09,-0.341 2.354,-0.807 3.333,-1.533 0.031,0.045 0.07,0.089 0.127,0.123 2.182,1.414 -0.502,3.996 -1.723,4.941 -1.479,1.138 -3.14,1.339 -4.931,1.527 -0.068,0.005 -0.068,0.098 0,0.103 2.663,0.277 5.063,-0.643 7.03,-2.435 1.522,-1.401 2.027,-3.633 0.235,-4.948 z"
       id="path56" />
    <path
       inkscape:connector-curvature="0"
       style="fill:#fbe4af"
       d="m 304.1808,860.17612 c -0.846,-0.809 -1.498,-1.914 -0.821,-2.969 0.618,-0.972 1.392,-1.292 2.29,-1.384 -1.291,-1.299 -2.332,-3.076 -0.785,-4.61 1.205,-1.193 2.732,-1.459 4.249,-1.188 -0.251,-0.395 -0.379,-0.803 -0.225,-1.169 0.403,-0.961 1.176,-1.819 2.298,-1.942 0.651,-0.065 1.315,-0.035 1.984,0.053 0.574,-0.023 1.165,0.018 1.744,0.062 2.033,0.158 5.623,0.485 7.43,1.649 0.525,0.339 0.92,0.74 1.219,1.188 0.061,0.029 0.119,0.053 0.179,0.08 0.226,0.113 0.238,0.331 0.136,0.494 1.529,3.427 -1.767,8.958 -3.731,11.47 -3.312,4.24 -7.568,6.599 -13.005,4.994 -2.954,-0.872 -6.337,-5.327 -2.962,-6.728 z"
       id="path58" />
    <path
       inkscape:connector-curvature="0"
       style="fill:#e4ac60"
       d="m 303.7228,860.01312 c -0.068,-0.08 -0.146,-0.154 -0.212,-0.242 -0.656,-0.893 -1.384,-2.348 -0.351,-3.323 0.448,-0.419 0.999,-0.769 1.579,-0.917 -0.987,-1.121 -1.622,-2.612 -0.79,-3.824 1.059,-1.532 2.686,-2.111 4.546,-2.125 -0.683,-2.017 1.525,-3.104 3.567,-3.175 3.335,-0.108 8.623,0.395 11.178,2.807 0.044,0.042 -0.013,0.108 -0.063,0.078 -1.674,-0.963 -3.641,-1.465 -5.509,-1.874 -1.161,-0.253 -2.494,-0.26 -3.689,-0.334 -0.962,-0.059 -5.588,0.02 -4.562,2.533 4.052,0.328 8.896,2.86 11.472,4.022 0.093,0.041 0.028,0.184 -0.063,0.156 -4.138,-1.278 -7.812,-2.856 -12.22,-3.111 l -1.001,-0.01 c -3.479,0.438 -2.861,4.317 -0.454,5.356 0.8,0.471 1.738,0.806 2.591,1.185 2.087,0.934 4.204,1.785 6.356,2.559 0.275,0.1 0.164,0.472 -0.115,0.427 -3.308,-0.508 -6.365,-1.82 -9.388,-3.218 -0.3,-0.138 -0.627,-0.344 -0.954,-0.596 -1.337,0.28 -2.294,1.573 -1.346,2.929 0.868,1.239 2.333,1.77 3.668,2.308 1.804,0.725 3.85,1.374 5.737,1.854 0.051,0.008 0.043,0.094 -0.013,0.089 -1.974,-0.106 -4.014,-0.74 -5.897,-1.332 -1.086,-0.341 -2.351,-0.807 -3.326,-1.533 -0.034,0.045 -0.07,0.089 -0.127,0.123 -2.179,1.414 0.499,3.996 1.725,4.941 1.476,1.138 3.134,1.339 4.928,1.527 0.065,0.005 0.065,0.098 0,0.103 -2.662,0.277 -5.067,-0.643 -7.026,-2.435 -1.529,-1.401 -2.032,-3.633 -0.241,-4.948 z"
       id="path60" />
    <path
       inkscape:connector-curvature="0"
       style="fill:#855346"
       d="m 227.1208,774.99711 c -2.681,-0.251 -4.774,0.676 -6.758,2.368 -0.584,0.497 0.158,1.331 0.784,1.011 1.928,-0.99 3.18,-1.903 5.488,-1.884 1.474,0.013 2.229,0.916 3.536,1.202 0.349,0.077 0.618,-0.209 0.554,-0.551 -0.311,-1.582 -2.213,-2.015 -3.604,-2.146 z m 34.276,0 c 2.685,-0.251 4.778,0.676 6.762,2.368 0.58,0.497 -0.162,1.331 -0.784,1.011 -1.933,-0.99 -3.187,-1.903 -5.492,-1.884 -1.473,0.013 -2.229,0.916 -3.534,1.202 -0.348,0.077 -0.619,-0.209 -0.551,-0.551 0.305,-1.582 2.208,-2.015 3.599,-2.146 z"
       id="path62" />
    <g
       style="fill:#ffffff"
       transform="translate(-172.3732,544.00912)"
       id="g64">
      <circle
         cx="397.96701"
         cy="234.509"
         r="0.54799998"
         id="circle66" />
      <path
         inkscape:connector-curvature="0"
         d="m 397.079,233.96 c 0,-0.189 -0.159,-0.344 -0.348,-0.344 -0.189,0 -0.341,0.155 -0.341,0.344 0,0.188 0.152,0.344 0.341,0.344 0.189,0 0.348,-0.156 0.348,-0.344 z"
         id="path68" />
    </g>
    <g
       style="fill:#ffffff"
       transform="translate(-172.3732,544.00912)"
       id="g70">
      <circle
         cx="434.966"
         cy="234.408"
         r="0.54799998"
         id="circle72" />
      <path
         inkscape:connector-curvature="0"
         d="m 436.212,233.856 c 0,-0.193 0.153,-0.349 0.347,-0.349 0.191,0 0.344,0.155 0.344,0.349 0,0.189 -0.152,0.345 -0.344,0.345 -0.194,0.001 -0.347,-0.155 -0.347,-0.345 z"
         id="path74" />
    </g>
    <g
       transform="translate(-173.4432,645.14911)"
       style="fill:#5a121a"
       id="g76">
      <path
         inkscape:connector-curvature="0"
         d="m 429.45,101.843 c -1.782,4.913 -4.357,9.058 -7.756,13.039 -0.136,0.159 0.047,0.454 0.242,0.312 2.02,-1.471 3.401,-3.899 4.751,-5.956 1.468,-2.235 2.668,-4.683 2.906,-7.372 0.013,-0.092 -0.117,-0.096 -0.143,-0.023 z m -3.541,4.158 c -0.534,0.814 -0.948,1.661 -1.527,2.447 -0.665,0.902 -1.32,1.813 -1.962,2.729 -0.139,0.197 0.158,0.405 0.32,0.249 1.586,-1.507 2.681,-3.281 3.486,-5.293 0.078,-0.191 -0.213,-0.291 -0.317,-0.132 z m 11.436,-0.578 c -0.505,-0.638 -1.021,-1.26 -1.609,-1.828 -0.607,-0.591 -1.385,-0.992 -1.999,-1.584 -0.054,-0.055 -0.146,-0.017 -0.146,0.061 -0.012,1.019 1.334,1.734 1.958,2.421 1.3,1.429 2.008,3.258 3.163,4.773 0.135,0.178 0.524,0.163 0.489,-0.13 -0.177,-1.378 -1.005,-2.647 -1.856,-3.713 z m 1.07,-0.237 c -0.115,-0.223 -0.19,-0.424 -0.332,-0.639 -0.128,-0.187 -0.244,-0.383 -0.39,-0.553 -0.137,-0.163 -0.279,-0.361 -0.458,-0.478 -0.168,-0.11 -0.337,-0.223 -0.477,-0.374 -0.085,-0.092 -0.266,-0.025 -0.253,0.105 0.033,0.425 0.295,0.734 0.509,1.087 0.125,0.206 0.259,0.406 0.391,0.606 0.181,0.26 0.337,0.388 0.579,0.577 0.24,0.193 0.581,-0.038 0.431,-0.331 z m 8.176,3.376 c -2.298,-4.293 -6.494,-7.389 -10.529,-9.869 -0.059,-0.038 -0.13,0.051 -0.076,0.098 3.642,3.299 7.228,5.905 9.937,10.159 2.466,3.872 3.879,9.135 4.774,13.61 0.053,0.263 0.448,0.194 0.455,-0.061 0.076,-4.703 -2.385,-9.861 -4.561,-13.937 z m 4.426,4.904 c -0.081,-0.089 -0.251,-0.026 -0.243,0.1 0.054,0.68 0.386,1.33 0.546,1.995 0.157,0.672 0.267,1.416 0.621,2.016 0.141,0.241 0.459,0.113 0.486,-0.134 0.128,-1.263 -0.538,-3.059 -1.41,-3.977 z m -1.078,-17.052 c -2.451,-3.884 -6.846,-6.697 -11.055,-8.338 -3.44,-1.342 -10.161,-2.327 -13.49,-0.402 -0.058,0.035 -0.032,0.141 0.041,0.137 4.128,-0.155 7.963,-0.287 12.052,0.616 4.906,1.086 8.72,4.826 12.089,8.266 0.185,0.188 0.504,-0.054 0.363,-0.279 z"
         id="path78" />
      <path
         inkscape:connector-curvature="0"
         d="m 441.787,92.458 c -0.423,-0.654 -0.974,-0.952 -1.69,-1.235 -0.597,-0.236 -1.323,-0.537 -1.97,-0.426 -0.233,0.042 -0.163,0.383 0.051,0.394 0.506,0.022 1.184,0.466 1.648,0.672 0.559,0.249 1.123,0.585 1.617,0.937 0.206,0.144 0.475,-0.139 0.344,-0.342 z m 12.029,13.697 c -0.115,-0.337 -0.592,-0.204 -0.533,0.145 0.11,0.58 0.247,1.129 0.547,1.638 0.122,0.208 0.438,0.115 0.44,-0.119 0.008,-0.605 -0.258,-1.104 -0.454,-1.664 z m -39.942,-8.271 c -3.863,1.068 -7.502,3.472 -10.345,6.266 -2.176,2.146 -4.958,4.789 -5.251,8.03 -0.015,0.185 0.237,0.181 0.293,0.039 2.875,-6.809 9.296,-10.563 15.495,-13.88 0.254,-0.136 0.079,-0.531 -0.192,-0.455 z"
         id="path80" />
      <path
         inkscape:connector-curvature="0"
         d="m 408.922,102.315 c -1.224,0.598 -2.392,1.375 -3.127,2.557 -0.137,0.219 0.156,0.398 0.331,0.256 1.028,-0.819 2.08,-1.608 3.039,-2.502 0.172,-0.161 -0.045,-0.406 -0.243,-0.311 z m 11.231,5.483 c -2.991,2.702 -5.8,5.774 -9.456,7.611 -0.119,0.059 -0.03,0.232 0.087,0.204 1.924,-0.464 3.643,-1.765 5.164,-2.987 1.569,-1.252 3.643,-2.727 4.555,-4.556 0.115,-0.23 -0.156,-0.445 -0.35,-0.272 z m -5.644,2.788 c -0.203,0.105 -0.316,0.151 -0.477,0.323 -0.178,0.184 -0.338,0.389 -0.505,0.581 -0.251,0.284 0.127,0.663 0.413,0.413 0.161,-0.138 0.322,-0.28 0.479,-0.419 0.214,-0.184 0.299,-0.324 0.425,-0.564 0.111,-0.22 -0.115,-0.448 -0.335,-0.334 z m -19.741,-6.247 c -3.717,2.355 -6.417,6.244 -8.145,10.237 -1.208,2.798 -3.425,8.135 -2.033,11.185 0.058,0.135 0.288,0.068 0.276,-0.077 -0.497,-8.147 4.767,-15.587 10.218,-20.935 0.211,-0.206 -0.065,-0.572 -0.316,-0.41 z"
         id="path82" />
      <path
         inkscape:connector-curvature="0"
         d="m 388.331,115.598 c -0.296,0.417 -0.511,0.853 -0.716,1.326 -0.167,0.387 -0.367,0.784 -0.381,1.212 -0.012,0.281 0.454,0.355 0.5,0.067 0.065,-0.4 0.346,-0.736 0.516,-1.101 0.209,-0.443 0.396,-0.854 0.492,-1.33 0.052,-0.256 -0.261,-0.38 -0.411,-0.174 z m -5.97,-9.178 c 0.082,-0.233 -0.269,-0.361 -0.387,-0.164 -1.572,2.575 -1.865,5.805 -1.984,8.757 -0.099,2.587 -0.181,6.677 1.685,8.729 0.076,0.086 0.185,-0.022 0.144,-0.111 -2.181,-5.104 -1.27,-12.143 0.542,-17.211 z m 0.496,3.193 c -0.14,0.251 -0.198,0.479 -0.172,0.769 0.018,0.169 0.283,0.232 0.318,0.041 0.051,-0.253 0.13,-0.473 0.13,-0.736 0,-0.146 -0.203,-0.206 -0.276,-0.074 z m 12.528,-18.166 c -2.393,0.718 -5.589,2.939 -6.25,5.476 -0.02,0.073 0.061,0.138 0.126,0.1 1.032,-0.626 1.71,-1.833 2.645,-2.625 1.137,-0.964 2.489,-1.608 3.665,-2.505 0.207,-0.157 0.1,-0.528 -0.186,-0.446 z m 14.471,-5.608 c -1.322,-0.026 -3.204,0.371 -4.208,1.295 -0.096,0.091 -0.037,0.241 0.076,0.281 0.488,0.178 1.205,-0.236 1.676,-0.376 0.839,-0.251 1.708,-0.396 2.515,-0.735 0.24,-0.099 0.226,-0.462 -0.059,-0.465 z m 1.419,1.375 c -0.288,-0.145 -0.527,-0.072 -0.832,0 -0.085,0.018 -0.325,0.16 -0.248,0.289 0.191,0.319 0.813,0.216 1.08,0.066 0.128,-0.073 0.136,-0.287 0,-0.355 z m -6.614,8.563 c -0.24,0.017 -0.378,0.005 -0.613,0.095 -0.201,0.079 -0.392,0.169 -0.583,0.269 -0.198,0.107 -0.386,0.234 -0.57,0.371 -0.127,0.095 -0.159,0.238 -0.271,0.337 -0.132,0.121 -0.063,0.355 0.106,0.395 0.335,0.084 0.585,-0.191 0.863,-0.34 0.204,-0.105 0.418,-0.186 0.624,-0.275 0.097,-0.039 0.192,-0.078 0.288,-0.12 0.141,-0.06 0.167,-0.134 0.291,-0.23 0.19,-0.145 0.161,-0.52 -0.135,-0.502 z"
         id="path84" />
    </g>
    <path
       inkscape:connector-curvature="0"
       style="fill:#855346"
       d="m 222.0748,790.18711 c -0.313,0 -0.313,0.487 0,0.487 0.314,0 0.314,-0.487 0,-0.487 z m -4.986,-2.757 c -0.298,0 -0.298,0.46 0,0.46 0.3,0 0.3,-0.46 0,-0.46 z m 4.642,-0.763 c -0.212,0 -0.212,0.326 0,0.326 0.209,0 0.209,-0.326 0,-0.326 z m -1.307,4.573 c -0.059,-0.027 -0.113,-0.023 -0.163,0.008 -0.11,0.027 -0.147,0.119 -0.133,0.222 -0.014,0.102 0.023,0.194 0.133,0.22 0.05,0.028 0.104,0.036 0.163,0.007 0.094,-0.01 0.195,-0.065 0.212,-0.166 0.008,-0.045 0.008,-0.077 0,-0.122 -0.016,-0.104 -0.118,-0.158 -0.212,-0.169 z m 4.351,0.936 c -0.335,0 -0.335,0.524 0,0.524 0.339,0 0.339,-0.524 0,-0.524 z m 0,-5.852 c -0.383,0 -0.383,0.597 0,0.597 0.391,0 0.391,-0.597 0,-0.597 z m -0.69,2.517 c -0.265,0 -0.265,0.409 0,0.409 0.265,0 0.265,-0.409 0,-0.409 z m 5.225,2.247 c -0.01,-0.005 -0.019,-0.011 -0.028,-0.02 -0.04,-0.026 -0.107,-0.026 -0.144,0 -0.012,0.009 -0.021,0.015 -0.029,0.02 -0.155,0.113 -0.113,0.374 0.102,0.374 0.212,-0.001 0.251,-0.261 0.099,-0.374 z m 0.799,-6.141 c -0.192,0 -0.192,0.301 0,0.301 0.194,0 0.194,-0.301 0,-0.301 z m -9.03,-1.793 c -0.076,-0.025 -0.126,-0.013 -0.192,0.028 -0.011,0.009 -0.009,0.019 -0.019,0.03 -0.006,0.009 -0.015,0.018 -0.021,0.032 -0.008,0.019 -0.017,0.034 -0.017,0.052 0,0.021 0.008,0.036 0.017,0.057 0.006,0.011 0.015,0.022 0.021,0.032 0.01,0.009 0.008,0.02 0.019,0.028 0.065,0.041 0.116,0.051 0.192,0.029 0.142,-0.045 0.142,-0.246 0,-0.288 z m 37.49,5.032 c -0.391,0 -0.391,0.609 0,0.609 0.392,10e-4 0.392,-0.609 0,-0.609 z m 4.51,2.25 c -0.014,-0.002 -0.029,-0.007 -0.047,-0.009 -0.189,-0.042 -0.351,0.12 -0.309,0.311 0.002,0.017 0.006,0.028 0.008,0.045 0.13,0.6 0.946,-0.216 0.348,-0.347 z m -2.78,-6.162 c -0.166,0 -0.166,0.263 0,0.263 0.173,0 0.173,-0.263 0,-0.263 z m 1.213,3.763 c -0.313,0.146 0.136,0.596 0.281,0.281 0.113,-0.232 -0.049,-0.389 -0.281,-0.281 z m -2.801,3.307 c -0.252,0 -0.252,0.39 0,0.39 0.244,0 0.244,-0.39 0,-0.39 z m 7.478,-1.485 c -0.294,0 -0.294,0.451 0,0.451 0.288,0 0.288,-0.451 0,-0.451 z m -0.277,2.936 c -0.345,0 -0.345,0.536 0,0.536 0.344,-10e-4 0.344,-0.536 0,-0.536 z m -1.185,-6.443 c 0,0.013 0.007,0.021 0.007,0.035 0.048,0.274 0.507,0.274 0.551,0 0.007,-0.014 0.007,-0.022 0.007,-0.035 0.077,-0.47 -0.644,-0.47 -0.565,0 z m 6.24,-1.197 c -0.195,0 -0.195,0.301 0,0.301 0.187,0 0.187,-0.301 0,-0.301 z m -2.426,3.193 c -0.27,0 -0.27,0.424 0,0.424 0.275,0 0.275,-0.424 0,-0.424 z m -2.009,-5.2 c -0.191,0 -0.191,0.299 0,0.299 0.197,0 0.197,-0.299 0,-0.299 z m 1.869,8.914 c -0.215,0 -0.215,0.336 0,0.336 0.219,0 0.219,-0.336 0,-0.336 z"
       id="path86" />
    <path
       inkscape:connector-curvature="0"
       style="fill:#c69c6b"
       d="m 318.2508,886.36112 c -0.05,-0.029 -0.102,-0.054 -0.173,-0.06 -10.511,-1.105 -21.543,-0.201 -32.111,-0.197 -11.403,0.005 -22.809,-10e-4 -34.213,0.021 -22.341,0.041 -44.891,-0.803 -67.214,0.151 -0.223,-0.025 -0.451,-0.034 -0.651,-0.025 -0.277,0.01 -0.607,0.056 -0.929,0.129 -0.739,-0.012 -1.574,0.041 -2.029,0.64 -0.421,0.554 -0.72,1.121 -0.954,1.712 -0.827,1.666 -1.095,3.903 -1.083,5.35 0.02,2.03 0.209,4.323 1.792,5.751 1.052,0.942 2.977,0.926 4.655,0.81 22.063,0.901 44.339,0.082 66.413,0.127 10.885,0.021 21.771,0.014 32.654,0.018 9.869,0.003 20.12,0.757 30.027,0.106 1.436,0.095 2.912,-0.018 4.2,-0.245 2.087,-0.37 2.854,-1.581 3.1,-3.592 0.299,-2.451 0.336,-10.631 -3.484,-10.696 z"
       id="path88" />
    <path
       inkscape:connector-curvature="0"
       style="fill:#d5ebe5"
       d="m 196.0038,809.46411 c -0.451,0 -0.451,0.697 0,0.697 0.449,0 0.449,-0.697 0,-0.697 z m -5.849,-17.917 c -0.578,0 -0.578,0.898 0,0.898 0.579,0 0.579,-0.898 0,-0.898 z m -14.628,17.609 c -1.188,0 -1.188,1.846 0,1.846 1.19,0 1.19,-1.846 0,-1.846 z m 35.699,1.571 c -0.359,-0.224 -0.974,0.027 -0.915,0.504 0.054,0.427 0.259,0.701 0.666,0.85 0.429,0.158 0.88,-0.249 0.88,-0.674 0,-0.367 -0.287,-0.645 -0.631,-0.68 z m -10.701,-16.482 c -0.53,0 -0.53,0.821 0,0.821 0.534,0 0.534,-0.821 0,-0.821 z m -2.926,-16.092 c -0.708,0 -0.708,1.094 0,1.094 0.709,-10e-4 0.709,-1.094 0,-1.094 z m 91.009,27.799 c -1.547,0 -1.547,2.401 0,2.401 1.548,10e-4 1.548,-2.401 0,-2.401 z m 25.094,-1.165 c -0.22,-0.16 -0.52,-0.205 -0.785,-0.049 -0.517,0.301 -0.461,1.204 0.178,1.333 0.454,0.09 0.892,-0.155 0.96,-0.637 0.041,-0.26 -0.087,-0.57 -0.353,-0.647 z m -22.789,15.907 c -0.022,-0.123 -0.084,-0.236 -0.166,-0.319 -0.137,-0.136 -0.328,-0.229 -0.512,-0.287 -0.263,-0.084 -0.545,0.194 -0.46,0.46 0.041,0.12 0.099,0.223 0.161,0.325 0.045,0.235 0.229,0.427 0.482,0.423 -0.254,0.004 0.187,0.058 0.251,0.059 0.365,0.003 0.481,-0.464 0.244,-0.661 z m -19.655,-14.154 c -0.785,0 -0.785,1.224 0,1.224 0.789,0 0.789,-1.224 0,-1.224 z m 23.724,-18.192 c -0.193,-0.117 -0.451,-0.117 -0.647,0 -0.206,0.123 -0.327,0.294 -0.371,0.53 -0.087,0.455 0.195,0.916 0.699,0.916 0.496,0 0.778,-0.461 0.694,-0.916 -0.044,-0.235 -0.166,-0.407 -0.375,-0.53 z m 7.334,22.319 c -0.049,-0.041 -0.093,-0.084 -0.143,-0.128 -0.199,-0.177 -0.468,-0.177 -0.67,0 -0.044,0.043 -0.093,0.087 -0.14,0.128 -0.448,0.399 -0.089,1.149 0.475,1.149 0.562,0 0.927,-0.75 0.478,-1.149 z m -17.764,-13.704 c -0.447,0 -0.447,0.701 0,0.701 0.455,0 0.455,-0.701 0,-0.701 z m 14.894,-29.702 c -0.69,0 -0.69,1.073 0,1.073 0.689,0 0.689,-1.073 0,-1.073 z m -8.112,-21.738 c -0.781,-0.283 -0.781,1.221 0,0.936 0.227,-0.081 0.49,-0.176 0.49,-0.467 0,-0.293 -0.263,-0.387 -0.49,-0.469 z m 19.814,73.418 c -0.917,0 -0.917,1.422 0,1.422 0.917,0 0.917,-1.422 0,-1.422 z m 24.73,42.23301 c -0.739,0 -1.021,0.939 -0.484,1.377 0.203,0.317 0.765,0.317 0.968,0 0.532,-0.438 0.251,-1.377 -0.484,-1.377 z m -21.272,13.057 c -0.729,0 -1.066,0.646 -0.983,1.29 0.013,0.074 0.042,0.149 0.067,0.228 0.306,0.899 1.523,0.899 1.831,0 0.021,-0.078 0.053,-0.153 0.064,-0.228 0.089,-0.645 -0.253,-1.29 -0.979,-1.29 z m -30.584,38.225 c -1.029,0 -1.029,1.596 0,1.596 1.029,0 1.029,-1.596 0,-1.596 z m -37.491,-2.268 c -0.868,0 -0.868,1.347 0,1.347 0.865,-10e-4 0.865,-1.347 0,-1.347 z m -0.247,8.498 c -0.031,-0.071 -0.06,-0.145 -0.094,-0.222 -0.186,-0.45 -0.733,-0.45 -0.92,0 -0.031,0.077 -0.062,0.15 -0.089,0.222 -0.15,0.35 0.211,0.728 0.55,0.728 0.338,-10e-4 0.7,-0.379 0.553,-0.728 z m 8.669,-8.743 c -0.083,-0.22 -0.17,-0.475 -0.446,-0.475 -0.277,0 -0.368,0.255 -0.447,0.475 -0.268,0.736 1.157,0.736 0.893,0 z m -42.728,-1.26 c -0.754,0 -0.754,1.171 0,1.171 0.756,0 0.756,-1.171 0,-1.171 z m -29.785,-31.571 c -0.657,0 -0.657,1.02 0,1.02 0.661,-10e-4 0.661,-1.02 0,-1.02 z m -15.032,2.472 c -0.047,0.027 -0.096,0.057 -0.144,0.085 -0.46,0.28 -0.46,0.944 0,1.223 0.047,0.033 0.096,0.062 0.144,0.091 0.528,0.318 1.22,-0.096 1.22,-0.7 0,-0.607 -0.691,-1.025 -1.22,-0.699 z m -0.388,-18.592 c -0.867,0 -0.867,1.346 0,1.346 0.868,0 0.868,-1.346 0,-1.346 z m 7.468,10.221 c -0.039,-0.048 -0.079,-0.093 -0.121,-0.144 -0.081,-0.091 -0.254,-0.091 -0.333,0 -0.042,0.051 -0.084,0.096 -0.127,0.144 -0.226,0.263 -0.084,0.704 0.293,0.704 0.376,0 0.52,-0.441 0.288,-0.704 z m -6.792,-40.391 c 0.014,0.007 0.028,0.007 0.045,0.009 -0.412,-0.53 -1.256,-0.062 -1.256,0.522 0,0.583 0.844,1.051 1.256,0.519 -0.018,0.003 -0.032,0.004 -0.045,0.01 0.528,-0.107 0.528,-0.953 0,-1.06 z m 162.332,46.887 c -0.919,0 -0.919,1.42 0,1.42 0.913,0 0.913,-1.42 0,-1.42 z m -144.661,29.115 c -1.428,0 -1.428,2.222 0,2.222 1.43,0 1.43,-2.222 0,-2.222 z m 145.723,-78.169 c -1.077,0 -1.077,1.67 0,1.67 1.078,0 1.078,-1.67 0,-1.67 z"
       id="path90" />
    <path
       inkscape:connector-curvature="0"
       style="fill:#d6ebe6"
       d="m 270.4638,804.17311 c -0.182,-0.008 -0.359,-0.017 -0.532,-0.025 -1.206,-0.055 -2.208,1.046 -2.208,2.206 0,1.16 1.002,2.264 2.208,2.205 0.173,-0.004 0.351,-0.012 0.532,-0.022 1.188,-0.057 2.179,-0.95 2.179,-2.182 0,-1.23 -0.992,-2.126 -2.179,-2.182 z m -57.974,104.24201 c -1.189,0 -2.181,0.991 -2.181,2.183 0,1.188 0.992,2.179 2.181,2.179 1.187,0 2.184,-0.99 2.184,-2.179 0,-1.192 -0.997,-2.183 -2.184,-2.183 z m -2.216,-98.88501 c -0.019,-0.006 -0.04,-0.011 -0.063,-0.015 -0.265,-0.155 -0.575,-0.245 -0.914,-0.245 -1.016,0 -1.869,0.852 -1.869,1.87 0,1.018 0.853,1.872 1.869,1.872 0.338,0 0.649,-0.09 0.914,-0.245 0.023,-0.008 0.044,-0.012 0.063,-0.017 1.601,-0.35 1.601,-2.867 0,-3.22 z m 73.484,101.27801 c -1.048,0 -1.921,0.868 -1.921,1.913 0,1.049 0.873,1.922 1.921,1.922 1.046,0 1.918,-0.873 1.918,-1.922 0,-1.045 -0.872,-1.913 -1.918,-1.913 z m 29.25,-38.396 c -1.101,0 -2.021,0.915 -2.021,2.022 0,1.097 0.92,2.017 2.021,2.017 1.103,0 2.021,-0.92 2.021,-2.017 -10e-4,-1.107 -0.919,-2.022 -2.021,-2.022 z"
       id="path92" />
  </g>
</svg>
