<?xml version="1.0" encoding="utf-8"?><svg xmlns="http://www.w3.org/2000/svg" xmlns:xlink="http://www.w3.org/1999/xlink" version="1.1" class="page" pageAlignment="none" x="0px" y="0px" width="233px" height="308.3px" viewBox="0 0 233 308.3" enable-background="new 0 0 233 308.3" xml:space="preserve"><defs><linearGradient x1="1178.7680554522376" y1="1019.2507033512311" x2="1736.6644733841238" y2="1019.2507033512311" id="_1439315780651_0_" gradientUnits="userSpaceOnUse" gradientTransform="matrix(1 0 0 1 0 0)"><stop offset="0" style="stop-color:#E26515"/><stop offset="0.9879" style="stop-color:#D64520"/></linearGradient><linearGradient x1="1178.8834681804806" y1="1030.8007717533421" x2="1736.5972789116156" y2="1030.8007717533421" id="_1439315780651_1_" gradientUnits="userSpaceOnUse" gradientTransform="matrix(1 0 0 1 0 0)"><stop offset="0" style="stop-color:#E26515"/><stop offset="0.9879" style="stop-color:#D64520"/></linearGradient><linearGradient x1="1178.872891272771" y1="1030.3603813486402" x2="1736.592923714324" y2="1030.3603813486402" id="_1439315780651_2_" gradientUnits="userSpaceOnUse" gradientTransform="matrix(1 0 0 1 0 0)"><stop offset="0" style="stop-color:#E26515"/><stop offset="0.9879" style="stop-color:#D64520"/></linearGradient><linearGradient x1="1308.819535050802" y1="1151.2444152172593" x2="1821.1036606560922" y2="635.4416954324528" id="_1439315780651_3_" gradientUnits="userSpaceOnUse" gradientTransform="matrix(1 0 0 1 0 0)"><stop offset="0" style="stop-color:#88B029"/><stop offset="0.9879" style="stop-color:#5C932A"/></linearGradient><linearGradient x1="1413.6164698940565" y1="1169.0435796109768" x2="1836.764327947755" y2="742.989354726833" id="_1439315780651_4_" gradientUnits="userSpaceOnUse" gradientTransform="matrix(1 0 0 1 0 0)"><stop offset="0" style="stop-color:#88B029"/><stop offset="0.9879" style="stop-color:#5C932A"/></linearGradient><linearGradient x1="1675.0738954490553" y1="805.3663017643032" x2="1709.5213284316098" y2="805.3663017643032" id="_1439315780651_5_" gradientUnits="userSpaceOnUse" gradientTransform="matrix(1 0 0 1 0 0)"><stop offset="0" style="stop-color:#E26515"/><stop offset="0.9879" style="stop-color:#D64520"/></linearGradient><linearGradient x1="1034.2282587987331" y1="1029.228887378118" x2="982.5442357661169" y2="1114.976801483524" id="_1439315780651_6_" gradientUnits="userSpaceOnUse" gradientTransform="matrix(1 0 0 1 0 0)"><stop offset="0" style="stop-color:#88B029"/><stop offset="0.9879" style="stop-color:#5C932A"/></linearGradient><linearGradient x1="1051.4481194783048" y1="974.2052203970419" x2="1027.722326339521" y2="1045.866872261849" id="_1439315780651_7_" gradientUnits="userSpaceOnUse" gradientTransform="matrix(1 0 0 1 0 0)"><stop offset="0" style="stop-color:#88B029"/><stop offset="0.9879" style="stop-color:#5C932A"/></linearGradient><linearGradient x1="943.4739107078003" y1="967.2787063629684" x2="916.8451513258003" y2="1063.9350475055226" id="_1439315780651_8_" gradientUnits="userSpaceOnUse" gradientTransform="matrix(1 0 0 1 0 0)"><stop offset="0" style="stop-color:#88B029"/><stop offset="0.9879" style="stop-color:#5C932A"/></linearGradient><linearGradient x1="971.4898405885008" y1="916.9412115021893" x2="935.8952192416034" y2="983.4444198342075" id="_1439315780651_9_" gradientUnits="userSpaceOnUse" gradientTransform="matrix(1 0 0 1 0 0)"><stop offset="0" style="stop-color:#88B029"/><stop offset="0.9879" style="stop-color:#5C932A"/></linearGradient><linearGradient x1="1058.9194141746348" y1="964.6873059851953" x2="1014.1555174847363" y2="1038.954558907671" id="_1439315780651_10_" gradientUnits="userSpaceOnUse" gradientTransform="matrix(1 0 0 1 0 0)"><stop offset="0" style="stop-color:#88B029"/><stop offset="0.9879" style="stop-color:#5C932A"/></linearGradient><linearGradient x1="1073.832439897013" y1="917.0226515591394" x2="1053.2814965204498" y2="979.095186340659" id="_1439315780651_11_" gradientUnits="userSpaceOnUse" gradientTransform="matrix(1 0 0 1 0 0)"><stop offset="0" style="stop-color:#88B029"/><stop offset="0.9879" style="stop-color:#5C932A"/></linearGradient><linearGradient x1="976.6788272744693" y1="912.2599665549366" x2="953.6134224380769" y2="995.9817539734335" id="_1439315780651_12_" gradientUnits="userSpaceOnUse" gradientTransform="matrix(1 0 0 1 0 0)"><stop offset="0" style="stop-color:#88B029"/><stop offset="0.9879" style="stop-color:#5C932A"/></linearGradient><linearGradient x1="1000.9393261833175" y1="868.6539954845052" x2="970.1082532038592" y2="926.2572439363432" id="_1439315780651_13_" gradientUnits="userSpaceOnUse" gradientTransform="matrix(1 0 0 1 0 0)"><stop offset="0" style="stop-color:#88B029"/><stop offset="0.9879" style="stop-color:#5C932A"/></linearGradient><linearGradient x1="1076.4987510966243" y1="910.1387840109843" x2="1038.024873760523" y2="973.969908809711" id="_1439315780651_14_" gradientUnits="userSpaceOnUse" gradientTransform="matrix(1 0 0 1 0 0)"><stop offset="0" style="stop-color:#88B029"/><stop offset="0.9879" style="stop-color:#5C932A"/></linearGradient><linearGradient x1="1089.3271787448014" y1="869.1674184986705" x2="1071.6613212867537" y2="922.5260454725648" id="_1439315780651_15_" gradientUnits="userSpaceOnUse" gradientTransform="matrix(1 0 0 1 0 0)"><stop offset="0" style="stop-color:#88B029"/><stop offset="0.9879" style="stop-color:#5C932A"/></linearGradient><linearGradient x1="1001.9869780067588" y1="859.8485092752769" x2="982.1608769905238" y2="931.812989431399" id="_1439315780651_16_" gradientUnits="userSpaceOnUse" gradientTransform="matrix(1 0 0 1 0 0)"><stop offset="0" style="stop-color:#88B029"/><stop offset="0.9879" style="stop-color:#5C932A"/></linearGradient><linearGradient x1="1022.8332548710835" y1="822.379274285337" x2="996.3378174418717" y2="871.8825005169825" id="_1439315780651_17_" gradientUnits="userSpaceOnUse" gradientTransform="matrix(1 0 0 1 0 0)"><stop offset="0" style="stop-color:#88B029"/><stop offset="0.9879" style="stop-color:#5C932A"/></linearGradient><linearGradient x1="1001.9482817366231" y1="944.4480123421089" x2="1017.2252461609996" y2="951.0974679397191" id="_1439315780651_18_" gradientUnits="userSpaceOnUse" gradientTransform="matrix(1 0 0 1 0 0)"><stop offset="0" style="stop-color:#88B029"/><stop offset="0.9879" style="stop-color:#5C932A"/></linearGradient><linearGradient x1="1051.7349442793338" y1="843.7495270720487" x2="1065.0516974906395" y2="893.4180568177096" id="_1439315780651_19_" gradientUnits="userSpaceOnUse" gradientTransform="matrix(1 0 0 1 0 0)"><stop offset="0" style="stop-color:#88B029"/><stop offset="0.9879" style="stop-color:#5C932A"/></linearGradient><linearGradient x1="1037.552438259148" y1="817.8365791663363" x2="1055.5743680929531" y2="852.0731196203433" id="_1439315780651_20_" gradientUnits="userSpaceOnUse" gradientTransform="matrix(1 0 0 1 0 0)"><stop offset="0" style="stop-color:#88B029"/><stop offset="0.9879" style="stop-color:#5C932A"/></linearGradient></defs><style type="text/css"/><style type="text/css"/><g type="LAYER" name="workspace" id="workspace" locked="true"/><g transform="matrix(1 0 0 1 -899.5175954053593 -778.1234199870503)"><g transform="matrix(1 0 0 1 -4.547473508864641e-13 0)"><path transform="matrix(1 0 0 1 3.410605131648481e-13 0)" width="9.124138327132641" height="94.63695368172694" stroke-width="3.1215202923393597" stroke-miterlimit="3" stroke="none" fill="url(#_1439315780651_0_)" d="M1515.3006830154795,976.5234374293683 C1515.3006830154795,975.2392264341502 1515.7424244551157,974.1523454211246 1516.6259073343876,973.2659266122301 C1517.5093902136605,972.3857722472154 1518.5857461158723,971.9347322879194 1519.8580858962328,971.9347322879194 C1521.1428690974283,971.9347322879194 1522.2192249996401,972.3857722472154 1523.0933753132858,973.2659266122301 C1523.9861907581844,974.1523454211246 1524.4248213426122,975.2392264341502 1524.4248213426122,976.5234374293683 L1524.4248213426122,1061.982980828198 C1524.4248213426122,1063.2703240453552 1523.9861907581844,1064.3509406145013 1523.0933753132858,1065.2404916453352 C1522.2192249996401,1066.130042676169 1521.1428690974283,1066.5716859696463 1519.8580858962328,1066.5716859696463 C1518.5857461158723,1066.5716859696463 1517.5093902136605,1066.130042676169 1516.6259073343876,1065.2404916453352 C1515.7424244551157,1064.3509406145017 1515.3006830154795,1063.2703240453552 1515.3006830154795,1061.982980828198 L1515.3006830154795,976.5234374293683 Z "/><path transform="matrix(1 0 0 1 3.410605131648481e-13 0)" width="71.04571125640769" height="71.83437796176293" stroke-width="3.1215202923393597" stroke-miterlimit="3" stroke="none" fill="url(#_1439315780651_1_)" d="M1567.671930454031,994.8845224390424 C1572.375543529593,994.8845224390424 1576.867618450963,995.849246796425 1581.1326009420982,997.7786955111911 C1585.3882508676065,999.7050120040178 1589.1461639597214,1002.2984917699698 1592.378342521567,1005.5497381432283 C1595.6167427938296,1008.8135134042446 1598.189420051428,1012.6128986169255 1600.1025960047818,1016.9572904470888 C1602.0126611029273,1021.3016822772521 1602.9708045072075,1025.9436351916734 1602.9708045072075,1030.876884746473 L1602.9708045072075,1062.133327481296 C1602.9708045072075,1063.4144062545743 1602.5321739227809,1064.4981550456605 1601.6455801882994,1065.3877060764944 C1600.7558755986101,1066.2772571073276 1599.6795196963983,1066.7189004008053 1598.4134016264557,1066.7189004008053 C1597.1317292804688,1066.7189004008053 1596.0584842334654,1066.2772571073276 1595.1718904989846,1065.3877060764944 C1594.2946293301288,1064.4981550456605 1593.8466661800753,1063.4144062545743 1593.8466661800753,1062.133327481296 L1593.8466661800753,1053.0906027417996 C1590.6144876182302,1056.7490379672004 1586.7165860417242,1059.8843921286953 1582.152961450552,1062.4966652262844 C1577.5955585698002,1065.1152027677526 1572.6679639192105,1066.427603760427 1567.3701774987853,1066.427603760427 C1562.464358834658,1066.427603760427 1557.8851799674435,1065.538052729593 1553.6201974763094,1063.7589506679258 C1549.355214985174,1061.9798486062582 1545.6066344586845,1059.5116577178883 1542.3682341864223,1056.3543780028165 C1539.1267230589524,1053.2002305096848 1536.5727109326053,1049.4384319602784 1534.7124195177996,1045.0940401301152 C1532.8459063925764,1040.7496482999518 1531.9250932507998,1036.013728727344 1531.9250932507998,1030.876884746473 C1531.9250932507998,1025.9436351916734 1532.8241304061157,1021.2766245017356 1534.6470915584166,1016.8821171205398 C1536.4576092898828,1012.4907419612828 1538.9525151672644,1008.6600345292064 1542.147363466605,1005.4056559340086 C1545.3328792003185,1002.1481451168708 1549.1063465684779,999.5828553483752 1553.4739872814998,997.7003899627024 C1557.8322954288965,995.8241890209083 1562.5670170565468,994.8845224390424 1567.671930454031,994.8845224390424 Z M1541.039899012306,1030.876884746473 C1541.039899012306,1034.5353199718736 1541.727398013429,1037.9651029956867 1543.0992851604692,1041.1693660398523 C1544.4711723075072,1044.3736290840175 1546.362572274401,1047.1988932734964 1548.7579307851036,1049.6107041669536 C1551.1657327166415,1052.028779504291 1553.9592806940586,1053.9331704435403 1557.1541289933984,1055.314480318884 C1560.3303121614867,1056.6957901942283 1563.736698615018,1057.3911434648096 1567.3701774987862,1057.3911434648096 C1570.9041090158757,1057.3911434648096 1574.2327240891898,1056.7239801916844 1577.3715769947735,1055.3833892015543 C1580.5073190451476,1054.049062655304 1583.2759801808957,1052.2041839329058 1585.686892967642,1049.8330919246623 C1588.0915840439707,1047.4682643602978 1590.0016491421159,1044.6711901682752 1591.4233099724945,1041.470059346049 C1592.8449708028727,1038.259531858005 1593.6537931571352,1034.7232532882472 1593.8466661800753,1030.8737525245338 C1593.8466661800753,1027.2247139649512 1593.1622780341609,1023.7636087217426 1591.7935017423306,1020.5092301265443 C1590.415392884874,1017.2517193094068 1588.5302146283984,1014.4139262321701 1586.1286344072782,1011.989586450954 C1583.7239433309496,1009.5683788916774 1580.9055085118625,1007.6639879524276 1577.6671082396003,1006.2826780770833 C1574.4287079673381,1004.907632645619 1571.0005455273451,1004.2154115969772 1567.3701774987853,1004.2154115969772 C1563.736698615018,1004.2154115969772 1560.3303121614867,1004.907632645619 1557.1541289933984,1006.2826780770833 C1553.9592806940586,1007.6639879524276 1551.1657327166415,1009.5683788916774 1548.7579307851036,1011.989586450954 C1546.3594614191913,1014.4107940102301 1544.4711723075072,1017.2517193094068 1543.0992851604688,1020.5092301265443 C1541.727398013429,1023.7698731656219 1541.039899012306,1027.227846186891 1541.039899012306,1030.876884746473 Z "/><path transform="matrix(1 0 0 1 3.410605131648481e-13 0)" width="87.09150242290934" height="72.42323568640029" stroke-width="3.1215202923393597" stroke-miterlimit="3" stroke="none" fill="url(#_1439315780651_2_)" d="M1610.17243431536,999.1819309401117 C1610.17243431536,997.9008521668336 1610.6203974654131,996.8139711538083 1611.5038803446855,995.9244201229737 C1612.3873632239583,995.0348690921401 1613.4606082709615,994.5869613547842 1614.7391697617397,994.5869613547842 C1616.0115095421002,994.5869613547842 1617.0940871547296,995.0348690921401 1617.9744591787926,995.9244201229737 C1618.857942058065,996.813971153808 1619.305905208118,997.9008521668334 1619.305905208118,999.1819309401117 L1619.305905208118,1000.8106863486809 C1620.9608801791496,999.1380798329579 1623.1415896804508,997.6032910825762 1625.8511445672343,996.2188489852923 C1628.5451451779736,994.840671331888 1631.3200280241376,994.148450283246 1634.1571279744767,994.148450283246 C1638.2821219812195,994.148450283246 1642.0089265212491,995.0630590895964 1645.3406524497714,996.8891444803575 C1648.6692675230865,998.7183620930575 1651.4192635275808,1001.1583629839715 1653.5781970424227,1004.2216760408562 C1655.8335670687343,1001.1583629839715 1658.6240041909425,998.7183620930575 1661.9650626850923,996.8891444803575 C1665.2936777584064,995.0630590895964 1669.023593153644,994.148450283246 1673.1330328843428,994.148450283246 C1676.4709805232844,994.148450283246 1679.609833428868,994.7905557808547 1682.549591601094,996.0685023321936 C1685.495571483738,997.355845549351 1688.0464727548754,999.0816998380461 1690.2054062697173,1001.2491974202183 C1692.355007218932,1003.4323561120884 1694.0753101493467,1005.9945136586447 1695.3507607849149,1008.963860057343 C1696.6168788548594,1011.9206775682837 1697.2608258830608,1015.0810895052948 1697.2608258830608,1018.4356992025592 L1697.2608258830608,1061.9798486062577 C1697.2608258830608,1063.2671918234153 1696.8128627330075,1064.3478083925625 1695.9387124193613,1065.2373594233957 C1695.0552295400885,1066.1269104542291 1693.9695410722509,1066.5685537477063 1692.697201291891,1066.5685537477063 C1691.4248615115298,1066.5685537477063 1690.3453947541093,1066.1269104542291 1689.4619118748371,1065.2373594233957 C1688.5784289955657,1064.3478083925625 1688.1366875559288,1063.2671918234153 1688.1366875559288,1061.9798486062577 L1688.1366875559288,1018.4356992025592 C1688.1366875559288,1016.3559038346942 1687.744719799632,1014.4170584541093 1686.9607842870373,1012.5878408414089 C1686.1799596296532,1010.7586232287086 1685.0942711618147,1009.1486611517768 1683.725494869984,1007.7673512764337 C1682.3536077229453,1006.3923058449683 1680.7639607112972,1005.3085570538822 1678.947221269414,1004.5098404592953 C1677.1304818275298,1003.7205205305277 1675.2017515981331,1003.3258605661429 1673.1299220291346,1003.3258605661429 C1671.0767575913899,1003.3258605661429 1669.1324730859494,1003.7205205305277 1667.3281770649,1004.5098404592953 C1665.5145484782256,1005.3085570538822 1663.946677453037,1006.3923058449683 1662.6152314237113,1007.7673512764337 C1661.2931179600123,1009.1486611517768 1660.24164889947,1010.7586232287086 1659.4577133868765,1012.5878408414089 C1658.661334453449,1014.4170584541093 1658.278699262777,1016.3559038346942 1658.278699262777,1018.4356992025592 L1658.278699262777,1061.9798486062577 C1658.278699262777,1063.2671918234153 1657.833846967932,1064.3478083925625 1656.9565857990783,1065.2373594233957 C1656.0699920645961,1066.1269104542291 1654.9874144519679,1066.5685537477063 1653.7212963820243,1066.5685537477063 C1652.4396240360375,1066.5685537477063 1651.3632681338256,1066.1269104542291 1650.4797852545526,1065.2373594233957 C1649.5963023752815,1064.3478083925625 1649.1545609356453,1063.2671918234153 1649.1545609356453,1061.9798486062577 L1649.1545609356453,1018.4356992025592 C1648.964798767914,1014.0913073723952 1647.4124820187703,1010.4892521419065 1644.5224975298827,1007.6232690672136 C1641.629402185787,1004.7604182144601 1638.1732420489159,1003.3258605661429 1634.1509062640603,1003.3258605661429 C1630.0383556781517,1003.3258605661429 1626.5790846860716,1004.7384926608831 1623.7855367086543,1007.5512279626037 C1620.988877876028,1010.367095486264 1619.4956673758497,1013.7968785100774 1619.30279435291,1017.8374448121037 L1619.30279435291,1061.982980828197 C1619.30279435291,1063.2703240453552 1618.8548312028565,1064.3509406145013 1617.9713483235846,1065.2404916453352 C1617.0909762995216,1066.1300426761686 1616.0083986868915,1066.5716859696463 1614.7360589065315,1066.5716859696463 C1613.4574974157533,1066.5716859696463 1612.3842523687504,1066.1300426761686 1611.5007694894778,1065.2404916453352 C1610.6172866102058,1064.3509406145013 1610.1693234601514,1063.2703240453552 1610.1693234601514,1061.982980828197 L1610.1693234601514,999.1819309401117 Z "/></g><path transform="matrix(1 0 0 1 -4.547473508864641e-13 0)" width="109.85362998500432" height="170.1235024250119" stroke-width="3.1215202923393597" stroke-miterlimit="3" stroke="none" fill="url(#_1439315780651_3_)" d="M1516.955657986512,932.3810336352136 L1559.148187182179,932.3810336352136 L1559.148187182179,860.8818034209828 C1559.148187182179,857.2358970833404 1559.7952450655894,854.0191051514169 1561.1142476740808,851.2126342935755 C1562.4394719929892,848.4092956576736 1564.1504423577767,845.8126836697816 1566.2440479132365,843.4321949957198 C1568.602076161434,841.0454418777783 1571.3022984825902,839.0063653951277 1574.2824977725295,837.3306266574656 C1577.2782513385125,835.645491253985 1581.4281321869257,834.7434113353931 1586.7103643313071,834.5961969042343 L1586.7103643313071,932.3810336352136 L1626.8092879715164,932.3810336352136 L1626.8092879715164,958.2469224120623 L1516.955657986512,958.2469224120623 L1516.955657986512,932.3810336352136 Z M1533.6640613124669,804.9497162463422 C1533.6640613124669,799.7627567144385 1535.3470339803762,795.6658104175 1538.6849816193176,792.6432162458291 C1542.026040113466,789.633150961916 1546.2008078035478,788.1234199870504 1551.196841268729,788.1234199870504 C1555.8009069776126,788.1234199870504 1559.767247368712,789.6300187399764 1563.111416718069,792.6432162458291 C1566.4524752122193,795.6626781955601 1568.1105610384584,799.7627567144385 1568.1105610384584,804.9497162463422 C1568.1105610384584,809.9988580129053 1566.4524752122193,814.2022998557886 1563.111416718069,817.5663062188715 C1559.767247368712,820.927180360014 1555.8009069776126,822.6091835415557 1551.196841268729,822.6091835415557 C1546.2008078035478,822.6091835415557 1542.026040113466,820.9271803600144 1538.6849816193176,817.5663062188715 C1535.3470339803762,814.2022998557886 1533.6640613124669,809.9988580129053 1533.6640613124669,804.9497162463422 Z M1572.7239593129682,804.9497162463422 C1572.7239593129682,799.7627567144385 1574.335382311077,795.6658104175 1577.5208980447921,792.6432162458291 C1580.7281897649666,789.633150961916 1584.6914193008574,788.1234199870504 1589.438584349342,788.1234199870504 C1594.431506959313,788.1234199870504 1598.6529374775255,789.6300187399764 1602.0748782071007,792.6432162458291 C1605.4750429502158,795.6626781955601 1607.1797916045862,799.7627567144385 1607.1797916045862,804.9497162463422 C1607.1797916045862,809.9988580129053 1605.4750429502158,814.2022998557886 1602.0748782071007,817.5663062188715 C1598.6529374775255,820.927180360014 1594.4346178145222,822.6091835415557 1589.438584349342,822.6091835415557 C1584.6914193008574,822.6091835415557 1580.7281897649666,820.9271803600144 1577.5208980447921,817.5663062188715 C1574.3322714558687,814.2022998557886 1572.7239593129682,809.9988580129053 1572.7239593129682,804.9497162463422 Z "/><path transform="matrix(1 0 0 1 -4.547473508864641e-13 0)" width="88.32962279597359" height="119.86386918290611" stroke-width="3.1215202923393597" stroke-miterlimit="3" stroke="none" fill="url(#_1439315780651_4_)" d="M1678.2068377297421,865.0883774858055 C1678.2068377297421,857.2358970833404 1680.4342100591748,851.0748165282349 1684.8889547180408,846.5800780449728 C1686.9607842870378,844.4877537893499 1689.6765608842386,842.7274450593195 1693.0207302335964,841.3304740742783 C1696.3617887277455,839.9241064234178 1700.7387620063944,838.949985400216 1706.1765369112104,838.3830532291562 L1706.1765369112104,898.7347055605096 C1706.1765369112104,907.0131681467549 1704.6273310172746,914.8938385466763 1701.4915889669007,922.3923778699716 C1698.3558469165253,929.8971816371464 1693.8482177191117,936.4529221566359 1688.01536420279,942.0595994284402 C1677.2953571535922,952.8469717882689 1663.280954438375,958.2469224120623 1646.0343731613145,958.2469224120623 L1617.8469141152368,958.2469224120623 L1617.8469141152368,932.3810336352136 L1646.0343731613145,932.3810336352136 C1650.0691523670055,932.3810336352136 1654.0074950612252,931.5791848186881 1657.8400686783507,929.9629582978773 C1661.6508663090142,928.349863999006 1665.1754652604754,926.00069754434 1668.3858678358597,922.918591155817 C1671.9820164571238,918.8529670782741 1674.5484720043046,914.9627474293463 1676.0012413867712,911.2447999870942 C1677.4508999140273,907.5393814326003 1678.2037268745335,903.3609973652331 1678.2037268745335,898.7315733385702 L1678.2037268745335,865.0883774858055 Z "/><path transform="matrix(1 0 0 1 -4.547473508864641e-13 0)" width="34.44338887078379" height="34.4857635545053" stroke-width="3.1215202923393597" stroke-miterlimit="3" stroke="none" fill="url(#_1439315780651_5_)" d="M1675.074206534576,804.9497162463422 C1675.074206534576,799.7627567144385 1676.548751903502,795.6658104175 1679.5538380351115,792.6432162458291 C1682.555813311512,789.633150961916 1686.5439296890725,788.1234199870504 1691.5710717063391,788.1234199870504 C1696.7008719454943,788.1234199870504 1701.0031846991337,789.6300187399764 1704.3877951662057,792.6432162458291 C1707.806625040572,795.6626781955601 1709.5175954053598,799.7627567144385 1709.5175954053598,804.9497162463422 C1709.5175954053598,809.9988580129053 1707.803514185363,814.2022998557886 1704.3877951662057,817.5663062188715 C1701.0031846991337,820.927180360014 1696.7008719454943,822.6091835415557 1691.5710717063391,822.6091835415557 C1686.5439296890725,822.6091835415557 1682.555813311512,820.9271803600144 1679.5538380351115,817.5663062188715 C1676.548751903502,814.2022998557886 1675.074206534576,809.9988580129053 1675.074206534576,804.9497162463422 Z "/><g transform="matrix(1 0 0 1 -4.547473508864641e-13 0)"><g transform="matrix(1 0 0 1 3.410605131648481e-13 0)"><path transform="matrix(1 0 0 1 -4.547473508864641e-13 0)" width="137.4531373966363" height="51.33877140249672" stroke-width="3.1215202923393597" stroke-miterlimit="3" stroke="none" fill="url(#_1439315780651_6_)" d="M1099.979736666884,1011.38506761662 C1092.6941137680963,1021.433235598713 1044.662509345689,1081.8068134836435 962.5265992702477,1056.9557646152114 C962.5265992702477,1056.9557646152114 962.6292574921348,1056.7584346330195 962.8501282119532,1056.4138902196682 C983.322666340441,1049.6420263863492 1073.6867884429078,1020.0112068381552 1099.979736666884,1011.38506761662 Z "/><path transform="matrix(1 0 0 1 -4.547473508864641e-13 0)" width="138.125082121717" height="49.87041707945298" stroke-width="3.1215202923393597" stroke-miterlimit="3" stroke="none" fill="url(#_1439315780651_7_)" d="M1100.9783211888785,1009.9943610754573 C1100.9783211888785,1009.9943610754573 1100.6547922471732,1010.482987698028 1099.979736666884,1011.38506761662 C1073.6867884429078,1020.0112068381552 983.322666340441,1049.6420263863492 962.8532390671614,1056.4138902196682 C966.894239983269,1050.1400496747387 1007.4566810495753,991.1415172212728 1100.9783211888785,1009.9943610754573 Z "/></g><g transform="matrix(1 0 0 1 3.410605131648481e-13 0)"><path transform="matrix(1 0 0 1 -4.547473508864641e-13 0)" width="63.190832962979925" height="132.04194808389718" stroke-width="3.1215202923393597" stroke-miterlimit="3" stroke="none" fill="url(#_1439315780651_8_)" d="M911.3343659557959,906.8252348303814 C909.0572199430235,919.050297060466 898.2905500656955,995.6487845922937 972.5466638974867,1038.8671829142786 C972.5466638974867,1038.8671829142786 972.6057701464524,1038.6510596004496 972.7084283683398,1038.256399636066 C963.5874008964157,1018.5985747434163 923.1120637759531,932.0302247779837 911.3343659557959,906.8252348303814 Z "/><path transform="matrix(1 0 0 1 -4.547473508864641e-13 0)" width="63.655342751888156" height="133.11630020916505" stroke-width="3.1215202923393597" stroke-miterlimit="3" stroke="none" fill="url(#_1439315780651_9_)" d="M911.6641166079182,905.1369672049611 C911.6641166079182,905.1369672049611 911.536571544362,905.7164282637787 911.3343659557959,906.8252348303814 C923.1120637759534,932.027092556044 963.5874008964157,1018.5985747434163 972.7084283683398,1038.2532674141262 C974.4753941268839,1030.9927769582366 989.3763905765815,960.8341377341353 911.6641166079182,905.1369672049611 Z "/></g><g transform="matrix(1 0 0 1 3.410605131648481e-13 0)"><path transform="matrix(1 0 0 1 -4.547473508864641e-13 0)" width="119.05865054756259" height="44.46161479645821" stroke-width="3.1215202923393597" stroke-miterlimit="3" stroke="none" fill="url(#_1439315780651_10_)" d="M1115.8699850729492,949.2355198919616 C1109.5611707096955,957.9337002181069 1067.9503714380555,1010.2292777209238 996.8113345253867,988.6983841084202 C996.8113345253867,988.6983841084202 996.9046601816478,988.5292441236837 997.1006440597967,988.241079705245 C1014.8294078942074,982.3556346808208 1093.0923032348112,956.7027369958616 1115.8699850729492,949.2355198919616 Z "/><path transform="matrix(1 0 0 1 -4.547473508864641e-13 0)" width="119.62171534033905" height="43.201819471259" stroke-width="3.1215202923393597" stroke-miterlimit="3" stroke="none" fill="url(#_1439315780651_11_)" d="M1116.7254702553441,948.0233500013537 C1116.7254702553441,948.0233500013537 1116.4423824313515,948.4524644070725 1115.8730959281586,949.2355198919616 C1093.0954140900194,956.7058692178014 1014.8325187494155,982.3556346808208 997.1037549150051,988.2379474833051 C1000.5941344591722,982.794145752358 1035.7188006206623,931.7013414743304 1116.7254702553441,948.0233500013537 Z "/></g><g transform="matrix(1 0 0 1 3.410605131648481e-13 0)"><path transform="matrix(1 0 0 1 -4.547473508864641e-13 0)" width="54.72061195499339" height="114.36995190092603" stroke-width="3.1215202923393597" stroke-miterlimit="3" stroke="none" fill="url(#_1439315780651_12_)" d="M948.8388363519449,859.8982857319626 C946.872775860043,870.488328109599 937.5370993787194,936.8350532332618 1001.8540308186975,974.2682376328886 C1001.8540308186975,974.2682376328886 1001.9162479228717,974.0771720945758 1001.9877975926722,973.7294954592851 C994.1017796386047,956.7027369958616 959.0362197260804,881.7236082067845 948.8388363519449,859.8982857319626 Z "/><path transform="matrix(1 0 0 1 -4.547473508864641e-13 0)" width="55.13472588952084" height="115.30022181697404" stroke-width="3.1215202923393597" stroke-miterlimit="3" stroke="none" fill="url(#_1439315780651_13_)" d="M949.1250350311457,858.429273642311 C949.1250350311457,858.429273642311 949.0099333884234,858.9398258184584 948.8388363519449,859.8982857319626 C959.0362197260807,881.7236082067845 994.1017796386047,956.7027369958616 1001.9877975926722,973.7294954592851 C1003.5370034866073,967.4399938046578 1016.43149832669,906.6748881772827 949.1250350311457,858.429273642311 Z "/></g><g transform="matrix(1 0 0 1 3.410605131648481e-13 0)"><path transform="matrix(1 0 0 1 -4.547473508864641e-13 0)" width="102.32847123514705" height="38.21260650706586" stroke-width="3.1215202923393597" stroke-miterlimit="3" stroke="none" fill="url(#_1439315780651_14_)" d="M1125.448308260553,896.8585046187161 C1120.0291984869887,904.3351183884347 1084.2792504285494,949.2762387771761 1023.1198370254059,930.7773360021617 C1023.1198370254059,930.7773360021617 1023.2069409712498,930.6301215710022 1023.3718162973117,930.3858082597171 C1038.602563399132,925.333534271214 1105.8810289977976,903.2858240386839 1125.448308260553,896.8585046187161 Z "/><path transform="matrix(1 0 0 1 -4.547473508864641e-13 0)" width="102.82620806853947" height="37.13933499836685" stroke-width="3.1215202923393597" stroke-miterlimit="3" stroke="none" fill="url(#_1439315780651_15_)" d="M1126.1949135106424,895.8123424909048 C1126.1949135106424,895.8123424909048 1125.9522668043633,896.1788124578328 1125.4451974053445,896.8585046187161 C1105.8779181425884,903.2826918167441 1038.5994525439228,925.3335342712147 1023.368705442103,930.3826760377774 C1026.37690242892,925.7031364600816 1056.5708630846125,881.7768559797569 1126.1949135106424,895.8123424909048 Z "/></g><g transform="matrix(1 0 0 1 3.410605131648481e-13 0)"><path transform="matrix(1 0 0 1 -4.547473508864641e-13 0)" width="47.03629252009193" height="98.30791779488573" stroke-width="3.1215202923393597" stroke-miterlimit="3" stroke="none" fill="url(#_1439315780651_16_)" d="M978.0590993273128,814.8381409095185 C976.3699049489855,823.9560389755642 968.3470093657347,880.9687427193516 1023.6237955692164,913.1460587044043 C1023.6237955692164,913.1460587044043 1023.6766801077645,912.9800509416077 1023.7451189223556,912.6856220792897 C1016.9634545673788,898.0518811776866 986.8286001606518,833.6064147713346 978.0590993273128,814.8381409095185 Z "/><path transform="matrix(1 0 0 1 -4.547473508864641e-13 0)" width="47.39438617402118" height="99.09097327977508" stroke-width="3.1215202923393597" stroke-miterlimit="3" stroke="none" fill="url(#_1439315780651_17_)" d="M978.3017460335913,813.5946487995146 C978.3017460335913,813.5946487995146 978.2146420877474,814.0206309832944 978.0590993273128,814.8412731314583 C986.8286001606518,833.6064147713346 1016.9634545673788,898.0518811776866 1023.7482297775649,912.6856220792897 C1025.0765649516816,907.2825392335567 1036.1636529155062,855.0496061695308 978.3017460335913,813.5946487995146 Z "/></g><path transform="matrix(1 0 0 1 3.410605131648481e-13 0)" width="85.03211627474616" height="216.11704938544335" stroke-width="3.1215202923393597" stroke-miterlimit="3" stroke="none" fill="url(#_1439315780651_18_)" d="M1047.5680481106192,838.195119912783 C1047.5680481106192,838.195119912783 1027.3194915571576,954.0121583497835 968.0421455552812,1054.3121692982263 L962.535931835873,1053.4038249357554 C962.535931835873,1053.4038249357554 1000.0061828247267,997.0206978018185 1047.5680481106192,838.195119912783 Z "/><g transform="matrix(1 0 0 1 3.410605131648481e-13 0)"><path transform="matrix(1 0 0 1 -4.547473508864641e-13 0)" width="32.76273690085941" height="67.5025150193585" stroke-width="3.1215202923393597" stroke-miterlimit="3" stroke="none" fill="url(#_1439315780651_19_)" d="M1068.4294431401963,812.861708865659 C1069.5555727257477,819.1418138544675 1074.8253614492937,858.466860305586 1036.5742858030558,880.3642238850175 C1036.5742858030558,880.3642238850175 1036.5556206718034,880.2545961171331 1036.5120686988816,880.0478694691226 C1041.2436794713224,869.9997014870282 1062.3103909446736,825.7445377030501 1068.4294431401963,812.861708865659 Z "/><path transform="matrix(1 0 0 1 -4.547473508864641e-13 0)" width="33.02062368680572" height="68.05065385878095" stroke-width="3.1215202923393597" stroke-miterlimit="3" stroke="none" fill="url(#_1439315780651_20_)" d="M1068.273900379761,811.9972156103416 C1068.273900379761,811.9972156103416 1068.3392283391438,812.2947766945995 1068.4294431401963,812.861708865659 C1062.3103909446736,825.7445377030501 1041.2436794713224,869.9997014870286 1036.5120686988816,880.0478694691226 C1035.6161423987746,876.3142609171724 1028.2278612781004,840.2749152806479 1068.273900379761,811.9972156103416 Z "/></g></g></g></svg>