<?xml version="1.0" encoding="utf-8"?><svg xmlns="http://www.w3.org/2000/svg" xmlns:xlink="http://www.w3.org/1999/xlink" version="1.1" class="page" pageAlignment="none" x="0px" y="0px" width="820px" height="308.3px" viewBox="0 0 820 308.3" enable-background="new 0 0 820 308.3" xml:space="preserve"><defs><linearGradient x1="1178.8865790356895" y1="1019.2507033512311" x2="1736.600078681304" y2="1019.2507033512311" id="_1437402639899_0_" gradientUnits="userSpaceOnUse" gradientTransform="matrix(1 0 0 1 0 0)"><stop offset="0" style="stop-color:#E26515"/><stop offset="0.9879" style="stop-color:#D64520"/></linearGradient><linearGradient x1="1178.8834681804806" y1="1030.8007717533421" x2="1736.5972789116156" y2="1030.8007717533421" id="_1437402639899_1_" gradientUnits="userSpaceOnUse" gradientTransform="matrix(1 0 0 1 0 0)"><stop offset="0" style="stop-color:#E26515"/><stop offset="0.9879" style="stop-color:#D64520"/></linearGradient><linearGradient x1="1178.8865790356895" y1="1019.2507033512311" x2="1736.5923015432825" y2="1019.2507033512311" id="_1437402639899_2_" gradientUnits="userSpaceOnUse" gradientTransform="matrix(1 0 0 1 0 0)"><stop offset="0" style="stop-color:#E26515"/><stop offset="0.9879" style="stop-color:#D64520"/></linearGradient><linearGradient x1="1178.8834681804806" y1="1030.8007717533421" x2="1736.5972789116156" y2="1030.8007717533421" id="_1437402639899_3_" gradientUnits="userSpaceOnUse" gradientTransform="matrix(1 0 0 1 0 0)"><stop offset="0" style="stop-color:#E26515"/><stop offset="0.9879" style="stop-color:#D64520"/></linearGradient><linearGradient x1="1178.8788018976675" y1="1030.8007717533421" x2="1736.592923714324" y2="1030.8007717533421" id="_1437402639899_4_" gradientUnits="userSpaceOnUse" gradientTransform="matrix(1 0 0 1 0 0)"><stop offset="0" style="stop-color:#E26515"/><stop offset="0.9879" style="stop-color:#D64520"/></linearGradient><linearGradient x1="1178.7680554522376" y1="1019.2507033512311" x2="1736.6644733841238" y2="1019.2507033512311" id="_1437402639899_5_" gradientUnits="userSpaceOnUse" gradientTransform="matrix(1 0 0 1 0 0)"><stop offset="0" style="stop-color:#E26515"/><stop offset="0.9879" style="stop-color:#D64520"/></linearGradient><linearGradient x1="1178.8834681804806" y1="1030.8007717533421" x2="1736.5972789116156" y2="1030.8007717533421" id="_1437402639899_6_" gradientUnits="userSpaceOnUse" gradientTransform="matrix(1 0 0 1 0 0)"><stop offset="0" style="stop-color:#E26515"/><stop offset="0.9879" style="stop-color:#D64520"/></linearGradient><linearGradient x1="1178.872891272771" y1="1030.3603813486402" x2="1736.592923714324" y2="1030.3603813486402" id="_1437402639899_7_" gradientUnits="userSpaceOnUse" gradientTransform="matrix(1 0 0 1 0 0)"><stop offset="0" style="stop-color:#E26515"/><stop offset="0.9879" style="stop-color:#D64520"/></linearGradient><linearGradient x1="1141.6701738318666" y1="982.9426130722932" x2="1653.9527440095508" y2="467.1414593984559" id="_1437402639899_8_" gradientUnits="userSpaceOnUse" gradientTransform="matrix(1 0 0 1 0 0)"><stop offset="0" style="stop-color:#88B029"/><stop offset="0.9879" style="stop-color:#5C932A"/></linearGradient><linearGradient x1="1186.6742939651617" y1="1028.2589736493924" x2="1698.9646412808688" y2="512.4499894207066" id="_1437402639899_9_" gradientUnits="userSpaceOnUse" gradientTransform="matrix(1 0 0 1 0 0)"><stop offset="0" style="stop-color:#88B029"/><stop offset="0.9879" style="stop-color:#5C932A"/></linearGradient><linearGradient x1="1259.7140634103503" y1="1101.8079299008687" x2="1772.0115656930373" y2="585.9920547839157" id="_1437402639899_10_" gradientUnits="userSpaceOnUse" gradientTransform="matrix(1 0 0 1 0 0)"><stop offset="0" style="stop-color:#88B029"/><stop offset="0.9879" style="stop-color:#5C932A"/></linearGradient><linearGradient x1="1308.819535050802" y1="1151.2444152172593" x2="1821.1036606560922" y2="635.4416954324528" id="_1437402639899_11_" gradientUnits="userSpaceOnUse" gradientTransform="matrix(1 0 0 1 0 0)"><stop offset="0" style="stop-color:#88B029"/><stop offset="0.9879" style="stop-color:#5C932A"/></linearGradient><linearGradient x1="1413.6164698940565" y1="1169.0435796109768" x2="1836.764327947755" y2="742.989354726833" id="_1437402639899_12_" gradientUnits="userSpaceOnUse" gradientTransform="matrix(1 0 0 1 0 0)"><stop offset="0" style="stop-color:#88B029"/><stop offset="0.9879" style="stop-color:#5C932A"/></linearGradient><linearGradient x1="1675.0738954490553" y1="805.3663017643032" x2="1709.5213284316098" y2="805.3663017643032" id="_1437402639899_13_" gradientUnits="userSpaceOnUse" gradientTransform="matrix(1 0 0 1 0 0)"><stop offset="0" style="stop-color:#E26515"/><stop offset="0.9879" style="stop-color:#D64520"/></linearGradient><linearGradient x1="1034.2282587987331" y1="1029.228887378118" x2="982.5442357661169" y2="1114.976801483524" id="_1437402639899_14_" gradientUnits="userSpaceOnUse" gradientTransform="matrix(1 0 0 1 0 0)"><stop offset="0" style="stop-color:#88B029"/><stop offset="0.9879" style="stop-color:#5C932A"/></linearGradient><linearGradient x1="1051.4481194783048" y1="974.2052203970419" x2="1027.722326339521" y2="1045.866872261849" id="_1437402639899_15_" gradientUnits="userSpaceOnUse" gradientTransform="matrix(1 0 0 1 0 0)"><stop offset="0" style="stop-color:#88B029"/><stop offset="0.9879" style="stop-color:#5C932A"/></linearGradient><linearGradient x1="943.4739107078003" y1="967.2787063629684" x2="916.8451513258003" y2="1063.9350475055226" id="_1437402639899_16_" gradientUnits="userSpaceOnUse" gradientTransform="matrix(1 0 0 1 0 0)"><stop offset="0" style="stop-color:#88B029"/><stop offset="0.9879" style="stop-color:#5C932A"/></linearGradient><linearGradient x1="971.4898405885008" y1="916.9412115021893" x2="935.8952192416034" y2="983.4444198342075" id="_1437402639899_17_" gradientUnits="userSpaceOnUse" gradientTransform="matrix(1 0 0 1 0 0)"><stop offset="0" style="stop-color:#88B029"/><stop offset="0.9879" style="stop-color:#5C932A"/></linearGradient><linearGradient x1="1058.9194141746348" y1="964.6873059851953" x2="1014.1555174847363" y2="1038.954558907671" id="_1437402639899_18_" gradientUnits="userSpaceOnUse" gradientTransform="matrix(1 0 0 1 0 0)"><stop offset="0" style="stop-color:#88B029"/><stop offset="0.9879" style="stop-color:#5C932A"/></linearGradient><linearGradient x1="1073.832439897013" y1="917.0226515591394" x2="1053.2814965204498" y2="979.095186340659" id="_1437402639899_19_" gradientUnits="userSpaceOnUse" gradientTransform="matrix(1 0 0 1 0 0)"><stop offset="0" style="stop-color:#88B029"/><stop offset="0.9879" style="stop-color:#5C932A"/></linearGradient><linearGradient x1="976.6788272744693" y1="912.2599665549366" x2="953.6134224380769" y2="995.9817539734335" id="_1437402639899_20_" gradientUnits="userSpaceOnUse" gradientTransform="matrix(1 0 0 1 0 0)"><stop offset="0" style="stop-color:#88B029"/><stop offset="0.9879" style="stop-color:#5C932A"/></linearGradient><linearGradient x1="1000.9393261833175" y1="868.6539954845052" x2="970.1082532038592" y2="926.2572439363432" id="_1437402639899_21_" gradientUnits="userSpaceOnUse" gradientTransform="matrix(1 0 0 1 0 0)"><stop offset="0" style="stop-color:#88B029"/><stop offset="0.9879" style="stop-color:#5C932A"/></linearGradient><linearGradient x1="1076.4987510966243" y1="910.1387840109843" x2="1038.024873760523" y2="973.969908809711" id="_1437402639899_22_" gradientUnits="userSpaceOnUse" gradientTransform="matrix(1 0 0 1 0 0)"><stop offset="0" style="stop-color:#88B029"/><stop offset="0.9879" style="stop-color:#5C932A"/></linearGradient><linearGradient x1="1089.3271787448014" y1="869.1674184986705" x2="1071.6613212867537" y2="922.5260454725648" id="_1437402639899_23_" gradientUnits="userSpaceOnUse" gradientTransform="matrix(1 0 0 1 0 0)"><stop offset="0" style="stop-color:#88B029"/><stop offset="0.9879" style="stop-color:#5C932A"/></linearGradient><linearGradient x1="1001.9869780067588" y1="859.8485092752769" x2="982.1608769905238" y2="931.812989431399" id="_1437402639899_24_" gradientUnits="userSpaceOnUse" gradientTransform="matrix(1 0 0 1 0 0)"><stop offset="0" style="stop-color:#88B029"/><stop offset="0.9879" style="stop-color:#5C932A"/></linearGradient><linearGradient x1="1022.8332548710835" y1="822.379274285337" x2="996.3378174418717" y2="871.8825005169825" id="_1437402639899_25_" gradientUnits="userSpaceOnUse" gradientTransform="matrix(1 0 0 1 0 0)"><stop offset="0" style="stop-color:#88B029"/><stop offset="0.9879" style="stop-color:#5C932A"/></linearGradient><linearGradient x1="1001.9482817366231" y1="944.4480123421089" x2="1017.2252461609996" y2="951.0974679397191" id="_1437402639899_26_" gradientUnits="userSpaceOnUse" gradientTransform="matrix(1 0 0 1 0 0)"><stop offset="0" style="stop-color:#88B029"/><stop offset="0.9879" style="stop-color:#5C932A"/></linearGradient><linearGradient x1="1051.7349442793338" y1="843.7495270720487" x2="1065.0516974906395" y2="893.4180568177096" id="_1437402639899_27_" gradientUnits="userSpaceOnUse" gradientTransform="matrix(1 0 0 1 0 0)"><stop offset="0" style="stop-color:#88B029"/><stop offset="0.9879" style="stop-color:#5C932A"/></linearGradient><linearGradient x1="1037.552438259148" y1="817.8365791663363" x2="1055.5743680929531" y2="852.0731196203433" id="_1437402639899_28_" gradientUnits="userSpaceOnUse" gradientTransform="matrix(1 0 0 1 0 0)"><stop offset="0" style="stop-color:#88B029"/><stop offset="0.9879" style="stop-color:#5C932A"/></linearGradient></defs><style type="text/css"/><style type="text/css"/><g type="LAYER" name="workspace" id="workspace" locked="true"/><g transform="matrix(1 0 0 1 -899.5175954053593 -778.1234199870503)"><g transform="matrix(1 0 0 1 -4.547473508864641e-13 0)"><path transform="matrix(1 0 0 1 3.410605131648481e-13 0)" width="68.39837347380012" height="94.63695368172694" stroke-width="3.1215202923393597" stroke-miterlimit="3" stroke="none" fill="url(#_1437402639899_0_)" d="M1185.9637746354933,976.5234374293683 C1185.9637746354933,975.2392264341502 1186.4024052199204,974.1523454211246 1187.2858880991923,973.2659266122301 C1188.1693709784654,972.3857722472154 1189.2457268806768,971.9347322879194 1190.521177516247,971.9347322879194 C1191.6006442736668,971.9347322879194 1192.4063557727218,972.1508556017487 1192.9476445790363,972.5987633391053 C1193.4889333853507,973.0498032984012 1194.0488873229174,973.6605865766142 1194.6399498125718,974.4467742834424 L1245.2411206373695,1046.5755811075244 L1245.2411206373695,976.5234374293681 C1245.2411206373695,975.2392264341502 1245.6797512217972,974.1523454211246 1246.569455811487,973.2659266122301 C1247.4436061251322,972.3857722472154 1248.5292945929707,971.9347322879194 1249.804745228539,971.9347322879194 C1251.080195864109,971.9347322879194 1252.1565517663219,972.3857722472154 1253.043145500802,973.2659266122301 C1253.9235175248657,974.1523454211246 1254.3621481092935,975.2392264341502 1254.3621481092935,976.5234374293681 L1254.3621481092935,1061.982980828197 C1254.3621481092935,1063.2703240453552 1253.9235175248657,1064.3509406145013 1253.043145500802,1065.2404916453352 C1252.1565517663219,1066.1300426761686 1251.080195864109,1066.5716859696463 1249.804745228539,1066.5716859696463 C1248.7190567607024,1066.5716859696463 1247.863571578308,1066.2490671098715 1247.2227354053152,1065.6038293903234 C1246.5881209427391,1064.9679883365939 1245.975282466624,1064.2538417343753 1245.3873308321795,1063.4613895836678 L1195.0848021074169,991.7742260530629 L1195.0848021074169,1061.9798486062577 C1195.0848021074169,1063.2671918234146 1194.6399498125718,1064.3478083925615 1193.7564669332999,1065.2373594233957 C1192.8792057644446,1066.126910454229 1191.7935172966077,1066.5685537477063 1190.521177516247,1066.5685537477063 C1189.2457268806768,1066.5685537477063 1188.1693709784654,1066.126910454229 1187.2858880991923,1065.2373594233957 C1186.4024052199204,1064.3478083925625 1185.9637746354933,1063.2671918234146 1185.9637746354933,1061.9798486062577 L1185.9637746354933,976.5234374293683 Z "/><path transform="matrix(1 0 0 1 3.410605131648481e-13 0)" width="71.04260040119834" height="71.83437796176293" stroke-width="3.1215202923393597" stroke-miterlimit="3" stroke="none" fill="url(#_1437402639899_1_)" d="M1297.316836831093,994.8845224390424 C1302.0235607618642,994.8845224390424 1306.5125248280256,995.849246796425 1310.7775073191608,997.7786955111911 C1315.0362680998783,999.7050120040178 1318.7910703367852,1002.2984917699698 1322.0294706090472,1005.5497381432283 C1325.264760026101,1008.8135134042446 1327.8374372837,1012.6128986169255 1329.7475023818452,1016.9572904470888 C1331.6637891904065,1021.3016822772521 1332.6157108842708,1025.9436351916734 1332.6157108842708,1030.876884746473 L1332.6157108842708,1062.133327481296 C1332.6157108842708,1063.4144062545743 1332.1770802998435,1064.4981550456605 1331.2935974205707,1065.3877060764944 C1330.4101145412997,1066.2772571073276 1329.324426073461,1066.7189004008053 1328.058308003518,1066.7189004008053 C1326.7766356575316,1066.7189004008053 1325.7065014657371,1066.2772571073276 1324.8167968760472,1065.3877060764944 C1323.9395357071921,1064.4981550456605 1323.4915725571382,1063.4144062545743 1323.4915725571382,1062.133327481296 L1323.4915725571382,1053.0906027417996 C1320.2593939952942,1056.7490379672004 1316.3614924187864,1059.8843921286953 1311.8009786828245,1062.4966652262844 C1307.243575802072,1065.1152027677526 1302.3159811514824,1066.427603760427 1297.0213055862669,1066.427603760427 C1292.1123760669307,1066.427603760427 1287.536308054925,1065.538052729593 1283.2713255637898,1063.7589506679258 C1279.0063430726545,1061.982980828198 1275.2577625461658,1059.5116577178883 1272.0224731291128,1056.3543780028165 C1268.7809620016415,1053.2002305096848 1266.2331715857122,1049.4384319602784 1264.3635476052802,1045.0940401301152 C1262.5032561904745,1040.7496482999518 1261.5731104830725,1036.013728727344 1261.5731104830725,1030.876884746473 C1261.5731104830725,1025.9436351916734 1262.4845910592226,1021.2766245017356 1264.2982196458968,1016.8821171205398 C1266.1118482325728,1012.4907419612828 1268.6036432547448,1008.6600345292064 1271.8016024092944,1005.4056559340086 C1274.9871181430085,1002.1481451168708 1278.763696366376,999.5828553483752 1283.12511536898,997.7003899627024 C1287.4834235163767,995.8241890209083 1292.2212559992342,994.8845224390424 1297.316836831093,994.8845224390424 Z M1270.684805389369,1030.876884746473 C1270.684805389369,1034.5353199718736 1271.3723043904927,1037.9651029956867 1272.7566349583667,1041.1693660398523 C1274.1223003949885,1044.3736290840175 1276.0105895066722,1047.1988932734964 1278.4121697277928,1049.6107041669536 C1280.816860804121,1052.028779504291 1283.6072979263304,1053.9331704435403 1286.8021462256702,1055.314480318884 C1289.9845511041756,1056.6957901942283 1293.3878267024993,1057.3911434648096 1297.0213055862669,1057.3911434648096 C1300.555237103355,1057.3911434648096 1303.8838521766704,1056.7239801916844 1307.0258159374625,1055.3833892015543 C1310.1615579878367,1054.049062655304 1312.9333299787936,1052.2041839329058 1315.3349101999138,1049.8330919246623 C1317.739601276243,1047.4682643602978 1319.6558880848052,1044.6711901682752 1321.071327204766,1041.470059346049 C1322.492988035144,1038.259531858005 1323.3018103894071,1034.7232532882472 1323.494683412347,1030.8737525245338 C1323.494683412347,1027.2247139649512 1322.8102952664326,1023.7636087217426 1321.4415189746026,1020.5092301265443 C1320.0665209723543,1017.2517193094068 1318.1782318606702,1014.4139262321701 1315.77665163955,1011.989586450954 C1313.3750714184293,1009.5652466697379 1310.5566365993423,1007.6639879524276 1307.3244580374978,1006.2826780770833 C1304.0829469100277,1004.907632645619 1300.6485627596164,1004.2154115969772 1297.0244164414753,1004.2154115969772 C1293.390937557708,1004.2154115969772 1289.9876619593842,1004.907632645619 1286.8052570808784,1006.2826780770833 C1283.6104087815384,1007.6639879524276 1280.8199716593294,1009.5683788916774 1278.4152805830008,1011.989586450954 C1276.016811217089,1014.4107940102301 1274.1285221054045,1017.2517193094068 1272.7597458135745,1020.5092301265443 C1271.3723043904927,1023.7698731656219 1270.684805389369,1027.227846186891 1270.684805389369,1030.876884746473 Z "/><path transform="matrix(1 0 0 1 3.410605131648481e-13 0)" width="37.80622335139378" height="94.64008590366666" stroke-width="3.1215202923393597" stroke-miterlimit="3" stroke="none" fill="url(#_1437402639899_2_)" d="M1341.736738356194,1003.7769005254399 L1331.9282118831468,1003.7769005254399 C1330.6434286819522,1003.7769005254399 1329.5484076484877,1003.3258605661429 1328.6587030587978,1002.4457062011284 C1327.7658876138994,1001.5530229483547 1327.3179244638459,1000.4630097133901 1327.3179244638459,999.1819309401121 C1327.3179244638459,997.9008521668336 1327.7658876138994,996.8139711538083 1328.6587030587978,995.9244201229747 C1329.5484076484877,995.0348690921408 1330.6434286819522,994.5869613547843 1331.9282118831468,994.5869613547843 L1341.736738356194,994.5869613547843 L1341.736738356194,976.5203052074287 C1341.736738356194,975.2360942122107 1342.1691472302045,974.1492131991855 1343.0370758334325,973.262794390291 C1343.905004436661,972.3826400252758 1344.9626952076214,971.9316000659796 1346.2163698567297,971.9316000659796 C1347.4762662162552,971.9316000659796 1348.5370678424235,972.3826400252758 1349.4018855904437,973.262794390291 C1350.2667033384637,974.1492131991855 1350.7053339228914,975.2360942122107 1350.7053339228914,976.5203052074287 L1350.7053339228914,994.5869613547843 L1360.5107495407296,994.5869613547843 C1361.7986435971336,994.5869613547843 1362.893664630598,995.0348690921401 1363.7771475098696,995.9244201229747 C1364.6792955203946,996.8139711538083 1365.1241478152397,997.9008521668336 1365.1241478152397,999.1819309401121 C1365.1241478152397,1000.4630097133904 1364.6792955203946,1001.5530229483556 1363.7958126411222,1002.4457062011284 C1362.9185514722672,1003.3258605661429 1361.8359738596387,1003.7769005254399 1360.5605232240691,1003.7769005254399 L1350.8484332624912,1003.7769005254399 L1350.8484332624912,1061.9829808281982 C1350.8484332624912,1063.2703240453552 1350.4129135332719,1064.3509406145017 1349.526319798792,1065.2404916453352 C1348.6521694851447,1066.1300426761695 1347.5633701620995,1066.5716859696463 1346.291030381739,1066.5716859696463 C1345.0186906013773,1066.5716859696463 1343.9361129887482,1066.1300426761695 1343.0526301094765,1065.2404916453352 C1342.1784797958303,1064.3509406145017 1341.7336275009852,1063.2703240453552 1341.7336275009852,1061.9829808281982 L1341.7336275009852,1003.7769005254399 Z "/><path transform="matrix(1 0 0 1 3.410605131648481e-13 0)" width="71.04571125640769" height="71.83437796176293" stroke-width="3.1215202923393597" stroke-miterlimit="3" stroke="none" fill="url(#_1437402639899_3_)" d="M1395.1376788688272,994.8845224390424 C1399.8381810891797,994.8845224390424 1404.3302560105499,995.849246796425 1408.5921276464767,997.7786955111911 C1412.8539992824028,999.7050120040178 1416.608801519309,1002.2984917699698 1419.844090936363,1005.5497381432283 C1423.082491208625,1008.8135134042446 1425.6551684662236,1012.6128986169255 1427.5652335643692,1016.9572904470888 C1429.472187807305,1021.3016822772521 1430.4334420667947,1025.9436351916734 1430.4334420667947,1030.876884746473 L1430.4334420667947,1062.133327481296 C1430.4334420667947,1063.4144062545743 1429.985478916741,1064.4981550456605 1429.111328603095,1065.3877060764944 C1428.2185131581969,1066.2772571073276 1427.1421572559852,1066.7189004008053 1425.8760391860417,1066.7189004008053 C1424.5943668400555,1066.7189004008053 1423.5211217930523,1066.2772571073276 1422.6345280585713,1065.3877060764944 C1421.7510451792991,1064.4981550456605 1421.3124145948718,1063.4144062545743 1421.3124145948718,1062.133327481296 L1421.3124145948718,1053.0906027417996 C1418.0771251778187,1056.7490379672004 1414.1823344565196,1059.8843921286953 1409.615599010141,1062.4966652262844 C1405.058196129387,1065.1152027677526 1400.1306014787986,1066.427603760427 1394.832815058373,1066.427603760427 C1389.926996394246,1066.427603760427 1385.347817527031,1065.538052729593 1381.0797241806883,1063.7589506679258 C1376.8085199791365,1061.982980828198 1373.0630503078537,1059.5116577178883 1369.8246500355929,1056.3543780028165 C1366.58936061854,1053.2002305096848 1364.0384593474016,1049.4384319602784 1362.175057077387,1045.0940401301152 C1360.3054330969553,1040.7496482999518 1359.387730810387,1036.013728727344 1359.387730810387,1030.876884746473 C1359.387730810387,1025.9436351916734 1360.2898788209118,1021.2766245017356 1362.1097291180045,1016.8821171205398 C1363.9233577046798,1012.4907419612828 1366.4151527268523,1008.6600345292064 1369.6100010261925,1005.4056559340086 C1372.789295049488,1002.1481451168708 1376.5658732728573,999.5828553483752 1380.9397356962968,997.7003899627024 C1385.2918221332745,995.8241890209083 1390.0296546161323,994.8845224390424 1395.1376788688272,994.8845224390424 Z M1368.5025365718934,1030.876884746473 C1368.5025365718934,1034.5353199718736 1369.1900355730172,1037.9651029956867 1370.561922720056,1041.1693660398523 C1371.9369207223033,1044.3736290840175 1373.815877268362,1047.1988932734964 1376.2205683446903,1049.6107041669536 C1378.62525942102,1052.028779504291 1381.4250291088538,1053.9331704435403 1384.6167665529858,1055.314480318884 C1387.7898388658646,1056.6957901942283 1391.1962253193974,1057.3911434648096 1394.832815058373,1057.3911434648096 C1398.3667465754625,1057.3911434648096 1401.6953616487772,1056.7239801916844 1404.837325409569,1055.3833892015543 C1407.9730674599432,1054.049062655304 1410.7386177404828,1052.2041839329058 1413.1464196720194,1049.8330919246623 C1415.5542216035574,1047.4682643602978 1417.464286701703,1044.6711901682752 1418.8828366768726,1041.470059346049 C1420.3076083624596,1038.259531858005 1421.1164307167228,1034.7232532882472 1421.3124145948718,1030.8737525245338 C1421.3124145948718,1027.2247139649512 1420.6249155937471,1023.7636087217426 1419.2468067362915,1020.5092301265443 C1417.878030444461,1017.2517193094068 1415.9866304775683,1014.4139262321701 1413.5943828220734,1011.989586450954 C1411.1896917457448,1009.5683788916774 1408.3712569266586,1007.6639879524276 1405.1328566543962,1006.2826780770833 C1401.8882346717169,1004.907632645619 1398.460072231724,1004.2154115969772 1394.832815058373,1004.2154115969772 C1391.1962253193974,1004.2154115969772 1387.7867280106561,1004.907632645619 1384.6167665529858,1006.2826780770833 C1381.4250291088538,1007.6639879524276 1378.62525942102,1009.5683788916774 1376.2205683446903,1011.989586450954 C1373.815877268362,1014.4107940102301 1371.9369207223033,1017.2517193094068 1370.561922720056,1020.5092301265443 C1369.1900355730172,1023.7698731656219 1368.5025365718934,1027.227846186891 1368.5025365718934,1030.876884746473 Z "/><path transform="matrix(1 0 0 1 3.410605131648481e-13 0)" width="71.04571125640905" height="71.83437796176293" stroke-width="3.1215202923393597" stroke-miterlimit="3" stroke="none" fill="url(#_1437402639899_4_)" d="M1472.5046479093235,994.8845224390424 C1477.2144826953024,994.8845224390424 1481.700335906256,995.849246796425 1485.9684292525992,997.7786955111911 C1490.2303008885247,999.7050120040178 1493.9819922702227,1002.2984917699698 1497.2172816872767,1005.5497381432283 C1500.4494602491213,1008.8135134042446 1503.0283592171377,1012.6128986169255 1504.9415351704906,1016.9572904470888 C1506.8453785582192,1021.3016822772521 1507.8035219625008,1025.9436351916734 1507.8035219625008,1030.876884746473 L1507.8035219625008,1062.133327481296 C1507.8035219625008,1063.4144062545743 1507.3586696676562,1064.4981550456605 1506.4845193540089,1065.3877060764944 C1505.5948147643198,1066.2772571073276 1504.5153480068989,1066.7189004008053 1503.249229936956,1066.7189004008053 C1501.9675575909694,1066.7189004008053 1500.8880908335489,1066.2772571073276 1500.0077188094856,1065.3877060764944 C1499.1242359302137,1064.4981550456605 1498.6856053457855,1063.4144062545743 1498.6856053457855,1062.133327481296 L1498.6856053457855,1053.0906027417996 C1495.4503159287324,1056.7490379672004 1491.5493034970154,1059.8843921286953 1486.9887897610542,1062.4966652262844 C1482.4313868803015,1065.1152027677526 1477.5037922297115,1066.427603760427 1472.206005809288,1066.427603760427 C1467.3001871451597,1066.427603760427 1462.7241191331545,1065.538052729593 1458.4498040763929,1063.7589506679258 C1454.1817107300494,1061.982980828198 1450.4362410587692,1059.5116577178883 1447.2009516417156,1056.3543780028165 C1443.9594405142445,1053.2002305096848 1441.4116500983155,1049.4384319602784 1439.5482478283006,1045.0940401301152 C1437.6786238478694,1040.7496482999518 1436.7578107060917,1036.013728727344 1436.7578107060917,1030.876884746473 C1436.7578107060917,1025.9436351916734 1437.6661804270345,1021.2766245017356 1439.4829198689172,1016.8821171205398 C1441.2996593108019,1012.487609739343 1443.7945651881842,1008.6600345292064 1446.9800809218978,1005.4056559340086 C1450.1655966556125,1002.1481451168708 1453.9390640237707,999.5828553483752 1458.309815592001,997.7003899627024 C1462.6681237393977,995.8241890209083 1467.405956222256,994.8845224390424 1472.5046479093235,994.8845224390424 Z M1445.8726164675982,1030.876884746473 C1445.8726164675982,1034.5353199718736 1446.5632263239313,1037.9651029956867 1447.93511347097,1041.1693660398523 C1449.3132223284265,1044.3736290840175 1451.1952897296926,1047.1988932734964 1453.5999808060224,1049.6107041669536 C1456.0046718823514,1052.028779504291 1458.791998149351,1053.9331704435403 1461.9868464486915,1055.314480318884 C1465.1630296167793,1056.6957901942283 1468.575637780729,1057.3911434648096 1472.206005809288,1057.3911434648096 C1475.7368264711681,1057.3911434648096 1479.0654415444828,1056.7239801916844 1482.2136270156925,1055.3833892015543 C1485.346258210858,1054.049062655304 1488.1149193466058,1052.2041839329058 1490.5227212781435,1049.8330919246623 C1492.927412354473,1047.4682643602978 1494.8374774526176,1044.6711901682752 1496.2591382829962,1041.470059346049 C1497.680799113374,1038.259531858005 1498.4896214676364,1034.7232532882472 1498.6856053457855,1030.8737525245338 C1498.6856053457855,1027.2247139649512 1497.9949954894532,1023.7636087217426 1496.6262191976232,1020.5092301265443 C1495.257442905793,1017.2517193094068 1493.3598212284833,1014.4139262321701 1490.9706844281973,1011.989586450954 C1488.5659933518687,1009.5683788916774 1485.7444476775727,1007.6639879524276 1482.509158260519,1006.2826780770833 C1479.2676471330492,1004.907632645619 1475.8332629826377,1004.2154115969772 1472.206005809288,1004.2154115969772 C1468.575637780729,1004.2154115969772 1465.1630296167793,1004.907632645619 1461.9868464486913,1006.2826780770833 C1458.791998149351,1007.6639879524276 1456.0046718823514,1009.5683788916774 1453.599980806022,1011.989586450954 C1451.1952897296926,1014.4107940102301 1449.3132223284265,1017.2517193094068 1447.93511347097,1020.5092301265443 C1446.5632263239313,1023.7698731656219 1445.8726164675982,1027.227846186891 1445.8726164675982,1030.876884746473 Z "/><path transform="matrix(1 0 0 1 3.410605131648481e-13 0)" width="9.124138327132641" height="94.63695368172694" stroke-width="3.1215202923393597" stroke-miterlimit="3" stroke="none" fill="url(#_1437402639899_5_)" d="M1515.3006830154795,976.5234374293683 C1515.3006830154795,975.2392264341502 1515.7424244551157,974.1523454211246 1516.6259073343876,973.2659266122301 C1517.5093902136605,972.3857722472154 1518.5857461158723,971.9347322879194 1519.8580858962328,971.9347322879194 C1521.1428690974283,971.9347322879194 1522.2192249996401,972.3857722472154 1523.0933753132858,973.2659266122301 C1523.9861907581844,974.1523454211246 1524.4248213426122,975.2392264341502 1524.4248213426122,976.5234374293683 L1524.4248213426122,1061.982980828198 C1524.4248213426122,1063.2703240453552 1523.9861907581844,1064.3509406145013 1523.0933753132858,1065.2404916453352 C1522.2192249996401,1066.130042676169 1521.1428690974283,1066.5716859696463 1519.8580858962328,1066.5716859696463 C1518.5857461158723,1066.5716859696463 1517.5093902136605,1066.130042676169 1516.6259073343876,1065.2404916453352 C1515.7424244551157,1064.3509406145017 1515.3006830154795,1063.2703240453552 1515.3006830154795,1061.982980828198 L1515.3006830154795,976.5234374293683 Z "/><path transform="matrix(1 0 0 1 3.410605131648481e-13 0)" width="71.04571125640769" height="71.83437796176293" stroke-width="3.1215202923393597" stroke-miterlimit="3" stroke="none" fill="url(#_1437402639899_6_)" d="M1567.671930454031,994.8845224390424 C1572.375543529593,994.8845224390424 1576.867618450963,995.849246796425 1581.1326009420982,997.7786955111911 C1585.3882508676065,999.7050120040178 1589.1461639597214,1002.2984917699698 1592.378342521567,1005.5497381432283 C1595.6167427938296,1008.8135134042446 1598.189420051428,1012.6128986169255 1600.1025960047818,1016.9572904470888 C1602.0126611029273,1021.3016822772521 1602.9708045072075,1025.9436351916734 1602.9708045072075,1030.876884746473 L1602.9708045072075,1062.133327481296 C1602.9708045072075,1063.4144062545743 1602.5321739227809,1064.4981550456605 1601.6455801882994,1065.3877060764944 C1600.7558755986101,1066.2772571073276 1599.6795196963983,1066.7189004008053 1598.4134016264557,1066.7189004008053 C1597.1317292804688,1066.7189004008053 1596.0584842334654,1066.2772571073276 1595.1718904989846,1065.3877060764944 C1594.2946293301288,1064.4981550456605 1593.8466661800753,1063.4144062545743 1593.8466661800753,1062.133327481296 L1593.8466661800753,1053.0906027417996 C1590.6144876182302,1056.7490379672004 1586.7165860417242,1059.8843921286953 1582.152961450552,1062.4966652262844 C1577.5955585698002,1065.1152027677526 1572.6679639192105,1066.427603760427 1567.3701774987853,1066.427603760427 C1562.464358834658,1066.427603760427 1557.8851799674435,1065.538052729593 1553.6201974763094,1063.7589506679258 C1549.355214985174,1061.9798486062582 1545.6066344586845,1059.5116577178883 1542.3682341864223,1056.3543780028165 C1539.1267230589524,1053.2002305096848 1536.5727109326053,1049.4384319602784 1534.7124195177996,1045.0940401301152 C1532.8459063925764,1040.7496482999518 1531.9250932507998,1036.013728727344 1531.9250932507998,1030.876884746473 C1531.9250932507998,1025.9436351916734 1532.8241304061157,1021.2766245017356 1534.6470915584166,1016.8821171205398 C1536.4576092898828,1012.4907419612828 1538.9525151672644,1008.6600345292064 1542.147363466605,1005.4056559340086 C1545.3328792003185,1002.1481451168708 1549.1063465684779,999.5828553483752 1553.4739872814998,997.7003899627024 C1557.8322954288965,995.8241890209083 1562.5670170565468,994.8845224390424 1567.671930454031,994.8845224390424 Z M1541.039899012306,1030.876884746473 C1541.039899012306,1034.5353199718736 1541.727398013429,1037.9651029956867 1543.0992851604692,1041.1693660398523 C1544.4711723075072,1044.3736290840175 1546.362572274401,1047.1988932734964 1548.7579307851036,1049.6107041669536 C1551.1657327166415,1052.028779504291 1553.9592806940586,1053.9331704435403 1557.1541289933984,1055.314480318884 C1560.3303121614867,1056.6957901942283 1563.736698615018,1057.3911434648096 1567.3701774987862,1057.3911434648096 C1570.9041090158757,1057.3911434648096 1574.2327240891898,1056.7239801916844 1577.3715769947735,1055.3833892015543 C1580.5073190451476,1054.049062655304 1583.2759801808957,1052.2041839329058 1585.686892967642,1049.8330919246623 C1588.0915840439707,1047.4682643602978 1590.0016491421159,1044.6711901682752 1591.4233099724945,1041.470059346049 C1592.8449708028727,1038.259531858005 1593.6537931571352,1034.7232532882472 1593.8466661800753,1030.8737525245338 C1593.8466661800753,1027.2247139649512 1593.1622780341609,1023.7636087217426 1591.7935017423306,1020.5092301265443 C1590.415392884874,1017.2517193094068 1588.5302146283984,1014.4139262321701 1586.1286344072782,1011.989586450954 C1583.7239433309496,1009.5683788916774 1580.9055085118625,1007.6639879524276 1577.6671082396003,1006.2826780770833 C1574.4287079673381,1004.907632645619 1571.0005455273451,1004.2154115969772 1567.3701774987853,1004.2154115969772 C1563.736698615018,1004.2154115969772 1560.3303121614867,1004.907632645619 1557.1541289933984,1006.2826780770833 C1553.9592806940586,1007.6639879524276 1551.1657327166415,1009.5683788916774 1548.7579307851036,1011.989586450954 C1546.3594614191913,1014.4107940102301 1544.4711723075072,1017.2517193094068 1543.0992851604688,1020.5092301265443 C1541.727398013429,1023.7698731656219 1541.039899012306,1027.227846186891 1541.039899012306,1030.876884746473 Z "/><path transform="matrix(1 0 0 1 3.410605131648481e-13 0)" width="87.09150242290934" height="72.42323568640029" stroke-width="3.1215202923393597" stroke-miterlimit="3" stroke="none" fill="url(#_1437402639899_7_)" d="M1610.17243431536,999.1819309401117 C1610.17243431536,997.9008521668336 1610.6203974654131,996.8139711538083 1611.5038803446855,995.9244201229737 C1612.3873632239583,995.0348690921401 1613.4606082709615,994.5869613547842 1614.7391697617397,994.5869613547842 C1616.0115095421002,994.5869613547842 1617.0940871547296,995.0348690921401 1617.9744591787926,995.9244201229737 C1618.857942058065,996.813971153808 1619.305905208118,997.9008521668334 1619.305905208118,999.1819309401117 L1619.305905208118,1000.8106863486809 C1620.9608801791496,999.1380798329579 1623.1415896804508,997.6032910825762 1625.8511445672343,996.2188489852923 C1628.5451451779736,994.840671331888 1631.3200280241376,994.148450283246 1634.1571279744767,994.148450283246 C1638.2821219812195,994.148450283246 1642.0089265212491,995.0630590895964 1645.3406524497714,996.8891444803575 C1648.6692675230865,998.7183620930575 1651.4192635275808,1001.1583629839715 1653.5781970424227,1004.2216760408562 C1655.8335670687343,1001.1583629839715 1658.6240041909425,998.7183620930575 1661.9650626850923,996.8891444803575 C1665.2936777584064,995.0630590895964 1669.023593153644,994.148450283246 1673.1330328843428,994.148450283246 C1676.4709805232844,994.148450283246 1679.609833428868,994.7905557808547 1682.549591601094,996.0685023321936 C1685.495571483738,997.355845549351 1688.0464727548754,999.0816998380461 1690.2054062697173,1001.2491974202183 C1692.355007218932,1003.4323561120884 1694.0753101493467,1005.9945136586447 1695.3507607849149,1008.963860057343 C1696.6168788548594,1011.9206775682837 1697.2608258830608,1015.0810895052948 1697.2608258830608,1018.4356992025592 L1697.2608258830608,1061.9798486062577 C1697.2608258830608,1063.2671918234153 1696.8128627330075,1064.3478083925625 1695.9387124193613,1065.2373594233957 C1695.0552295400885,1066.1269104542291 1693.9695410722509,1066.5685537477063 1692.697201291891,1066.5685537477063 C1691.4248615115298,1066.5685537477063 1690.3453947541093,1066.1269104542291 1689.4619118748371,1065.2373594233957 C1688.5784289955657,1064.3478083925625 1688.1366875559288,1063.2671918234153 1688.1366875559288,1061.9798486062577 L1688.1366875559288,1018.4356992025592 C1688.1366875559288,1016.3559038346942 1687.744719799632,1014.4170584541093 1686.9607842870373,1012.5878408414089 C1686.1799596296532,1010.7586232287086 1685.0942711618147,1009.1486611517768 1683.725494869984,1007.7673512764337 C1682.3536077229453,1006.3923058449683 1680.7639607112972,1005.3085570538822 1678.947221269414,1004.5098404592953 C1677.1304818275298,1003.7205205305277 1675.2017515981331,1003.3258605661429 1673.1299220291346,1003.3258605661429 C1671.0767575913899,1003.3258605661429 1669.1324730859494,1003.7205205305277 1667.3281770649,1004.5098404592953 C1665.5145484782256,1005.3085570538822 1663.946677453037,1006.3923058449683 1662.6152314237113,1007.7673512764337 C1661.2931179600123,1009.1486611517768 1660.24164889947,1010.7586232287086 1659.4577133868765,1012.5878408414089 C1658.661334453449,1014.4170584541093 1658.278699262777,1016.3559038346942 1658.278699262777,1018.4356992025592 L1658.278699262777,1061.9798486062577 C1658.278699262777,1063.2671918234153 1657.833846967932,1064.3478083925625 1656.9565857990783,1065.2373594233957 C1656.0699920645961,1066.1269104542291 1654.9874144519679,1066.5685537477063 1653.7212963820243,1066.5685537477063 C1652.4396240360375,1066.5685537477063 1651.3632681338256,1066.1269104542291 1650.4797852545526,1065.2373594233957 C1649.5963023752815,1064.3478083925625 1649.1545609356453,1063.2671918234153 1649.1545609356453,1061.9798486062577 L1649.1545609356453,1018.4356992025592 C1648.964798767914,1014.0913073723952 1647.4124820187703,1010.4892521419065 1644.5224975298827,1007.6232690672136 C1641.629402185787,1004.7604182144601 1638.1732420489159,1003.3258605661429 1634.1509062640603,1003.3258605661429 C1630.0383556781517,1003.3258605661429 1626.5790846860716,1004.7384926608831 1623.7855367086543,1007.5512279626037 C1620.988877876028,1010.367095486264 1619.4956673758497,1013.7968785100774 1619.30279435291,1017.8374448121037 L1619.30279435291,1061.982980828197 C1619.30279435291,1063.2703240453552 1618.8548312028565,1064.3509406145013 1617.9713483235846,1065.2404916453352 C1617.0909762995216,1066.1300426761686 1616.0083986868915,1066.5716859696463 1614.7360589065315,1066.5716859696463 C1613.4574974157533,1066.5716859696463 1612.3842523687504,1066.1300426761686 1611.5007694894778,1065.2404916453352 C1610.6172866102058,1064.3509406145013 1610.1693234601514,1063.2703240453552 1610.1693234601514,1061.982980828197 L1610.1693234601514,999.1819309401117 Z "/></g><path transform="matrix(1 0 0 1 -4.547473508864641e-13 0)" width="141.1706093710386" height="237.62288522243057" stroke-width="3.1215202923393597" stroke-miterlimit="3" stroke="none" fill="url(#_1437402639899_8_)" d="M1165.0494950673688,1049.413374184762 C1165.0494950673688,1052.9151983131846 1164.455321722507,1056.251014678811 1163.2887510192422,1059.4020299500044 C1162.0941826190992,1062.5499129992577 1160.4640944897383,1065.5631105051095 1158.3673780790714,1067.8057814138317 C1156.1337840392202,1070.189402309833 1153.520665663908,1072.1501732439947 1150.5404663739691,1073.6943586601953 C1147.5416019527775,1075.2291474105773 1143.345058276234,1076.1437562169278 1137.9010616609999,1076.422523969548 L1137.9010616609999,898.5279789124988 C1137.9010616609999,889.9770130175127 1139.3040573601256,882.1965737196572 1142.072718495873,875.180396575053 C1144.869377328499,868.1673516523886 1149.2432397519383,861.6617266839319 1155.228525173487,855.6196705625301 C1160.513868173077,850.2980254872247 1166.7822414186185,846.1572280831328 1174.0367557653183,843.2129394599508 C1181.260161559931,840.2749152806479 1189.2675028671388,838.7996387471173 1198.043225410896,838.7996387471173 C1206.8282805202791,838.7996387471173 1214.6520813701725,840.2717830587081 1221.539514802246,843.2129394599508 C1228.4300590895277,846.1603603050721 1234.595774113181,850.3011577091645 1240.0117730315374,855.6196705625301 L1239.8033457325541,855.6196705625301 C1246.0717189780944,861.5082478088934 1250.635343569265,867.9574927824383 1253.506662926899,874.9768021489818 C1256.359317153282,881.9773181838883 1257.787199694078,889.8329308082931 1257.787199694078,898.5279789124988 C1257.787199694078,904.5543739242037 1257.059259575241,910.2268278567389 1255.5816033511055,915.5578695978616 C1254.1319448238496,920.8920435609247 1251.4348333579017,926.4893241669099 1247.5524860574378,932.3810336352136 L1279.0716710320385,932.3810336352136 L1279.0716710320385,958.2469224120623 L1165.043273356951,958.2469224120623 L1165.043273356951,1049.413374184762 Z M1165.0494950673688,932.3810336352136 L1198.0494471213133,932.3810336352136 C1202.221103956187,932.3810336352136 1206.293213424382,931.5040114921383 1210.2782189467332,929.7468349840478 C1214.2414484826236,928.002187363715 1217.8189319726346,925.6467564651699 1221.0293345480186,922.7087322858667 C1223.6704506202086,918.9218759609445 1225.9040446600588,915.0097307584391 1227.714562391526,910.9315777931383 C1229.5281909782007,906.8628214936559 1230.4303389887255,902.7251563115032 1230.4303389887255,898.5279789124988 C1230.4303389887255,893.8985548858361 1229.5530778198702,889.7326997062273 1227.8172206134122,886.0116200420359 C1226.0844742621643,882.2999370436628 1223.7979956837662,878.8325673565748 1221.0293345480186,875.6001143149535 L1221.0293345480186,875.8131054068434 C1213.930362961753,868.6653749407777 1206.268326582712,865.0883774858055 1198.0494471213133,865.0883774858055 C1193.8840119968572,865.0883774858055 1189.8678979224192,865.9622674069418 1186.032213450086,867.7163116930924 C1182.202750688169,869.4672237573043 1178.6221563429494,871.9636046431301 1175.2779869935919,875.183528796993 C1171.9431502098596,878.6884851473551 1169.4015815043476,882.3343914849977 1167.6688351530986,886.1181155879806 C1165.9298670914327,889.9112363567824 1165.0494950673688,894.0395048731161 1165.0494950673688,898.5311111344387 L1165.0494950673688,932.3810336352136 Z "/><path transform="matrix(1 0 0 1 -4.547473508864641e-13 0)" width="88.53805009495659" height="162.55292199710595" stroke-width="3.1215202923393597" stroke-miterlimit="3" stroke="none" fill="url(#_1437402639899_9_)" d="M1268.2241189192841,932.3810336352136 L1302.8852676546771,932.3810336352136 L1302.8852676546771,821.979606931705 C1302.8852676546771,813.9893087638987 1305.2712935997538,807.6152371169036 1309.984239240941,802.8511275468397 C1312.3671543308094,800.4612422069589 1314.980272706122,798.7416523621431 1317.8329269325054,797.6923580123924 C1320.6762485932607,796.6461958845804 1324.695473522908,795.9821648333948 1329.822162906854,795.6940004149559 L1329.822162906854,932.3810336352134 L1356.7621690142407,932.3810336352134 L1356.7621690142407,958.2469224120618 L1268.2241189192841,958.2469224120618 L1268.2241189192841,932.3810336352136 Z "/><path transform="matrix(1 0 0 1 -4.547473508864641e-13 0)" width="181.48729287585775" height="119.43788699912648" stroke-width="3.1215202923393597" stroke-miterlimit="3" stroke="none" fill="url(#_1437402639899_10_)" d="M1526.5650897262017,932.3810336352136 L1526.5650897262017,958.2469224120623 L1345.077796850344,958.2469224120623 L1345.077796850344,932.3810336352136 L1402.715722157232,932.3810336352136 C1402.0126688800663,929.0138950501916 1400.7745485070009,925.7563842330543 1398.9578090651166,922.6085011838006 C1397.1504021888595,919.44495702485 1395.0225772261047,916.6854694961016 1392.5929993081056,914.3018486001001 C1390.147867114064,911.9119632602194 1387.407203675195,910.0232334306675 1384.349233005038,908.619998001746 C1381.2663754932119,907.2167625728257 1378.1617419949223,906.5120126364259 1374.9513394195392,906.5120126364259 C1373.7069973360572,906.5120126364259 1372.353775320271,906.627904848189 1370.988109883649,906.8377637181394 C1369.5882250397312,907.0413581442103 1367.1555362665245,907.8588680704345 1363.68382185361,909.2558390554767 C1363.3945123192002,906.3084182103547 1363.1891958754252,904.0688795235726 1363.0336531149903,902.521561885432 C1362.899886341016,900.9805086911709 1362.800338974337,899.8623054587495 1362.7225675941197,899.1606877442891 C1362.6696830555716,898.4559378078893 1362.6136876618145,898.0424845118683 1362.6136876618145,897.895270080709 C1362.6136876618145,895.5179136285863 1362.772341277459,893.2689782759858 1363.0336531149892,891.1703895764836 C1363.316740938982,889.0749330989211 1363.68382185361,887.0358566162704 1364.0913438859484,885.0656890162902 C1365.7494297121887,879.3274584230246 1367.8741438197346,873.9243755772912 1370.4717079190032,868.8783660326678 C1373.0288309005596,863.8386209319231 1376.1925706478123,859.4159235532705 1379.9442620295104,855.6290672283483 C1385.3851477895362,850.3074221530436 1391.7344032705028,846.1666247489514 1398.9578090651166,843.2223361257693 C1406.2154342670265,840.2843119464661 1414.0579002481709,838.8090354129358 1422.559867533563,838.8090354129358 L1446.9894134875237,838.8090354129358 C1455.354503143732,838.8090354129358 1463.1783039936251,840.281179724527 1470.5074788653346,843.2223361257693 C1477.8148777505833,846.1697569708908 1484.1112486930024,850.3105543749834 1489.3965916925922,855.6290672283483 C1493.4313708982827,859.7009557497704 1496.747542550763,864.2207520085486 1499.3139980979445,869.1947204485626 C1501.9053404867957,874.1749533324557 1503.952283214124,879.3963673056949 1505.476602266389,884.8683590340981 C1505.8934568643554,886.8291299682596 1506.2294292268957,888.8995286703056 1506.5156279060964,891.067026252478 C1506.7987157300886,893.2407882785296 1506.9293716488542,895.5179136285863 1506.9293716488542,897.8984023026483 C1506.9293716488542,898.0456167338074 1506.9075956623933,898.4590700298286 1506.826713426967,899.163819966229 C1506.7800505988366,899.8654376806892 1506.668059811323,900.9867731350497 1506.5156279060964,902.5246941073717 C1506.3880828425395,904.0720117455121 1506.1796555435562,906.3084182103547 1505.8934568643554,909.2589712774159 C1502.6799434337631,907.996685835775 1500.3032500543127,907.2230270167047 1498.69804876662,906.9442592640844 C1497.0835149133018,906.6623592895244 1495.7489580287684,906.5151448583651 1494.6228284432168,906.5151448583651 C1491.4155367230414,906.5151448583651 1488.2580186862062,907.2230270167047 1485.1191657806228,908.6231302236858 C1481.9865345854562,910.0263656526071 1479.1338803590747,911.915095482159 1476.5456488254317,914.3049808220392 C1473.9823041334585,916.6886017180414 1471.7829295009033,919.4480892467896 1469.9661900590204,922.6116334057405 C1468.1587831827628,925.7595164549934 1466.9859907690804,929.0170272721316 1466.4104825554696,932.384165857153 L1526.5650897262017,932.384165857153 Z M1441.159670826411,932.3810336352136 C1441.704070487935,927.751609608551 1442.8955280328673,922.9875000384868 1444.7122674747516,918.0793082592038 C1446.5258960614271,913.1742487018603 1448.8808134544165,908.4790480144667 1451.8112390610167,903.9968384189629 C1454.7323321019912,899.5052321576405 1458.2071573701146,895.4396080800975 1462.245047431014,891.7937017424547 C1466.2860483471222,888.1477954048128 1470.8185643862062,885.2129034474492 1475.8208195618035,882.9577036509688 L1474.5795883335297,881.0689738214173 C1474.004080119919,880.3704883288965 1473.413017630265,879.4903339638818 1472.7970682989417,878.4379073921912 C1472.1686755467836,877.3917452643792 1471.493619966494,876.5147231213039 1470.8185643862062,875.8099731849037 C1467.1944180680634,873.006634549002 1463.2560753738428,870.5227825509339 1459.0097580139613,868.3427560810038 C1454.7634406540778,866.1752584988312 1450.7753242765177,865.0852452638665 1446.9925243427326,865.0852452638665 L1422.5629783887716,865.0852452638665 C1418.1051228746965,865.0852452638665 1413.9614637367013,865.9591351850017 1410.1288901195765,867.7131794711532 C1406.3149816337045,869.4640915353647 1402.7188330124404,871.9604724211904 1399.377774518292,875.180396575053 L1399.5830909620668,875.180396575053 C1398.2143146702365,876.5773675600947 1396.9419748898758,877.9085618844059 1395.8313995803683,879.1739795479863 C1394.7177134156516,880.4456616554453 1393.8093436947097,881.6233771047185 1393.1062904175424,882.750977002958 C1398.13343243481,885.1345978989602 1402.6908353155632,888.1446631828728 1406.7878316254278,891.7905695205153 C1410.9066039217537,895.4364758581578 1414.449868004468,899.4676454943656 1417.4580649912864,903.8872106510784 C1420.4382642812266,908.2973791419726 1422.8429553575552,912.9675220538496 1424.6596947994385,917.8663171673143 C1426.4671016756963,922.777641168537 1427.6336723789605,927.6106596212711 1428.2091805925706,932.3747691913345 L1441.159670826411,932.3747691913345 Z "/><path transform="matrix(1 0 0 1 -4.547473508864641e-13 0)" width="109.85362998500432" height="170.1235024250119" stroke-width="3.1215202923393597" stroke-miterlimit="3" stroke="none" fill="url(#_1437402639899_11_)" d="M1516.955657986512,932.3810336352136 L1559.148187182179,932.3810336352136 L1559.148187182179,860.8818034209828 C1559.148187182179,857.2358970833404 1559.7952450655894,854.0191051514169 1561.1142476740808,851.2126342935755 C1562.4394719929892,848.4092956576736 1564.1504423577767,845.8126836697816 1566.2440479132365,843.4321949957198 C1568.602076161434,841.0454418777783 1571.3022984825902,839.0063653951277 1574.2824977725295,837.3306266574656 C1577.2782513385125,835.645491253985 1581.4281321869257,834.7434113353931 1586.7103643313071,834.5961969042343 L1586.7103643313071,932.3810336352136 L1626.8092879715164,932.3810336352136 L1626.8092879715164,958.2469224120623 L1516.955657986512,958.2469224120623 L1516.955657986512,932.3810336352136 Z M1533.6640613124669,804.9497162463422 C1533.6640613124669,799.7627567144385 1535.3470339803762,795.6658104175 1538.6849816193176,792.6432162458291 C1542.026040113466,789.633150961916 1546.2008078035478,788.1234199870504 1551.196841268729,788.1234199870504 C1555.8009069776126,788.1234199870504 1559.767247368712,789.6300187399764 1563.111416718069,792.6432162458291 C1566.4524752122193,795.6626781955601 1568.1105610384584,799.7627567144385 1568.1105610384584,804.9497162463422 C1568.1105610384584,809.9988580129053 1566.4524752122193,814.2022998557886 1563.111416718069,817.5663062188715 C1559.767247368712,820.927180360014 1555.8009069776126,822.6091835415557 1551.196841268729,822.6091835415557 C1546.2008078035478,822.6091835415557 1542.026040113466,820.9271803600144 1538.6849816193176,817.5663062188715 C1535.3470339803762,814.2022998557886 1533.6640613124669,809.9988580129053 1533.6640613124669,804.9497162463422 Z M1572.7239593129682,804.9497162463422 C1572.7239593129682,799.7627567144385 1574.335382311077,795.6658104175 1577.5208980447921,792.6432162458291 C1580.7281897649666,789.633150961916 1584.6914193008574,788.1234199870504 1589.438584349342,788.1234199870504 C1594.431506959313,788.1234199870504 1598.6529374775255,789.6300187399764 1602.0748782071007,792.6432162458291 C1605.4750429502158,795.6626781955601 1607.1797916045862,799.7627567144385 1607.1797916045862,804.9497162463422 C1607.1797916045862,809.9988580129053 1605.4750429502158,814.2022998557886 1602.0748782071007,817.5663062188715 C1598.6529374775255,820.927180360014 1594.4346178145222,822.6091835415557 1589.438584349342,822.6091835415557 C1584.6914193008574,822.6091835415557 1580.7281897649666,820.9271803600144 1577.5208980447921,817.5663062188715 C1574.3322714558687,814.2022998557886 1572.7239593129682,809.9988580129053 1572.7239593129682,804.9497162463422 Z "/><path transform="matrix(1 0 0 1 -4.547473508864641e-13 0)" width="88.32962279597359" height="119.86386918290611" stroke-width="3.1215202923393597" stroke-miterlimit="3" stroke="none" fill="url(#_1437402639899_12_)" d="M1678.2068377297421,865.0883774858055 C1678.2068377297421,857.2358970833404 1680.4342100591748,851.0748165282349 1684.8889547180408,846.5800780449728 C1686.9607842870378,844.4877537893499 1689.6765608842386,842.7274450593195 1693.0207302335964,841.3304740742783 C1696.3617887277455,839.9241064234178 1700.7387620063944,838.949985400216 1706.1765369112104,838.3830532291562 L1706.1765369112104,898.7347055605096 C1706.1765369112104,907.0131681467549 1704.6273310172746,914.8938385466763 1701.4915889669007,922.3923778699716 C1698.3558469165253,929.8971816371464 1693.8482177191117,936.4529221566359 1688.01536420279,942.0595994284402 C1677.2953571535922,952.8469717882689 1663.280954438375,958.2469224120623 1646.0343731613145,958.2469224120623 L1617.8469141152368,958.2469224120623 L1617.8469141152368,932.3810336352136 L1646.0343731613145,932.3810336352136 C1650.0691523670055,932.3810336352136 1654.0074950612252,931.5791848186881 1657.8400686783507,929.9629582978773 C1661.6508663090142,928.349863999006 1665.1754652604754,926.00069754434 1668.3858678358597,922.918591155817 C1671.9820164571238,918.8529670782741 1674.5484720043046,914.9627474293463 1676.0012413867712,911.2447999870942 C1677.4508999140273,907.5393814326003 1678.2037268745335,903.3609973652331 1678.2037268745335,898.7315733385702 L1678.2037268745335,865.0883774858055 Z "/><path transform="matrix(1 0 0 1 -4.547473508864641e-13 0)" width="34.44338887078379" height="34.4857635545053" stroke-width="3.1215202923393597" stroke-miterlimit="3" stroke="none" fill="url(#_1437402639899_13_)" d="M1675.074206534576,804.9497162463422 C1675.074206534576,799.7627567144385 1676.548751903502,795.6658104175 1679.5538380351115,792.6432162458291 C1682.555813311512,789.633150961916 1686.5439296890725,788.1234199870504 1691.5710717063391,788.1234199870504 C1696.7008719454943,788.1234199870504 1701.0031846991337,789.6300187399764 1704.3877951662057,792.6432162458291 C1707.806625040572,795.6626781955601 1709.5175954053598,799.7627567144385 1709.5175954053598,804.9497162463422 C1709.5175954053598,809.9988580129053 1707.803514185363,814.2022998557886 1704.3877951662057,817.5663062188715 C1701.0031846991337,820.927180360014 1696.7008719454943,822.6091835415557 1691.5710717063391,822.6091835415557 C1686.5439296890725,822.6091835415557 1682.555813311512,820.9271803600144 1679.5538380351115,817.5663062188715 C1676.548751903502,814.2022998557886 1675.074206534576,809.9988580129053 1675.074206534576,804.9497162463422 Z "/><g transform="matrix(1 0 0 1 -4.547473508864641e-13 0)"><g transform="matrix(1 0 0 1 3.410605131648481e-13 0)"><path transform="matrix(1 0 0 1 -4.547473508864641e-13 0)" width="137.4531373966363" height="51.33877140249672" stroke-width="3.1215202923393597" stroke-miterlimit="3" stroke="none" fill="url(#_1437402639899_14_)" d="M1099.979736666884,1011.38506761662 C1092.6941137680963,1021.433235598713 1044.662509345689,1081.8068134836435 962.5265992702477,1056.9557646152114 C962.5265992702477,1056.9557646152114 962.6292574921348,1056.7584346330195 962.8501282119532,1056.4138902196682 C983.322666340441,1049.6420263863492 1073.6867884429078,1020.0112068381552 1099.979736666884,1011.38506761662 Z "/><path transform="matrix(1 0 0 1 -4.547473508864641e-13 0)" width="138.125082121717" height="49.87041707945298" stroke-width="3.1215202923393597" stroke-miterlimit="3" stroke="none" fill="url(#_1437402639899_15_)" d="M1100.9783211888785,1009.9943610754573 C1100.9783211888785,1009.9943610754573 1100.6547922471732,1010.482987698028 1099.979736666884,1011.38506761662 C1073.6867884429078,1020.0112068381552 983.322666340441,1049.6420263863492 962.8532390671614,1056.4138902196682 C966.894239983269,1050.1400496747387 1007.4566810495753,991.1415172212728 1100.9783211888785,1009.9943610754573 Z "/></g><g transform="matrix(1 0 0 1 3.410605131648481e-13 0)"><path transform="matrix(1 0 0 1 -4.547473508864641e-13 0)" width="63.190832962979925" height="132.04194808389718" stroke-width="3.1215202923393597" stroke-miterlimit="3" stroke="none" fill="url(#_1437402639899_16_)" d="M911.3343659557959,906.8252348303814 C909.0572199430235,919.050297060466 898.2905500656955,995.6487845922937 972.5466638974867,1038.8671829142786 C972.5466638974867,1038.8671829142786 972.6057701464524,1038.6510596004496 972.7084283683398,1038.256399636066 C963.5874008964157,1018.5985747434163 923.1120637759531,932.0302247779837 911.3343659557959,906.8252348303814 Z "/><path transform="matrix(1 0 0 1 -4.547473508864641e-13 0)" width="63.655342751888156" height="133.11630020916505" stroke-width="3.1215202923393597" stroke-miterlimit="3" stroke="none" fill="url(#_1437402639899_17_)" d="M911.6641166079182,905.1369672049611 C911.6641166079182,905.1369672049611 911.536571544362,905.7164282637787 911.3343659557959,906.8252348303814 C923.1120637759534,932.027092556044 963.5874008964157,1018.5985747434163 972.7084283683398,1038.2532674141262 C974.4753941268839,1030.9927769582366 989.3763905765815,960.8341377341353 911.6641166079182,905.1369672049611 Z "/></g><g transform="matrix(1 0 0 1 3.410605131648481e-13 0)"><path transform="matrix(1 0 0 1 -4.547473508864641e-13 0)" width="119.05865054756259" height="44.46161479645821" stroke-width="3.1215202923393597" stroke-miterlimit="3" stroke="none" fill="url(#_1437402639899_18_)" d="M1115.8699850729492,949.2355198919616 C1109.5611707096955,957.9337002181069 1067.9503714380555,1010.2292777209238 996.8113345253867,988.6983841084202 C996.8113345253867,988.6983841084202 996.9046601816478,988.5292441236837 997.1006440597967,988.241079705245 C1014.8294078942074,982.3556346808208 1093.0923032348112,956.7027369958616 1115.8699850729492,949.2355198919616 Z "/><path transform="matrix(1 0 0 1 -4.547473508864641e-13 0)" width="119.62171534033905" height="43.201819471259" stroke-width="3.1215202923393597" stroke-miterlimit="3" stroke="none" fill="url(#_1437402639899_19_)" d="M1116.7254702553441,948.0233500013537 C1116.7254702553441,948.0233500013537 1116.4423824313515,948.4524644070725 1115.8730959281586,949.2355198919616 C1093.0954140900194,956.7058692178014 1014.8325187494155,982.3556346808208 997.1037549150051,988.2379474833051 C1000.5941344591722,982.794145752358 1035.7188006206623,931.7013414743304 1116.7254702553441,948.0233500013537 Z "/></g><g transform="matrix(1 0 0 1 3.410605131648481e-13 0)"><path transform="matrix(1 0 0 1 -4.547473508864641e-13 0)" width="54.72061195499339" height="114.36995190092603" stroke-width="3.1215202923393597" stroke-miterlimit="3" stroke="none" fill="url(#_1437402639899_20_)" d="M948.8388363519449,859.8982857319626 C946.872775860043,870.488328109599 937.5370993787194,936.8350532332618 1001.8540308186975,974.2682376328886 C1001.8540308186975,974.2682376328886 1001.9162479228717,974.0771720945758 1001.9877975926722,973.7294954592851 C994.1017796386047,956.7027369958616 959.0362197260804,881.7236082067845 948.8388363519449,859.8982857319626 Z "/><path transform="matrix(1 0 0 1 -4.547473508864641e-13 0)" width="55.13472588952084" height="115.30022181697404" stroke-width="3.1215202923393597" stroke-miterlimit="3" stroke="none" fill="url(#_1437402639899_21_)" d="M949.1250350311457,858.429273642311 C949.1250350311457,858.429273642311 949.0099333884234,858.9398258184584 948.8388363519449,859.8982857319626 C959.0362197260807,881.7236082067845 994.1017796386047,956.7027369958616 1001.9877975926722,973.7294954592851 C1003.5370034866073,967.4399938046578 1016.43149832669,906.6748881772827 949.1250350311457,858.429273642311 Z "/></g><g transform="matrix(1 0 0 1 3.410605131648481e-13 0)"><path transform="matrix(1 0 0 1 -4.547473508864641e-13 0)" width="102.32847123514705" height="38.21260650706586" stroke-width="3.1215202923393597" stroke-miterlimit="3" stroke="none" fill="url(#_1437402639899_22_)" d="M1125.448308260553,896.8585046187161 C1120.0291984869887,904.3351183884347 1084.2792504285494,949.2762387771761 1023.1198370254059,930.7773360021617 C1023.1198370254059,930.7773360021617 1023.2069409712498,930.6301215710022 1023.3718162973117,930.3858082597171 C1038.602563399132,925.333534271214 1105.8810289977976,903.2858240386839 1125.448308260553,896.8585046187161 Z "/><path transform="matrix(1 0 0 1 -4.547473508864641e-13 0)" width="102.82620806853947" height="37.13933499836685" stroke-width="3.1215202923393597" stroke-miterlimit="3" stroke="none" fill="url(#_1437402639899_23_)" d="M1126.1949135106424,895.8123424909048 C1126.1949135106424,895.8123424909048 1125.9522668043633,896.1788124578328 1125.4451974053445,896.8585046187161 C1105.8779181425884,903.2826918167441 1038.5994525439228,925.3335342712147 1023.368705442103,930.3826760377774 C1026.37690242892,925.7031364600816 1056.5708630846125,881.7768559797569 1126.1949135106424,895.8123424909048 Z "/></g><g transform="matrix(1 0 0 1 3.410605131648481e-13 0)"><path transform="matrix(1 0 0 1 -4.547473508864641e-13 0)" width="47.03629252009193" height="98.30791779488573" stroke-width="3.1215202923393597" stroke-miterlimit="3" stroke="none" fill="url(#_1437402639899_24_)" d="M978.0590993273128,814.8381409095185 C976.3699049489855,823.9560389755642 968.3470093657347,880.9687427193516 1023.6237955692164,913.1460587044043 C1023.6237955692164,913.1460587044043 1023.6766801077645,912.9800509416077 1023.7451189223556,912.6856220792897 C1016.9634545673788,898.0518811776866 986.8286001606518,833.6064147713346 978.0590993273128,814.8381409095185 Z "/><path transform="matrix(1 0 0 1 -4.547473508864641e-13 0)" width="47.39438617402118" height="99.09097327977508" stroke-width="3.1215202923393597" stroke-miterlimit="3" stroke="none" fill="url(#_1437402639899_25_)" d="M978.3017460335913,813.5946487995146 C978.3017460335913,813.5946487995146 978.2146420877474,814.0206309832944 978.0590993273128,814.8412731314583 C986.8286001606518,833.6064147713346 1016.9634545673788,898.0518811776866 1023.7482297775649,912.6856220792897 C1025.0765649516816,907.2825392335567 1036.1636529155062,855.0496061695308 978.3017460335913,813.5946487995146 Z "/></g><path transform="matrix(1 0 0 1 3.410605131648481e-13 0)" width="85.03211627474616" height="216.11704938544335" stroke-width="3.1215202923393597" stroke-miterlimit="3" stroke="none" fill="url(#_1437402639899_26_)" d="M1047.5680481106192,838.195119912783 C1047.5680481106192,838.195119912783 1027.3194915571576,954.0121583497835 968.0421455552812,1054.3121692982263 L962.535931835873,1053.4038249357554 C962.535931835873,1053.4038249357554 1000.0061828247267,997.0206978018185 1047.5680481106192,838.195119912783 Z "/><g transform="matrix(1 0 0 1 3.410605131648481e-13 0)"><path transform="matrix(1 0 0 1 -4.547473508864641e-13 0)" width="32.76273690085941" height="67.5025150193585" stroke-width="3.1215202923393597" stroke-miterlimit="3" stroke="none" fill="url(#_1437402639899_27_)" d="M1068.4294431401963,812.861708865659 C1069.5555727257477,819.1418138544675 1074.8253614492937,858.466860305586 1036.5742858030558,880.3642238850175 C1036.5742858030558,880.3642238850175 1036.5556206718034,880.2545961171331 1036.5120686988816,880.0478694691226 C1041.2436794713224,869.9997014870282 1062.3103909446736,825.7445377030501 1068.4294431401963,812.861708865659 Z "/><path transform="matrix(1 0 0 1 -4.547473508864641e-13 0)" width="33.02062368680572" height="68.05065385878095" stroke-width="3.1215202923393597" stroke-miterlimit="3" stroke="none" fill="url(#_1437402639899_28_)" d="M1068.273900379761,811.9972156103416 C1068.273900379761,811.9972156103416 1068.3392283391438,812.2947766945995 1068.4294431401963,812.861708865659 C1062.3103909446736,825.7445377030501 1041.2436794713224,869.9997014870286 1036.5120686988816,880.0478694691226 C1035.6161423987746,876.3142609171724 1028.2278612781004,840.2749152806479 1068.273900379761,811.9972156103416 Z "/></g></g></g></svg>