<?xml version="1.0" encoding="UTF-8" standalone="no"?>
<!-- Generator: Adobe Illustrator 15.0.0, SVG Export Plug-In . SVG Version: 6.00 Build 0)  -->

<svg
   xmlns:dc="http://purl.org/dc/elements/1.1/"
   xmlns:cc="http://creativecommons.org/ns#"
   xmlns:rdf="http://www.w3.org/1999/02/22-rdf-syntax-ns#"
   xmlns:svg="http://www.w3.org/2000/svg"
   xmlns="http://www.w3.org/2000/svg"
   xmlns:sodipodi="http://sodipodi.sourceforge.net/DTD/sodipodi-0.dtd"
   xmlns:inkscape="http://www.inkscape.org/namespaces/inkscape"
   version="1.1"
   id="Calque_1"
   x="0px"
   y="0px"
   width="64.83152mm"
   height="14.617981mm"
   viewBox="0 0 229.71795 51.795998"
   enable-background="new 0 0 841.89 595.28"
   xml:space="preserve"
   inkscape:version="0.91 r"
   sodipodi:docname="نتعلم 2 (1).svg"><metadata
     id="metadata152"><rdf:RDF><cc:Work
         rdf:about=""><dc:format>image/svg+xml</dc:format><dc:type
           rdf:resource="http://purl.org/dc/dcmitype/StillImage" /><dc:title></dc:title></cc:Work></rdf:RDF></metadata><defs
     id="defs150" /><sodipodi:namedview
     pagecolor="#ffffff"
     bordercolor="#666666"
     borderopacity="1"
     objecttolerance="10"
     gridtolerance="10"
     guidetolerance="10"
     inkscape:pageopacity="0"
     inkscape:pageshadow="2"
     inkscape:window-width="1366"
     inkscape:window-height="716"
     id="namedview148"
     showgrid="false"
     units="mm"
     width="296mm"
     fit-margin-top="2.7755576e-17"
     fit-margin-left="0"
     fit-margin-right="0"
     fit-margin-bottom="0"
     inkscape:zoom="0.37772155"
     inkscape:cx="8.9608985"
     inkscape:cy="179.06543"
     inkscape:window-x="0"
     inkscape:window-y="0"
     inkscape:window-maximized="1"
     inkscape:current-layer="Calque_1" /><g
     id="g3"
     transform="translate(-306.08603,-271.742)"><g
       id="g5"><g
         id="g7"><linearGradient
           id="SVGID_1_"
           gradientUnits="userSpaceOnUse"
           x1="542.76862"
           y1="365.86911"
           x2="536.07941"
           y2="382.89609"
           gradientTransform="matrix(0.9854,0.1703,-0.1703,0.9854,46.3794,-141.6029)"><stop
             offset="0"
             style="stop-color:#95B54C"
             id="stop10" /><stop
             offset="0.9879"
             style="stop-color:#6A9F49"
             id="stop12" /></linearGradient><path
           d="m 530.99,308.104 c -1.339,1.834 -10.158,12.845 -25.24,8.312 0,0 0.018,-0.035 0.059,-0.098 3.759,-1.236 20.352,-6.638 25.181,-8.214 z"
           id="path14"
           inkscape:connector-curvature="0"
           style="fill:url(#SVGID_1_)" /><linearGradient
           id="SVGID_2_"
           gradientUnits="userSpaceOnUse"
           x1="544.17578"
           y1="355.44431"
           x2="542.1084"
           y2="369.06479"
           gradientTransform="matrix(0.9854,0.1703,-0.1703,0.9854,46.3794,-141.6029)"><stop
             offset="0"
             style="stop-color:#95B54C"
             id="stop17" /><stop
             offset="0.9879"
             style="stop-color:#6A9F49"
             id="stop19" /></linearGradient><path
           d="m 531.173,307.853 c 0,0 -0.06,0.089 -0.183,0.252 -4.829,1.575 -21.422,6.978 -25.182,8.214 0.743,-1.145 8.191,-11.905 25.365,-8.466 z"
           id="path21"
           inkscape:connector-curvature="0"
           style="fill:url(#SVGID_2_)" /></g><g
         id="g23"><linearGradient
           id="SVGID_3_"
           gradientUnits="userSpaceOnUse"
           x1="718.45209"
           y1="404.668"
           x2="711.76318"
           y2="421.69449"
           gradientTransform="matrix(-0.7991,-0.6011,-0.6011,0.7991,1319.6127,408.5531)"><stop
             offset="0"
             style="stop-color:#95B54C"
             id="stop26" /><stop
             offset="0.9879"
             style="stop-color:#6A9F49"
             id="stop28" /></linearGradient><path
           d="m 496.35,289.038 c -0.42,2.229 -2.396,16.199 11.239,24.08 0,0 0.011,-0.039 0.028,-0.11 -1.673,-3.587 -9.106,-19.376 -11.267,-23.97 z"
           id="path30"
           inkscape:connector-curvature="0"
           style="fill:url(#SVGID_3_)" /><linearGradient
           id="SVGID_4_"
           gradientUnits="userSpaceOnUse"
           x1="719.86133"
           y1="394.23929"
           x2="717.79352"
           y2="407.86261"
           gradientTransform="matrix(-0.7991,-0.6011,-0.6011,0.7991,1319.6127,408.5531)"><stop
             offset="0"
             style="stop-color:#95B54C"
             id="stop33" /><stop
             offset="0.9879"
             style="stop-color:#6A9F49"
             id="stop35" /></linearGradient><path
           d="m 496.409,288.729 c 0,0 -0.022,0.105 -0.06,0.309 2.161,4.595 9.595,20.383 11.268,23.969 0.325,-1.326 3.063,-14.12 -11.208,-24.278 z"
           id="path37"
           inkscape:connector-curvature="0"
           style="fill:url(#SVGID_4_)" /></g><g
         id="g39"><linearGradient
           id="SVGID_5_"
           gradientUnits="userSpaceOnUse"
           x1="545.23138"
           y1="353.5"
           x2="539.43799"
           y2="368.2468"
           gradientTransform="matrix(0.9854,0.1703,-0.1703,0.9854,46.3794,-141.6029)"><stop
             offset="0"
             style="stop-color:#95B54C"
             id="stop42" /><stop
             offset="0.9879"
             style="stop-color:#6A9F49"
             id="stop44" /></linearGradient><path
           d="m 533.907,296.771 c -1.159,1.586 -8.8,11.124 -21.863,7.197 0,0 0.018,-0.03 0.055,-0.084 3.255,-1.072 17.625,-5.751 21.808,-7.113 z"
           id="path46"
           inkscape:connector-curvature="0"
           style="fill:url(#SVGID_5_)" /><linearGradient
           id="SVGID_6_"
           gradientUnits="userSpaceOnUse"
           x1="546.44922"
           y1="344.46881"
           x2="544.65863"
           y2="356.2659"
           gradientTransform="matrix(0.9854,0.1703,-0.1703,0.9854,46.3794,-141.6029)"><stop
             offset="0"
             style="stop-color:#95B54C"
             id="stop49" /><stop
             offset="0.9879"
             style="stop-color:#6A9F49"
             id="stop51" /></linearGradient><path
           d="m 534.063,296.55 c 0,0 -0.053,0.079 -0.156,0.221 -4.184,1.362 -18.554,6.041 -21.809,7.113 0.641,-0.993 7.09,-10.312 21.965,-7.334 z"
           id="path53"
           inkscape:connector-curvature="0"
           style="fill:url(#SVGID_6_)" /></g><g
         id="g55"><linearGradient
           id="SVGID_7_"
           gradientUnits="userSpaceOnUse"
           x1="719.61328"
           y1="392.98541"
           x2="713.81927"
           y2="407.7338"
           gradientTransform="matrix(-0.7991,-0.6011,-0.6011,0.7991,1319.6127,408.5531)"><stop
             offset="0"
             style="stop-color:#95B54C"
             id="stop58" /><stop
             offset="0.9879"
             style="stop-color:#6A9F49"
             id="stop60" /></linearGradient><path
           d="m 503.233,280.479 c -0.359,1.931 -2.073,14.031 9.737,20.858 0,0 0.012,-0.034 0.025,-0.099 -1.448,-3.105 -7.887,-16.78 -9.762,-20.759 z"
           id="path62"
           inkscape:connector-curvature="0"
           style="fill:url(#SVGID_7_)" /><linearGradient
           id="SVGID_8_"
           gradientUnits="userSpaceOnUse"
           x1="720.83502"
           y1="383.95209"
           x2="719.04413"
           y2="395.75049"
           gradientTransform="matrix(-0.7991,-0.6011,-0.6011,0.7991,1319.6127,408.5531)"><stop
             offset="0"
             style="stop-color:#95B54C"
             id="stop65" /><stop
             offset="0.9879"
             style="stop-color:#6A9F49"
             id="stop67" /></linearGradient><path
           d="m 503.286,280.211 c 0,0 -0.02,0.093 -0.053,0.268 1.875,3.979 8.313,17.654 9.763,20.76 0.283,-1.148 2.651,-12.23 -9.71,-21.028 z"
           id="path69"
           inkscape:connector-curvature="0"
           style="fill:url(#SVGID_8_)" /></g><g
         id="g71"><linearGradient
           id="SVGID_9_"
           gradientUnits="userSpaceOnUse"
           x1="546.71881"
           y1="343.14841"
           x2="541.73932"
           y2="355.82349"
           gradientTransform="matrix(0.9854,0.1703,-0.1703,0.9854,46.3794,-141.6029)"><stop
             offset="0"
             style="stop-color:#95B54C"
             id="stop74" /><stop
             offset="0.9879"
             style="stop-color:#6A9F49"
             id="stop76" /></linearGradient><path
           d="m 535.667,287.22 c -0.997,1.363 -7.562,9.56 -18.792,6.186 0,0 0.017,-0.026 0.047,-0.072 2.797,-0.922 15.15,-4.944 18.745,-6.114 z"
           id="path78"
           inkscape:connector-curvature="0"
           style="fill:url(#SVGID_9_)" /><linearGradient
           id="SVGID_10_"
           gradientUnits="userSpaceOnUse"
           x1="547.7666"
           y1="335.38379"
           x2="546.22729"
           y2="345.52499"
           gradientTransform="matrix(0.9854,0.1703,-0.1703,0.9854,46.3794,-141.6029)"><stop
             offset="0"
             style="stop-color:#95B54C"
             id="stop81" /><stop
             offset="0.9879"
             style="stop-color:#6A9F49"
             id="stop83" /></linearGradient><path
           d="m 535.804,287.029 c 0,0 -0.045,0.065 -0.137,0.191 -3.595,1.17 -15.948,5.192 -18.745,6.114 0.551,-0.854 6.097,-8.866 18.882,-6.305 z"
           id="path85"
           inkscape:connector-curvature="0"
           style="fill:url(#SVGID_10_)" /></g><g
         id="g87"><linearGradient
           id="SVGID_11_"
           gradientUnits="userSpaceOnUse"
           x1="721.64551"
           y1="382.55179"
           x2="716.66467"
           y2="395.2301"
           gradientTransform="matrix(-0.7991,-0.6011,-0.6011,0.7991,1319.6127,408.5531)"><stop
             offset="0"
             style="stop-color:#95B54C"
             id="stop90" /><stop
             offset="0.9879"
             style="stop-color:#6A9F49"
             id="stop92" /></linearGradient><path
           d="m 508.601,272.261 c -0.31,1.662 -1.784,12.061 8.367,17.929 0,0 0.01,-0.03 0.022,-0.084 -1.245,-2.669 -6.779,-14.422 -8.389,-17.845 z"
           id="path94"
           inkscape:connector-curvature="0"
           style="fill:url(#SVGID_11_)" /><linearGradient
           id="SVGID_12_"
           gradientUnits="userSpaceOnUse"
           x1="722.69342"
           y1="374.78909"
           x2="721.15411"
           y2="384.9299"
           gradientTransform="matrix(-0.7991,-0.6011,-0.6011,0.7991,1319.6127,408.5531)"><stop
             offset="0"
             style="stop-color:#95B54C"
             id="stop97" /><stop
             offset="0.9879"
             style="stop-color:#6A9F49"
             id="stop99" /></linearGradient><path
           d="m 508.646,272.033 c 0,0 -0.016,0.078 -0.045,0.228 1.61,3.423 7.145,15.176 8.39,17.845 0.243,-0.985 2.28,-10.513 -8.345,-18.073 z"
           id="path101"
           inkscape:connector-curvature="0"
           style="fill:url(#SVGID_12_)" /></g><linearGradient
         id="SVGID_13_"
         gradientUnits="userSpaceOnUse"
         x1="541.85938"
         y1="370.53519"
         x2="544.91602"
         y2="370.53519"
         gradientTransform="matrix(0.9179,0.3968,-0.3968,0.9179,162.6427,-259.2264)"><stop
           offset="0"
           style="stop-color:#95B54C"
           id="stop104" /><stop
           offset="0.9879"
           style="stop-color:#6A9F49"
           id="stop106" /></linearGradient><path
         d="m 521.364,276.52 c 0,0 -3.719,21.122 -14.603,39.415 l -1.011,-0.166 c 10e-4,0 6.882,-10.284 15.614,-39.249 z"
         id="path108"
         inkscape:connector-curvature="0"
         style="fill:url(#SVGID_13_)" /><g
         id="g110"><linearGradient
           id="SVGID_14_"
           gradientUnits="userSpaceOnUse"
           x1="559.31348"
           y1="242.3667"
           x2="555.883"
           y2="251.09891"
           gradientTransform="matrix(0.8033,-0.5956,0.5956,0.8033,-71.5208,415.9671)"><stop
             offset="0"
             style="stop-color:#95B54C"
             id="stop113" /><stop
             offset="0.9879"
             style="stop-color:#6A9F49"
             id="stop115" /></linearGradient><path
           d="m 525.195,271.9 c 0.206,1.145 1.176,8.317 -5.85,12.31 0,0 -0.003,-0.02 -0.01,-0.059 0.869,-1.831 4.737,-9.901 5.86,-12.251 z"
           id="path117"
           inkscape:connector-curvature="0"
           style="fill:url(#SVGID_14_)" /><linearGradient
           id="SVGID_15_"
           gradientUnits="userSpaceOnUse"
           x1="560.03809"
           y1="237.02049"
           x2="558.97778"
           y2="244.006"
           gradientTransform="matrix(0.8033,-0.5956,0.5956,0.8033,-71.5208,415.9671)"><stop
             offset="0"
             style="stop-color:#95B54C"
             id="stop120" /><stop
             offset="0.9879"
             style="stop-color:#6A9F49"
             id="stop122" /></linearGradient><path
           d="m 525.168,271.742 c 0,0 0.012,0.054 0.027,0.158 -1.123,2.35 -4.991,10.419 -5.859,12.251 -0.166,-0.678 -1.522,-7.251 5.832,-12.409 z"
           id="path124"
           inkscape:connector-curvature="0"
           style="fill:url(#SVGID_15_)" /></g></g><g
       id="g126"><path
         d="m 311.876,317.882 c 0,0.741 -0.127,1.447 -0.378,2.115 -0.253,0.669 -0.602,1.238 -1.047,1.716 -0.476,0.503 -1.032,0.919 -1.67,1.247 -0.639,0.326 -1.537,0.518 -2.695,0.578 l 0,-21.426 c 0,-1.812 0.296,-3.458 0.891,-4.945 0.594,-1.484 1.529,-2.865 2.807,-4.143 1.128,-1.127 2.464,-2.004 4.009,-2.628 1.543,-0.624 3.251,-0.935 5.123,-0.935 1.87,0 3.541,0.312 5.011,0.935 1.47,0.624 2.784,1.5 3.942,2.628 l -0.044,0 c 1.336,1.248 2.309,2.614 2.917,4.099 0.608,1.485 0.913,3.147 0.913,4.989 0,1.277 -0.156,2.479 -0.468,3.608 -0.311,1.128 -0.884,2.316 -1.715,3.563 l 6.727,0 0,5.479 -24.321,0 0,3.12 z m 0,-8.598 7.039,0 c 0.891,0 1.759,-0.186 2.605,-0.557 0.846,-0.372 1.61,-0.869 2.294,-1.492 0.564,-0.802 1.039,-1.633 1.426,-2.495 0.385,-0.861 0.579,-1.737 0.579,-2.628 0,-0.98 -0.186,-1.863 -0.557,-2.65 -0.372,-0.786 -0.854,-1.521 -1.448,-2.204 l 0,0.044 c -1.515,-1.515 -3.148,-2.272 -4.899,-2.272 -0.892,0 -1.745,0.187 -2.562,0.557 -0.817,0.372 -1.581,0.897 -2.294,1.581 -0.712,0.743 -1.255,1.515 -1.626,2.318 -0.372,0.801 -0.557,1.677 -0.557,2.627 l 0,7.171 z"
         id="path128"
         inkscape:connector-curvature="0"
         style="fill:#414042" /><path
         d="m 350.096,309.284 0,5.479 -15.279,0 0,-5.479 15.279,0 z"
         id="path130"
         inkscape:connector-curvature="0"
         style="fill:#414042" /><path
         d="m 347.289,309.284 7.395,0 0,-23.385 c 0,-1.693 0.504,-3.044 1.515,-4.055 0.504,-0.505 1.061,-0.869 1.67,-1.091 0.609,-0.222 1.463,-0.363 2.562,-0.423 l 0,28.954 5.746,0 0,5.479 -18.887,0 0,-5.479 z"
         id="path132"
         inkscape:connector-curvature="0"
         style="fill:#414042" /><path
         d="m 379.184,309.284 0,5.479 -15.279,0 0,-5.479 15.279,0 z"
         id="path134"
         inkscape:connector-curvature="0"
         style="fill:#414042" /><path
         d="m 392.591,309.284 0,5.479 -15.279,0 0,-5.479 15.279,0 z"
         id="path136"
         inkscape:connector-curvature="0"
         style="fill:#414042" /><path
         d="m 390.364,314.763 0,-5.479 5.567,0 c -0.772,-1.247 -1.329,-2.45 -1.67,-3.607 -0.342,-1.159 -0.512,-2.361 -0.512,-3.608 0,-1.752 0.304,-3.386 0.913,-4.901 0.608,-1.514 1.552,-2.895 2.829,-4.143 1.247,-1.127 2.598,-2.004 4.053,-2.628 1.455,-0.624 3.103,-0.935 4.945,-0.935 l 7.795,0 c -0.089,1.069 -0.26,1.893 -0.512,2.472 -0.253,0.579 -0.631,1.121 -1.136,1.626 -0.505,0.506 -1.069,0.876 -1.692,1.115 -0.624,0.237 -1.367,0.355 -2.228,0.355 l -2.227,0 c -0.951,0 -1.826,0.187 -2.628,0.557 -0.802,0.372 -1.544,0.868 -2.227,1.493 -0.653,0.742 -1.166,1.514 -1.537,2.315 -0.372,0.802 -0.557,1.693 -0.557,2.674 0,0.891 0.207,1.781 0.623,2.672 0.416,0.892 0.906,1.708 1.47,2.45 l 0,-0.045 c 0.653,0.654 1.41,1.174 2.271,1.559 0.861,0.387 1.722,0.58 2.584,0.58 l 14.988,0 c 0.683,0 1.321,0.104 1.916,0.312 0.594,0.209 1.143,0.55 1.648,1.024 0.505,0.445 0.875,0.958 1.113,1.537 0.237,0.58 0.386,1.448 0.444,2.605 l -36.233,0 z"
         id="path138"
         inkscape:connector-curvature="0"
         style="fill:#414042" /><path
         d="m 437.75,309.284 0,5.479 -15.279,0 0,-5.479 15.279,0 z"
         id="path140"
         inkscape:connector-curvature="0"
         style="fill:#414042" /><path
         d="m 435.746,309.284 8.998,0 0,-15.144 c 0,-0.773 0.141,-1.455 0.423,-2.049 0.281,-0.595 0.646,-1.144 1.091,-1.65 0.505,-0.504 1.076,-0.934 1.716,-1.291 0.638,-0.356 1.521,-0.55 2.649,-0.58 l 0,20.714 8.553,0 0,5.479 -23.43,0 0,-5.479 z m 3.564,-26.994 c 0,-1.099 0.356,-1.967 1.069,-2.605 0.712,-0.639 1.604,-0.959 2.672,-0.959 0.98,0 1.826,0.32 2.539,0.959 0.712,0.638 1.068,1.506 1.068,2.605 0,1.069 -0.356,1.959 -1.068,2.672 -0.713,0.713 -1.559,1.07 -2.539,1.07 -1.068,0 -1.96,-0.356 -2.672,-1.07 -0.713,-0.712 -1.069,-1.603 -1.069,-2.672 z m 8.329,0 c 0,-1.099 0.342,-1.967 1.025,-2.605 0.682,-0.639 1.529,-0.959 2.539,-0.959 1.069,0 1.966,0.32 2.693,0.959 0.729,0.638 1.093,1.506 1.093,2.605 0,1.069 -0.364,1.959 -1.093,2.672 -0.728,0.713 -1.624,1.07 -2.693,1.07 -1.01,0 -1.857,-0.356 -2.539,-1.07 -0.684,-0.712 -1.025,-1.603 -1.025,-2.672 z"
         id="path142"
         inkscape:connector-curvature="0"
         style="fill:#414042" /><path
         d="m 472.361,309.284 0,5.479 -15.278,0 0,-5.479 15.278,0 z"
         id="path144"
         inkscape:connector-curvature="0"
         style="fill:#414042" /><path
         d="m 483.542,295.03 c 0,-1.664 0.475,-2.969 1.426,-3.919 0.444,-0.446 1.024,-0.817 1.737,-1.114 0.711,-0.296 1.647,-0.504 2.805,-0.624 l 0,12.784 c 0,1.753 -0.334,3.424 -1.002,5.012 -0.668,1.589 -1.624,2.978 -2.872,4.165 -2.287,2.288 -5.272,3.43 -8.953,3.43 l -6.014,0 0,-5.479 6.014,0 c 0.861,0 1.699,-0.17 2.516,-0.512 0.815,-0.342 1.566,-0.839 2.25,-1.493 0.772,-0.86 1.313,-1.686 1.627,-2.472 0.311,-0.787 0.467,-1.671 0.467,-2.651 l 0,-7.127 z m -0.668,-12.74 c 0,-1.099 0.318,-1.967 0.956,-2.605 0.639,-0.639 1.494,-0.959 2.562,-0.959 1.1,0 2.014,0.32 2.739,0.959 0.729,0.638 1.092,1.506 1.092,2.605 0,1.069 -0.363,1.959 -1.092,2.672 -0.726,0.713 -1.64,1.07 -2.739,1.07 -1.067,0 -1.923,-0.356 -2.562,-1.07 -0.638,-0.712 -0.956,-1.603 -0.956,-2.672 z"
         id="path146"
         inkscape:connector-curvature="0"
         style="fill:#414042" /></g></g></svg>