<?xml version="1.0" standalone="no"?>
<!DOCTYPE svg PUBLIC "-//W3C//DTD SVG 20010904//EN"
 "http://www.w3.org/TR/2001/REC-SVG-20010904/DTD/svg10.dtd">
<svg version="1.0" xmlns="http://www.w3.org/2000/svg"
 width="500.000000pt" height="500.000000pt" viewBox="0 0 500.000000 500.000000"
 preserveAspectRatio="xMidYMid meet">
<metadata>
Created by potrace 1.13, written by Peter Selinger 2001-2015
</metadata>
<g transform="translate(0.000000,500.000000) scale(0.100000,-0.100000)"
fill="#000000" stroke="none">
<path d="M2225 4970 c-854 -99 -1582 -609 -1959 -1370 -114 -231 -182 -442
-227 -704 -30 -173 -37 -494 -15 -680 75 -645 392 -1227 893 -1639 675 -555
1608 -712 2432 -410 341 126 636 316 901 582 319 319 535 698 646 1127 97 381
104 786 18 1170 -199 896 -893 1616 -1788 1854 -215 57 -329 72 -591 75 -132
2 -271 0 -310 -5z m515 -371 c619 -76 1171 -416 1512 -929 80 -119 192 -344
236 -470 93 -267 135 -585 112 -855 -34 -423 -174 -792 -429 -1132 -25 -34
-50 -62 -56 -63 -5 0 -356 346 -780 768 -423 422 -1093 1089 -1488 1482 l-718
715 38 33 c57 49 247 174 343 225 204 109 477 195 720 226 95 12 412 13 510 0z
m-376 -2233 c817 -813 1486 -1481 1486 -1485 0 -3 -30 -29 -67 -57 -654 -496
-1512 -579 -2237 -217 -634 317 -1068 934 -1156 1643 -13 109 -13 391 1 500
37 303 147 616 304 865 72 115 164 237 175 233 4 -2 677 -668 1494 -1482z"/>
</g>
</svg>
