<?xml version="1.0" ?><svg height="500" id="svg2" version="1.1" width="500" xmlns="http://www.w3.org/2000/svg" xmlns:cc="http://creativecommons.org/ns#" xmlns:dc="http://purl.org/dc/elements/1.1/" xmlns:inkscape="http://www.inkscape.org/namespaces/inkscape" xmlns:rdf="http://www.w3.org/1999/02/22-rdf-syntax-ns#" xmlns:sodipodi="http://sodipodi.sourceforge.net/DTD/sodipodi-0.dtd" xmlns:svg="http://www.w3.org/2000/svg"><defs id="defs4"/><g id="layer1" transform="translate(0,-552.36218)"><path d="M 50 0 C 22.3 0 -9.483155e-017 22.3 0 50 L 0 450 C 0 477.7 22.3 500 50 500 L 450 500 C 477.7 500 500 477.7 500 450 L 500 50 C 500 22.3 477.7 -9.483155e-017 450 0 L 50 0 z M 319.96875 166.875 C 323.36975 166.86351 326.75693 166.875 330.15625 166.875 L 335.53125 166.875 L 340.875 166.875 C 368.07039 166.875 395.34001 167.08077 422.3125 170.09375 C 434.44726 171.44993 444.54051 180.54723 447.375 192.875 C 451.40939 210.43193 451.375 229.58093 451.375 247.65625 L 451.375 248.4375 C 451.37329 266.28821 451.28967 285.12824 447.3125 302.4375 C 444.47716 314.76441 434.41686 323.86342 422.28125 325.21875 C 395.28058 328.23685 367.94403 328.4375 340.71875 328.4375 C 338.96459 328.4375 337.22291 328.43921 335.46875 328.4375 C 333.71716 328.43921 331.97205 328.4375 330.21875 328.4375 C 302.99262 328.4375 275.68988 328.23685 248.6875 325.21875 C 236.55189 323.86342 226.46034 314.76441 223.625 302.4375 C 219.68626 285.29819 219.59546 266.66317 219.59375 248.96875 L 219.59375 247.65625 C 219.59375 229.58093 219.65311 210.43193 223.6875 192.875 C 226.52284 180.54723 236.58314 171.44993 248.71875 170.09375 C 272.31818 167.45665 296.16173 166.95543 319.96875 166.875 z M 58.59375 194.375 L 75.09375 194.375 L 86.25 235.5625 L 96.96875 194.375 L 112.8125 194.375 L 93.9375 256.75 L 93.9375 299.21875 L 78.25 299.21875 L 78.25 256.75 C 76.827204 249.23207 73.690693 238.21541 68.65625 223.59375 C 65.345218 213.86733 61.901366 204.09886 58.59375 194.375 z M 236.875 195.71875 L 236.875 210.3125 L 253.34375 210.3125 L 253.34375 299.46875 L 268.9375 299.46875 L 268.9375 210.3125 L 285.71875 210.3125 L 285.71875 195.71875 L 236.875 195.71875 z M 340.15625 195.71875 L 340.15625 299.46875 L 354.15625 299.46875 L 354.15625 291.96875 C 358.83628 297.75985 363.67646 300.53125 368.65625 300.53125 C 374.23214 300.53125 377.96491 297.59045 379.84375 291.84375 C 380.77121 288.56602 381.25 283.40497 381.25 276.25 L 381.25 245.46875 C 381.25 238.15322 380.77207 233.04869 379.84375 229.9375 C 377.96491 224.1481 374.23214 221.21875 368.65625 221.21875 C 363.50481 221.21875 358.67914 224.02725 354.15625 229.59375 L 354.15625 195.71875 L 340.15625 195.71875 z M 133.875 220.15625 C 140.96848 220.15625 146.45932 222.81351 150.375 228.15625 C 153.34272 232.10353 154.78125 238.21275 154.78125 246.5625 L 154.78125 273.9375 C 154.78125 282.24027 153.34272 288.3724 150.375 292.28125 C 146.45932 297.60862 140.96848 300.28125 133.875 300.28125 C 126.82422 300.28125 121.31937 297.60862 117.40625 292.28125 C 114.39498 288.3724 112.96875 282.24027 112.96875 273.9375 L 112.96875 246.5625 C 112.96875 238.2119 114.39498 232.10353 117.40625 228.15625 C 121.31851 222.81351 126.82336 220.15625 133.875 220.15625 z M 166.4375 221.09375 L 180.53125 221.09375 L 180.53125 278.625 C 180.53125 281.94201 180.54795 283.66212 180.71875 284.125 C 181.03132 286.31641 182.13106 287.4375 184.03125 287.4375 C 186.86147 287.4375 189.83279 285.24571 192.96875 280.8125 L 192.96875 221.09375 L 207.125 221.09375 L 207.125 299.21875 L 192.96875 299.21875 L 192.96875 290.6875 C 187.33479 297.14645 181.9759 300.28125 176.8125 300.28125 C 172.25631 300.28125 169.09919 298.45667 167.6875 294.5 C 166.90607 292.1318 166.4375 288.3894 166.4375 282.875 L 166.4375 221.09375 z M 413.25 221.21875 C 406.10101 221.21875 400.52022 223.8335 396.46875 229.125 C 393.4942 233.0347 392.15625 239.08197 392.15625 247.34375 L 392.15625 274.4375 C 392.15625 282.65231 393.67914 288.72504 396.65625 292.59375 C 400.70686 297.875 406.26627 300.53125 413.59375 300.53125 C 420.90928 300.53125 426.65913 297.76886 430.53125 292.15625 C 432.23758 289.67874 433.34535 286.86119 433.8125 283.75 C 433.94402 282.35282 434.125 279.22456 434.125 274.71875 L 434.125 272.6875 L 419.8125 272.6875 C 419.8125 278.30609 419.62725 281.39276 419.5 282.15625 C 418.69978 285.90454 416.70365 287.78125 413.25 287.78125 C 408.4376 287.78125 406.09375 284.21747 406.09375 277.0625 L 406.09375 263.34375 L 434.125 263.34375 L 434.125 247.34375 C 434.125 239.08197 432.71481 233.0347 429.78125 229.125 C 425.85789 223.8335 420.27772 221.21875 413.25 221.21875 z M 287.75 222.15625 L 287.75 283.28125 C 287.75 288.73758 288.23736 292.43953 289 294.78125 C 290.40145 298.69522 293.48736 300.53125 298 300.53125 C 303.14974 300.53125 308.46304 297.41846 314.03125 291.03125 L 314.03125 299.46875 L 328.03125 299.46875 L 328.03125 222.15625 L 314.03125 222.15625 L 314.03125 281.25 C 310.92177 285.63795 307.96768 287.78125 305.15625 287.78125 C 303.28424 287.78125 302.21575 286.67006 301.875 284.5 C 301.74519 284.03712 301.75 282.34535 301.75 279.0625 L 301.75 222.15625 L 287.75 222.15625 z M 133.875 232.875 C 129.31112 232.875 127.125 236.49119 127.125 243.71875 L 127.125 276.59375 C 127.125 283.82302 129.31112 287.4375 133.875 287.4375 C 138.43888 287.4375 140.625 283.82302 140.625 276.59375 L 140.625 243.71875 C 140.625 236.49119 138.43973 232.875 133.875 232.875 z M 361.15625 233.8125 C 365.19661 233.8125 367.25 237.39083 367.25 244.375 L 367.25 277.34375 C 367.25 284.32792 365.19661 287.78125 361.15625 287.78125 C 358.85296 287.78125 356.50053 286.68547 354.15625 284.34375 L 354.15625 237.21875 C 356.50053 234.90777 358.85381 233.8125 361.15625 233.8125 z M 413.125 233.8125 C 417.76232 233.8125 420.12585 237.38055 420.125 244.53125 L 420.125 251.6875 L 406.09375 251.6875 L 406.09375 244.53125 C 406.09375 237.3814 408.43985 233.8125 413.125 233.8125 z " id="rect2995" style="fill:#000000;fill-opacity:1;fill-rule:nonzero" transform="translate(0,552.36218)"/><g id="形状_1_3_" style="enable-background:new" transform="matrix(0.85401918,0,0,0.85401918,36.334866,581.6256)"><g id="形状_1"><g id="g2991"/></g></g><g id="形状_1_1_" transform="matrix(0.85401918,0,0,0.85401918,36.334866,581.6256)"><g id="g2997"/></g></g></svg>