<?xml version="1.0" encoding="UTF-8" standalone="no"?>
<!-- Generator: Adobe Illustrator 16.0.0, SVG Export Plug-In . SVG Version: 6.00 Build 0)  -->

<svg
   xmlns:dc="http://purl.org/dc/elements/1.1/"
   xmlns:cc="http://creativecommons.org/ns#"
   xmlns:rdf="http://www.w3.org/1999/02/22-rdf-syntax-ns#"
   xmlns:svg="http://www.w3.org/2000/svg"
   xmlns="http://www.w3.org/2000/svg"
   xmlns:sodipodi="http://sodipodi.sourceforge.net/DTD/sodipodi-0.dtd"
   xmlns:inkscape="http://www.inkscape.org/namespaces/inkscape"
   version="1.1"
   id="Calque_1"
   x="0px"
   y="0px"
   width="153"
   height="153"
   viewBox="0 0 153 152.99999"
   enable-background="new 0 0 841.89 595.28"
   xml:space="preserve"
   inkscape:version="0.91 r"
   sodipodi:docname="Icon Chemistry.svg"><metadata
     id="metadata23"><rdf:RDF><cc:Work
         rdf:about=""><dc:format>image/svg+xml</dc:format><dc:type
           rdf:resource="http://purl.org/dc/dcmitype/StillImage" /><dc:title></dc:title></cc:Work></rdf:RDF></metadata><defs
     id="defs21" /><sodipodi:namedview
     pagecolor="#ffffff"
     bordercolor="#666666"
     borderopacity="1"
     objecttolerance="10"
     gridtolerance="10"
     guidetolerance="10"
     inkscape:pageopacity="0"
     inkscape:pageshadow="2"
     inkscape:window-width="1366"
     inkscape:window-height="716"
     id="namedview19"
     showgrid="false"
     fit-margin-top="0"
     fit-margin-left="0"
     fit-margin-right="0"
     fit-margin-bottom="0"
     inkscape:zoom="0.37772155"
     inkscape:cx="76.5"
     inkscape:cy="76.5"
     inkscape:window-x="0"
     inkscape:window-y="0"
     inkscape:window-maximized="1"
     inkscape:current-layer="Calque_1" /><g
     id="g3"
     transform="translate(-344.44501,-221.14001)"><circle
       cx="420.94501"
       cy="297.64001"
       r="76.5"
       id="circle5"
       style="fill:#8bb31d" /><circle
       cx="420.94501"
       cy="297.64001"
       r="70.892998"
       id="circle7"
       style="fill:#417a3b" /><g
       id="g9"><g
         id="g11"><path
           d="m 468.799,317.621 c -0.879,-3.09 -2.539,-5.74 -4.76,-8.761 -2.141,-2.92 -4.689,-5.42 -7.391,-8.069 -0.889,-0.871 -1.799,-1.771 -2.699,-2.69 -0.15,-0.14 -0.221,-0.34 -0.221,-0.54 0,-0.2 0.09,-0.39 0.24,-0.53 l 0.961,-0.9 c 0.699,-0.65 1.369,-1.29 2.039,-1.92 3.83,-3.66 7.74,-7.75 10.391,-12.93 2.219,-4.33 2.539,-8.25 0.91,-11.04 -1.641,-2.78 -5.221,-4.42 -10.1,-4.61 -0.461,-0.02 -0.932,-0.03 -1.391,-0.03 -4.83,0 -9.939,0.96 -15.631,2.94 -0.83,0.29 -1.51,0.43 -2.08,0.43 -2.01,0 -2.609,-1.64 -2.949,-3.42 -1.051,-5.39 -2.68,-10.06 -4.99,-14.28 -2.279,-4.18 -4.949,-8.25 -10.18,-8.25 l -0.09,0 c -5.08,0.04 -7.74,4.03 -10.02,8.12 -2.361,4.23 -4,8.79 -4.852,13.54 -0.359,1.99 -0.949,4.13 -3.42,4.13 -0.699,0 -1.529,-0.17 -2.689,-0.53 -4.25,-1.33 -9.209,-2.74 -14.25,-2.74 -2.209,0 -4.26,0.26 -6.279,0.8 -2.68,0.71 -4.68,2.1 -5.781,4.01 -1.109,1.95 -1.289,4.43 -0.52,7.18 0.641,2.27 1.73,4.5 3.43,7.01 2.631,3.88 5.9,7.49 9.711,10.74 0.73,0.62 1.469,1.39 1.48,2.35 0,0.96 -0.74,1.741 -1.471,2.38 -5.541,4.819 -9.26,9.31 -11.721,14.14 -2.16,4.24 -2.459,8.1 -0.859,10.85 1.609,2.771 5.129,4.431 9.92,4.65 0.539,0.03 1.09,0.04 1.631,0.04 4.76,0 9.77,-0.95 15.75,-2.979 0.789,-0.271 1.439,-0.4 1.979,-0.4 2.221,0 2.631,2.18 2.83,3.23 0.961,4.979 2.51,9.58 4.611,13.67 2.439,4.729 5.08,8.979 10.52,9.05 l 0.139,0 c 5.301,0 7.891,-4.021 10.491,-8.87 2.051,-3.811 3.541,-8.04 4.42,-12.57 0.451,-2.3 1.051,-4.359 3.521,-4.359 0.729,0 1.619,0.18 2.779,0.57 4.051,1.35 8.869,2.739 13.92,2.739 2.18,0 4.221,-0.25 6.23,-0.771 2.789,-0.719 4.859,-2.119 5.959,-4.06 1.132,-1.951 1.292,-4.49 0.482,-7.32 z m -67.561,4.39 c -5.818,1.81 -10.92,2.88 -15.16,3.17 -0.01,0 -0.029,0.01 -0.049,0.01 l -1.451,0 c -0.189,0 -0.34,0 -0.488,-0.01 -3.541,-0.19 -5.682,-1.07 -6.561,-2.7 -0.881,-1.62 -0.439,-3.88 1.33,-6.92 3.08,-5.27 7.459,-9.52 11.67,-13.43 0.66,-0.6 1.279,-0.9 1.91,-0.9 0.83,0 1.48,0.52 1.9,0.9 0.119,0.1 0.229,0.22 0.35,0.33 0.369,0.359 0.76,0.729 1.129,0.869 6.98,2.561 7.4,8.4 7.811,14.041 l 0.07,0.969 c 0.15,1.99 -0.59,3.091 -2.461,3.671 z m -4.93,-24.111 c -0.039,-0.25 0.061,-0.49 0.25,-0.66 l 0.311,-0.27 c 1.471,-1.29 2.529,-2.22 4.199,-2.73 0.08,-0.03 0.15,-0.04 0.23,-0.04 0.121,0 0.25,0.03 0.371,0.1 0.18,0.1 0.309,0.28 0.35,0.48 0.459,1.91 0.369,3.6 0.1,5.53 -0.051,0.38 -0.371,0.65 -0.74,0.65 l -0.07,0 c -1.35,-0.121 -2.24,-0.811 -3.09,-1.471 -0.49,-0.38 -0.949,-0.74 -1.5,-1.01 -0.231,-0.108 -0.38,-0.329 -0.411,-0.579 z m 3.92,-9.049 c -0.4,0.28 -0.809,0.56 -1.209,0.84 -0.41,0.27 -0.811,0.55 -1.201,0.83 -2.76,1.94 -4.139,2.91 -5.609,2.91 -1.699,0 -3.02,-1.36 -5.66,-4.07 -2.35,-2.42 -5.029,-5.28 -7.07,-8.63 -0.15,-0.25 -0.309,-0.5 -0.469,-0.75 -1.262,-1.99 -2.83,-4.47 -1.42,-7.11 1.359,-2.53 4.02,-2.64 6.148,-2.72 0.551,-0.03 1.08,-0.05 1.561,-0.1 0.029,-0.01 0.061,-0.01 0.09,-0.01 l 0.07,0 c 5.82,0.53 11.08,1.65 16.08,3.43 0.58,0.2 1.449,0.51 1.881,1.17 1.238,1.92 -1.202,12.799 -3.192,14.21 z m 33.92,-7.911 c -0.02,0.53 -0.029,1.07 0,1.6 0.01,0.27 -0.129,0.53 -0.369,0.67 -0.109,0.08 -0.25,0.11 -0.381,0.11 -0.129,0 -0.26,-0.03 -0.379,-0.1 l -1.08,-0.63 -4.42,-2.59 c -0.23,-0.13 -0.371,-0.37 -0.371,-0.63 -0.01,-0.26 0.131,-0.51 0.35,-0.65 0.281,-0.18 0.551,-0.36 0.83,-0.55 1.182,-0.79 2.291,-1.54 3.451,-1.54 0.42,0 0.82,0.1 1.189,0.31 1.251,0.701 1.212,2.31 1.18,4 z m -24.529,-12.129 0.1,-0.39 c 1.391,-5.8 2.84,-11.8 6.23,-17.02 1.66,-2.55 3.289,-3.79 5,-3.79 1.68,0 3.28,1.19 4.911,3.64 3.59,5.42 5.039,11.67 6.439,17.72 0.359,1.55 -0.17,2.63 -1.57,3.21 -2.51,1.04 -5.24,2.26 -8.33,3.72 -0.479,0.23 -0.94,0.34 -1.411,0.34 -0.51,0 -1.029,-0.13 -1.629,-0.41 -0.59,-0.27 -1.17,-0.54 -1.76,-0.81 -2.031,-0.95 -4.131,-1.93 -6.24,-2.77 -1.951,-0.78 -1.951,-2.251 -1.74,-3.44 z m 0.259,7.91 c 0.891,0 2.02,0.61 4.08,1.73 0.301,0.16 0.449,0.5 0.369,0.83 -0.27,1.15 -1.17,1.56 -1.83,1.87 -0.219,0.1 -0.439,0.2 -0.6,0.31 -0.559,0.38 -1.16,0.69 -1.85,1.04 -0.33,0.17 -0.689,0.35 -1.08,0.56 -0.109,0.06 -0.23,0.09 -0.359,0.09 -0.131,0 -0.27,-0.03 -0.391,-0.11 -0.23,-0.14 -0.369,-0.4 -0.359,-0.67 0.171,-3.88 0.241,-5.65 2.02,-5.65 z m -2.15,38.08 c -0.049,-0.68 -0.109,-1.391 -0.23,-2.09 -0.049,-0.28 0.07,-0.57 0.311,-0.74 0.131,-0.09 0.281,-0.141 0.43,-0.141 0.131,0 0.26,0.041 0.381,0.11 2.301,1.33 3.92,2.271 5.801,3.36 0.238,0.14 0.379,0.39 0.379,0.67 -0.01,0.27 -0.16,0.52 -0.4,0.64 -0.439,0.229 -0.879,0.511 -1.289,0.78 -0.99,0.641 -1.92,1.24 -2.93,1.24 -0.49,0 -0.941,-0.141 -1.352,-0.42 -0.88,-0.589 -0.97,-1.839 -1.101,-3.409 z m 24.551,11.65 c -0.121,0.51 -0.25,1.029 -0.381,1.56 -1.41,5.729 -2.859,11.67 -6.529,16.71 -1.471,2.01 -2.92,2.99 -4.42,2.99 -1.49,0 -2.92,-0.961 -4.359,-2.95 -4.041,-5.57 -5.541,-12.181 -6.99,-18.57 l -0.021,-0.101 c -0.469,-2.079 1.121,-2.75 2.17,-3.189 2.631,-1.1 5.172,-2.3 7.301,-3.32 0.67,-0.319 1.301,-0.479 1.92,-0.479 0.609,0 1.211,0.149 1.84,0.45 2.711,1.289 5.15,2.439 7.641,3.46 1.678,0.689 2.278,1.808 1.828,3.439 z m 0.549,-8.06 c -0.33,0.18 -0.689,0.279 -1.068,0.279 -1.012,0 -2,-0.629 -3.051,-1.299 -0.4,-0.261 -0.811,-0.521 -1.221,-0.75 -0.24,-0.131 -0.389,-0.381 -0.389,-0.65 -0.01,-0.27 0.139,-0.52 0.369,-0.65 l 2.77,-1.619 2.75,-1.601 c 0.121,-0.069 0.25,-0.101 0.381,-0.101 0.129,0 0.27,0.041 0.391,0.11 0.238,0.15 0.369,0.41 0.35,0.69 -0.031,0.55 -0.01,1.13 0.01,1.68 0.069,1.531 0.128,3.121 -1.292,3.911 z m 2.371,-20.701 c -0.25,0.94 -0.17,2.021 -0.1,3.06 0.129,1.891 0.279,4.031 -1.602,5.5 -0.408,0.311 -0.818,0.641 -1.238,0.98 -3.381,2.689 -7.201,5.73 -11.231,5.74 l -0.01,0 c -4.471,0 -8.611,-3.439 -12.25,-6.48 l -0.51,-0.42 c -2,-1.66 -1.721,-4.23 -1.48,-6.49 0.08,-0.75 0.16,-1.47 0.16,-2.129 0,-0.61 -0.08,-1.27 -0.15,-1.97 -0.24,-2.2 -0.51,-4.69 1.49,-6.3 0.311,-0.25 0.629,-0.51 0.959,-0.77 3.5,-2.85 7.48,-6.08 11.75,-6.08 l 0.07,0 c 4.1,0.03 7.991,3.15 11.42,5.9 0.35,0.29 0.701,0.57 1.041,0.84 1.84,1.46 1.68,3.51 1.539,5.33 -0.08,1.05 -0.16,2.04 0.121,2.85 0.051,0.14 0.06,0.3 0.021,0.439 z m 10.91,-25.949 c 2.1,-0.51 4.25,-0.86 6.33,-1.21 0.559,-0.09 1.109,-0.18 1.66,-0.27 0.619,-0.11 1.24,-0.14 1.84,-0.16 0.27,-0.01 0.529,-0.02 0.789,-0.04 l 0.111,0 c 0.209,0.01 0.42,0.02 0.629,0.04 0.279,0.01 0.561,0.03 0.85,0.05 3.32,0.27 5.25,1.1 6.08,2.63 0.811,1.51 0.48,3.53 -1.059,6.36 -2.92,5.4 -7.17,9.57 -12.021,14.07 -0.6,0.55 -1.16,0.81 -1.75,0.81 -0.689,0 -1.279,-0.37 -1.709,-0.7 -2.57,-1.92 -4.9,-3.59 -7.131,-5.12 -1.199,-0.83 -1.75,-1.91 -1.73,-3.41 0.021,-0.85 -0.029,-1.78 -0.139,-2.84 -0.82,-7.93 -0.55,-8.31 7.25,-10.21 z m -3.541,28.61 c -0.49,0.26 -1,0.53 -1.43,0.86 -0.129,0.109 -0.289,0.16 -0.449,0.16 -0.09,0 -0.17,-0.011 -0.25,-0.041 -0.24,-0.09 -0.42,-0.289 -0.48,-0.539 -0.529,-2.23 -0.471,-3.931 -0.199,-5.94 0.02,-0.2 0.129,-0.38 0.289,-0.5 0.131,-0.1 0.291,-0.15 0.449,-0.15 l 0.111,0 c 1.859,0.28 3.99,1.47 4.26,3.13 0.27,1.649 -1.099,2.38 -2.301,3.02 z m 21.821,22.149 c -0.75,1.4 -2.459,2.221 -5.391,2.59 -0.629,0.08 -1.25,0.101 -1.799,0.121 -0.24,0 -0.471,0.01 -0.68,0.02 l -0.1,0 c -5.191,-0.41 -10.342,-1.48 -15.73,-3.25 -0.83,-0.279 -1.74,-0.66 -2.201,-1.359 -1.369,-2.101 1.432,-12.94 3.221,-14.201 0.24,-0.17 0.48,-0.33 0.73,-0.5 l 0.48,-0.33 c 3.328,-2.309 4.988,-3.459 6.709,-3.459 2.01,0 3.6,1.63 6.76,4.869 2.301,2.351 5.18,5.561 7.16,9.561 1.321,2.659 1.591,4.548 0.841,5.938 z"
           id="path13"
           inkscape:connector-curvature="0"
           style="clip-rule:evenodd;fill:#ffffff;fill-rule:evenodd" /></g><g
         id="g15"><path
           d="m 426.328,297.531 c 0.041,1.31 -0.52,2.68 -1.539,3.74 -1.029,1.069 -2.381,1.71 -3.711,1.75 l -0.129,0 c -2.73,0 -5.291,-2.51 -5.371,-5.25 -0.039,-1.32 0.521,-2.69 1.541,-3.75 1.02,-1.07 2.369,-1.7 3.721,-1.74 l 0.129,0 c 2.73,0 5.291,2.5 5.359,5.25 z"
           id="path17"
           inkscape:connector-curvature="0"
           style="clip-rule:evenodd;fill:#ffffff;fill-rule:evenodd" /></g></g></g></svg>