<?xml version="1.0" encoding="UTF-8" standalone="no"?>
<!-- Generator: Adobe Illustrator 16.0.0, SVG Export Plug-In . SVG Version: 6.00 Build 0)  -->

<svg
   xmlns:dc="http://purl.org/dc/elements/1.1/"
   xmlns:cc="http://creativecommons.org/ns#"
   xmlns:rdf="http://www.w3.org/1999/02/22-rdf-syntax-ns#"
   xmlns:svg="http://www.w3.org/2000/svg"
   xmlns="http://www.w3.org/2000/svg"
   xmlns:sodipodi="http://sodipodi.sourceforge.net/DTD/sodipodi-0.dtd"
   xmlns:inkscape="http://www.inkscape.org/namespaces/inkscape"
   version="1.1"
   id="Calque_1"
   x="0px"
   y="0px"
   width="153"
   height="153"
   viewBox="0 0 153 152.99999"
   enable-background="new 0 0 841.89 595.28"
   xml:space="preserve"
   inkscape:version="0.91 r"
   sodipodi:docname="Icon Physics.svg"><metadata
     id="metadata27"><rdf:RDF><cc:Work
         rdf:about=""><dc:format>image/svg+xml</dc:format><dc:type
           rdf:resource="http://purl.org/dc/dcmitype/StillImage" /><dc:title></dc:title></cc:Work></rdf:RDF></metadata><defs
     id="defs25" /><sodipodi:namedview
     pagecolor="#ffffff"
     bordercolor="#666666"
     borderopacity="1"
     objecttolerance="10"
     gridtolerance="10"
     guidetolerance="10"
     inkscape:pageopacity="0"
     inkscape:pageshadow="2"
     inkscape:window-width="1366"
     inkscape:window-height="716"
     id="namedview23"
     showgrid="false"
     fit-margin-top="0"
     fit-margin-left="0"
     fit-margin-right="0"
     fit-margin-bottom="0"
     inkscape:zoom="0.37772155"
     inkscape:cx="76.5"
     inkscape:cy="76.5"
     inkscape:window-x="0"
     inkscape:window-y="0"
     inkscape:window-maximized="1"
     inkscape:current-layer="Calque_1" /><g
     id="g3"
     transform="translate(-344.44501,-221.14001)"><circle
       cx="420.94501"
       cy="297.64001"
       r="76.5"
       id="circle5"
       style="fill:#8bb31d" /><circle
       cx="420.94501"
       cy="297.64001"
       r="70.892998"
       id="circle7"
       style="fill:#417a3b" /><g
       id="g9"><g
         id="g11"><path
           d="m 469.09,299.391 c -0.14,-0.38 -1.37,-0.76 -1.96,-0.94 l -0.09,-0.02 c -0.16,0 -0.43,0.12 -0.65,0.23 -0.159,0.08 -0.33,0.15 -0.479,0.21 l -16.66,6.07 c -12.84,4.681 -25.68,9.36 -38.52,14.04 -1.6,0.58 -3.2,1.141 -4.88,1.73 -0.84,0.289 -1.69,0.6 -2.58,0.91 -0.05,0.02 -0.11,0.029 -0.16,0.029 -0.14,0 -0.28,-0.061 -0.38,-0.17 -0.13,-0.15 -0.16,-0.37 -0.07,-0.561 2.41,-4.85 2.86,-9.709 1.3,-14.069 -1.43,-4.011 -4.6,-7.45 -8.46,-9.19 -2.08,-0.94 -4.3,-1.41 -6.58,-1.41 -6.2,0 -11.92,3.56 -14.56,9.07 -1.88,3.92 -2.09,8.49 -0.58,12.54 1.64,4.37 5.11,7.81 10.05,9.94 0.19,0.08 0.3,0.27 0.3,0.48 -0.01,0.199 -0.14,0.379 -0.33,0.449 -0.78,0.29 -1.55,0.561 -2.3,0.82 -1.88,0.66 -3.66,1.279 -5.34,2.08 -0.55,0.25 -1.23,1.42 -1.15,1.97 0.09,0.67 0.53,1.01 1.32,1.01 0.27,0 0.55,-0.04 0.84,-0.12 0.3,-0.08 0.6,-0.199 0.91,-0.32 0.17,-0.069 0.34,-0.139 0.51,-0.199 l 34.48,-12.52 51.84,-18.841 c 0.33,-0.12 0.68,-0.229 1.02,-0.329 0.86,-0.271 1.681,-0.531 2.311,-1 0.528,-0.389 0.978,-1.509 0.848,-1.889 z m -80.14,25.969 -0.08,0 c -7.11,0 -12.9,-5.829 -12.91,-13 -0.01,-3.521 1.34,-6.819 3.79,-9.28 2.43,-2.43 5.66,-3.76 9.09,-3.76 l 0.05,0 c 7.11,0.03 12.91,5.801 12.94,12.87 0.03,7.22 -5.75,13.13 -12.88,13.17 z"
           id="path13"
           inkscape:connector-curvature="0"
           style="clip-rule:evenodd;fill:#ffffff;fill-rule:evenodd" /></g><g
         id="g15"><path
           d="m 463.14,264.38 c 0.011,3.73 -1.42,7.22 -4.02,9.83 -2.65,2.66 -6.24,4.12 -10.09,4.12 l -0.07,0 c -3.72,-0.02 -7.22,-1.49 -9.84,-4.14 -2.62,-2.65 -4.061,-6.18 -4.03,-9.91 0.05,-7.64 6.351,-13.85 14.05,-13.85 l 0,-0.25 c 0.011,0 0.011,0 0.021,0 l 0.01,0.25 c 7.809,0.01 13.949,6.14 13.969,13.95 z"
           id="path17"
           inkscape:connector-curvature="0"
           style="clip-rule:evenodd;fill:#ffffff;fill-rule:evenodd" /></g><g
         id="g19"><path
           d="m 435.79,343.891 c -0.15,0.359 -1.36,0.859 -2.44,0.891 -1.85,0.049 -3.8,0.069 -6.33,0.069 -1.229,0 -2.449,0 -3.68,-0.011 -1.16,0 -2.33,-0.01 -3.49,-0.01 -1.18,0 -2.36,0 -3.55,0.01 -1.18,0 -2.36,0.011 -3.54,0.011 -2.66,0 -4.71,-0.021 -6.63,-0.069 -0.79,-0.011 -1.79,-0.49 -1.87,-0.74 -0.18,-0.561 0.12,-1.67 0.59,-2.201 4.17,-4.609 8.49,-9.209 12.68,-13.659 l 0.73,-0.78 c 0.79,-0.84 1.35,-1.21 1.8,-1.21 0.43,0 0.95,0.341 1.69,1.12 l 1.85,1.98 c 3.721,3.949 7.561,8.039 11.25,12.14 0.64,0.699 1.13,1.988 0.94,2.459 z"
           id="path21"
           inkscape:connector-curvature="0"
           style="clip-rule:evenodd;fill:#ffffff;fill-rule:evenodd" /></g></g></g></svg>