<?xml version="1.0" encoding="UTF-8" standalone="no"?>
<!-- Generator: Adobe Illustrator 16.0.0, SVG Export Plug-In . SVG Version: 6.00 Build 0)  -->

<svg
   xmlns:dc="http://purl.org/dc/elements/1.1/"
   xmlns:cc="http://creativecommons.org/ns#"
   xmlns:rdf="http://www.w3.org/1999/02/22-rdf-syntax-ns#"
   xmlns:svg="http://www.w3.org/2000/svg"
   xmlns="http://www.w3.org/2000/svg"
   xmlns:sodipodi="http://sodipodi.sourceforge.net/DTD/sodipodi-0.dtd"
   xmlns:inkscape="http://www.inkscape.org/namespaces/inkscape"
   version="1.1"
   id="Calque_1"
   x="0px"
   y="0px"
   width="153"
   height="153"
   viewBox="0 0 153 152.99999"
   enable-background="new 0 0 841.89 595.28"
   xml:space="preserve"
   inkscape:version="0.91 r"
   sodipodi:docname="10.svg"><metadata
     id="metadata4204"><rdf:RDF><cc:Work
         rdf:about=""><dc:format>image/svg+xml</dc:format><dc:type
           rdf:resource="http://purl.org/dc/dcmitype/StillImage" /><dc:title></dc:title></cc:Work></rdf:RDF></metadata><defs
     id="defs4202" /><sodipodi:namedview
     pagecolor="#ffffff"
     bordercolor="#666666"
     borderopacity="1"
     objecttolerance="10"
     gridtolerance="10"
     guidetolerance="10"
     inkscape:pageopacity="0"
     inkscape:pageshadow="2"
     inkscape:window-width="640"
     inkscape:window-height="480"
     id="namedview4200"
     showgrid="false"
     fit-margin-top="0"
     fit-margin-left="0"
     fit-margin-right="0"
     fit-margin-bottom="0"
     inkscape:zoom="0.37772155"
     inkscape:cx="76.5"
     inkscape:cy="76.5"
     inkscape:window-x="0"
     inkscape:window-y="0"
     inkscape:window-maximized="0"
     inkscape:current-layer="Calque_1" /><g
     id="g4180"
     transform="translate(-344.44501,-221.14001)"><circle
       cx="420.94501"
       cy="297.64001"
       r="76.5"
       id="circle4182"
       style="fill:#8bb31d" /><circle
       cx="420.94501"
       cy="297.64001"
       r="70.892998"
       id="circle4184"
       style="fill:#417a3b" /><g
       id="g4186"><path
         d="m 405.146,282.383 c -2.197,-0.002 -4.019,-0.661 -5.275,-2.34 -0.589,-0.786 -1.168,-1.769 -1.251,-2.707 -0.179,-2.003 -0.268,-4.073 0.041,-6.048 0.448,-2.868 3.007,-4.826 5.914,-4.832 10.432,-0.022 20.864,-0.03 31.295,-0.004 3.513,0.009 6.195,2.806 6.193,6.336 -10e-4,1.399 0.113,2.818 -0.073,4.194 -0.434,3.21 -2.86,5.174 -6.575,5.423 -0.021,0.281 -0.063,0.578 -0.064,0.875 -0.006,3.045 -0.038,6.091 0.02,9.136 0.011,0.583 0.292,1.208 0.594,1.73 7.468,12.93 14.956,25.848 22.437,38.771 1.074,1.855 1.779,3.827 1.41,6.002 -0.561,3.312 -3.205,5.826 -6.895,6.208 -2.877,0.298 -5.797,0.236 -8.697,0.239 -17.993,0.019 -35.985,0.014 -53.979,-0.002 -0.974,-10e-4 -1.967,-0.063 -2.918,-0.258 -4.248,-0.868 -6.254,-4.463 -4.942,-8.899 0.334,-1.129 0.828,-2.231 1.385,-3.272 6.944,-12.979 13.92,-25.939 20.859,-38.921 0.313,-0.584 0.489,-1.311 0.5,-1.975 0.049,-3.179 0.021,-6.36 0.021,-9.656 z m 3.314,-3.333 c 0,0.701 0,1.257 0,1.813 0,3.991 0.024,7.982 -0.024,11.972 -0.009,0.696 -0.196,1.458 -0.523,2.071 -7.037,13.167 -14.113,26.314 -21.154,39.479 -0.539,1.007 -0.992,2.091 -1.283,3.193 -0.637,2.409 0.341,3.873 2.778,4.32 0.615,0.113 1.25,0.161 1.877,0.161 20.164,0.008 40.329,0.012 60.493,-0.013 0.892,-10e-4 1.816,-0.178 2.668,-0.453 1.214,-0.393 1.828,-1.315 1.872,-2.627 0.052,-1.569 -0.524,-2.94 -1.242,-4.275 -6.655,-12.379 -13.268,-24.781 -20.01,-37.113 -1.336,-2.442 -2.214,-4.838 -1.893,-7.636 0.111,-0.967 0.014,-1.958 0.014,-2.938 -0.002,-2.616 -0.001,-5.232 -0.001,-7.96 1.29,0 2.47,0.015 3.651,-0.004 1.814,-0.028 3.029,-1.226 3.065,-3.024 0.021,-1.049 0.023,-2.101 0.007,-3.15 -0.031,-1.873 -1.216,-3.067 -3.1,-3.103 -1.436,-0.027 -2.871,-0.007 -4.307,-0.007 -8.787,-10e-4 -17.574,-0.006 -26.36,0 -2.062,0.002 -3.238,1.199 -3.253,3.269 -0.007,0.945 -0.01,1.891 0,2.835 0.022,1.983 1.229,3.173 3.234,3.189 1.114,0.008 2.23,0.001 3.491,0.001 z"
         id="path4188"
         inkscape:connector-curvature="0"
         style="clip-rule:evenodd;fill:#ffffff;fill-rule:evenodd" /><path
         d="m 411.611,258.834 c 0.009,-2.149 1.708,-3.871 3.84,-3.892 2.145,-0.021 3.931,1.769 3.924,3.932 -0.007,2.114 -1.744,3.865 -3.861,3.892 -2.151,0.027 -3.912,-1.747 -3.903,-3.932 z"
         id="path4190"
         inkscape:connector-curvature="0"
         style="clip-rule:evenodd;fill:#ffffff;fill-rule:evenodd" /><path
         d="m 428.039,253.169 c 0.023,1.938 -1.41,3.396 -3.342,3.399 -1.83,0.003 -3.34,-1.514 -3.324,-3.34 0.015,-1.768 1.489,-3.269 3.269,-3.326 1.813,-0.057 3.376,1.445 3.397,3.267 z"
         id="path4192"
         inkscape:connector-curvature="0"
         style="clip-rule:evenodd;fill:#ffffff;fill-rule:evenodd" /><path
         d="m 430.842,299.703 c 7.041,12.923 14.165,25.691 21.25,38.826 -21.354,0 -42.302,0 -63.446,0 0.299,-0.741 0.493,-1.406 0.817,-1.999 4.69,-8.59 9.404,-17.168 14.088,-25.761 0.34,-0.623 0.654,-0.657 1.32,-0.506 2.481,0.566 4.978,1.099 7.493,1.484 2.728,0.419 5.13,-0.426 7.085,-2.384 1.284,-1.286 2.501,-2.642 3.743,-3.971 1.925,-2.058 4.051,-3.858 6.561,-5.174 0.332,-0.172 0.677,-0.32 1.089,-0.515 z"
         id="path4194"
         inkscape:connector-curvature="0"
         style="clip-rule:evenodd;fill:#ffffff;fill-rule:evenodd" /><path
         d="m 420.844,273.747 c 3.908,0.029 6.965,3.136 6.934,7.048 -0.03,3.82 -3.159,6.878 -7.018,6.859 -3.89,-0.02 -7.004,-3.176 -6.953,-7.048 0.051,-3.82 3.199,-6.888 7.037,-6.859 z"
         id="path4196"
         inkscape:connector-curvature="0"
         style="clip-rule:evenodd;fill:#ffffff;fill-rule:evenodd" /><path
         d="m 422.994,296.408 c -0.025,2.82 -2.314,5.068 -5.098,5.01 -2.677,-0.057 -4.925,-2.338 -4.929,-5.002 -0.004,-2.839 2.298,-5.068 5.188,-5.024 2.715,0.042 4.866,2.271 4.839,5.016 z"
         id="path4198"
         inkscape:connector-curvature="0"
         style="clip-rule:evenodd;fill:#ffffff;fill-rule:evenodd" /></g></g></svg>