<?xml version="1.0" encoding="UTF-8" standalone="no"?>
<!-- Generator: Adobe Illustrator 16.0.0, SVG Export Plug-In . SVG Version: 6.00 Build 0)  -->

<svg
   xmlns:dc="http://purl.org/dc/elements/1.1/"
   xmlns:cc="http://creativecommons.org/ns#"
   xmlns:rdf="http://www.w3.org/1999/02/22-rdf-syntax-ns#"
   xmlns:svg="http://www.w3.org/2000/svg"
   xmlns="http://www.w3.org/2000/svg"
   xmlns:sodipodi="http://sodipodi.sourceforge.net/DTD/sodipodi-0.dtd"
   xmlns:inkscape="http://www.inkscape.org/namespaces/inkscape"
   version="1.1"
   id="Calque_1"
   x="0px"
   y="0px"
   width="153"
   height="153"
   viewBox="0 0 153 152.99999"
   enable-background="new 0 0 841.89 595.28"
   xml:space="preserve"
   inkscape:version="0.91 r"
   sodipodi:docname="11.svg"><metadata
     id="metadata4259"><rdf:RDF><cc:Work
         rdf:about=""><dc:format>image/svg+xml</dc:format><dc:type
           rdf:resource="http://purl.org/dc/dcmitype/StillImage" /><dc:title></dc:title></cc:Work></rdf:RDF></metadata><defs
     id="defs4257" /><sodipodi:namedview
     pagecolor="#ffffff"
     bordercolor="#666666"
     borderopacity="1"
     objecttolerance="10"
     gridtolerance="10"
     guidetolerance="10"
     inkscape:pageopacity="0"
     inkscape:pageshadow="2"
     inkscape:window-width="640"
     inkscape:window-height="480"
     id="namedview4255"
     showgrid="false"
     fit-margin-top="0"
     fit-margin-left="0"
     fit-margin-right="0"
     fit-margin-bottom="0"
     inkscape:zoom="0.37772155"
     inkscape:cx="76.5"
     inkscape:cy="76.5"
     inkscape:window-x="0"
     inkscape:window-y="0"
     inkscape:window-maximized="0"
     inkscape:current-layer="Calque_1" /><g
     id="g4207"
     transform="translate(-344.44501,-221.14001)"><circle
       cx="420.94501"
       cy="297.64001"
       r="76.5"
       id="circle4209"
       style="fill:#8bb31d" /><g
       id="g4211"><path
         d="m 491.84,297.64 c 0,39.15 -31.74,70.89 -70.9,70.89 -39.149,0 -70.89,-31.74 -70.89,-70.89 0,-39.15 31.74,-70.89 70.89,-70.89 39.16,0 70.9,31.74 70.9,70.89 z"
         id="path4213"
         inkscape:connector-curvature="0"
         style="fill:#417a3b" /><text
         transform="translate(430.3301,272.7227)"
         id="text4215"><tspan
           x="0"
           y="0"
           font-size="12"
           id="tspan4217"
           style="font-size:12px;font-family:CoconNextArabic-Light;fill:#ffffff">langue</tspan><tspan
           x="0"
           y="14.4"
           font-size="12"
           id="tspan4219"
           style="font-size:12px;font-family:CoconNextArabic-Light;fill:#ffffff">fran</tspan><tspan
           x="20.688"
           y="14.4"
           font-size="12"
           id="tspan4221"
           style="font-size:12px;font-family:MyriadPro-Regular;fill:#ffffff">รง</tspan><tspan
           x="26.351999"
           y="14.4"
           font-size="12"
           id="tspan4223"
           style="font-size:12px;font-family:CoconNextArabic-Light;fill:#ffffff">aise</tspan></text>
<text
         transform="translate(380.7817,302.7227)"
         id="text4225"><tspan
           x="0"
           y="0"
           font-size="12"
           id="tspan4227"
           style="font-size:12px;font-family:CoconNextArabic-Light;fill:#ffffff">Tour</tspan><tspan
           x="-5.0029998"
           y="14.4"
           font-size="12"
           id="tspan4229"
           style="font-size:12px;font-family:CoconNextArabic-Light;fill:#ffffff">Eiffel</tspan></text>
</g><g
       id="g4231"><path
         d="m 427.028,304.79 c -3.916,0 -8.006,0 -11.986,0 1.172,-15.023 2.34,-29.992 3.521,-45.122 1.563,0 3.33,0 4.761,0 1.237,15.07 2.462,29.996 3.704,45.122 z"
         id="path4233"
         inkscape:connector-curvature="0"
         style="clip-rule:evenodd;fill:#ffffff;fill-rule:evenodd" /><path
         d="m 413.968,307.695 c 4.702,0 9.292,0 14.075,0 0.911,3.633 1.822,7.306 2.757,10.972 0.552,2.166 1.185,4.313 1.697,6.487 0.242,1.029 0.641,1.545 1.813,1.505 1.473,-0.05 1.477,0.052 1.493,1.729 -9.894,0 -19.787,0 -29.827,0 -0.089,-0.501 -0.178,-1.003 -0.282,-1.591 0.408,-0.069 0.713,-0.206 0.979,-0.152 2.021,0.405 2.684,-0.633 3.11,-2.45 1.283,-5.463 2.746,-10.883 4.185,-16.5 z m 1.041,18.773 c 4.173,0 7.995,0 11.961,0 -0.716,-4.467 -1.375,-8.76 -2.134,-13.035 -0.068,-0.385 -0.756,-0.916 -1.181,-0.939 -1.871,-0.103 -3.752,-0.104 -5.623,0 -0.423,0.023 -1.116,0.568 -1.177,0.952 -0.667,4.288 -1.234,8.592 -1.846,13.022 z"
         id="path4235"
         inkscape:connector-curvature="0"
         style="clip-rule:evenodd;fill:#ffffff;fill-rule:evenodd" /><path
         d="m 447.818,351.443 c -2.159,0 -4.255,0.029 -6.348,-0.03 -0.329,-0.01 -0.76,-0.356 -0.952,-0.665 -3.056,-4.926 -6.082,-9.87 -9.106,-14.815 -0.084,-0.138 -0.079,-0.33 -0.186,-0.814 2.253,0 4.4,-0.021 6.547,0.027 0.271,0.006 0.622,0.326 0.786,0.594 3.067,4.991 6.113,9.995 9.153,15.003 0.082,0.133 0.056,0.331 0.106,0.7 z"
         id="path4237"
         inkscape:connector-curvature="0"
         style="clip-rule:evenodd;fill:#ffffff;fill-rule:evenodd" /><path
         d="m 394.071,351.458 c 3.178,-5.426 6.15,-10.523 9.164,-15.598 0.198,-0.333 0.707,-0.666 1.082,-0.68 1.983,-0.066 3.97,-0.03 6.133,-0.03 -0.166,0.531 -0.206,0.883 -0.372,1.159 -2.792,4.657 -5.562,9.329 -8.452,13.926 -0.383,0.61 -1.37,1.093 -2.124,1.168 -1.72,0.172 -3.47,0.055 -5.431,0.055 z"
         id="path4239"
         inkscape:connector-curvature="0"
         style="clip-rule:evenodd;fill:#ffffff;fill-rule:evenodd" /><path
         d="m 429.855,334.508 c -6.106,0 -11.934,0 -18.09,0 0.757,-1.386 1.385,-2.659 2.147,-3.847 0.19,-0.298 0.814,-0.444 1.24,-0.447 3.744,-0.034 7.49,-0.055 11.233,0.02 0.529,0.01 1.223,0.42 1.535,0.861 0.715,1.009 1.238,2.149 1.935,3.413 z"
         id="path4241"
         inkscape:connector-curvature="0"
         style="clip-rule:evenodd;fill:#ffffff;fill-rule:evenodd" /><path
         d="m 406.066,344.46 c 1.675,-2.917 3.321,-5.853 5.062,-8.73 0.208,-0.343 0.925,-0.529 1.407,-0.533 5.569,-0.035 11.14,-0.037 16.709,0.005 0.461,0.004 1.126,0.264 1.347,0.621 1.707,2.759 3.327,5.572 4.864,8.481 -3.842,-4.677 -8.086,-8.689 -14.609,-8.663 -6.615,0.026 -10.912,3.985 -14.78,8.819 z"
         id="path4243"
         inkscape:connector-curvature="0"
         style="clip-rule:evenodd;fill:#ffffff;fill-rule:evenodd" /><path
         d="m 420.955,254.217 c 0.302,0 0.604,-0.001 0.906,0 3.718,0.007 3.356,-0.053 2.687,3.837 -0.063,0.361 -0.834,0.812 -1.307,0.851 -1.382,0.115 -2.783,-0.013 -4.17,0.061 -1.111,0.06 -1.589,-0.299 -1.771,-1.466 -0.51,-3.291 -0.57,-3.282 3.655,-3.283 z"
         id="path4245"
         inkscape:connector-curvature="0"
         style="clip-rule:evenodd;fill:#ffffff;fill-rule:evenodd" /><path
         d="m 437.887,334.593 c -2.371,0 -4.307,0.051 -6.236,-0.036 -0.502,-0.022 -1.162,-0.352 -1.443,-0.754 -0.715,-1.024 -1.258,-2.17 -2.063,-3.613 2.495,0 4.691,-0.03 6.885,0.036 0.296,0.009 0.653,0.462 0.851,0.789 0.643,1.068 1.226,2.173 2.006,3.578 z"
         id="path4247"
         inkscape:connector-curvature="0"
         style="clip-rule:evenodd;fill:#ffffff;fill-rule:evenodd" /><path
         d="m 403.986,334.589 c 0.768,-1.462 1.366,-2.692 2.063,-3.864 0.167,-0.28 0.663,-0.503 1.013,-0.512 1.987,-0.048 3.976,-0.023 6.349,-0.023 -0.793,1.486 -1.429,2.743 -2.143,3.952 -0.142,0.241 -0.586,0.422 -0.896,0.428 -2.032,0.036 -4.065,0.019 -6.386,0.019 z"
         id="path4249"
         inkscape:connector-curvature="0"
         style="clip-rule:evenodd;fill:#ffffff;fill-rule:evenodd" /><path
         d="m 428.38,306.813 c -0.444,0.061 -0.889,0.171 -1.334,0.173 -3.985,0.013 -7.972,0.029 -11.956,-0.021 -0.491,-0.006 -0.978,-0.391 -1.466,-0.6 0.511,-0.285 1.019,-0.807 1.534,-0.816 3.863,-0.069 7.729,-0.063 11.594,-0.011 0.601,0.008 1.198,0.368 1.797,0.566 -0.057,0.238 -0.112,0.473 -0.169,0.709 z"
         id="path4251"
         inkscape:connector-curvature="0"
         style="clip-rule:evenodd;fill:#ffffff;fill-rule:evenodd" /><path
         d="m 421.145,243.815 c 0.544,3.209 1.088,6.418 1.65,9.743 -1.181,0 -2.354,0 -3.573,0 0.553,-3.308 1.094,-6.542 1.635,-9.775 0.095,0.011 0.192,0.021 0.288,0.032 z"
         id="path4253"
         inkscape:connector-curvature="0"
         style="clip-rule:evenodd;fill:#ffffff;fill-rule:evenodd" /></g></g></svg>