<?xml version="1.0" encoding="UTF-8" standalone="no"?>
<!-- Generator: Adobe Illustrator 16.0.0, SVG Export Plug-In . SVG Version: 6.00 Build 0)  -->

<svg
   xmlns:dc="http://purl.org/dc/elements/1.1/"
   xmlns:cc="http://creativecommons.org/ns#"
   xmlns:rdf="http://www.w3.org/1999/02/22-rdf-syntax-ns#"
   xmlns:svg="http://www.w3.org/2000/svg"
   xmlns="http://www.w3.org/2000/svg"
   xmlns:sodipodi="http://sodipodi.sourceforge.net/DTD/sodipodi-0.dtd"
   xmlns:inkscape="http://www.inkscape.org/namespaces/inkscape"
   version="1.1"
   id="Calque_1"
   x="0px"
   y="0px"
   width="153"
   height="153"
   viewBox="0 0 153 152.99999"
   enable-background="new 0 0 841.89 595.28"
   xml:space="preserve"
   inkscape:version="0.91 r"
   sodipodi:docname="14.svg"><metadata
     id="metadata19"><rdf:RDF><cc:Work
         rdf:about=""><dc:format>image/svg+xml</dc:format><dc:type
           rdf:resource="http://purl.org/dc/dcmitype/StillImage" /><dc:title></dc:title></cc:Work></rdf:RDF></metadata><defs
     id="defs17" /><sodipodi:namedview
     pagecolor="#ffffff"
     bordercolor="#666666"
     borderopacity="1"
     objecttolerance="10"
     gridtolerance="10"
     guidetolerance="10"
     inkscape:pageopacity="0"
     inkscape:pageshadow="2"
     inkscape:window-width="640"
     inkscape:window-height="480"
     id="namedview15"
     showgrid="false"
     fit-margin-top="0"
     fit-margin-left="0"
     fit-margin-right="0"
     fit-margin-bottom="0"
     inkscape:zoom="0.37772155"
     inkscape:cx="76.5"
     inkscape:cy="76.5"
     inkscape:window-x="0"
     inkscape:window-y="0"
     inkscape:window-maximized="0"
     inkscape:current-layer="Calque_1" /><circle
     cx="76.5"
     cy="76.5"
     r="76.5"
     id="circle3"
     style="fill:#8bb31d" /><circle
     cx="76.5"
     cy="76.5"
     r="70.892998"
     id="circle5"
     style="fill:#417a3b" /><g
     id="g7"
     transform="translate(-344.44501,-221.14001)"><path
       d="m 460.471,297.596 c 0,9.362 0.007,18.725 -0.003,28.087 -0.009,7.914 -5.661,13.635 -13.506,13.641 -17.423,0.013 -34.848,0.016 -52.272,-0.001 -7.351,-0.007 -13.306,-5.772 -13.33,-13.075 -0.06,-17.685 -0.045,-35.369 0.025,-53.052 0.006,-1.595 0.197,-3.483 1.045,-4.731 4.478,-6.594 9.357,-12.578 18.538,-12.477 15.082,0.166 30.171,0.25 45.25,-0.037 8.188,-0.156 14.648,6.673 14.339,14.343 -0.368,9.086 -0.086,18.2 -0.086,27.302 z m -53.212,35.019 c 0,-24.783 0,-49.431 0,-74.305 -2.264,0 -4.329,-10e-4 -6.396,0 -8.83,0.007 -13.761,5.817 -12.46,14.824 2.189,-0.536 4.344,-0.593 4.845,-3.773 0.408,-2.597 3.62,-4.171 6.058,-3.716 3.049,0.57 4.947,2.772 4.973,5.742 0.021,2.527 -1.191,4.305 -3.418,5.336 -2.515,1.166 -4.709,0.394 -6.632,-1.409 -1.342,-1.26 -5.928,-0.529 -5.993,1.068 -0.177,4.262 -0.061,8.535 -0.061,12.866 2.733,-0.391 4.61,-0.939 5.128,-3.916 0.432,-2.478 2.803,-3.576 5.148,-3.601 2.464,-0.025 4.473,1.191 5.452,3.678 0.968,2.458 0.083,5.472 -2.063,6.904 -2.492,1.662 -5.476,1.531 -7.504,-0.867 -1.733,-2.052 -3.122,-0.336 -4.604,-0.042 -0.604,0.121 -1.492,1 -1.508,1.555 -0.126,4.312 -0.069,8.629 -0.069,12.946 0.212,0.202 0.424,0.404 0.637,0.606 1.332,-0.889 3.39,-1.498 3.857,-2.719 1.22,-3.184 2.815,-5.034 5.674,-5.1 2.612,-0.06 4.975,1.581 5.758,3.997 0.793,2.447 -0.342,5.364 -2.626,6.745 -2.332,1.412 -4.94,0.946 -7.307,-1.212 -0.434,-0.396 -1.114,-0.806 -1.646,-0.764 -3.715,0.285 -4.352,1.016 -4.352,4.658 -10e-4,2.601 -0.021,5.201 0.01,7.801 0.014,1.075 0.141,2.149 0.231,3.441 2.226,-0.551 4.318,-0.22 4.636,-3.287 0.254,-2.453 3.108,-4.223 5.583,-4.183 2.366,0.036 4.792,1.84 5.483,4.077 0.753,2.438 -0.252,5.202 -2.399,6.591 -2.102,1.361 -5.082,1.421 -6.707,-0.418 -2.081,-2.354 -3.833,-1.158 -5.845,-0.276 2.787,6.239 7.963,8.151 18.117,6.753 z m 38.6,-38.177 c -0.641,-1.006 -1.133,-1.778 -1.623,-2.549 -0.47,0.768 -0.94,1.535 -1.61,2.63 -2.753,0.379 -5.584,1.559 -7.013,4.717 -2.035,4.499 -0.05,8.522 5.189,10.952 0.908,0.421 2.246,1.158 2.335,1.877 0.294,2.412 0.111,4.882 0.111,7.47 -3.241,-0.65 -3.341,-3.032 -3.835,-4.975 -1.798,0 -3.383,0 -4.952,0 -0.247,5.214 1.933,8.067 6.697,9.156 0.707,0.162 1.543,0.608 1.916,1.185 0.552,0.848 0.742,1.932 1.086,2.914 0.249,-1.081 0.492,-2.163 0.752,-3.242 0.037,-0.158 0.146,-0.3 0.293,-0.592 0.584,-0.086 1.258,-0.169 1.926,-0.286 5.347,-0.938 8.474,-6.407 6.47,-11.423 -1.209,-3.023 -3.953,-4.159 -6.713,-5.296 -0.741,-0.306 -1.774,-1.025 -1.842,-1.645 -0.229,-2.113 -0.088,-4.269 -0.088,-6.545 2.854,0.095 3.374,1.975 3.67,3.935 1.729,0 3.327,0 4.934,0 -0.359,-5 -2.039,-6.715 -7.703,-8.283 z m 9.777,38.378 c -2.87,0.759 -5.791,2.161 -8.732,2.203 -15.86,0.221 -31.725,0.119 -47.588,0.092 -3.421,-0.006 -6.491,-1.148 -8.874,-3.636 -1.464,-1.529 -2.652,-3.321 -3.963,-4.997 -2.88,0.749 -3.142,1.182 -1.924,3.814 2.004,4.333 5.465,6.727 10.217,6.748 17.424,0.082 34.847,0.065 52.271,0.006 3.619,-0.012 6.651,-1.46 8.593,-4.23 z M 386.03,309.267 c -1.041,0.485 -1.977,0.711 -1.981,0.953 -0.086,4.786 -0.063,9.572 -0.063,14.359 0.197,0.109 0.396,0.22 0.593,0.329 0.484,-0.62 1.37,-1.229 1.388,-1.861 0.121,-4.391 0.063,-8.786 0.063,-13.78 z m -2.188,-2.15 c 0.22,0.169 0.438,0.339 0.659,0.508 0.492,-0.628 1.391,-1.244 1.409,-1.886 0.126,-4.314 0.066,-8.634 0.066,-12.952 -0.255,-0.121 -0.51,-0.241 -0.765,-0.361 -0.457,0.749 -1.285,1.486 -1.309,2.249 -0.129,4.144 -0.06,8.295 -0.06,12.442 z m 12.174,-33.537 c 1.625,1.582 3.298,1.809 4.51,0.44 0.805,-0.909 1.459,-2.825 1.021,-3.733 -0.516,-1.07 -2.229,-1.999 -3.519,-2.145 -1.438,-0.162 -2.551,0.985 -2.529,2.728 0.968,-0.148 1.795,-0.274 2.764,-0.422 0.183,0.754 0.334,1.379 0.502,2.07 -0.893,0.344 -1.677,0.648 -2.749,1.062 z m -11.864,17.04 c 0.721,-0.404 1.622,-0.667 1.628,-0.949 0.089,-4.376 0.063,-8.755 0.063,-13.287 -2.175,0.977 -2.806,7.151 -1.691,14.236 z m 11.205,-3.655 c 1.033,-0.128 1.908,-0.237 2.912,-0.362 0.18,0.741 0.331,1.365 0.492,2.031 -0.927,0.388 -1.733,0.724 -2.538,1.061 0.044,0.319 0.09,0.638 0.135,0.958 1.353,-0.097 3.046,0.265 3.959,-0.419 0.902,-0.675 1.62,-2.589 1.306,-3.621 -0.316,-1.042 -1.907,-2.116 -3.107,-2.365 -1.629,-0.337 -2.815,0.775 -3.159,2.717 z m 0.621,19.696 c 1.672,1.501 3.396,1.759 4.604,0.377 0.798,-0.91 1.352,-2.778 0.945,-3.791 -0.409,-1.022 -2.11,-2.028 -3.294,-2.087 -1.007,-0.05 -2.08,1.257 -3.124,1.963 0.162,0.249 0.325,0.499 0.487,0.748 0.804,-0.146 1.607,-0.293 2.618,-0.477 0.175,0.79 0.328,1.482 0.48,2.175 -0.958,0.386 -1.731,0.698 -2.716,1.092 z m 0.168,17.25 c 1.377,1.645 3.052,1.774 4.339,0.528 0.826,-0.801 1.568,-2.65 1.183,-3.501 -0.508,-1.122 -2.061,-2.141 -3.343,-2.442 -1.492,-0.351 -2.555,0.791 -3.015,2.666 1.124,-0.195 1.926,-0.336 2.922,-0.51 0.16,0.796 0.302,1.499 0.44,2.188 -0.928,0.393 -1.687,0.715 -2.526,1.071 z m -10.001,-56.194 c -0.287,-0.087 -0.574,-0.175 -0.861,-0.263 -0.645,2.162 -1.289,4.323 -1.935,6.485 0.513,0.157 1.025,0.314 1.539,0.471 2.3,-1.649 0.503,-4.566 1.257,-6.693 z"
       id="path9"
       inkscape:connector-curvature="0"
       style="clip-rule:evenodd;fill:#ffffff;fill-rule:evenodd" /><path
       d="m 445.031,319.46 c 0,-2.551 0,-4.991 0,-7.664 2.448,0.718 3.786,1.956 3.562,4.443 -0.195,2.155 -1.414,3.154 -3.562,3.221 z"
       id="path11"
       inkscape:connector-curvature="0"
       style="clip-rule:evenodd;fill:#ffffff;fill-rule:evenodd" /><path
       d="m 443.063,305.501 c -1.861,-0.563 -2.911,-1.527 -2.942,-3.479 -0.03,-1.926 1.1,-2.734 2.942,-3.329 0,2.325 0,4.47 0,6.808 z"
       id="path13"
       inkscape:connector-curvature="0"
       style="clip-rule:evenodd;fill:#ffffff;fill-rule:evenodd" /></g></svg>