<?xml version="1.0" encoding="UTF-8" standalone="no"?>
<!-- Generator: Adobe Illustrator 16.0.0, SVG Export Plug-In . SVG Version: 6.00 Build 0)  -->

<svg
   xmlns:dc="http://purl.org/dc/elements/1.1/"
   xmlns:cc="http://creativecommons.org/ns#"
   xmlns:rdf="http://www.w3.org/1999/02/22-rdf-syntax-ns#"
   xmlns:svg="http://www.w3.org/2000/svg"
   xmlns="http://www.w3.org/2000/svg"
   xmlns:sodipodi="http://sodipodi.sourceforge.net/DTD/sodipodi-0.dtd"
   xmlns:inkscape="http://www.inkscape.org/namespaces/inkscape"
   version="1.1"
   id="Calque_1"
   x="0px"
   y="0px"
   width="153"
   height="153"
   viewBox="0 0 153 152.99999"
   enable-background="new 0 0 841.89 595.28"
   xml:space="preserve"
   inkscape:version="0.91 r"
   sodipodi:docname="15.svg"><metadata
     id="metadata48"><rdf:RDF><cc:Work
         rdf:about=""><dc:format>image/svg+xml</dc:format><dc:type
           rdf:resource="http://purl.org/dc/dcmitype/StillImage" /><dc:title></dc:title></cc:Work></rdf:RDF></metadata><defs
     id="defs46" /><sodipodi:namedview
     pagecolor="#ffffff"
     bordercolor="#666666"
     borderopacity="1"
     objecttolerance="10"
     gridtolerance="10"
     guidetolerance="10"
     inkscape:pageopacity="0"
     inkscape:pageshadow="2"
     inkscape:window-width="640"
     inkscape:window-height="480"
     id="namedview44"
     showgrid="false"
     fit-margin-top="0"
     fit-margin-left="0"
     fit-margin-right="0"
     fit-margin-bottom="0"
     inkscape:zoom="0.37772155"
     inkscape:cx="76.5"
     inkscape:cy="76.5"
     inkscape:window-x="0"
     inkscape:window-y="0"
     inkscape:window-maximized="0"
     inkscape:current-layer="Calque_1" /><circle
     cx="76.5"
     cy="76.5"
     r="76.5"
     id="circle22"
     style="fill:#8bb31d" /><circle
     cx="76.5"
     cy="76.5"
     r="70.892998"
     id="circle24"
     style="fill:#417a3b" /><g
     id="g26"
     transform="translate(-344.44501,-221.14001)"><path
       d="m 416.019,319.117 c -19.435,-0.019 -34.953,-15.613 -34.936,-35.106 0.017,-19.289 15.724,-34.963 35.132,-35.06 19.212,-0.096 35.112,15.773 35.144,35.073 0.03,19.621 -15.57,35.114 -35.34,35.093 z m -4.027,-63.478 c 5.542,0.978 11.081,1.151 16.606,-0.121 -8.53,-4.718 -17.009,-3.442 -26.007,-0.059 2.265,2.091 3.471,4.077 2.226,6.64 -1.276,2.627 -3.699,2.709 -6.171,2.605 -0.63,-0.026 -1.282,0.1 -1.889,-0.02 -4.636,-0.917 -7.192,1.359 -8.968,5.383 -1.061,2.402 -1.466,3.605 1.968,3.558 3.66,-0.051 5.498,2.322 4.793,5.542 -0.498,2.275 -2.065,3.354 -4.293,3.578 -2.857,0.287 -4.423,1.843 -4.253,4.718 0.182,3.061 2.311,3.91 5.013,3.886 1.008,-0.009 2.021,-0.039 3.026,0.031 2.999,0.205 5.178,1.479 5.167,4.793 -0.011,3.319 -2.176,4.57 -5.202,4.722 -1.301,0.065 -2.603,0.124 -4.092,0.195 0.313,0.769 0.39,1.145 0.593,1.432 8.693,12.205 25.136,16.616 38.788,10.419 13.582,-6.166 21.059,-21.255 18.002,-35.672 -0.773,-3.639 -2.816,-3.799 -5.676,-3.608 -2.715,0.18 -4.883,1.252 -5.176,3.997 -0.318,2.992 1.736,4.567 4.564,4.958 2.838,0.393 4.387,1.938 4.26,4.77 -0.127,2.786 -1.664,4.378 -4.6,4.333 -4.537,-0.983 -9.068,-1.13 -13.588,0.104 -1.777,1.289 -3.477,2.66 -2.912,5.215 0.551,2.49 2.475,3.244 4.73,3.619 2.77,0.456 4.271,2.22 4.107,4.982 -0.141,2.417 -1.756,4.082 -4.105,4.229 -2.881,0.183 -4.707,-1.422 -5.098,-4.425 -0.439,-3.37 -2.456,-4.767 -5.758,-4.552 -0.877,0.058 -1.764,0.019 -2.645,0 -2.787,-0.053 -4.643,-1.437 -4.932,-4.196 -0.287,-2.754 1.111,-4.549 3.984,-4.97 2.416,-0.354 4.5,-1.324 4.886,-3.961 0.389,-2.673 -1.425,-4.101 -3.641,-5.082 -4.004,-1.13 -8.016,-1.016 -12.032,-0.072 -1.375,-0.093 -2.338,-0.853 -3.029,-1.967 -0.925,-1.492 -1.117,-3.063 -0.224,-4.644 0.634,-1.125 1.559,-2.464 2.85,-2.06 2.936,0.918 5.649,-0.099 8.464,-0.347 2.705,-0.238 4.834,-1.31 5.076,-4.089 0.266,-3.057 -1.869,-4.441 -4.683,-4.838 -2.636,-0.371 -4.091,-1.874 -4.123,-4.521 -0.027,-2.62 1.245,-4.258 3.994,-4.505 z"
       id="path28"
       inkscape:connector-curvature="0"
       style="clip-rule:evenodd;fill:#ffffff;fill-rule:evenodd" /><path
       d="m 413.449,328.425 c -8.714,0.05 -18.461,-3.785 -26.902,-11.046 -1.112,-0.956 -2.663,-1.823 -0.771,-3.535 1.381,-1.252 2.167,-2.679 4.497,-0.734 24.039,20.062 58.257,8.201 64.341,-22.446 2.383,-11.999 -0.73,-23.012 -8.918,-32.314 -1.377,-1.566 -1.936,-2.46 -0.131,-4.233 1.768,-1.735 2.563,-1.489 4.107,0.201 15.398,16.831 14.775,44.195 -1.557,60.736 -8.832,8.944 -19.599,13.433 -34.666,13.371 z"
       id="path30"
       inkscape:connector-curvature="0"
       style="clip-rule:evenodd;fill:#ffffff;fill-rule:evenodd" /><path
       d="m 394.578,345.599 c 1.922,-4.575 6.35,-5.438 10.352,-6.553 2.791,-0.78 4.763,-1.674 6.275,-4.454 3.181,-5.848 6.909,-5.802 10.119,0.125 1.456,2.685 3.327,3.548 6.028,4.29 4.016,1.104 8.439,1.948 10.467,6.448 -14.415,0.047 -28.828,0.096 -43.241,0.144 z"
       id="path32"
       inkscape:connector-curvature="0"
       style="clip-rule:evenodd;fill:#ffffff;fill-rule:evenodd" /><path
       d="m 394.578,345.599 c 14.413,-0.048 28.827,-0.097 43.241,-0.144 0,-0.002 -0.021,0.023 -0.023,0.023 -0.076,0.216 -0.119,0.436 -0.127,0.665 -13.986,0.063 -27.972,0.124 -41.958,0.187 -0.538,0.003 -0.973,-0.154 -1.133,-0.731 z"
       id="path34"
       inkscape:connector-curvature="0"
       style="clip-rule:evenodd;fill:#ffffff;fill-rule:evenodd" /><path
       d="m 437.668,346.144 c 0.008,-0.229 0.051,-0.449 0.127,-0.665 0.498,0.325 0.57,0.571 -0.127,0.665 z"
       id="path36"
       inkscape:connector-curvature="0"
       style="clip-rule:evenodd;fill:#ffffff;fill-rule:evenodd" /><path
       d="m 411.992,255.639 c 5.536,-0.04 11.071,-0.081 16.606,-0.121 -5.526,1.272 -11.064,1.099 -16.606,0.121 z"
       id="path38"
       inkscape:connector-curvature="0"
       style="clip-rule:evenodd;fill:#ffffff;fill-rule:evenodd" /><path
       d="m 440.672,291.718 c -4.529,0.035 -9.059,0.07 -13.588,0.104 4.52,-1.234 9.051,-1.087 13.588,-0.104 z"
       id="path40"
       inkscape:connector-curvature="0"
       style="clip-rule:evenodd;fill:#ffffff;fill-rule:evenodd" /><path
       d="m 415.702,282.684 c -4.011,-0.024 -8.021,-0.048 -12.032,-0.072 4.016,-0.945 8.028,-1.059 12.032,0.072 z"
       id="path42"
       inkscape:connector-curvature="0"
       style="clip-rule:evenodd;fill:#ffffff;fill-rule:evenodd" /></g></svg>