<?xml version="1.0" encoding="UTF-8" standalone="no"?>
<!-- Generator: Adobe Illustrator 16.0.0, SVG Export Plug-In . SVG Version: 6.00 Build 0)  -->

<svg
   xmlns:dc="http://purl.org/dc/elements/1.1/"
   xmlns:cc="http://creativecommons.org/ns#"
   xmlns:rdf="http://www.w3.org/1999/02/22-rdf-syntax-ns#"
   xmlns:svg="http://www.w3.org/2000/svg"
   xmlns="http://www.w3.org/2000/svg"
   xmlns:sodipodi="http://sodipodi.sourceforge.net/DTD/sodipodi-0.dtd"
   xmlns:inkscape="http://www.inkscape.org/namespaces/inkscape"
   version="1.1"
   id="Calque_1"
   x="0px"
   y="0px"
   width="153"
   height="153"
   viewBox="0 0 153 152.99999"
   enable-background="new 0 0 841.89 595.28"
   xml:space="preserve"
   inkscape:version="0.91 r"
   sodipodi:docname="16.svg"><metadata
     id="metadata71"><rdf:RDF><cc:Work
         rdf:about=""><dc:format>image/svg+xml</dc:format><dc:type
           rdf:resource="http://purl.org/dc/dcmitype/StillImage" /><dc:title></dc:title></cc:Work></rdf:RDF></metadata><defs
     id="defs69" /><sodipodi:namedview
     pagecolor="#ffffff"
     bordercolor="#666666"
     borderopacity="1"
     objecttolerance="10"
     gridtolerance="10"
     guidetolerance="10"
     inkscape:pageopacity="0"
     inkscape:pageshadow="2"
     inkscape:window-width="640"
     inkscape:window-height="480"
     id="namedview67"
     showgrid="false"
     fit-margin-top="0"
     fit-margin-left="0"
     fit-margin-right="0"
     fit-margin-bottom="0"
     inkscape:zoom="0.37772155"
     inkscape:cx="76.5"
     inkscape:cy="76.5"
     inkscape:window-x="0"
     inkscape:window-y="0"
     inkscape:window-maximized="0"
     inkscape:current-layer="Calque_1" /><circle
     cx="76.5"
     cy="76.5"
     r="76.5"
     id="circle51"
     style="fill:#8bb31d" /><circle
     cx="76.5"
     cy="76.5"
     r="70.892998"
     id="circle53"
     style="fill:#417a3b" /><g
     id="g55"
     transform="translate(-344.44501,-221.14001)"><path
       d="m 459.269,302.753 c 0,10.018 0.007,20.035 -0.013,30.054 -0.002,1.01 -0.089,2.031 -0.274,3.023 -0.365,1.948 -1.468,2.986 -3.591,2.892 -2.266,-0.098 -4.541,-0.09 -6.809,0 -2.008,0.079 -3.102,-0.898 -3.478,-2.738 -0.217,-1.063 -0.308,-2.17 -0.31,-3.256 -0.017,-20.114 -0.019,-40.229 0.004,-60.343 10e-4,-1.164 0.119,-2.351 0.382,-3.482 0.353,-1.52 1.316,-2.422 3.013,-2.398 2.503,0.036 5.01,0.05 7.512,-0.009 1.793,-0.042 2.823,0.847 3.182,2.487 0.248,1.134 0.363,2.319 0.366,3.481 0.026,10.096 0.016,20.192 0.016,30.289 z"
       id="path57"
       inkscape:connector-curvature="0"
       style="clip-rule:evenodd;fill:#ffffff;fill-rule:evenodd" /><path
       d="m 424.36,308.612 c 10e-4,-8.368 -0.011,-16.738 0.004,-25.107 0.008,-3.92 0.751,-4.641 4.654,-4.645 2.034,-0.001 4.071,0.078 6.1,-0.019 2.308,-0.112 3.247,1.163 3.537,3.188 0.088,0.614 0.044,1.25 0.044,1.875 0.002,16.582 0.005,33.163 -0.001,49.745 -10e-4,4.296 -0.768,5.052 -5.035,5.053 -1.799,10e-4 -3.599,0.016 -5.397,-0.003 -2.848,-0.028 -3.861,-1.023 -3.888,-4.04 -0.049,-5.632 -0.017,-11.264 -0.018,-16.895 -0.001,-3.05 0,-6.101 0,-9.152 z"
       id="path59"
       inkscape:connector-curvature="0"
       style="clip-rule:evenodd;fill:#ffffff;fill-rule:evenodd" /><path
       d="m 418.11,315.147 c 10e-4,6.492 0.013,12.985 -0.004,19.477 -0.008,3.237 -0.797,4.012 -4.02,4.029 -2.268,0.01 -4.537,0.032 -6.805,-0.01 -2.326,-0.044 -3.412,-0.975 -3.419,-3.227 -0.042,-13.688 -0.035,-27.377 -0.002,-41.065 0.005,-2.024 1.046,-3.199 3.215,-3.174 2.502,0.029 5.006,-0.014 7.508,0.011 2.614,0.026 3.501,0.881 3.515,3.543 0.033,6.805 0.011,13.612 0.012,20.416 z"
       id="path61"
       inkscape:connector-curvature="0"
       style="clip-rule:evenodd;fill:#ffffff;fill-rule:evenodd" /><path
       d="m 397.667,321.312 c 0,4.611 0.019,9.224 -0.007,13.834 -0.015,2.701 -0.787,3.463 -3.506,3.501 -2.5,0.034 -5.002,0.042 -7.503,-0.004 -2.462,-0.045 -3.32,-0.832 -3.328,-3.198 -0.031,-9.613 -10e-4,-19.227 -0.021,-28.841 -0.004,-2.167 1.065,-3.147 3.165,-3.146 2.657,10e-4 5.316,-0.041 7.972,0.012 2.401,0.048 3.2,0.866 3.217,3.306 0.034,4.844 0.01,9.69 0.011,14.536 z"
       id="path63"
       inkscape:connector-curvature="0"
       style="clip-rule:evenodd;fill:#ffffff;fill-rule:evenodd" /><path
       d="m 383.045,293.377 c -0.168,-1.111 -0.29,-1.911 -0.426,-2.803 19.729,-4.755 36.171,-14.81 50.491,-28.915 -1.307,-1.47 -2.481,-2.792 -3.986,-4.484 5.012,-1.543 9.713,-2.991 15.009,-4.622 -1.545,5.443 -2.953,10.406 -4.511,15.901 -1.625,-1.697 -2.932,-3.063 -4.42,-4.616 -7.272,7.204 -15.229,13.345 -23.995,18.393 -8.765,5.047 -17.962,9.004 -28.162,11.146 z"
       id="path65"
       inkscape:connector-curvature="0"
       style="clip-rule:evenodd;fill:#ffffff;fill-rule:evenodd" /></g></svg>