<?xml version="1.0" encoding="UTF-8" standalone="no"?>
<!-- Generator: Adobe Illustrator 16.0.0, SVG Export Plug-In . SVG Version: 6.00 Build 0)  -->

<svg
   xmlns:dc="http://purl.org/dc/elements/1.1/"
   xmlns:cc="http://creativecommons.org/ns#"
   xmlns:rdf="http://www.w3.org/1999/02/22-rdf-syntax-ns#"
   xmlns:svg="http://www.w3.org/2000/svg"
   xmlns="http://www.w3.org/2000/svg"
   xmlns:sodipodi="http://sodipodi.sourceforge.net/DTD/sodipodi-0.dtd"
   xmlns:inkscape="http://www.inkscape.org/namespaces/inkscape"
   version="1.1"
   id="Calque_1"
   x="0px"
   y="0px"
   width="153"
   height="153"
   viewBox="0 0 153 152.99999"
   enable-background="new 0 0 841.89 595.28"
   xml:space="preserve"
   inkscape:version="0.91 r"
   sodipodi:docname="17.svg"><metadata
     id="metadata92"><rdf:RDF><cc:Work
         rdf:about=""><dc:format>image/svg+xml</dc:format><dc:type
           rdf:resource="http://purl.org/dc/dcmitype/StillImage" /><dc:title></dc:title></cc:Work></rdf:RDF></metadata><defs
     id="defs90" /><sodipodi:namedview
     pagecolor="#ffffff"
     bordercolor="#666666"
     borderopacity="1"
     objecttolerance="10"
     gridtolerance="10"
     guidetolerance="10"
     inkscape:pageopacity="0"
     inkscape:pageshadow="2"
     inkscape:window-width="640"
     inkscape:window-height="480"
     id="namedview88"
     showgrid="false"
     fit-margin-top="0"
     fit-margin-left="0"
     fit-margin-right="0"
     fit-margin-bottom="0"
     inkscape:zoom="0.37772155"
     inkscape:cx="76.5"
     inkscape:cy="76.5"
     inkscape:window-x="0"
     inkscape:window-y="0"
     inkscape:window-maximized="0"
     inkscape:current-layer="Calque_1" /><circle
     cx="76.5"
     cy="76.5"
     r="76.5"
     id="circle74"
     style="fill:#8bb31d" /><circle
     cx="76.5"
     cy="76.5"
     r="70.892998"
     id="circle76"
     style="fill:#417a3b" /><g
     id="g78"
     transform="translate(-344.44501,-221.14001)"><path
       d="m 430.981,342.942 c -14.206,0 -28.048,-0.022 -41.891,0.03 -1.608,0.007 -1.964,-0.76 -1.653,-1.995 0.434,-1.723 0.923,-3.463 1.652,-5.078 1.176,-2.608 2.646,-5.081 3.853,-7.677 3.509,-7.546 5.064,-14.528 -1.545,-21.868 -6.682,-7.421 -8.632,-17.106 -8.307,-26.945 0.522,-15.81 9.51,-26.781 25.855,-29.96 11.996,-2.333 23.301,-0.736 33.035,7.378 5.799,4.833 11.546,15.637 8.951,24.495 -0.936,3.191 1.178,5.519 2.543,7.958 1.165,2.083 2.841,3.876 4.231,5.839 1.882,2.654 1.47,4.082 -1.686,5.073 -2.311,0.728 -3.95,1.507 -2.342,4.274 1.108,1.904 -0.769,3.609 -1.154,5.061 -0.965,3.621 -1.349,7.197 -1.724,10.861 -0.206,2.024 -2.123,2.653 -3.804,2.621 -3.753,-0.072 -7.494,0.33 -11.28,-0.467 -2.771,-0.583 -5.083,0.97 -6.403,3.641 -1.927,3.898 -1.995,7.809 -0.217,11.787 0.671,1.502 1.175,3.077 1.886,4.972 z m -15.067,-45.557 c 7.233,-0.349 12.66,-3.012 15.632,-9.502 0.793,-1.732 1.805,-2.655 3.62,-3.505 4.682,-2.192 7.471,-6.252 7.384,-11.445 -0.137,-8.17 -6.247,-14.395 -16.701,-12.162 -1.492,0.319 -2.174,0.071 -3.134,-0.752 -8.753,-7.523 -21.519,-3.515 -24.349,7.588 -0.393,1.54 -0.855,2.959 -2.606,3.879 -4.462,2.345 -6.619,6.881 -5.322,11.185 1.336,4.436 5.243,7.844 10.32,7.31 1.496,-0.158 2.482,0.229 3.569,1.591 2.99,3.752 7.224,5.365 11.587,5.813 z"
       id="path80"
       inkscape:connector-curvature="0"
       style="clip-rule:evenodd;fill:#fbfdff;fill-rule:evenodd" /><path
       d="m 410.272,276.295 c -0.028,2.813 -1.126,4.105 -3.527,4.034 -2.294,-0.068 -3.418,-1.565 -3.427,-3.612 -0.009,-2.161 1.478,-3.707 3.563,-3.6 1.878,0.096 3.852,0.963 3.391,3.178 z"
       id="path82"
       inkscape:connector-curvature="0"
       style="clip-rule:evenodd;fill:#f2fafe;fill-rule:evenodd" /><path
       d="m 420.592,276.896 c -0.439,2.052 -1.596,3.559 -3.836,3.382 -1.965,-0.156 -3.62,-1.576 -3.401,-3.53 0.202,-1.799 1.187,-3.883 3.699,-3.708 2.238,0.154 3.314,1.618 3.538,3.856 z"
       id="path84"
       inkscape:connector-curvature="0"
       style="clip-rule:evenodd;fill:#f2fafe;fill-rule:evenodd" /><path
       d="m 427.358,280.416 c -2.278,-0.324 -3.817,-1.396 -3.811,-3.631 0.01,-2.215 1.489,-3.671 3.643,-3.704 2.006,-0.03 3.41,1.462 3.566,3.399 0.188,2.286 -1.57,3.285 -3.398,3.936 z"
       id="path86"
       inkscape:connector-curvature="0"
       style="clip-rule:evenodd;fill:#f3fafe;fill-rule:evenodd" /></g></svg>