<?xml version="1.0" encoding="UTF-8" standalone="no"?>
<!-- Generator: Adobe Illustrator 16.0.0, SVG Export Plug-In . SVG Version: 6.00 Build 0)  -->

<svg
   xmlns:dc="http://purl.org/dc/elements/1.1/"
   xmlns:cc="http://creativecommons.org/ns#"
   xmlns:rdf="http://www.w3.org/1999/02/22-rdf-syntax-ns#"
   xmlns:svg="http://www.w3.org/2000/svg"
   xmlns="http://www.w3.org/2000/svg"
   xmlns:sodipodi="http://sodipodi.sourceforge.net/DTD/sodipodi-0.dtd"
   xmlns:inkscape="http://www.inkscape.org/namespaces/inkscape"
   version="1.1"
   id="Calque_1"
   x="0px"
   y="0px"
   width="153"
   height="153"
   viewBox="0 0 153 152.99999"
   enable-background="new 0 0 841.89 595.28"
   xml:space="preserve"
   inkscape:version="0.91 r"
   sodipodi:docname="18.svg"><metadata
     id="metadata107"><rdf:RDF><cc:Work
         rdf:about=""><dc:format>image/svg+xml</dc:format><dc:type
           rdf:resource="http://purl.org/dc/dcmitype/StillImage" /><dc:title></dc:title></cc:Work></rdf:RDF></metadata><defs
     id="defs105" /><sodipodi:namedview
     pagecolor="#ffffff"
     bordercolor="#666666"
     borderopacity="1"
     objecttolerance="10"
     gridtolerance="10"
     guidetolerance="10"
     inkscape:pageopacity="0"
     inkscape:pageshadow="2"
     inkscape:window-width="721"
     inkscape:window-height="480"
     id="namedview103"
     showgrid="false"
     fit-margin-top="0"
     fit-margin-left="0"
     fit-margin-right="0"
     fit-margin-bottom="0"
     inkscape:zoom="0.37772155"
     inkscape:cx="76.5"
     inkscape:cy="76.5"
     inkscape:window-x="0"
     inkscape:window-y="0"
     inkscape:window-maximized="0"
     inkscape:current-layer="Calque_1" /><circle
     cx="76.5"
     cy="76.5"
     r="76.5"
     id="circle95"
     style="fill:#8bb31d" /><circle
     cx="76.5"
     cy="76.5"
     r="70.892998"
     id="circle97"
     style="fill:#417a3b" /><g
     id="g99"
     transform="translate(-344.44501,-221.14001)"><path
       d="m 388.652,297.412 c 0,-11.351 0.288,-22.711 -0.091,-34.049 -0.304,-9.079 6.593,-12.967 12.532,-13.038 13.198,-0.159 26.4,-0.188 39.598,0.004 6.818,0.099 12.742,4.753 12.635,12.966 -0.296,22.782 -0.318,45.572 0.012,68.354 0.12,8.412 -5.631,13.187 -12.832,13.299 -13.028,0.204 -26.064,0.152 -39.094,0.023 -6.206,-0.063 -10.935,-3.499 -12.357,-8.52 -0.269,-0.948 -0.354,-1.978 -0.355,-2.972 -0.023,-12.022 -0.015,-24.045 -0.015,-36.068 -0.012,10e-4 -0.022,10e-4 -0.033,10e-4 z m 58.028,-22.003 c 0,-2.648 0.043,-4.997 -0.009,-7.342 -0.1,-4.672 -2.199,-7.566 -6.849,-7.695 -12.413,-0.346 -24.839,-0.211 -37.261,-0.247 -0.75,-0.002 -1.517,0.112 -2.244,0.295 -2.533,0.637 -4.675,1.957 -4.892,4.736 -0.265,3.387 -0.063,6.81 -0.063,10.252 17.152,10e-4 34.096,10e-4 51.318,10e-4 z m -0.475,44.495 c 0,-0.922 -0.036,-1.848 0.005,-2.768 0.301,-6.801 -0.538,-6.456 -6.863,-6.375 -2.108,0.027 -3.249,1.112 -3.244,3.294 0.009,3.941 0.032,7.884 -0.012,11.826 -0.02,1.789 0.789,3.018 2.488,3.224 1.793,0.219 3.655,0.152 5.455,-0.052 1.527,-0.174 2.237,-1.25 2.186,-2.86 -0.07,-2.093 -0.017,-4.192 -0.015,-6.289 z m -45.518,-12.177 c 0.251,0 0.502,0.004 0.751,0 3.371,-0.048 4.38,-0.972 4.378,-4.001 -10e-4,-2.969 -1.044,-3.912 -4.429,-3.953 -0.999,-0.012 -2.023,-0.063 -2.996,0.119 -1.738,0.324 -2.737,1.237 -2.721,3.255 0.033,3.804 0.776,4.579 5.017,4.58 z m -0.009,21.675 c 0.25,0 0.501,0.006 0.752,-10e-4 3.36,-0.079 4.391,-1.025 4.387,-4.024 -0.003,-3 -1.027,-3.93 -4.417,-3.963 -1,-0.01 -2.03,-0.087 -2.998,0.106 -1.715,0.338 -2.744,1.239 -2.729,3.262 0.025,3.802 0.802,4.617 5.005,4.62 z m 40.751,-21.164 c 1.512,-0.703 3.679,-1.032 4.353,-2.213 0.713,-1.246 0.377,-3.446 -0.196,-4.971 -0.555,-1.48 -5.329,-1.786 -7.563,-0.885 -2.137,0.863 -2.014,2.672 -1.898,4.439 0.151,2.305 1.52,3.114 5.304,3.63 z m -27.325,-0.514 c 3.821,0.009 5.097,-0.838 5.241,-3.475 0.177,-3.238 -0.999,-4.41 -4.495,-4.469 -4.683,-0.082 -5.644,0.643 -5.599,4.222 0.037,2.915 1.081,3.716 4.853,3.722 z m 0.128,13.691 c -0.418,0 -0.838,-0.02 -1.255,0.004 -2.79,0.15 -3.702,1.098 -3.719,3.845 -0.018,2.994 0.806,3.923 3.706,4.114 0.75,0.05 1.506,0.04 2.257,0.007 3.195,-0.141 4.347,-1.438 4.122,-4.613 -0.178,-2.497 -1.492,-3.36 -5.111,-3.357 z m 13.358,7.979 c 0.251,0 0.501,0.006 0.753,0 3.381,-0.074 4.362,-0.974 4.362,-3.997 -10e-4,-3.02 -1.007,-3.937 -4.366,-3.983 -0.502,-0.008 -1.005,-0.012 -1.506,0.001 -3.237,0.083 -4.396,1.314 -4.223,4.485 0.144,2.609 1.392,3.486 4.98,3.494 z m -0.033,-21.669 c 0.252,0 0.502,0.003 0.753,-0.001 3.368,-0.035 4.4,-0.96 4.404,-3.95 0.005,-3.048 -0.963,-3.943 -4.347,-3.996 -0.836,-0.015 -1.682,-0.06 -2.506,0.046 -2.112,0.267 -3.274,1.365 -3.28,3.646 -0.007,3.238 1.102,4.245 4.976,4.255 z M 414.22,289.051 c -0.584,0 -1.243,-0.174 -1.74,0.036 -1.077,0.455 -2.792,0.956 -2.951,1.709 -0.333,1.589 -0.277,3.581 0.441,4.988 0.86,1.686 7.349,1.484 8.617,-0.028 0.4,-0.477 0.661,-1.169 0.748,-1.795 0.525,-3.776 -0.694,-4.928 -5.115,-4.91 z m 13.36,7.767 c 0.251,0 0.501,0.004 0.752,0 3.702,-0.056 4.432,-0.684 4.446,-3.833 0.016,-3.25 -0.768,-3.926 -4.57,-3.947 -0.502,-0.003 -1.004,-0.007 -1.505,10e-4 -3.321,0.057 -4.324,1.137 -4.133,4.44 0.154,2.626 1.206,3.328 5.01,3.339 z m 13.613,0.001 c 4.496,0.004 5.073,-0.564 5.064,-4.442 -0.003,-1.927 -0.817,-2.991 -2.658,-3.288 -4.073,-0.658 -6.765,0.084 -7.386,2.007 -0.075,0.233 -0.073,0.492 -0.104,0.74 -0.446,3.874 0.682,4.979 5.084,4.983 z m -40.604,21.62 c 0.418,0 0.837,0.008 1.254,-0.002 3.072,-0.061 3.976,-0.923 3.988,-3.793 0.012,-3.055 -0.853,-3.891 -4.089,-3.945 -0.584,-0.01 -1.17,-0.008 -1.755,-0.002 -3.688,0.036 -4.388,0.758 -4.293,4.425 0.069,2.719 0.95,3.315 4.895,3.317 z m 13.5,-0.017 c 0.418,0 0.834,0.007 1.251,-0.001 3.069,-0.057 4.008,-0.937 4.029,-3.764 0.021,-2.986 -0.918,-3.89 -4.107,-3.943 -0.584,-0.011 -1.168,-0.007 -1.752,-0.003 -3.718,0.035 -4.442,0.776 -4.309,4.4 0.105,2.798 0.859,3.308 4.888,3.311 z m -13.251,-29.396 c -0.25,0 -0.502,-0.002 -0.753,0 -3.617,0.033 -4.389,0.709 -4.396,3.85 -0.006,3.205 0.736,3.89 4.301,3.965 0.502,0.011 1.005,0.012 1.506,0 3.603,-0.081 4.474,-0.987 4.336,-4.506 -0.102,-2.634 -1.112,-3.303 -4.994,-3.309 z m 26.849,29.398 c 0.25,0 0.501,0.002 0.75,-10e-4 3.608,-0.03 4.347,-0.694 4.335,-3.895 -0.012,-3.145 -0.756,-3.788 -4.418,-3.817 -0.501,-0.004 -1.002,-0.006 -1.503,0 -3.607,0.047 -4.839,1.479 -4.242,5.026 0.515,3.067 2.931,2.646 5.078,2.687 z"
       id="path101"
       inkscape:connector-curvature="0"
       style="clip-rule:evenodd;fill:#ffffff;fill-rule:evenodd" /></g></svg>