<?xml version="1.0" encoding="UTF-8" standalone="no"?>
<!-- Generator: Adobe Illustrator 16.0.0, SVG Export Plug-In . SVG Version: 6.00 Build 0)  -->

<svg
   xmlns:dc="http://purl.org/dc/elements/1.1/"
   xmlns:cc="http://creativecommons.org/ns#"
   xmlns:rdf="http://www.w3.org/1999/02/22-rdf-syntax-ns#"
   xmlns:svg="http://www.w3.org/2000/svg"
   xmlns="http://www.w3.org/2000/svg"
   xmlns:sodipodi="http://sodipodi.sourceforge.net/DTD/sodipodi-0.dtd"
   xmlns:inkscape="http://www.inkscape.org/namespaces/inkscape"
   version="1.1"
   id="Calque_1"
   x="0px"
   y="0px"
   width="153"
   height="153"
   viewBox="0 0 153 152.99999"
   enable-background="new 0 0 841.89 595.28"
   xml:space="preserve"
   inkscape:version="0.91 r"
   sodipodi:docname="19.svg"><metadata
     id="metadata36"><rdf:RDF><cc:Work
         rdf:about=""><dc:format>image/svg+xml</dc:format><dc:type
           rdf:resource="http://purl.org/dc/dcmitype/StillImage" /><dc:title></dc:title></cc:Work></rdf:RDF></metadata><defs
     id="defs34" /><sodipodi:namedview
     pagecolor="#ffffff"
     bordercolor="#666666"
     borderopacity="1"
     objecttolerance="10"
     gridtolerance="10"
     guidetolerance="10"
     inkscape:pageopacity="0"
     inkscape:pageshadow="2"
     inkscape:window-width="640"
     inkscape:window-height="480"
     id="namedview32"
     showgrid="false"
     fit-margin-top="0"
     fit-margin-left="0"
     fit-margin-right="0"
     fit-margin-bottom="0"
     inkscape:zoom="0.37772155"
     inkscape:cx="76.5"
     inkscape:cy="76.5"
     inkscape:window-x="0"
     inkscape:window-y="0"
     inkscape:window-maximized="0"
     inkscape:current-layer="Calque_1" /><g
     id="g20"
     transform="translate(-344.44501,-221.14001)"><circle
       cx="420.94501"
       cy="297.64001"
       r="76.5"
       id="circle22"
       style="fill:#8bb31d" /><circle
       cx="420.94501"
       cy="297.64001"
       r="70.892998"
       id="circle24"
       style="fill:#417a3b" /><g
       id="g26"><path
         d="m 380.593,291.167 c -1.248,3.319 -2.329,5.734 -3.056,8.251 -0.775,2.682 -1.528,5.436 -1.741,8.2 -0.498,6.471 2.672,10.467 9.033,11.741 7.029,1.409 13.879,0.571 20.497,-2.06 8.28,-3.291 10.814,-8.636 8.258,-17.204 -0.351,-1.178 -0.826,-2.333 -1.365,-3.441 -2.861,-5.885 -2.875,-5.878 0.667,-12.403 3.99,4.685 3.447,10.481 4.322,16.027 4.851,0.289 9.336,-0.602 13.375,-2.935 4.173,-2.41 8.143,-5.184 12.146,-7.879 4.871,-3.277 10.049,-5.473 16.072,-5.06 5.84,0.4 9.524,3.501 10.213,9.278 0.551,4.624 0.521,9.317 0.769,14.354 -1.874,0 -3.086,0 -4.298,0 -15.17,10e-4 -30.341,0.051 -45.511,-0.05 -2.415,-0.017 -3.512,0.562 -4.037,3.114 -1.863,9.058 -7.607,14.551 -16.708,15.619 -5.603,0.656 -11.471,0.662 -17.022,-0.246 -7.027,-1.15 -10.367,-6.27 -10.082,-13.426 0.302,-7.596 3.042,-14.44 6.643,-21 0.117,-0.21 0.525,-0.264 1.825,-0.88 z m 53.376,9.029 c 7.168,0 14.337,0.054 21.504,-0.043 1.537,-0.021 3.148,-0.395 4.572,-0.979 0.904,-0.372 2.118,-1.427 2.127,-2.188 0.011,-1.015 -0.78,-2.577 -1.642,-2.953 -2.109,-0.919 -4.439,-1.713 -6.712,-1.807 -7.692,-0.316 -13.665,4.152 -19.849,7.97 z"
         id="path28"
         inkscape:connector-curvature="0"
         style="clip-rule:evenodd;fill:#ffffff;fill-rule:evenodd" /><path
         d="m 432.938,268.091 c 2.368,1.272 4.107,2.206 6.112,3.283 -0.925,1.882 -1.739,3.538 -2.715,5.525 -2.169,-1.103 -4.097,-2.085 -6.398,-3.256 1.042,-1.928 1.948,-3.603 3.001,-5.552 z"
         id="path30"
         inkscape:connector-curvature="0"
         style="clip-rule:evenodd;fill:#ffffff;fill-rule:evenodd" /></g></g></svg>