<?xml version="1.0" encoding="UTF-8" standalone="no"?>
<!-- Generator: Adobe Illustrator 16.0.0, SVG Export Plug-In . SVG Version: 6.00 Build 0)  -->

<svg
   xmlns:dc="http://purl.org/dc/elements/1.1/"
   xmlns:cc="http://creativecommons.org/ns#"
   xmlns:rdf="http://www.w3.org/1999/02/22-rdf-syntax-ns#"
   xmlns:svg="http://www.w3.org/2000/svg"
   xmlns="http://www.w3.org/2000/svg"
   xmlns:sodipodi="http://sodipodi.sourceforge.net/DTD/sodipodi-0.dtd"
   xmlns:inkscape="http://www.inkscape.org/namespaces/inkscape"
   version="1.1"
   id="Calque_1"
   x="0px"
   y="0px"
   width="153"
   height="153"
   viewBox="0 0 153 152.99999"
   enable-background="new 0 0 841.89 595.28"
   xml:space="preserve"
   inkscape:version="0.91 r"
   sodipodi:docname="2.svg"><metadata
     id="metadata17"><rdf:RDF><cc:Work
         rdf:about=""><dc:format>image/svg+xml</dc:format><dc:type
           rdf:resource="http://purl.org/dc/dcmitype/StillImage" /><dc:title></dc:title></cc:Work></rdf:RDF></metadata><defs
     id="defs15" /><sodipodi:namedview
     pagecolor="#ffffff"
     bordercolor="#666666"
     borderopacity="1"
     objecttolerance="10"
     gridtolerance="10"
     guidetolerance="10"
     inkscape:pageopacity="0"
     inkscape:pageshadow="2"
     inkscape:window-width="640"
     inkscape:window-height="480"
     id="namedview13"
     showgrid="false"
     fit-margin-top="0"
     fit-margin-left="0"
     fit-margin-right="0"
     fit-margin-bottom="0"
     inkscape:zoom="0.37772155"
     inkscape:cx="76.5"
     inkscape:cy="76.5"
     inkscape:window-x="0"
     inkscape:window-y="0"
     inkscape:window-maximized="0"
     inkscape:current-layer="Calque_1" /><g
     id="g3"
     transform="translate(-344.44501,-221.14001)"><circle
       cx="420.94501"
       cy="297.64001"
       r="76.5"
       id="circle5"
       style="fill:#8bb31d" /><circle
       cx="420.94501"
       cy="297.64001"
       r="70.892998"
       id="circle7"
       style="fill:#417a3b" /><g
       id="g9"><path
         d="m 381.998,342.644 c 0,-3.038 -10e-4,-6.004 0,-8.968 0.001,-5.146 0.027,-10.293 -0.009,-15.437 -0.008,-1.142 0.346,-2.001 1.18,-2.775 1.592,-1.479 3.171,-2.98 4.656,-4.566 0.998,-1.063 2.098,-1.604 3.554,-1.442 0.496,0.055 1.004,0.009 1.586,0.009 0,-2.939 0,-5.786 0,-8.627 -1.984,-0.794 -2.716,-1.729 -2.635,-3.358 0.079,-1.578 0.985,-2.46 2.946,-3.002 0.718,-2.781 1.167,-5.558 2.148,-8.132 3.675,-9.635 10.186,-16.269 20.499,-18.683 0.313,-0.074 0.585,-0.368 0.853,-0.588 0.61,-0.503 1.152,-1.115 1.823,-1.511 0.563,-0.333 0.82,-0.676 0.894,-1.329 0.189,-1.674 0.227,-1.669 -1.374,-2.238 -5.165,-1.833 -7.885,-7.413 -6.13,-12.577 1.75,-5.154 7.246,-7.955 12.393,-6.313 0.23,0.074 0.453,0.179 0.783,0.31 -4.211,0.815 -6.094,2.498 -6.747,5.939 -0.524,2.766 0.914,6.058 3.452,7.561 3.176,1.881 6.13,1.388 8.837,-1.087 -1.111,3.195 -3.266,5.348 -6.49,6.268 -1.126,0.321 -1.163,0.782 -1.018,1.748 0.14,0.946 0.443,1.625 1.35,1.989 0.194,0.078 0.406,0.223 0.51,0.397 0.881,1.48 2.43,1.751 3.884,2.264 8.351,2.945 13.916,8.811 17.15,16.897 1.143,2.861 1.721,5.947 2.604,9.093 1.519,0.214 2.734,1.141 2.874,3.066 0.112,1.569 -0.731,2.531 -2.761,3.292 0,2.806 0,5.626 0,8.622 0.836,0 1.672,-0.117 2.461,0.034 0.772,0.149 1.652,0.395 2.214,0.899 1.885,1.695 3.691,3.484 5.431,5.327 0.497,0.527 0.93,1.367 0.936,2.065 0.067,8.115 0.046,16.233 0.046,24.352 0,0.14 -0.028,0.281 -0.052,0.502 -25.904,-10e-4 -51.79,-10e-4 -77.848,-10e-4 z m 55.999,-4.771 c 4.927,0 9.689,0 14.565,0 0,-0.41 0,-0.763 0,-1.114 10e-4,-4.521 -0.01,-9.045 0.007,-13.567 0.015,-4.123 -2.179,-7.285 -6.089,-8.634 -0.521,-0.183 -1.146,-0.271 -1.682,-0.173 -3.703,0.687 -6.789,4.437 -6.8,8.201 -0.009,2.932 -0.002,5.862 -0.002,8.792 0.001,2.13 0.001,4.258 0.001,6.495 z m -9.863,0.003 c 0.035,-0.185 0.083,-0.32 0.083,-0.456 -0.004,-5.283 0.021,-10.567 -0.055,-15.852 -0.012,-0.861 -0.331,-1.792 -0.75,-2.561 -1.188,-2.183 -3.064,-3.63 -5.376,-4.491 -0.482,-0.18 -1.078,-0.234 -1.583,-0.142 -3.656,0.661 -6.806,4.497 -6.802,8.209 0.006,4.742 0.006,9.483 0.009,14.226 0,0.348 0,0.697 0,1.066 4.911,10e-4 9.676,10e-4 14.474,10e-4 z m -24.253,0 c 0,-0.638 0,-1.142 0,-1.647 0,-4.349 -10e-4,-8.696 0,-13.044 0.001,-4.104 -2.139,-7.209 -6.021,-8.585 -0.643,-0.227 -1.447,-0.306 -2.102,-0.146 -3.623,0.878 -6.424,4.467 -6.442,8.175 -0.019,3.912 0.001,7.826 0.004,11.739 0,1.152 0,2.304 0,3.508 4.88,0 9.644,0 14.561,0 z m 20.554,-28.588 c 0,-2.633 0.058,-5.129 -0.022,-7.618 -0.05,-1.545 -0.866,-2.778 -2.222,-3.501 -0.446,-0.237 -1.25,-0.234 -1.681,0.017 -1.348,0.786 -2.159,2.003 -2.174,3.636 -0.01,1.121 -0.001,2.243 -0.001,3.363 0,1.355 0,2.713 0,4.104 2.097,-10e-4 4.037,-10e-4 6.1,-10e-4 z m -10.871,-0.011 c 0,-2.713 0.056,-5.349 -0.025,-7.98 -0.038,-1.229 -0.7,-2.251 -1.637,-3.073 -0.562,-0.493 -1.197,-0.555 -1.607,0.032 -0.625,0.893 -1.466,1.867 -1.546,2.86 -0.214,2.681 -0.073,5.39 -0.073,8.161 1.6,0 3.172,0 4.888,0 z m 20.411,0.011 c 0,-2.938 0.083,-5.818 -0.057,-8.688 -0.034,-0.728 -0.686,-1.496 -1.21,-2.114 -0.761,-0.896 -1.345,-0.852 -2.175,0.017 -0.854,0.893 -1.353,1.947 -1.347,3.211 0.007,2.059 0.004,4.12 0.007,6.18 0,0.453 0,0.906 0,1.395 1.696,-10e-4 3.233,-10e-4 4.782,-10e-4 z m -31.054,-0.006 c 0,-2.727 0.113,-5.333 -0.057,-7.922 -0.066,-1.006 -0.689,-2.016 -1.209,-2.938 -0.428,-0.759 -1.164,-0.79 -1.645,-0.028 -0.492,0.777 -1.122,1.642 -1.167,2.496 -0.147,2.767 -0.055,5.549 -0.055,8.392 1.379,0 2.697,0 4.133,0 z m 40.199,0.005 c 0,-2.906 0.075,-5.753 -0.048,-8.593 -0.034,-0.799 -0.591,-1.605 -1.013,-2.348 -0.386,-0.68 -0.96,-0.648 -1.346,0.013 -0.396,0.678 -0.932,1.414 -0.958,2.14 -0.11,2.908 -0.045,5.822 -0.045,8.788 1.145,0 2.249,0 3.41,0 z"
         id="path11"
         inkscape:connector-curvature="0"
         style="clip-rule:evenodd;fill:#ffffff;fill-rule:evenodd" /></g></g></svg>