<?xml version="1.0" encoding="UTF-8" standalone="no"?>
<!-- Generator: Adobe Illustrator 16.0.0, SVG Export Plug-In . SVG Version: 6.00 Build 0)  -->

<svg
   xmlns:dc="http://purl.org/dc/elements/1.1/"
   xmlns:cc="http://creativecommons.org/ns#"
   xmlns:rdf="http://www.w3.org/1999/02/22-rdf-syntax-ns#"
   xmlns:svg="http://www.w3.org/2000/svg"
   xmlns="http://www.w3.org/2000/svg"
   xmlns:sodipodi="http://sodipodi.sourceforge.net/DTD/sodipodi-0.dtd"
   xmlns:inkscape="http://www.inkscape.org/namespaces/inkscape"
   version="1.1"
   id="Calque_1"
   x="0px"
   y="0px"
   width="153"
   height="153"
   viewBox="0 0 153 152.99999"
   enable-background="new 0 0 841.89 595.28"
   xml:space="preserve"
   inkscape:version="0.91 r"
   sodipodi:docname="20.svg"><metadata
     id="metadata53"><rdf:RDF><cc:Work
         rdf:about=""><dc:format>image/svg+xml</dc:format><dc:type
           rdf:resource="http://purl.org/dc/dcmitype/StillImage" /><dc:title></dc:title></cc:Work></rdf:RDF></metadata><defs
     id="defs51" /><sodipodi:namedview
     pagecolor="#ffffff"
     bordercolor="#666666"
     borderopacity="1"
     objecttolerance="10"
     gridtolerance="10"
     guidetolerance="10"
     inkscape:pageopacity="0"
     inkscape:pageshadow="2"
     inkscape:window-width="640"
     inkscape:window-height="480"
     id="namedview49"
     showgrid="false"
     fit-margin-top="0"
     fit-margin-left="0"
     fit-margin-right="0"
     fit-margin-bottom="0"
     inkscape:zoom="0.37772155"
     inkscape:cx="76.5"
     inkscape:cy="76.5"
     inkscape:window-x="0"
     inkscape:window-y="0"
     inkscape:window-maximized="0"
     inkscape:current-layer="Calque_1" /><g
     id="g39"
     transform="translate(-344.44501,-221.14001)"><circle
       cx="420.94501"
       cy="297.64001"
       r="76.5"
       id="circle41"
       style="fill:#8bb31d" /><circle
       cx="420.94501"
       cy="297.64001"
       r="70.892998"
       id="circle43"
       style="fill:#417a3b" /><g
       id="g45"><path
         d="m 408.138,352.891 c -1.769,-1.041 -3.456,-2.033 -5.225,-3.073 0.697,-0.808 1.373,-1.529 1.979,-2.304 4.206,-5.375 7.071,-11.477 9.242,-17.877 1.313,-3.874 2.323,-7.882 3.087,-11.902 0.707,-3.711 -0.821,-6.941 -3.396,-9.587 -3.237,-3.326 -7.208,-5.409 -11.772,-6.259 -6.392,-1.188 -10.613,-5.037 -13.154,-10.811 -3.181,-7.229 -3.658,-14.871 -3.173,-22.838 1.003,0.504 1.896,0.861 2.693,1.367 4.631,2.933 9.335,5.76 13.831,8.889 6.163,4.288 8.717,10.33 7.99,17.807 -0.092,0.946 0.083,2.008 0.443,2.889 1.35,3.301 5.036,8.515 7.462,10.734 0.092,-0.868 0.208,-1.649 0.251,-2.435 0.432,-8.004 0.359,-16.003 -0.061,-24.011 -0.116,-2.217 -0.755,-4.011 -1.98,-5.82 -2.316,-3.421 -3.699,-7.227 -3.942,-11.407 -0.32,-5.508 1.596,-10.242 4.938,-14.485 2.64,-3.352 5.868,-6.061 9.403,-8.45 0.098,0.058 0.231,0.089 0.271,0.167 2.675,5.396 4.741,10.979 5.685,16.977 0.914,5.82 -0.924,10.693 -4.791,14.876 -1.904,2.06 -4.113,3.834 -6.136,5.789 -0.37,0.356 -0.724,0.967 -0.71,1.448 0.146,4.816 0.372,9.63 0.569,14.444 0.102,2.473 0.191,4.946 0.278,7.199 2.159,-1.338 4.342,-2.679 6.507,-4.049 0.302,-0.19 0.519,-0.519 0.764,-0.795 4.306,-4.854 9.572,-7.59 16.184,-6.951 2.222,0.214 4.444,0.814 6.572,1.521 4.806,1.599 9.555,3.369 14.322,5.082 0.407,0.146 0.782,0.386 1.322,0.657 -0.435,0.409 -0.761,0.741 -1.112,1.046 -5.425,4.696 -11.271,8.698 -18.289,10.627 -5.298,1.455 -10.456,1.241 -15.101,-2.036 -1.494,-1.055 -2.829,-2.394 -4.03,-3.782 -0.771,-0.893 -1.431,-1.049 -2.473,-0.7 -2.835,0.946 -4.538,2.965 -4.585,5.888 -0.205,12.777 -4.023,24.537 -9.971,35.7 -1.043,1.958 -2.241,3.835 -3.374,5.747 -0.132,0.22 -0.3,0.417 -0.518,0.718 z"
         id="path47"
         inkscape:connector-curvature="0"
         style="clip-rule:evenodd;fill:#ffffff;fill-rule:evenodd" /></g></g></svg>