<?xml version="1.0" encoding="UTF-8" standalone="no"?>
<!-- Generator: Adobe Illustrator 16.0.0, SVG Export Plug-In . SVG Version: 6.00 Build 0)  -->

<svg
   xmlns:dc="http://purl.org/dc/elements/1.1/"
   xmlns:cc="http://creativecommons.org/ns#"
   xmlns:rdf="http://www.w3.org/1999/02/22-rdf-syntax-ns#"
   xmlns:svg="http://www.w3.org/2000/svg"
   xmlns="http://www.w3.org/2000/svg"
   xmlns:sodipodi="http://sodipodi.sourceforge.net/DTD/sodipodi-0.dtd"
   xmlns:inkscape="http://www.inkscape.org/namespaces/inkscape"
   version="1.1"
   id="Calque_1"
   x="0px"
   y="0px"
   width="153"
   height="153"
   viewBox="0 0 153 152.99999"
   enable-background="new 0 0 841.89 595.28"
   xml:space="preserve"
   inkscape:version="0.91 r"
   sodipodi:docname="21.svg"><metadata
     id="metadata76"><rdf:RDF><cc:Work
         rdf:about=""><dc:format>image/svg+xml</dc:format><dc:type
           rdf:resource="http://purl.org/dc/dcmitype/StillImage" /><dc:title></dc:title></cc:Work></rdf:RDF></metadata><defs
     id="defs74" /><sodipodi:namedview
     pagecolor="#ffffff"
     bordercolor="#666666"
     borderopacity="1"
     objecttolerance="10"
     gridtolerance="10"
     guidetolerance="10"
     inkscape:pageopacity="0"
     inkscape:pageshadow="2"
     inkscape:window-width="721"
     inkscape:window-height="480"
     id="namedview72"
     showgrid="false"
     fit-margin-top="0"
     fit-margin-left="0"
     fit-margin-right="0"
     fit-margin-bottom="0"
     inkscape:zoom="0.37772155"
     inkscape:cx="76.5"
     inkscape:cy="76.5"
     inkscape:window-x="0"
     inkscape:window-y="0"
     inkscape:window-maximized="0"
     inkscape:current-layer="Calque_1" /><g
     id="g56"
     transform="translate(-344.44501,-221.14001)"><circle
       cx="420.94501"
       cy="297.64001"
       r="76.5"
       id="circle58"
       style="fill:#8bb31d" /><circle
       cx="420.94501"
       cy="297.64001"
       r="70.892998"
       id="circle60"
       style="fill:#417a3b" /><g
       id="g62"><path
         d="m 424.158,249.681 c 2.215,0.938 2.771,1.78 2.771,4.198 0.001,5.566 0.002,11.132 0,16.698 -10e-4,2.119 -0.964,3.108 -3.078,3.11 -2.193,0.002 -4.392,0.034 -6.58,-0.087 -1.492,-0.083 -2.308,-1.05 -2.313,-2.539 -0.02,-6.229 -0.015,-12.46 -0.008,-18.689 0.002,-1.375 0.811,-2.184 2.002,-2.691 2.402,0 4.804,0 7.206,0 z"
         id="path64"
         inkscape:connector-curvature="0"
         style="clip-rule:evenodd;fill:#ffffff;fill-rule:evenodd" /><path
         d="m 384.555,345.6 c -0.061,-0.601 -0.137,-1.205 -0.179,-1.811 -0.409,-5.904 -0.373,-11.789 0.911,-17.604 0.762,-3.447 1.955,-6.709 4.332,-9.415 2.012,-2.288 4.581,-3.479 7.594,-3.607 2.474,-0.105 4.955,-0.019 7.432,-0.084 0.451,-0.012 0.976,-0.25 1.326,-0.548 0.97,-0.826 1.912,-1.697 2.775,-2.634 0.548,-0.596 0.91,-0.62 1.568,-0.133 1.971,1.459 4.194,2.428 6.596,2.915 5.5,1.117 10.477,-0.125 14.948,-3.465 0.442,-0.33 0.691,-0.416 1.125,0.039 1.054,1.106 2.192,2.133 3.274,3.214 0.477,0.478 0.979,0.72 1.686,0.698 1.684,-0.053 3.374,0.047 5.057,-0.027 5.229,-0.231 8.789,2.242 11.115,6.754 1.684,3.263 2.523,6.78 3.004,10.388 0.523,3.93 0.721,7.882 0.584,11.846 -0.039,1.144 -0.123,2.285 -0.189,3.474 -24.335,0 -48.616,0 -72.959,0 z"
         id="path66"
         inkscape:connector-curvature="0"
         style="clip-rule:evenodd;fill:#ffffff;fill-rule:evenodd" /><path
         d="m 420.936,282.351 c 6.105,0 12.211,0.02 18.315,-0.023 0.793,-0.005 1.29,0.285 1.751,0.838 2.094,2.515 1.766,6.767 -0.78,8.845 -0.64,0.522 -1.505,0.865 -2.321,1.043 -0.709,0.155 -0.912,0.421 -1.035,1.103 -1.174,6.521 -4.332,11.699 -10.607,14.359 -5.89,2.496 -11.332,1.25 -16.063,-2.919 -3.551,-3.129 -5.406,-7.218 -6.144,-11.854 -0.043,-0.273 -0.335,-0.651 -0.588,-0.728 -3.643,-1.103 -4.938,-5.691 -3.155,-8.935 0.11,-0.201 0.233,-0.396 0.356,-0.59 0.473,-0.744 1.029,-1.174 2.032,-1.165 6.078,0.052 12.158,0.026 18.239,0.026 z"
         id="path68"
         inkscape:connector-curvature="0"
         style="clip-rule:evenodd;fill:#ffffff;fill-rule:evenodd" /><path
         d="m 397.909,272.062 c 0.824,0 1.589,-0.035 2.349,0.012 0.527,0.033 0.789,-0.151 0.937,-0.652 0.66,-2.239 1.593,-4.357 2.864,-6.32 2.096,-3.232 4.699,-5.95 8.016,-7.951 0.346,-0.209 0.689,-0.424 1.195,-0.734 0,0.39 0,0.648 0,0.907 0,4.444 -0.002,8.888 0.001,13.332 0.002,2.931 1.784,4.757 4.703,4.758 2.321,0.001 4.652,0.053 6.961,-0.137 2.237,-0.184 3.676,-1.947 3.699,-4.228 0.026,-2.604 0.007,-5.21 0.007,-7.815 0,-1.915 0,-3.831 0,-5.746 0,-0.273 0,-0.546 0,-1.018 0.851,0.516 1.584,0.9 2.254,1.376 4.662,3.308 7.957,7.637 9.66,13.118 0.259,0.835 0.607,1.253 1.535,1.116 0.596,-0.089 1.215,-0.017 1.874,-0.017 0,2.282 0,4.493 0,6.816 -0.306,0 -0.577,0 -0.849,0 -14.813,0 -29.627,-0.003 -44.441,0.014 -0.631,0.001 -0.841,-0.168 -0.826,-0.81 0.039,-1.736 0.014,-3.474 0.018,-5.21 0,-0.25 0.026,-0.499 0.043,-0.811 z"
         id="path70"
         inkscape:connector-curvature="0"
         style="clip-rule:evenodd;fill:#ffffff;fill-rule:evenodd" /></g></g></svg>