<?xml version="1.0" encoding="UTF-8" standalone="no"?>
<!-- Generator: Adobe Illustrator 16.0.0, SVG Export Plug-In . SVG Version: 6.00 Build 0)  -->

<svg
   xmlns:dc="http://purl.org/dc/elements/1.1/"
   xmlns:cc="http://creativecommons.org/ns#"
   xmlns:rdf="http://www.w3.org/1999/02/22-rdf-syntax-ns#"
   xmlns:svg="http://www.w3.org/2000/svg"
   xmlns="http://www.w3.org/2000/svg"
   xmlns:sodipodi="http://sodipodi.sourceforge.net/DTD/sodipodi-0.dtd"
   xmlns:inkscape="http://www.inkscape.org/namespaces/inkscape"
   version="1.1"
   id="Calque_1"
   x="0px"
   y="0px"
   width="153"
   height="153"
   viewBox="0 0 153 152.99999"
   enable-background="new 0 0 841.89 595.28"
   xml:space="preserve"
   inkscape:version="0.91 r"
   sodipodi:docname="Icon Programming.svg"><metadata
     id="metadata39"><rdf:RDF><cc:Work
         rdf:about=""><dc:format>image/svg+xml</dc:format><dc:type
           rdf:resource="http://purl.org/dc/dcmitype/StillImage" /><dc:title></dc:title></cc:Work></rdf:RDF></metadata><defs
     id="defs37" /><sodipodi:namedview
     pagecolor="#ffffff"
     bordercolor="#666666"
     borderopacity="1"
     objecttolerance="10"
     gridtolerance="10"
     guidetolerance="10"
     inkscape:pageopacity="0"
     inkscape:pageshadow="2"
     inkscape:window-width="1366"
     inkscape:window-height="716"
     id="namedview35"
     showgrid="false"
     fit-margin-top="0"
     fit-margin-left="0"
     fit-margin-right="0"
     fit-margin-bottom="0"
     inkscape:zoom="0.37772155"
     inkscape:cx="76.5"
     inkscape:cy="76.5"
     inkscape:window-x="0"
     inkscape:window-y="0"
     inkscape:window-maximized="1"
     inkscape:current-layer="Calque_1" /><g
     id="g3"
     transform="translate(-344.44501,-221.14001)"><circle
       cx="420.94501"
       cy="297.64001"
       r="76.5"
       id="circle5"
       style="fill:#8bb31d" /><circle
       cx="420.94501"
       cy="297.64001"
       r="70.892998"
       id="circle7"
       style="fill:#417a3b" /><g
       id="g9"><g
         id="g11"><path
           d="m 440.555,304.781 c -1.33,-1.41 -1.32,-2.761 -1.311,-3.951 0.01,-0.18 0.01,-0.369 0,-0.56 -0.05,-3.02 -0.039,-6.1 -0.029,-9.07 0.01,-1.14 0.01,-2.28 0.01,-3.42 0,-2.29 0.01,-3.81 -0.381,-4.42 -0.27,-0.45 -0.989,-0.6 -2.829,-0.6 -0.53,0 -1.13,0.01 -1.82,0.02 -1.29,0.03 -2.28,0.48 -2.59,1.19 -0.25,0.56 -0.04,1.27 0.601,1.99 1.43,1.6 1.319,3.01 1.199,4.64 -0.02,0.21 -0.04,0.43 -0.05,0.66 -0.011,0.2 -0.11,0.4 -0.271,0.53 -0.14,0.11 -0.31,0.17 -0.479,0.17 -0.03,0 -0.069,0 -0.101,-0.01 -0.529,-0.07 -1.039,-0.15 -1.529,-0.23 -0.95,-0.16 -1.84,-0.31 -2.68,-0.31 -2.01,0.01 -3.75,0.73 -5.07,2.07 -1.51,1.53 -2.33,3.75 -2.31,6.24 0.05,4.54 3.009,8.369 6.46,8.369 0.25,0 0.5,-0.02 0.75,-0.059 1.209,-0.191 2.51,-0.271 4.1,-0.271 0.83,0 1.67,0.021 2.48,0.04 0.799,0.02 1.629,0.05 2.43,0.05 0.58,0 1.1,-0.011 1.59,-0.04 1.119,-0.05 2.029,-0.55 2.33,-1.27 0.219,-0.549 0.039,-1.168 -0.5,-1.758 z m -7.09,-4.131 c -0.221,1.51 -0.551,3.801 -3.061,3.801 -3.22,-0.011 -3.27,-3.24 -3.3,-4.98 -0.021,-1.17 -0.08,-4.73 3.069,-4.79 l 0.08,0 c 2.57,0 2.91,2.2 3.131,3.66 0.06,0.41 0.119,0.791 0.199,1.121 0.03,0.109 0.041,0.229 0.021,0.34 -0.059,0.268 -0.1,0.558 -0.139,0.848 z"
           id="path13"
           inkscape:connector-curvature="0"
           style="clip-rule:evenodd;fill:#ffffff;fill-rule:evenodd" /></g><g
         id="g15"><path
           d="m 410.594,291.36 c -0.34,-0.04 -0.69,-0.05 -1.03,-0.05 -2.73,0 -5.09,1.01 -7.21,3.09 -0.97,1.56 -1.58,3.4 -1.86,5.61 l 0.07,1.26 0.5,1.06 1.55,3.26 1.4,1.23 0.68,0.4 0.61,0.359 c 0.48,0.08 0.95,0.181 1.42,0.28 1.1,0.229 2.13,0.44 3.17,0.46 l 0.18,0 c 4.87,0 8.43,-3.26 8.66,-7.92 0.25,-5.019 -2.94,-8.568 -8.14,-9.039 z m 2.191,9.601 c -0.16,1.72 -0.38,4.08 -2.89,4.08 -0.07,0 -0.14,0 -0.21,-0.01 -3.26,-0.171 -3.17,-3.91 -3.13,-5.511 0.04,-1.68 0.11,-4.8 2.98,-4.85 l 0.09,0 c 2.75,0 2.96,2.26 3.08,3.61 0.04,0.45 0.08,0.889 0.18,1.2 0.04,0.109 0.05,0.23 0.03,0.34 -0.061,0.361 -0.091,0.741 -0.13,1.141 z"
           id="path17"
           inkscape:connector-curvature="0"
           style="clip-rule:evenodd;fill:#ffffff;fill-rule:evenodd" /></g><g
         id="g19"><path
           d="m 450.754,300.69 c 0.261,0 0.531,0.03 0.791,0.07 0.209,0.03 0.42,0.06 0.58,0.06 0.039,0 0.09,0 0.129,-0.01 0.34,-0.05 0.701,-0.08 1.16,-0.08 0.271,0 0.551,0.01 0.851,0.02 0.29,0.011 0.6,0.021 0.93,0.021 0.261,-0.08 0.54,-0.12 0.87,-0.12 0.439,0 0.9,0.07 1.34,0.141 0.42,0.069 0.811,0.129 1.17,0.129 0.62,0 0.93,-0.18 1.16,-0.709 0.85,-1.97 0.38,-4.32 -1.27,-6.291 -1.5,-1.78 -3.851,-2.81 -6.44,-2.81 -3.79,0 -7.14,2.09 -8.33,5.19 -1.36,3.56 -0.53,7.67 2.03,9.99 1.529,1.399 4.01,2.229 6.63,2.229 1.931,0 3.76,-0.431 5.319,-1.239 0.24,-0.131 0.5,-0.23 0.781,-0.33 0.389,-0.141 1.029,-0.371 1.109,-0.591 0.029,-0.06 0.01,-0.22 -0.13,-0.47 l -0.091,-0.189 c -0.529,-1.021 -1,-1.811 -1.709,-1.811 -0.32,0 -0.711,0.15 -1.15,0.43 -0.9,0.57 -1.99,0.881 -3.09,0.881 -0.37,0 -0.75,-0.031 -1.109,-0.101 -1.141,-0.229 -3.5,-0.69 -3.211,-2.96 0.111,-0.919 0.721,-1.45 1.68,-1.45 z m -1.01,-5.279 c 0.53,-0.53 1.36,-0.82 2.381,-0.82 l 0.16,0 c 0.979,0.03 1.789,0.35 2.27,0.89 0.38,0.44 0.55,1 0.48,1.63 -0.101,0.99 -0.691,1.56 -1.611,1.56 -0.219,0 -0.43,-0.03 -0.639,-0.06 -0.171,-0.02 -0.32,-0.04 -0.451,-0.04 -0.08,0 -0.109,0.01 -0.109,0.01 -0.1,0.04 -0.21,0.06 -0.311,0.06 -0.07,0 -0.129,-0.01 -0.189,-0.03 -0.01,0 -0.061,-0.01 -0.16,-0.01 -0.12,0 -0.25,0.01 -0.38,0.02 -0.181,0.02 -0.351,0.03 -0.511,0.03 -0.979,0 -1.549,-0.57 -1.56,-1.56 -0.01,-0.66 0.21,-1.251 0.63,-1.68 z"
           id="path21"
           inkscape:connector-curvature="0"
           style="clip-rule:evenodd;fill:#ffffff;fill-rule:evenodd" /></g><g
         id="g23"><path
           d="m 398.265,305.621 c -2.22,1.459 -4.65,2.76 -7.49,2.76 -0.16,0 -0.33,-0.01 -0.49,-0.021 -3.88,-0.2 -6.46,-1.78 -7.9,-4.819 -1.53,-3.25 -0.96,-7.541 1.31,-9.78 1.63,-1.6 3.38,-2.41 5.2,-2.41 1.16,0 2.35,0.33 3.56,0.97 0.35,0.19 0.68,0.28 1.01,0.28 0.6,0 1.02,-0.32 1.3,-0.53 0.09,-0.07 0.23,-0.17 0.28,-0.18 0.21,-0.04 0.43,-0.08 0.65,-0.12 0.48,-0.1 0.98,-0.2 1.4,-0.2 0.47,0 1.06,0 1.13,1.5 -0.23,0.88 -0.18,1.75 -0.13,2.6 0.07,1.03 0.12,1.94 -0.33,2.75 l -0.36,0.01 -0.72,0.02 -1.98,0 c -0.02,-0.01 -0.04,-0.03 -0.06,-0.05 -0.1,-0.09 -0.26,-0.23 -0.28,-0.29 -0.11,-0.25 -0.21,-0.54 -0.31,-0.84 -0.36,-1.12 -0.86,-2.66 -2.63,-2.66 -0.31,0 -0.64,0.05 -1,0.15 -2.91,0.8 -2.85,3.86 -2.83,5.01 0.06,3.06 1.51,4.54 4.41,4.54 0.52,0 1.08,-0.04 1.72,-0.13 0.74,-0.04 1.29,-0.45 1.72,-0.78 0.38,-0.279 0.62,-0.46 0.89,-0.48 l 0.17,0.201 0.26,0.289 c 0.19,0.53 0.56,0.92 0.89,1.26 0.4,0.43 0.59,0.659 0.61,0.95 z"
           id="path25"
           inkscape:connector-curvature="0"
           style="clip-rule:evenodd;fill:#ffffff;fill-rule:evenodd" /></g><g
         id="g27"><path
           d="m 375.214,305.67 -0.1,0.271 c -0.1,0.271 -0.19,0.39 -0.22,0.431 -0.14,-0.041 -0.41,-0.221 -0.59,-0.33 -0.14,-0.101 -0.28,-0.201 -0.42,-0.271 -2.54,-1.45 -5.09,-2.931 -7.8,-4.5 l -2.06,-1.2 1.28,-0.74 c 2.96,-1.709 5.75,-3.31 8.53,-4.919 0.11,-0.07 0.22,-0.13 0.33,-0.2 0.23,-0.15 0.58,-0.37 0.73,-0.37 0.03,0.02 0.13,0.12 0.24,0.42 l 0.05,0.11 c 0.46,1.18 0.5,1.49 -0.23,1.89 -1.1,0.61 -2.18,1.26 -3.43,2 -0.6,0.36 -1.24,0.739 -1.95,1.149 -0.22,0.131 -0.37,0.381 -0.37,0.641 0,0.27 0.14,0.52 0.37,0.65 l 1.75,1.029 c 1.36,0.801 2.52,1.49 3.68,2.16 0.661,0.39 0.641,0.66 0.21,1.779 z"
           id="path29"
           inkscape:connector-curvature="0"
           style="clip-rule:evenodd;fill:#ffffff;fill-rule:evenodd" /></g><g
         id="g31"><path
           d="m 477.864,300.031 -2.06,1.199 c -2.91,1.689 -5.65,3.29 -8.381,4.91 -0.289,0.17 -0.42,0.18 -0.43,0.189 0,0 -0.08,-0.06 -0.18,-0.34 -0.04,-0.1 -0.07,-0.209 -0.109,-0.31 -0.41,-1.101 -0.44,-1.399 0.189,-1.78 1.09,-0.65 2.189,-1.29 3.449,-2.02 l 1.941,-1.141 c 0.229,-0.13 0.369,-0.369 0.369,-0.64 0,-0.261 -0.13,-0.511 -0.359,-0.649 -0.631,-0.381 -1.211,-0.73 -1.75,-1.071 -1.16,-0.73 -2.16,-1.36 -3.24,-1.89 -0.94,-0.47 -1.07,-0.96 -0.57,-2.18 0.17,-0.4 0.301,-0.51 0.33,-0.53 0.141,0.01 0.49,0.25 0.71,0.4 0.181,0.13 0.36,0.26 0.54,0.36 2.41,1.36 4.84,2.77 7.42,4.25 l 2.131,1.243 z"
           id="path33"
           inkscape:connector-curvature="0"
           style="clip-rule:evenodd;fill:#ffffff;fill-rule:evenodd" /></g></g></g></svg>