<?xml version="1.0" encoding="UTF-8" standalone="no"?>
<!-- Generator: Adobe Illustrator 16.0.0, SVG Export Plug-In . SVG Version: 6.00 Build 0)  -->

<svg
   xmlns:dc="http://purl.org/dc/elements/1.1/"
   xmlns:cc="http://creativecommons.org/ns#"
   xmlns:rdf="http://www.w3.org/1999/02/22-rdf-syntax-ns#"
   xmlns:svg="http://www.w3.org/2000/svg"
   xmlns="http://www.w3.org/2000/svg"
   xmlns:sodipodi="http://sodipodi.sourceforge.net/DTD/sodipodi-0.dtd"
   xmlns:inkscape="http://www.inkscape.org/namespaces/inkscape"
   version="1.1"
   id="Calque_1"
   x="0px"
   y="0px"
   width="153"
   height="153"
   viewBox="0 0 153 152.99999"
   enable-background="new 0 0 841.89 595.28"
   xml:space="preserve"
   inkscape:version="0.91 r"
   sodipodi:docname="Icon SVT.svg"><metadata
     id="metadata21"><rdf:RDF><cc:Work
         rdf:about=""><dc:format>image/svg+xml</dc:format><dc:type
           rdf:resource="http://purl.org/dc/dcmitype/StillImage" /><dc:title></dc:title></cc:Work></rdf:RDF></metadata><defs
     id="defs19" /><sodipodi:namedview
     pagecolor="#ffffff"
     bordercolor="#666666"
     borderopacity="1"
     objecttolerance="10"
     gridtolerance="10"
     guidetolerance="10"
     inkscape:pageopacity="0"
     inkscape:pageshadow="2"
     inkscape:window-width="719"
     inkscape:window-height="480"
     id="namedview17"
     showgrid="false"
     fit-margin-top="0"
     fit-margin-left="0"
     fit-margin-right="0"
     fit-margin-bottom="0"
     inkscape:zoom="0.37772155"
     inkscape:cx="76.5"
     inkscape:cy="76.5"
     inkscape:window-x="0"
     inkscape:window-y="0"
     inkscape:window-maximized="0"
     inkscape:current-layer="Calque_1" /><g
     id="g3"
     transform="translate(-344.44501,-221.14001)"><circle
       cx="420.94501"
       cy="297.64001"
       r="76.5"
       id="circle5"
       style="fill:#8bb31d" /><circle
       cx="420.94501"
       cy="297.64001"
       r="70.892998"
       id="circle7"
       style="fill:#417a3b" /><g
       id="g9"><g
         id="g11"><path
           d="m 447.097,338.92 -0.06,-0.729 c -1.04,-12.95 -6.48,-24.34 -16.641,-34.81 -3.22,-3.311 -3.22,-6.041 0,-9.4 10.931,-11.4 16.62,-25.13 16.9,-40.82 0.04,-1.91 -0.391,-3.43 -1.21,-4.28 -0.58,-0.6 -1.37,-0.9 -2.42,-0.91 l -0.09,0 c -1.761,0 -3.41,0.57 -3.53,4.73 -0.11,3.48 -1.71,5.1 -5.05,5.1 l -0.271,-0.01 c -2.07,-0.05 -4.26,-0.07 -7.1,-0.07 -1.37,0 -2.74,0.01 -4.11,0.01 -1.37,0.01 -2.74,0.01 -4.11,0.01 -1.159,0 -2.31,0 -3.569,-0.01 -1.15,0 -1.99,0.21 -2.37,0.6 -0.3,0.32 -0.35,0.89 -0.33,1.31 0.02,0.78 0.05,1.52 2.71,1.52 l 0.16,0 c 2.46,-0.03 5,-0.04 7.75,-0.04 2.899,0 5.95,0.01 9.91,0.05 0.12,0 0.26,-0.02 0.399,-0.03 0.261,-0.03 0.551,-0.05 0.86,-0.05 2.11,0 2.99,1.36 3.32,2.17 1.02,2.45 -0.66,5.28 -1.19,6.09 -1.41,2.12 -3.22,3.34 -4.99,3.35 -0.989,0.01 -1.979,0.01 -2.979,0.01 -1.641,0 -3.28,-0.01 -4.92,-0.01 -1.63,-0.01 -3.271,-0.01 -4.91,-0.01 -3.68,0 -6.51,0.03 -9.15,0.1 l -0.22,0 c -3.77,0 -4.95,-2.42 -5.57,-4.52 -1.399,-4.8 -2.17,-9.99 -2.37,-15.87 -0.06,-1.77 -0.35,-2.69 -1.06,-3.38 -0.79,-0.75 -1.6,-1.12 -2.48,-1.12 -0.42,0 -0.859,0.09 -1.319,0.26 -1.19,0.46 -2.561,1.39 -2.5,4.5 0.25,13.82 4.47,26.01 12.55,36.25 l 0.64,0.81 c 0.66,0.84 1.33,1.69 1.78,2.19 0.21,-0.2 0.46,-0.44 0.68,-0.66 0.551,-0.53 1.21,-1.17 2.061,-1.92 1.47,-1.31 2.22,-2.31 2.21,-2.99 -0.01,-0.55 -0.57,-1.31 -1.57,-2.13 -0.8,-0.66 -1.31,-1.49 -1.75,-2.21 -0.17,-0.29 -0.33,-0.54 -0.479,-0.76 -0.41,-0.57 -1.48,-2.08 -0.69,-3.63 0.521,-1 1.561,-1.52 3.11,-1.52 2.54,-0.01 5.09,-0.01 7.72,-0.01 l 11.28,0 c 0.569,0 1.09,0.33 1.34,0.84 0.25,0.51 0.189,1.12 -0.15,1.57 l -0.62,0.81 c -0.779,1.02 -1.489,1.99 -2.17,2.92 l -0.04,0.05 c -1.47,2 -2.72,3.71 -4.199,5.33 -2.521,2.78 -5.131,5.54 -7.65,8.21 l -0.16,0.17 c -3.359,3.561 -6.84,7.24 -10.12,10.96 -8.689,9.86 -13.319,21.57 -13.739,34.8 -0.07,2.19 0.34,3.83 1.18,4.721 0.56,0.59 1.34,0.89 2.39,0.92 l 0.19,0 c 1.63,0 3.26,-0.391 3.51,-5.1 0.17,-3.25 1.8,-4.83 4.96,-4.83 l 0.18,0 c 2.141,0.039 4.46,0.06 7.32,0.06 0.76,0 2.65,-0.011 4.54,-0.011 1.89,-0.01 3.79,-0.01 4.55,-0.01 l 2.44,0 c 1.75,0 2.35,-0.43 2.52,-0.609 0.08,-0.08 0.34,-0.35 0.3,-1.23 -0.029,-0.72 -0.06,-1.46 -2.729,-1.46 l -0.19,0 c -2.39,0.03 -4.84,0.04 -7.46,0.04 -2.91,0 -6.02,-0.02 -9.8,-0.05 -0.12,0 -0.25,0.01 -0.39,0.03 -0.28,0.02 -0.58,0.05 -0.891,0.05 -2.06,0 -2.96,-1.271 -3.31,-2.021 -0.96,-2.05 0.29,-4.55 1.11,-5.859 0.71,-1.11 2.619,-3.711 5.109,-3.73 1.55,-0.01 3.101,-0.01 4.65,-0.01 l 8.08,0.01 c 2.41,0 5.6,-0.01 8.859,-0.061 l 0.11,0 c 3.271,0 4.46,2.08 5.14,3.9 2.271,6.061 2.811,12.301 3.021,17.07 0.12,2.51 1.18,3.65 3.55,3.8 0.09,0.011 0.18,0.011 0.26,0.011 1.98,0 3.34,-1.511 3.46,-3.86 0.076,-1.471 -0.053,-3.061 -0.183,-4.592 z m -36.26,-21.01 c -0.13,-0.229 -0.13,-0.529 0.02,-0.76 l 0.48,-0.76 c 1.83,-2.91 3.87,-5.15 5.83,-7.311 0.47,-0.51 0.93,-1.02 1.39,-1.539 0.61,-0.69 1.35,-1.42 2.42,-1.42 0.78,0 1.51,0.41 2.23,1.25 0.62,0.709 1.239,1.399 1.88,2.1 1.859,2.07 3.79,4.21 5.479,6.92 l 0.471,0.77 c 0.149,0.23 0.149,0.521 0.02,0.76 -0.13,0.23 -0.38,0.381 -0.65,0.381 l -18.909,0 c -0.281,0 -0.531,-0.151 -0.661,-0.391 z"
           id="path13"
           inkscape:connector-curvature="0"
           style="clip-rule:evenodd;fill:#ffffff;fill-rule:evenodd" /><path
           d="m 431.677,316.761 -0.48,-0.771 c -1.72,-2.77 -3.67,-4.93 -5.56,-7.02 -0.61,-0.68 -1.24,-1.381 -1.86,-2.09 -0.87,-1.021 -1.79,-1.51 -2.8,-1.51 -1.5,0 -2.47,1.09 -2.99,1.68 -0.449,0.51 -0.909,1.02 -1.369,1.52 -1.99,2.19 -4.051,4.45 -5.91,7.42 l -0.49,0.76 c -0.29,0.471 -0.3,1.051 -0.04,1.531 0.27,0.479 0.77,0.77 1.32,0.77 l 18.909,0 c 0.54,0 1.04,-0.29 1.311,-0.77 0.259,-0.48 0.249,-1.06 -0.041,-1.52 z m -19.7,0.03 c 1.79,-2.86 3.8,-5.07 5.75,-7.211 0.46,-0.51 0.93,-1.02 1.391,-1.539 0.52,-0.59 1.1,-1.17 1.859,-1.17 0.561,0 1.09,0.31 1.67,0.979 0.61,0.72 1.24,1.42 1.88,2.13 1.841,2.04 3.75,4.15 5.4,6.811 l 0.479,0.76 -18.909,0 0.48,-0.76 z m 19.7,-0.03 -0.48,-0.771 c -1.72,-2.77 -3.67,-4.93 -5.56,-7.02 -0.61,-0.68 -1.24,-1.381 -1.86,-2.09 -0.87,-1.021 -1.79,-1.51 -2.8,-1.51 -1.5,0 -2.47,1.09 -2.99,1.68 -0.449,0.51 -0.909,1.02 -1.369,1.52 -1.99,2.19 -4.051,4.45 -5.91,7.42 l -0.49,0.76 c -0.29,0.471 -0.3,1.051 -0.04,1.531 0.27,0.479 0.77,0.77 1.32,0.77 l 18.909,0 c 0.54,0 1.04,-0.29 1.311,-0.77 0.259,-0.48 0.249,-1.06 -0.041,-1.52 z m -19.7,0.03 c 1.79,-2.86 3.8,-5.07 5.75,-7.211 0.46,-0.51 0.93,-1.02 1.391,-1.539 0.52,-0.59 1.1,-1.17 1.859,-1.17 0.561,0 1.09,0.31 1.67,0.979 0.61,0.72 1.24,1.42 1.88,2.13 1.841,2.04 3.75,4.15 5.4,6.811 l 0.479,0.76 -18.909,0 0.48,-0.76 z m 19.7,-0.03 -0.48,-0.771 c -1.72,-2.77 -3.67,-4.93 -5.56,-7.02 -0.61,-0.68 -1.24,-1.381 -1.86,-2.09 -0.87,-1.021 -1.79,-1.51 -2.8,-1.51 -1.5,0 -2.47,1.09 -2.99,1.68 -0.449,0.51 -0.909,1.02 -1.369,1.52 -1.99,2.19 -4.051,4.45 -5.91,7.42 l -0.49,0.76 c -0.29,0.471 -0.3,1.051 -0.04,1.531 0.27,0.479 0.77,0.77 1.32,0.77 l 18.909,0 c 0.54,0 1.04,-0.29 1.311,-0.77 0.259,-0.48 0.249,-1.06 -0.041,-1.52 z m -19.7,0.03 c 1.79,-2.86 3.8,-5.07 5.75,-7.211 0.46,-0.51 0.93,-1.02 1.391,-1.539 0.52,-0.59 1.1,-1.17 1.859,-1.17 0.561,0 1.09,0.31 1.67,0.979 0.61,0.72 1.24,1.42 1.88,2.13 1.841,2.04 3.75,4.15 5.4,6.811 l 0.479,0.76 -18.909,0 0.48,-0.76 z"
           id="path15"
           inkscape:connector-curvature="0"
           style="fill:#417a3b" /></g></g></g></svg>