<?xml version="1.0" encoding="UTF-8" standalone="no"?>
<!-- Generator: Adobe Illustrator 16.0.0, SVG Export Plug-In . SVG Version: 6.00 Build 0)  -->

<svg
   xmlns:dc="http://purl.org/dc/elements/1.1/"
   xmlns:cc="http://creativecommons.org/ns#"
   xmlns:rdf="http://www.w3.org/1999/02/22-rdf-syntax-ns#"
   xmlns:svg="http://www.w3.org/2000/svg"
   xmlns="http://www.w3.org/2000/svg"
   xmlns:sodipodi="http://sodipodi.sourceforge.net/DTD/sodipodi-0.dtd"
   xmlns:inkscape="http://www.inkscape.org/namespaces/inkscape"
   version="1.1"
   id="Calque_1"
   x="0px"
   y="0px"
   width="153"
   height="153"
   viewBox="0 0 153 152.99999"
   enable-background="new 0 0 841.89 595.28"
   xml:space="preserve"
   inkscape:version="0.91 r"
   sodipodi:docname="Icon Math.svg"><metadata
     id="metadata35"><rdf:RDF><cc:Work
         rdf:about=""><dc:format>image/svg+xml</dc:format><dc:type
           rdf:resource="http://purl.org/dc/dcmitype/StillImage" /><dc:title></dc:title></cc:Work></rdf:RDF></metadata><defs
     id="defs33" /><sodipodi:namedview
     pagecolor="#ffffff"
     bordercolor="#666666"
     borderopacity="1"
     objecttolerance="10"
     gridtolerance="10"
     guidetolerance="10"
     inkscape:pageopacity="0"
     inkscape:pageshadow="2"
     inkscape:window-width="719"
     inkscape:window-height="480"
     id="namedview31"
     showgrid="false"
     fit-margin-top="0"
     fit-margin-left="0"
     fit-margin-right="0"
     fit-margin-bottom="0"
     inkscape:zoom="0.37772155"
     inkscape:cx="76.5"
     inkscape:cy="76.5"
     inkscape:window-x="0"
     inkscape:window-y="0"
     inkscape:window-maximized="0"
     inkscape:current-layer="Calque_1" /><g
     id="g3"
     transform="translate(-344.44501,-221.14001)"><circle
       cx="420.94501"
       cy="297.64001"
       r="76.5"
       id="circle5"
       style="fill:#8bb31d" /><circle
       cx="420.94501"
       cy="297.64001"
       r="70.892998"
       id="circle7"
       style="fill:#417a3b" /><g
       id="g9"><g
         id="g11"><path
           d="m 460.49,274.25 c -0.561,1.12 -1.5,1.62 -3.061,1.62 l -11.779,0 c -0.021,0 -0.04,0 -0.061,0.01 l -11,0 -0.17,-0.01 c -0.49,0 -1,0 -1.47,-0.07 -1.561,-0.22 -2.66,-1.5 -2.561,-2.96 0.11,-1.56 1.28,-2.66 2.851,-2.68 2.59,-0.02 5.16,-0.02 7.33,-0.02 l 8.46,0 c 1.01,-0.01 2.029,-0.01 3.04,-0.01 2.34,0 4.13,0.01 5.81,0.03 1.08,0.02 2,0.52 2.53,1.37 0.501,0.821 0.531,1.81 0.081,2.72 z"
           id="path13"
           inkscape:connector-curvature="0"
           style="clip-rule:evenodd;fill:#ffffff;fill-rule:evenodd" /></g><g
         id="g15"><path
           d="m 411.5,272.891 c 0.07,1.41 -1,2.69 -2.38,2.86 -0.93,0.11 -1.89,0.12 -2.79,0.12 l -1.26,0 c -0.74,0.01 -1.48,0.01 -2.221,0.01 l -1.659,0 -1.761,-0.01 c -0.14,0 -0.25,0.12 -0.25,0.25 l 0,2.27 c 0,1.96 0,3.87 -0.01,5.78 0,0.57 -0.01,1.12 -0.1,1.64 -0.24,1.36 -1.431,2.39 -2.75,2.39 l -0.13,0 c -1.53,-0.08 -2.66,-1.21 -2.7,-2.69 -0.05,-1.83 -0.04,-3.69 -0.04,-5.49 l 0,-3.9 c 0,-0.13 -0.11,-0.25 -0.25,-0.25 l -2.8,0 c -0.591,0 -1.181,0.01 -1.771,0.01 l -1.77,0 c -0.88,0 -1.771,0 -2.65,-0.02 -1.86,-0.05 -3.14,-1.25 -3.12,-2.92 0.01,-1.66 1.3,-2.78 3.21,-2.79 0.91,-0.01 1.82,-0.01 2.73,-0.01 l 4.729,0 c 0.3,0 0.59,-0.02 0.94,-0.04 l 0.51,-0.02 c 0.14,-0.01 0.24,-0.12 0.24,-0.25 l 0,-7.1 c -0.01,-0.69 -0.01,-1.4 0.01,-2.09 0.05,-1.59 1.16,-2.76 2.68,-2.85 0.061,-0.01 0.11,-0.01 0.17,-0.01 1.471,0 2.66,1.09 2.78,2.54 0.101,1.31 0.09,2.65 0.09,3.95 -0.01,0.52 -0.01,1.04 -0.01,1.57 0.01,0.89 0.01,1.79 0.01,2.73 l 0,1.33 c 0,0.13 0.11,0.25 0.25,0.25 l 2.17,-0.01 2.061,0 2.88,0.01 0.05,0 0.521,-0.01 0.51,0 c 0.33,0 0.76,0.01 1.189,0.03 1.512,0.1 2.622,1.22 2.692,2.72 z"
           id="path17"
           inkscape:connector-curvature="0"
           style="clip-rule:evenodd;fill:#ffffff;fill-rule:evenodd" /></g><g
         id="g19"><path
           d="m 460.8,328.461 c 0,0.82 -0.31,1.539 -0.89,2.06 -0.59,0.521 -1.44,0.81 -2.37,0.81 -3.84,0.01 -7.67,0.01 -11.5,0.01 -4.15,0 -8.29,0 -12.43,-0.01 -1.841,0 -3.19,-1.18 -3.221,-2.81 -0.02,-0.76 0.25,-1.45 0.761,-1.979 0.6,-0.601 1.47,-0.94 2.46,-0.94 1.75,-0.011 3.5,-0.011 5.25,-0.011 l 18.67,0 c 1.92,-0.001 3.27,1.18 3.27,2.87 z"
           id="path21"
           inkscape:connector-curvature="0"
           style="clip-rule:evenodd;fill:#ffffff;fill-rule:evenodd" /></g><g
         id="g23"><path
           d="m 460.8,316.141 c 0.01,1.67 -1.319,2.88 -3.149,2.88 -4,0.011 -8.011,0.021 -12.021,0.021 -4.01,0 -8.02,-0.01 -12.02,-0.021 -0.99,0 -1.86,-0.34 -2.45,-0.95 -0.521,-0.529 -0.79,-1.24 -0.771,-1.99 0.04,-1.68 1.311,-2.77 3.221,-2.77 1.739,-0.01 3.47,-0.01 5.21,-0.01 l 3.47,0 3.46,0.01 3.31,-0.01 3.311,0 c 1.76,0 3.53,0 5.29,0.01 1.879,0 3.139,1.14 3.139,2.83 z"
           id="path25"
           inkscape:connector-curvature="0"
           style="clip-rule:evenodd;fill:#ffffff;fill-rule:evenodd" /></g><g
         id="g27"><path
           d="m 411.5,334.73 c 0,0.689 -0.31,1.37 -0.89,1.93 -0.551,0.551 -1.221,0.84 -1.92,0.84 -0.811,0 -1.62,-0.369 -2.32,-1.069 -2.05,-2.03 -4.08,-4.07 -6.12,-6.101 l -2.91,-2.92 c -0.189,-0.189 -0.38,-0.369 -0.59,-0.56 l -0.31,-0.3 c -0.051,-0.051 -0.12,-0.07 -0.181,-0.07 -0.06,0 -0.13,0.03 -0.17,0.07 l -2.46,2.46 c -2.439,2.44 -4.87,4.86 -7.28,7.3 -0.81,0.811 -1.54,1.17 -2.369,1.17 -0.101,0 -0.19,0 -0.301,-0.01 -1.16,-0.12 -2,-0.76 -2.399,-1.86 -0.42,-1.14 -0.16,-2.2 0.79,-3.14 l 1.72,-1.721 c 2.43,-2.439 4.87,-4.869 7.31,-7.299 0.19,-0.181 0.42,-0.33 0.69,-0.5 0.14,-0.091 0.28,-0.19 0.43,-0.291 0.07,-0.039 0.101,-0.109 0.11,-0.18 0.01,-0.08 -0.021,-0.15 -0.07,-0.199 l -3.02,-3.011 c -2.4,-2.38 -4.721,-4.681 -7.03,-7 -1.31,-1.31 -1.49,-2.83 -0.479,-4.08 0.579,-0.71 1.35,-1.11 2.17,-1.11 0.779,0 1.54,0.351 2.199,1 2.721,2.681 5.45,5.431 8.101,8.09 l 1.09,1.101 c 0.16,0.149 0.29,0.34 0.45,0.56 0.08,0.11 0.17,0.23 0.26,0.36 0.05,0.05 0.12,0.091 0.19,0.091 l 0.01,0 c 0.069,0 0.13,-0.021 0.18,-0.07 l 2.49,-2.51 c 2.51,-2.521 4.96,-4.98 7.41,-7.451 0.779,-0.789 1.51,-1.16 2.279,-1.16 0.19,0 0.391,0.031 0.591,0.07 1.159,0.271 1.909,0.971 2.229,2.09 0.3,1.07 0.021,1.99 -0.899,2.92 -2.98,2.98 -5.961,5.961 -8.94,8.931 -0.2,0.2 -0.42,0.38 -0.7,0.601 -0.149,0.119 -0.32,0.25 -0.5,0.399 -0.06,0.04 -0.09,0.11 -0.09,0.181 0,0.069 0.02,0.139 0.08,0.189 0.49,0.47 0.96,0.93 1.43,1.369 1.01,0.971 1.971,1.881 2.91,2.811 1.97,1.939 3.91,3.881 5.71,5.7 0.739,0.75 1.129,1.569 1.119,2.379 z"
           id="path29"
           inkscape:connector-curvature="0"
           style="clip-rule:evenodd;fill:#ffffff;fill-rule:evenodd" /></g></g></g></svg>