<?xml version="1.0" encoding="UTF-8" standalone="no"?>
<!-- Generator: Adobe Illustrator 16.0.0, SVG Export Plug-In . SVG Version: 6.00 Build 0)  -->

<svg
   xmlns:dc="http://purl.org/dc/elements/1.1/"
   xmlns:cc="http://creativecommons.org/ns#"
   xmlns:rdf="http://www.w3.org/1999/02/22-rdf-syntax-ns#"
   xmlns:svg="http://www.w3.org/2000/svg"
   xmlns="http://www.w3.org/2000/svg"
   xmlns:sodipodi="http://sodipodi.sourceforge.net/DTD/sodipodi-0.dtd"
   xmlns:inkscape="http://www.inkscape.org/namespaces/inkscape"
   version="1.1"
   id="Calque_1"
   x="0px"
   y="0px"
   width="153"
   height="153"
   viewBox="0 0 153 152.99999"
   enable-background="new 0 0 841.89 595.28"
   xml:space="preserve"
   inkscape:version="0.91 r"
   sodipodi:docname="6.svg"><metadata
     id="metadata25"><rdf:RDF><cc:Work
         rdf:about=""><dc:format>image/svg+xml</dc:format><dc:type
           rdf:resource="http://purl.org/dc/dcmitype/StillImage" /><dc:title></dc:title></cc:Work></rdf:RDF></metadata><defs
     id="defs23" /><sodipodi:namedview
     pagecolor="#ffffff"
     bordercolor="#666666"
     borderopacity="1"
     objecttolerance="10"
     gridtolerance="10"
     guidetolerance="10"
     inkscape:pageopacity="0"
     inkscape:pageshadow="2"
     inkscape:window-width="721"
     inkscape:window-height="480"
     id="namedview21"
     showgrid="false"
     fit-margin-top="0"
     fit-margin-left="0"
     fit-margin-right="0"
     fit-margin-bottom="0"
     inkscape:zoom="0.37772155"
     inkscape:cx="76.5"
     inkscape:cy="76.5"
     inkscape:window-x="0"
     inkscape:window-y="0"
     inkscape:window-maximized="0"
     inkscape:current-layer="Calque_1" /><g
     id="g3"
     transform="translate(-344.44501,-221.14001)"><circle
       cx="420.94501"
       cy="297.64001"
       r="76.5"
       id="circle5"
       style="fill:#8bb31d" /><circle
       cx="420.94501"
       cy="297.64001"
       r="70.892998"
       id="circle7"
       style="fill:#417a3b" /><g
       id="g9"><path
         d="m 395.382,350.101 c 0,-3.23 0.176,-6.423 -0.044,-9.588 -0.273,-3.935 -0.86,-7.847 -1.351,-11.764 -0.043,-0.351 -0.288,-0.774 -0.572,-0.981 -2.108,-1.535 -3.293,-3.635 -3.805,-6.137 -0.142,-0.687 -0.465,-1.026 -1.105,-1.286 -1.339,-0.544 -2.663,-1.142 -3.943,-1.813 -2.229,-1.17 -3.234,-3.098 -3.343,-5.583 -0.137,-3.119 0.726,-6.02 1.809,-8.883 0.128,-0.339 0.224,-0.702 0.416,-1.001 1.687,-2.615 1.731,-5.389 1.287,-8.4 -0.56,-3.793 -0.642,-7.654 -0.991,-11.48 -0.041,-0.448 -0.369,-0.987 -0.732,-1.267 -0.997,-0.769 -1.703,-1.662 -1.861,-2.939 -0.185,-1.504 -0.381,-3.007 -0.568,-4.485 -2.875,-0.385 -2.875,-0.385 -2.848,-3.118 0.018,-1.833 0.086,-1.881 3.313,-2.25 -0.279,-0.231 -0.484,-0.403 -0.693,-0.571 -2.748,-2.196 -3.407,-5.615 -1.651,-8.669 0.325,-0.564 0.697,-1.104 1.084,-1.63 0.927,-1.258 1.579,-2.604 1.384,-4.509 1.179,1.379 1.118,2.819 1.217,4.235 1.968,-1.876 1.619,-5.088 -0.98,-8.802 3.125,0.688 4.934,2.761 6.305,5.328 1.383,2.588 1.799,5.312 0.855,8.35 1.699,-1.067 1.732,-2.683 1.998,-4.226 2.112,2.88 1.1,6.817 -2.528,10.343 1.03,0.27 2.337,0.294 3.153,0.938 0.516,0.406 0.373,1.737 0.395,2.656 0.031,1.372 -0.119,1.44 -3.205,1.98 2.4,5.556 4.775,11.056 7.204,16.675 3.026,-0.285 6.185,-0.582 9.491,-0.894 -1.4,-3.067 -2.73,-5.983 -4.063,-8.899 0.068,-0.102 0.137,-0.202 0.205,-0.304 0.368,0.151 0.775,0.246 1.1,0.464 2.045,1.378 4.071,2.783 6.105,4.178 0.348,0.238 0.706,0.463 1.172,0.768 0.92,-3.265 1.799,-6.389 2.678,-9.513 0.178,-0.002 0.354,-0.004 0.531,-0.006 0.881,3.12 1.761,6.24 2.691,9.535 1.134,-0.772 2.143,-1.456 3.148,-2.145 1.347,-0.922 2.68,-1.863 4.043,-2.76 0.333,-0.219 0.76,-0.293 1.144,-0.433 -0.062,0.389 -0.041,0.814 -0.195,1.161 -1.019,2.283 -2.076,4.549 -3.117,6.821 -0.146,0.322 -0.273,0.654 -0.468,1.123 3.359,0.33 6.604,0.649 9.851,0.969 0.024,0.118 0.048,0.236 0.072,0.354 -0.296,0.206 -0.57,0.454 -0.89,0.608 -1.925,0.931 -3.841,1.883 -5.802,2.731 -0.778,0.338 -1.063,0.787 -1.132,1.613 -0.295,3.591 -1.605,6.756 -4.219,9.296 -3.346,3.251 -7.023,3.246 -10.363,-0.005 -2.666,-2.596 -3.972,-5.826 -4.349,-9.483 -0.032,-0.319 -0.149,-0.795 -0.371,-0.904 -2.301,-1.129 -4.631,-2.197 -7.182,-3.39 0.208,0.854 0.337,1.478 0.513,2.087 1.133,3.918 2.603,7.685 4.963,11.055 3.186,4.548 7.388,7.104 13.097,7.064 2.267,-0.016 4.57,0.249 6.799,0.686 4.02,0.789 7.723,2.181 9.15,6.844 0.489,-0.816 0.88,-1.452 1.253,-2.097 0.854,-1.475 1.672,-2.97 2.556,-4.426 0.891,-1.468 2.492,-1.869 3.95,-0.97 3.825,2.362 7.637,4.746 11.435,7.151 1.571,0.994 1.882,2.497 0.885,4.134 -3.074,5.047 -6.145,10.097 -9.26,15.117 -2.164,3.487 -3.768,7.165 -4.198,11.344 -13.867,0.003 -27.712,0.003 -41.423,0.003 z m -11.014,-90.416 c 0.09,1.837 -0.795,2.954 -2.264,3.792 -0.754,0.431 -0.731,1.634 -0.108,2.319 0.696,0.768 1.616,0.933 2.587,0.754 0.893,-0.164 1.462,-0.707 1.715,-1.606 0.454,-1.61 -0.375,-4.072 -1.93,-5.259 z"
         id="path11"
         inkscape:connector-curvature="0"
         style="clip-rule:evenodd;fill:#ffffff;fill-rule:evenodd" /></g><text
       transform="translate(398.6626,261.7227)"
       font-size="12"
       id="text13"
       style="font-size:12px;font-family:CoconNextArabic-Light;fill:#ffffff">English</text>
<text
       transform="translate(437.0059,290.6816)"
       id="text15"><tspan
         x="0"
         y="0"
         font-size="10"
         id="tspan17"
         style="font-size:10px;font-family:CoconNextArabic-Light;fill:#ffffff">Statue</tspan><tspan
         x="-0.0020000001"
         y="12"
         font-size="10"
         id="tspan19"
         style="font-size:10px;font-family:CoconNextArabic-Light;fill:#ffffff">of Liberty</tspan></text>
</g></svg>