<?xml version="1.0" encoding="UTF-8" standalone="no"?>
<!-- Generator: Adobe Illustrator 16.0.0, SVG Export Plug-In . SVG Version: 6.00 Build 0)  -->

<svg
   xmlns:dc="http://purl.org/dc/elements/1.1/"
   xmlns:cc="http://creativecommons.org/ns#"
   xmlns:rdf="http://www.w3.org/1999/02/22-rdf-syntax-ns#"
   xmlns:svg="http://www.w3.org/2000/svg"
   xmlns="http://www.w3.org/2000/svg"
   xmlns:sodipodi="http://sodipodi.sourceforge.net/DTD/sodipodi-0.dtd"
   xmlns:inkscape="http://www.inkscape.org/namespaces/inkscape"
   version="1.1"
   id="Calque_1"
   x="0px"
   y="0px"
   width="153"
   height="153"
   viewBox="0 0 153 152.99999"
   enable-background="new 0 0 841.89 595.28"
   xml:space="preserve"
   inkscape:version="0.91 r"
   sodipodi:docname="7.svg"><metadata
     id="metadata25"><rdf:RDF><cc:Work
         rdf:about=""><dc:format>image/svg+xml</dc:format><dc:type
           rdf:resource="http://purl.org/dc/dcmitype/StillImage" /><dc:title></dc:title></cc:Work></rdf:RDF></metadata><defs
     id="defs23" /><sodipodi:namedview
     pagecolor="#ffffff"
     bordercolor="#666666"
     borderopacity="1"
     objecttolerance="10"
     gridtolerance="10"
     guidetolerance="10"
     inkscape:pageopacity="0"
     inkscape:pageshadow="2"
     inkscape:window-width="1366"
     inkscape:window-height="716"
     id="namedview21"
     showgrid="false"
     fit-margin-top="0"
     fit-margin-left="0"
     fit-margin-right="0"
     fit-margin-bottom="0"
     inkscape:zoom="0.37772155"
     inkscape:cx="-374.89071"
     inkscape:cy="76.500012"
     inkscape:window-x="0"
     inkscape:window-y="0"
     inkscape:window-maximized="1"
     inkscape:current-layer="Calque_1" /><g
     id="g3"
     transform="translate(-344.44501,-221.14002)"><circle
       cx="420.94501"
       cy="297.64001"
       r="76.5"
       id="circle5"
       style="fill:#8bb31d" /><circle
       cx="420.94501"
       cy="297.64001"
       r="70.892998"
       id="circle7"
       style="fill:#417a3b" /><g
       id="g9"><path
         d="m 387.517,312.44 0,2.455 c 0,3.096 -0.614,5.379 -1.843,6.847 -1.229,1.468 -3.171,2.202 -5.827,2.202 l -7.61,0 0,-0.809 c 0.839,-0.26 1.469,-0.5 1.887,-0.721 1.26,-0.657 1.889,-1.427 1.889,-2.305 l 1.139,0 c 0.199,0.759 0.533,1.293 1.004,1.603 0.469,0.31 1.183,0.465 2.141,0.465 1.219,0 2.108,-0.651 2.668,-1.948 0.479,-1.098 0.719,-2.618 0.719,-4.555 l 0,-7.071 c 0,-1.836 0.3,-3.475 0.898,-4.913 0.6,-1.437 1.578,-2.735 2.937,-3.895 0.998,-0.858 2.327,-1.657 3.984,-2.396 2.257,-0.998 3.465,-1.548 3.626,-1.647 1.178,-0.679 1.957,-1.508 2.336,-2.487 l 1.559,0 0,15.339 2.336,0 0,3.837 -13.843,0 z m 7.669,-3.836 0,-8.688 c -1.278,0.479 -2.297,0.894 -3.055,1.244 -0.76,0.349 -1.449,0.813 -2.067,1.392 -1.698,1.639 -2.547,3.657 -2.547,6.052 l 7.669,0 z"
         id="path11"
         inkscape:connector-curvature="0"
         style="fill:#ffffff" /><path
         d="m 406.332,308.604 0,-25.705 c 0,-0.738 -0.09,-1.348 -0.27,-1.827 -0.26,-0.699 -0.689,-1.049 -1.289,-1.049 -0.639,0 -1.229,0.229 -1.768,0.689 -0.22,0.18 -0.609,0.629 -1.168,1.348 l -0.359,-0.27 c 0.239,-1.178 0.599,-2.137 1.078,-2.876 0.76,-1.178 1.777,-1.768 3.056,-1.768 1.458,0 2.597,0.56 3.415,1.678 0.76,1.039 1.14,2.396 1.14,4.074 l 0,25.705 2.876,0 0,3.837 -11.684,0 0,-3.837 4.973,0 z m 3.835,-30.229 c -0.319,-0.659 -0.834,-1.203 -1.544,-1.633 -0.709,-0.43 -1.473,-0.645 -2.291,-0.645 l 0,-2.007 c 0,-0.999 -0.186,-1.928 -0.555,-2.786 -0.369,-0.859 -0.924,-1.589 -1.662,-2.188 l 0,-1.139 c 0.418,0 0.993,-0.289 1.723,-0.869 0.729,-0.579 1.273,-1.248 1.632,-2.007 0.36,-0.759 0.789,-1.408 1.288,-1.947 0.16,-0.16 0.361,-0.35 0.6,-0.569 l 0.81,0 0,15.79 z"
         id="path13"
         inkscape:connector-curvature="0"
         style="fill:#ffffff" /><path
         d="m 438.389,312.44 -2.936,0 c -1.496,0 -2.996,-0.44 -4.494,-1.32 -1.178,-0.698 -2.625,-1.856 -4.346,-3.475 -1.656,1.558 -3.115,2.707 -4.373,3.445 -1.537,0.9 -3.045,1.35 -4.524,1.35 l -4.673,0 0,-3.837 4.673,0 c 0.999,0 2.019,-0.327 3.058,-0.987 0.818,-0.519 1.848,-1.388 3.086,-2.606 -0.74,-0.521 -2.107,-1.178 -4.105,-1.978 -0.66,-0.26 -1.578,-0.61 -2.756,-1.049 0,-2.297 0.599,-4.255 1.797,-5.872 0.66,-0.879 1.979,-2.098 3.955,-3.655 1.877,-1.478 3.166,-2.746 3.863,-3.805 0.682,1.078 1.938,2.337 3.775,3.775 1.979,1.558 3.297,2.786 3.955,3.685 1.221,1.658 1.828,3.626 1.828,5.901 -1.178,0.421 -2.096,0.76 -2.756,1.02 -1.959,0.779 -3.316,1.448 -4.074,2.007 1.197,1.158 2.217,2.007 3.055,2.548 1.08,0.678 2.098,1.017 3.057,1.017 l 2.936,0 0,3.836 z m -6.291,-13.092 c -0.299,-0.78 -0.998,-1.648 -2.096,-2.607 -1.459,-1.158 -2.598,-2.087 -3.418,-2.786 -1.617,1.299 -2.756,2.228 -3.414,2.786 -1.1,0.939 -1.809,1.818 -2.127,2.637 0.697,0.28 1.586,0.699 2.666,1.258 1.357,0.7 2.316,1.259 2.875,1.677 0.561,-0.438 1.51,-0.997 2.848,-1.677 0.859,-0.44 1.748,-0.87 2.666,-1.288 z"
         id="path15"
         inkscape:connector-curvature="0"
         style="fill:#ffffff" /><path
         d="m 450.313,312.44 -11.924,0 0,-3.837 5.754,0 0,-4.913 c 0,-1.158 -0.291,-2.257 -0.869,-3.295 -0.4,-0.719 -0.85,-1.278 -1.348,-1.678 l 0,-1.139 c 0.42,0 0.992,-0.289 1.723,-0.868 0.729,-0.58 1.271,-1.249 1.633,-2.008 0.359,-0.759 0.787,-1.408 1.287,-1.947 0.16,-0.16 0.359,-0.35 0.6,-0.569 l 0.809,0 0,16.417 2.336,0 0,3.837 z m -3.264,-33.706 c 0,0.799 -0.285,1.483 -0.854,2.052 -0.57,0.569 -1.254,0.854 -2.053,0.854 -0.801,0 -1.484,-0.285 -2.053,-0.854 -0.568,-0.568 -0.854,-1.253 -0.854,-2.052 0,-0.799 0.285,-1.483 0.854,-2.053 0.568,-0.568 1.252,-0.854 2.053,-0.854 0.799,0 1.482,0.285 2.053,0.854 0.569,0.57 0.854,1.255 0.854,2.053 z m 0,7.79 c 0,0.799 -0.285,1.482 -0.854,2.052 -0.57,0.569 -1.254,0.854 -2.053,0.854 -0.801,0 -1.484,-0.285 -2.053,-0.854 -0.569,-0.569 -0.854,-1.253 -0.854,-2.052 0,-0.799 0.285,-1.483 0.854,-2.053 0.569,-0.57 1.252,-0.854 2.053,-0.854 0.799,0 1.482,0.285 2.053,0.854 0.569,0.57 0.854,1.255 0.854,2.053 z"
         id="path17"
         inkscape:connector-curvature="0"
         style="fill:#ffffff" /><path
         d="m 465.652,312.44 c 0,2.356 -0.508,4.192 -1.527,5.513 -1.119,1.437 -2.766,2.157 -4.943,2.157 -2.156,0 -3.795,-0.71 -4.912,-2.128 -1.041,-1.318 -1.559,-3.165 -1.559,-5.542 l -2.398,0 0,-3.837 6.232,0 0,3.837 c 0,1.178 0.244,2.112 0.734,2.801 0.488,0.689 1.123,1.033 1.902,1.033 0.738,0 1.363,-0.351 1.873,-1.049 0.51,-0.7 0.764,-1.627 0.764,-2.785 l 0,-11.806 c 0,-0.998 -0.186,-1.927 -0.555,-2.786 -0.369,-0.858 -0.924,-1.588 -1.662,-2.188 l 0,-1.138 c 0.42,0 0.992,-0.289 1.723,-0.869 0.729,-0.578 1.273,-1.248 1.633,-2.008 0.359,-0.758 0.789,-1.407 1.289,-1.947 0.158,-0.159 0.357,-0.349 0.598,-0.568 l 0.809,0 0,23.31 z m -4.763,-29.752 c 0,0.8 -0.285,1.483 -0.854,2.053 -0.569,0.57 -1.254,0.854 -2.051,0.854 -0.801,0 -1.484,-0.285 -2.053,-0.854 -0.57,-0.569 -0.855,-1.253 -0.855,-2.053 0,-0.798 0.285,-1.482 0.855,-2.052 0.568,-0.569 1.252,-0.854 2.053,-0.854 0.797,0 1.482,0.284 2.051,0.854 0.569,0.57 0.854,1.255 0.854,2.052 z"
         id="path19"
         inkscape:connector-curvature="0"
         style="fill:#ffffff" /></g></g></svg>